<svg width="32" height="32" viewBox="0 0 32 32" fill="none" xmlns="http://www.w3.org/2000/svg">
<circle cx="16" cy="16" r="16" fill="#2BAACA"/>
<path fill-rule="evenodd" clip-rule="evenodd" d="M16 10.1666C16.4602 10.1666 16.8333 10.5397 16.8333 11V15.1666H21C21.4602 15.1666 21.8333 15.5397 21.8333 16C21.8333 16.4602 21.4602 16.8333 21 16.8333H16.8333V21C16.8333 21.4602 16.4602 21.8333 16 21.8333C15.5397 21.8333 15.1666 21.4602 15.1666 21V16.8333H11C10.5397 16.8333 10.1666 16.4602 10.1666 16C10.1666 15.5397 10.5397 15.1666 11 15.1666H15.1666V11C15.1666 10.5397 15.5397 10.1666 16 10.1666Z" fill="white" stroke="white" stroke-linecap="round" stroke-linejoin="round"/>
</svg>
