<svg width="54" height="55" viewBox="0 0 54 55" fill="none" xmlns="http://www.w3.org/2000/svg">
<path d="M22.2298 9.86984C24.1375 6.45325 29.0533 6.45325 30.961 9.86983L43.7712 32.8124C45.6321 36.1453 43.2227 40.25 39.4056 40.25H13.7852C9.96804 40.25 7.5587 36.1453 9.41961 32.8124L22.2298 9.86984Z" fill="#FBC531" stroke="#353B48" stroke-width="2"/>
<path d="M27.4958 18.4545L27.3538 28.9091H25.7061L25.564 18.4545H27.4958ZM26.5299 33.1136C26.1796 33.1136 25.8789 32.9882 25.628 32.7372C25.377 32.4863 25.2515 32.1856 25.2515 31.8352C25.2515 31.4848 25.377 31.1842 25.628 30.9332C25.8789 30.6823 26.1796 30.5568 26.5299 30.5568C26.8803 30.5568 27.181 30.6823 27.4319 30.9332C27.6829 31.1842 27.8083 31.4848 27.8083 31.8352C27.8083 32.0672 27.7492 32.2803 27.6308 32.4744C27.5172 32.6686 27.3633 32.8248 27.1691 32.9432C26.9798 33.0568 26.7667 33.1136 26.5299 33.1136Z" fill="#353B48"/>
</svg>
