<svg width="29" height="22" viewBox="0 0 29 22" fill="none" xmlns="http://www.w3.org/2000/svg">
<g clip-path="url(#clip0_136_1207)">
<path d="M4.5876 0.182336C4.72862 0.308787 4.8132 0.485538 4.82277 0.673751C4.83233 0.861963 4.76609 1.04624 4.6386 1.18609L2.48653 3.55605C2.42318 3.62803 2.34364 3.68425 2.25434 3.72017C2.16503 3.75609 2.06845 3.7707 1.9724 3.76284C1.87383 3.77813 1.77293 3.76702 1.68016 3.73066C1.58739 3.6943 1.50612 3.63401 1.44478 3.55605L0.252962 2.37165C-0.0272599 2.12013 -0.0272599 1.66995 0.252962 1.3923C0.387581 1.25928 0.56994 1.18458 0.760057 1.18458C0.950174 1.18458 1.13253 1.25928 1.26715 1.3923L1.92784 2.04578L3.57458 0.235195C3.70188 0.0951393 3.88009 0.0108968 4.07005 0.000984784C4.26001 -0.00892723 4.44616 0.0563022 4.5876 0.182336ZM4.62629 5.161C4.69741 5.22472 4.75517 5.3017 4.79625 5.38754C4.83734 5.47338 4.86095 5.5664 4.86574 5.66129C4.87053 5.75618 4.85641 5.85107 4.82417 5.94054C4.79194 6.03002 4.74223 6.11232 4.67788 6.18276L2.48946 8.59396C2.42496 8.66728 2.34398 8.72456 2.25305 8.76118C2.16212 8.7978 2.06378 8.81275 1.96595 8.80482C1.86597 8.81972 1.76379 8.80805 1.66986 8.77101C1.57592 8.73396 1.4936 8.67286 1.4313 8.59396L0.213684 7.38807C-0.0712279 7.13191 -0.0712279 6.67418 0.213684 6.39071C0.351169 6.25616 0.536626 6.18071 0.729866 6.18071C0.923106 6.18071 1.10856 6.25616 1.24605 6.39071L1.91846 7.05697L3.5951 5.21038C3.72498 5.06811 3.90654 4.98275 4.0999 4.97306C4.29326 4.96337 4.48259 5.03013 4.62629 5.15868V5.161ZM5.98988 6.99889C5.98988 6.50572 6.34514 6.1055 6.78482 6.1055H12.3506C12.7902 6.1055 13.1455 6.50572 13.1455 6.99889C13.1455 7.49205 12.7902 7.89169 12.3506 7.89169H6.78482C6.34514 7.89169 5.98988 7.49263 5.98988 6.99889ZM0.00029316 12.0403C0.000177217 11.7392 0.0901748 11.4449 0.258902 11.1946C0.427629 10.9442 0.667504 10.749 0.948185 10.6338C1.22887 10.5185 1.53774 10.4883 1.83574 10.547C2.13374 10.6057 2.40747 10.7507 2.62231 10.9636C2.83715 11.1764 2.98345 11.4477 3.04269 11.7429C3.10194 12.0382 3.07147 12.3443 2.95515 12.6224C2.83882 12.9005 2.64187 13.1382 2.38919 13.3054C2.13652 13.4725 1.83948 13.5617 1.53565 13.5616C1.1285 13.5614 0.738062 13.4011 0.45016 13.1158C0.162259 12.8306 0.000448533 12.4437 0.00029316 12.0403ZM6.61071 1.88488C6.61071 1.3923 6.9349 0.992074 7.33706 0.992074H12.4197C12.8213 0.992074 13.1455 1.3923 13.1455 1.88488C13.1455 2.37746 12.8213 2.77826 12.4197 2.77826H7.33706C6.9349 2.77826 6.61071 2.3792 6.61071 1.88488ZM5.59769 11.9729C5.59769 11.471 5.9723 11.0644 6.4366 11.0644H12.3072C12.7709 11.0644 13.1455 11.471 13.1455 11.9729C13.1455 12.4748 12.7709 12.8808 12.3072 12.8808H6.4366C5.9723 12.8808 5.59769 12.4742 5.59769 11.9729Z" fill="white"/>
<path d="M22.4335 14.1914H18.5913C16.8499 14.1914 15.1798 14.8768 13.9485 16.0969C12.7171 17.317 12.0254 18.9717 12.0254 20.6972C12.0255 21.0422 12.164 21.373 12.4102 21.6168C12.6565 21.8607 12.9904 21.9977 13.3386 21.9977H27.685C27.8577 21.998 28.0288 21.9644 28.1884 21.899C28.348 21.8336 28.493 21.7376 28.6151 21.6166C28.7372 21.4956 28.834 21.3518 28.8999 21.1937C28.9658 21.0355 28.9996 20.866 28.9993 20.6948C28.9987 18.9698 28.3067 17.3156 27.0754 16.0961C25.8441 14.8765 24.1744 14.1914 22.4335 14.1914ZM20.5124 12.3907C21.4716 12.3907 22.4093 12.1088 23.2069 11.5807C24.0045 11.0527 24.6261 10.3021 24.9932 9.42398C25.3602 8.54585 25.4562 7.57958 25.2691 6.64738C25.0819 5.71517 24.6199 4.8589 23.9416 4.18686C23.2632 3.51481 22.399 3.05717 21.4582 2.87181C20.5173 2.68645 19.5422 2.7817 18.656 3.14551C17.7698 3.50932 17.0123 4.12535 16.4795 4.9157C15.9466 5.70605 15.6623 6.63521 15.6624 7.58569C15.663 8.8598 16.1743 10.0815 17.0838 10.9822C17.9932 11.883 19.2265 12.3889 20.5124 12.3889V12.3907Z" fill="white"/>
</g>
<defs>
<clipPath id="clip0_136_1207">
<rect width="29" height="22" fill="white"/>
</clipPath>
</defs>
</svg>
