<svg width="16" height="16" viewBox="0 0 16 16" fill="none" xmlns="http://www.w3.org/2000/svg">
<path d="M15 7.76873L8.05668 14.2033C7.78728 14.4556 7.46586 14.6559 7.11122 14.7927C6.75657 14.9295 6.37581 15 5.99119 15C5.60657 15 5.22581 14.9295 4.87117 14.7927C4.51652 14.6559 4.1951 14.4556 3.9257 14.2033L1.84854 12.2622C1.30478 11.7546 1 11.0709 1 10.3586C1 9.64636 1.30478 8.96264 1.84854 8.45508L9.24696 1.63444C9.46393 1.43341 9.72206 1.27385 10.0065 1.16495C10.2909 1.05606 10.5959 1 10.904 1C11.2121 1 11.5172 1.05606 11.8016 1.16495C12.086 1.27385 12.3441 1.43341 12.5611 1.63444L13.3896 2.39587C13.6084 2.59526 13.782 2.83248 13.9005 3.09385C14.019 3.35522 14.08 3.63557 14.08 3.91871C14.08 4.20186 14.019 4.4822 13.9005 4.74357C13.782 5.00494 13.6084 5.24217 13.3896 5.44156L6.83139 11.49C6.72291 11.5906 6.59384 11.6703 6.45164 11.7248C6.30944 11.7792 6.15691 11.8073 6.00286 11.8073C5.84881 11.8073 5.69628 11.7792 5.55408 11.7248C5.41188 11.6703 5.28281 11.5906 5.17433 11.49L4.7659 11.104C4.65653 11.0043 4.56971 10.8857 4.51047 10.755C4.45122 10.6243 4.42072 10.4841 4.42072 10.3426C4.42072 10.201 4.45122 10.0608 4.51047 9.93012C4.56971 9.79944 4.65653 9.68082 4.7659 9.58113L9.16528 5.57025" stroke="#2F3640" stroke-width="1.5" stroke-linecap="round" stroke-linejoin="round"/>
</svg>
