<svg width="19" height="21" viewBox="0 0 19 21" fill="none" xmlns="http://www.w3.org/2000/svg">
<path d="M18.1515 10.0166L9.95237 18.588C9.63424 18.924 9.25469 19.191 8.8359 19.3732C8.41711 19.5554 7.96749 19.6493 7.51331 19.6493C7.05912 19.6493 6.6095 19.5554 6.19071 19.3732C5.77192 19.191 5.39237 18.924 5.07424 18.588L2.6214 16.0023C1.97928 15.3262 1.61938 14.4154 1.61938 13.4666C1.61938 12.5177 1.97928 11.607 2.6214 10.9309L11.3579 1.84514C11.6141 1.57734 11.919 1.36479 12.2548 1.21973C12.5906 1.07468 12.9509 1 13.3147 1C13.6785 1 14.0387 1.07468 14.3746 1.21973C14.7104 1.36479 15.0153 1.57734 15.2715 1.84514L16.2498 2.85942C16.5082 3.12503 16.7132 3.44104 16.8531 3.78921C16.993 4.13737 17.0651 4.51082 17.0651 4.888C17.0651 5.26517 16.993 5.63862 16.8531 5.98679C16.7132 6.33495 16.5082 6.65096 16.2498 6.91657L8.50547 14.9737C8.37736 15.1076 8.22495 15.2139 8.05703 15.2864C7.88911 15.3589 7.709 15.3963 7.52708 15.3963C7.34517 15.3963 7.16506 15.3589 6.99714 15.2864C6.82921 15.2139 6.67681 15.1076 6.5487 14.9737L6.0664 14.4594C5.93724 14.3266 5.83473 14.1686 5.76477 13.9945C5.69481 13.8204 5.65879 13.6337 5.65879 13.4451C5.65879 13.2565 5.69481 13.0698 5.76477 12.8957C5.83473 12.7217 5.93724 12.5637 6.0664 12.4309L11.2615 7.088" stroke="#B2B2BB" stroke-width="1.5" stroke-linecap="round" stroke-linejoin="round"/>
</svg>
