<svg width="34" height="41" viewBox="0 0 34 41" fill="none" xmlns="http://www.w3.org/2000/svg">
<g clip-path="url(#clip0_713_339)">
<path d="M23 37.02C22.108 39.34 19.7504 41 16.9894 41C15.3115 41 13.6549 40.36 12.4867 39.22C11.8071 38.62 11.2973 37.82 11 37C11.2761 37.04 11.5522 37.06 11.8496 37.1C12.3381 37.16 12.8478 37.22 13.3575 37.26C14.5681 37.36 15.8 37.42 17.0319 37.42C18.2425 37.42 19.4531 37.36 20.6425 37.26C21.0885 37.22 21.5345 37.2 21.9593 37.14C22.2991 37.1 22.6389 37.06 23 37.02Z" fill="#024089"/>
<path d="M22 3C20.4494 2.38636 18.764 2.04545 16.9888 2.04545C15.236 2.04545 13.5506 2.36364 12 3C12.9663 1.15909 14.8764 0 16.9888 0C19.1236 0 21.0112 1.15909 22 3Z" fill="#024089"/>
<path opacity="0.4" d="M33.2171 25.7559L31.0069 22.3534C30.5428 21.595 30.1229 20.1602 30.1229 19.3199V14.1342C30.1229 7.45217 24.266 2 17.0388 2C9.81168 2 3.95481 7.45217 3.95481 14.1342V19.3199C3.95481 20.1602 3.53489 21.595 3.07076 22.3329L0.838518 25.7559C-0.0455375 27.1292 -0.244451 28.646 0.308084 30.0398C0.838517 31.413 2.0983 32.4789 3.7338 32.9913C8.02147 34.3441 12.5302 35 17.0388 35C21.5475 35 26.0562 34.3441 30.3439 33.0118C31.891 32.5404 33.0844 31.454 33.6591 30.0398C34.2337 28.6255 34.079 27.0677 33.2171 25.7559Z" fill="#024089"/>
</g>
<defs>
<clipPath id="clip0_713_339">
<rect width="34" height="41" fill="white"/>
</clipPath>
</defs>
</svg>
