<svg width="100" height="100" viewBox="0 0 100 100" fill="none" xmlns="http://www.w3.org/2000/svg">
<g id="react-icons/bi/BiNetworkChart" filter="url(#filter0_d_202_89)">
<path id="Vector" d="M79.1667 12.5C72.275 12.5 66.6667 18.1083 66.6667 25C66.6667 27.0917 67.2333 29.0333 68.1417 30.7708L63.4917 36.1958C60.741 34.3275 57.4918 33.3301 54.1667 33.3333C51.0875 33.3333 48.2292 34.2333 45.75 35.6917L39.8583 29.8C41.0287 27.6935 41.6506 25.3264 41.6667 22.9167C41.6667 14.875 35.125 8.33334 27.0833 8.33334C19.0417 8.33334 12.5 14.875 12.5 22.9167C12.5 30.9583 19.0417 37.5 27.0833 37.5C29.5875 37.5 31.9083 36.8083 33.9667 35.6917L39.8583 41.5833C38.3322 44.1269 37.5176 47.0338 37.5 50C37.5 54.1542 39.0833 57.9125 41.6042 60.8375L34.5542 67.8875L34.6583 67.9917C32.9548 67.1314 31.075 66.6778 29.1667 66.6667C22.275 66.6667 16.6667 72.275 16.6667 79.1667C16.6667 86.0583 22.275 91.6667 29.1667 91.6667C36.0583 91.6667 41.6667 86.0583 41.6667 79.1667C41.6667 77.1833 41.1625 75.3375 40.3417 73.675L40.4458 73.7792L48.5875 65.6375C50.3417 66.2625 52.2 66.6667 54.1667 66.6667C63.3583 66.6667 70.8333 59.1917 70.8333 50C70.8154 47.4117 70.1888 44.8639 69.0042 42.5625L74.225 36.4708C75.7417 37.1292 77.4083 37.5 79.1667 37.5C86.0583 37.5 91.6667 31.8917 91.6667 25C91.6667 18.1083 86.0583 12.5 79.1667 12.5ZM29.1667 83.3333C28.0616 83.3333 27.0018 82.8944 26.2204 82.113C25.439 81.3316 25 80.2717 25 79.1667C25 78.0616 25.439 77.0018 26.2204 76.2204C27.0018 75.439 28.0616 75 29.1667 75C30.2717 75 31.3315 75.439 32.1129 76.2204C32.8943 77.0018 33.3333 78.0616 33.3333 79.1667C33.3333 80.2717 32.8943 81.3316 32.1129 82.113C31.3315 82.8944 30.2717 83.3333 29.1667 83.3333ZM20.8333 22.9167C20.8333 19.4708 23.6375 16.6667 27.0833 16.6667C30.5292 16.6667 33.3333 19.4708 33.3333 22.9167C33.3333 26.3625 30.5292 29.1667 27.0833 29.1667C23.6375 29.1667 20.8333 26.3625 20.8333 22.9167ZM54.1667 58.3333C49.5708 58.3333 45.8333 54.5958 45.8333 50C45.8333 45.4042 49.5708 41.6667 54.1667 41.6667C58.7625 41.6667 62.5 45.4042 62.5 50C62.5 54.5958 58.7625 58.3333 54.1667 58.3333ZM79.1667 29.1667C78.0616 29.1667 77.0018 28.7277 76.2204 27.9463C75.439 27.1649 75 26.1051 75 25C75 23.8949 75.439 22.8351 76.2204 22.0537C77.0018 21.2723 78.0616 20.8333 79.1667 20.8333C80.2717 20.8333 81.3315 21.2723 82.1129 22.0537C82.8943 22.8351 83.3333 23.8949 83.3333 25C83.3333 26.1051 82.8943 27.1649 82.1129 27.9463C81.3315 28.7277 80.2717 29.1667 79.1667 29.1667Z" fill="#024089"/>
</g>
<defs>
<filter id="filter0_d_202_89" x="-4" y="0" width="108" height="108" filterUnits="userSpaceOnUse" color-interpolation-filters="sRGB">
<feFlood flood-opacity="0" result="BackgroundImageFix"/>
<feColorMatrix in="SourceAlpha" type="matrix" values="0 0 0 0 0 0 0 0 0 0 0 0 0 0 0 0 0 0 127 0" result="hardAlpha"/>
<feOffset dy="4"/>
<feGaussianBlur stdDeviation="2"/>
<feComposite in2="hardAlpha" operator="out"/>
<feColorMatrix type="matrix" values="0 0 0 0 0 0 0 0 0 0 0 0 0 0 0 0 0 0 0.25 0"/>
<feBlend mode="normal" in2="BackgroundImageFix" result="effect1_dropShadow_202_89"/>
<feBlend mode="normal" in="SourceGraphic" in2="effect1_dropShadow_202_89" result="shape"/>
</filter>
</defs>
</svg>
