<svg width="130" height="130" viewBox="0 0 130 130" fill="none" xmlns="http://www.w3.org/2000/svg">
<g id="react-icons/bi/BiShapeCircle">
<path id="Vector" d="M105.593 49.021C103.375 43.4628 100.049 38.4142 95.8176 34.1826C91.586 29.9511 86.5374 26.6253 80.9792 24.4077C79.6955 16.7268 73.0438 10.8335 65 10.8335C56.9563 10.8335 50.3046 16.7268 49.0209 24.4077C43.462 26.6242 38.4128 29.9496 34.1812 34.1813C29.9495 38.4129 26.624 43.4621 24.4075 49.021C16.7267 50.3047 10.8334 56.9564 10.8334 65.0002C10.8334 73.0439 16.7267 79.6956 24.4075 80.9793C26.6251 86.5375 29.951 91.5862 34.1825 95.8177C38.414 100.049 43.4627 103.375 49.0209 105.593C50.3046 113.273 56.9563 119.167 65 119.167C73.0438 119.167 79.6955 113.273 80.9792 105.593C86.5374 103.375 91.586 100.049 95.8176 95.8177C100.049 91.5862 103.375 86.5375 105.593 80.9793C113.273 79.6956 119.167 73.0439 119.167 65.0002C119.167 56.9564 113.273 50.3047 105.593 49.021ZM65 21.6668C66.4366 21.6668 67.8144 22.2375 68.8302 23.2533C69.846 24.2692 70.4167 25.6469 70.4167 27.0835C70.4167 27.4085 70.2921 27.6793 70.2325 27.9881C70.1561 28.5108 70.0047 29.0198 69.783 29.4993C69.7071 29.6456 69.5988 29.7647 69.5067 29.9056C69.2659 30.3174 68.9748 30.6977 68.64 31.0377C68.4234 31.2381 68.1525 31.3735 67.9034 31.536C67.6109 31.731 67.34 31.9585 67.0096 32.0939C66.3867 32.3485 65.715 32.5002 65 32.5002C64.285 32.5002 63.6134 32.3485 62.9905 32.0939C62.66 31.9639 62.3892 31.7364 62.0967 31.536C61.8475 31.3735 61.5767 31.2381 61.36 31.0377C61.0253 30.6977 60.7342 30.3174 60.4934 29.9056C60.4013 29.7647 60.293 29.6456 60.2171 29.4993C59.9962 29.0195 59.8448 28.5106 59.7675 27.9881C59.708 27.6793 59.5834 27.4085 59.5834 27.0835C59.5834 25.6469 60.1541 24.2692 61.1699 23.2533C62.1857 22.2375 63.5634 21.6668 65 21.6668ZM27.0834 59.5835C27.4084 59.5835 27.6792 59.7081 27.988 59.7677C28.5242 59.8597 29.0388 59.9897 29.4992 60.2172C29.6455 60.2931 29.7646 60.4014 29.9055 60.4935C30.3117 60.7481 30.7125 61.0189 31.0375 61.3602C31.238 61.5768 31.3734 61.8477 31.5359 62.0968C31.7309 62.3893 31.9584 62.6602 32.0938 62.9906C32.3484 63.6135 32.5 64.2852 32.5 65.0002C32.5 65.7152 32.3484 66.3868 32.0938 67.0097C31.9638 67.3402 31.7363 67.611 31.5359 67.9035C31.3734 68.1527 31.238 68.4235 31.0375 68.6402C30.7125 68.9814 30.3117 69.2522 29.9055 69.5068C29.7646 69.5989 29.6455 69.7072 29.4992 69.7831C29.0194 70.004 28.5105 70.1554 27.988 70.2327C27.6792 70.2922 27.4084 70.4168 27.0834 70.4168C25.6468 70.4168 24.269 69.8461 23.2532 68.8303C22.2374 67.8145 21.6667 66.4368 21.6667 65.0002C21.6667 63.5636 22.2374 62.1858 23.2532 61.17C24.269 60.1542 25.6468 59.5835 27.0834 59.5835ZM65 108.333C63.5634 108.333 62.1857 107.763 61.1699 106.747C60.1541 105.731 59.5834 104.353 59.5834 102.917C59.5834 102.592 59.708 102.321 59.7675 102.012C59.8596 101.476 59.9896 100.961 60.2171 100.501C60.293 100.355 60.4013 100.236 60.4934 100.095C60.748 99.6885 61.0188 99.2877 61.36 98.9627C61.5767 98.7622 61.8475 98.6268 62.0967 98.4643C62.3892 98.2693 62.66 98.0418 62.9905 97.9064C63.6134 97.6518 64.285 97.5002 65 97.5002C65.715 97.5002 66.3867 97.6518 67.0096 97.9064C67.34 98.0364 67.6109 98.2639 67.9034 98.4643C68.1525 98.6268 68.4234 98.7622 68.64 98.9627C68.9813 99.2877 69.2521 99.6885 69.5067 100.095C69.5988 100.236 69.7071 100.355 69.783 100.501C70.0105 100.961 70.1405 101.481 70.2325 102.012C70.2921 102.321 70.4167 102.592 70.4167 102.917C70.4167 104.353 69.846 105.731 68.8302 106.747C67.8144 107.763 66.4366 108.333 65 108.333ZM78.9913 94.7268C78.9588 94.6673 78.8992 94.6239 78.8721 94.5697C77.5338 92.3479 75.6841 90.4779 73.4771 89.1152C73.1846 88.9364 72.8867 88.7902 72.578 88.6277C71.736 88.1784 70.8548 87.8067 69.9455 87.5172C69.5988 87.4035 69.2521 87.2789 68.8946 87.1868C67.6325 86.8781 66.3434 86.6668 65 86.6668C63.6567 86.6668 62.3675 86.8781 61.1109 87.1922C60.7534 87.2843 60.4067 87.4035 60.0546 87.5227C59.1474 87.8132 58.2681 88.1848 57.4275 88.6331C57.1242 88.7902 56.8209 88.9418 56.5284 89.1206C54.3214 90.4833 52.4717 92.3533 51.1334 94.5752C51.1009 94.6347 51.0413 94.6781 51.0142 94.7322C44.1204 91.4459 38.5652 85.8906 35.2788 78.9968C35.3384 78.9643 35.3817 78.9047 35.4359 78.8777C37.6577 77.5393 39.5278 75.6897 40.8905 73.4827C41.0692 73.1902 41.2209 72.8868 41.378 72.5835C41.8275 71.7493 42.1905 70.8718 42.4884 69.9564C42.6021 69.6043 42.7267 69.2577 42.8188 68.9002C43.1221 67.6327 43.3334 66.3435 43.3334 65.0002C43.3334 63.6568 43.1221 62.3677 42.808 61.111C42.7117 60.7565 42.6015 60.4059 42.4775 60.0602C42.1881 59.1508 41.8164 58.2696 41.3671 57.4277C41.2046 57.1189 41.0584 56.821 40.8796 56.5285C39.5169 54.3215 37.6469 52.4719 35.425 51.1335C35.3709 51.101 35.3275 51.0414 35.2734 51.0089C38.5597 44.1151 44.115 38.5599 51.0088 35.2735C51.0413 35.3277 51.1009 35.371 51.128 35.4306C52.4713 37.6568 54.313 39.5202 56.523 40.8852C56.8155 41.0639 57.1188 41.2156 57.4221 41.3727C58.2617 41.8222 59.1338 42.1852 60.0546 42.4831C60.4013 42.5968 60.748 42.7214 61.1055 42.8135C62.3675 43.1222 63.6513 43.3335 65 43.3335C66.6816 43.3108 68.3489 43.022 69.94 42.4777C70.8609 42.1797 71.733 41.8168 72.5725 41.3672C72.8759 41.2102 73.1792 41.0585 73.4717 40.8797C75.6817 39.5147 77.5234 37.6514 78.8667 35.4252C78.8992 35.3656 78.9588 35.3222 78.9859 35.2681C85.8797 38.5544 91.4349 44.1097 94.7213 51.0035C94.6617 51.036 94.6184 51.0956 94.5642 51.1227C92.3424 52.461 90.4723 54.3107 89.1096 56.5177C88.9309 56.8102 88.7792 57.1135 88.6221 57.4168C88.1725 58.2564 87.8096 59.1285 87.5117 60.0493C87.398 60.396 87.2734 60.7427 87.1813 61.1002C86.8561 62.3752 86.6833 63.6844 86.6667 65.0002C86.6894 66.6817 86.9782 68.349 87.5225 69.9402C87.8205 70.861 88.1834 71.7331 88.633 72.5727C88.79 72.876 88.9417 73.1793 89.1205 73.4718C90.4855 75.6818 92.3488 77.5235 94.575 78.8668C94.6346 78.8993 94.678 78.9589 94.7321 78.986C91.4472 85.884 85.8893 91.4419 78.9913 94.7268ZM102.917 70.4168C102.592 70.4168 102.321 70.2922 102.012 70.2327C101.489 70.1562 100.98 70.0048 100.501 69.7831C100.355 69.7072 100.235 69.5989 100.095 69.5068C99.6828 69.266 99.3025 68.9749 98.9625 68.6402C98.7621 68.4235 98.6267 68.1527 98.4642 67.9035C98.2692 67.611 98.0417 67.3402 97.9063 67.0097C97.6517 66.3868 97.5 65.7152 97.5 65.0002C97.5 64.2852 97.6517 63.6135 97.9063 62.9906C98.0363 62.6602 98.2638 62.3893 98.4642 62.0968C98.6267 61.8477 98.7621 61.5768 98.9625 61.3602C99.2875 61.0189 99.6884 60.7481 100.095 60.4935C100.235 60.4014 100.355 60.2931 100.501 60.2172C100.961 59.9897 101.481 59.8597 102.012 59.7677C102.321 59.7081 102.592 59.5835 102.917 59.5835C104.353 59.5835 105.731 60.1542 106.747 61.17C107.763 62.1858 108.333 63.5636 108.333 65.0002C108.333 66.4368 107.763 67.8145 106.747 68.8303C105.731 69.8461 104.353 70.4168 102.917 70.4168Z" fill="#024089"/>
</g>
</svg>
