<svg width="23" height="23" viewBox="0 0 23 23" fill="none" xmlns="http://www.w3.org/2000/svg">
<path d="M2.875 8.625H20.125M6.70833 2.875V4.79167M16.2917 2.875V4.79167M5.75 12.4583H7.66667M5.75 16.2917H7.66667M10.5417 12.4583H12.4583M10.5417 16.2917H12.4583M15.3333 12.4583H17.25M15.3333 16.2917H17.25M5.94167 20.125H17.0583C18.1318 20.125 18.6685 20.125 19.0785 19.9161C19.4391 19.7323 19.7323 19.4391 19.9161 19.0785C20.125 18.6685 20.125 18.1318 20.125 17.0583V7.85833C20.125 6.7849 20.125 6.24818 19.9161 5.83818C19.7323 5.47754 19.4391 5.18433 19.0785 5.00057C18.6685 4.79167 18.1318 4.79167 17.0583 4.79167H5.94167C4.86823 4.79167 4.33152 4.79167 3.92152 5.00057C3.56087 5.18433 3.26766 5.47754 3.0839 5.83818C2.875 6.24818 2.875 6.7849 2.875 7.85833V17.0583C2.875 18.1318 2.875 18.6685 3.0839 19.0785C3.26766 19.4391 3.56087 19.7323 3.92152 19.9161C4.33152 20.125 4.86823 20.125 5.94167 20.125Z" stroke="#024089" stroke-linecap="round" stroke-linejoin="round"/>
</svg>
