<svg width="15" height="15" viewBox="0 0 15 15" fill="none" xmlns="http://www.w3.org/2000/svg">
<path d="M6.40163 10.1961L3.75 7.54439L4.63388 6.66051L6.40163 8.42832L9.93719 4.89276L10.8211 5.77665L6.40163 10.1961Z" fill="#2F3640"/>
<path fill-rule="evenodd" clip-rule="evenodd" d="M0.625 7.5C0.625 3.70304 3.70304 0.625 7.5 0.625C11.2969 0.625 14.375 3.70304 14.375 7.5C14.375 11.2969 11.2969 14.375 7.5 14.375C3.70304 14.375 0.625 11.2969 0.625 7.5ZM7.5 13.125C4.3934 13.125 1.875 10.6066 1.875 7.5C1.875 4.3934 4.3934 1.875 7.5 1.875C10.6066 1.875 13.125 4.3934 13.125 7.5C13.125 10.6066 10.6066 13.125 7.5 13.125Z" fill="#2F3640"/>
</svg>
