<svg width="100" height="104" viewBox="0 0 100 104" fill="none" xmlns="http://www.w3.org/2000/svg">
<g id="react-icons/fi/FiClock" filter="url(#filter0_d_199_2511)">
<path id="Vector (Stroke)" fill-rule="evenodd" clip-rule="evenodd" d="M50.0001 12.5C29.2894 12.5 12.5001 29.2893 12.5001 50C12.5001 70.7107 29.2894 87.5 50.0001 87.5C70.7108 87.5 87.5001 70.7107 87.5001 50C87.5001 29.2893 70.7108 12.5 50.0001 12.5ZM4.16675 50C4.16675 24.6869 24.687 4.16667 50.0001 4.16667C75.3131 4.16667 95.8334 24.6869 95.8334 50C95.8334 75.3131 75.3131 95.8333 50.0001 95.8333C24.687 95.8333 4.16675 75.3131 4.16675 50Z" fill="#024089"/>
<path id="Vector (Stroke)_2" fill-rule="evenodd" clip-rule="evenodd" d="M49.9999 20.8333C52.3011 20.8333 54.1666 22.6988 54.1666 25V47.4249L68.53 54.6066C70.5882 55.6357 71.4225 58.1385 70.3934 60.1967C69.3642 62.255 66.8614 63.0892 64.8032 62.0601L48.1365 53.7268C46.7249 53.021 45.8333 51.5782 45.8333 50V25C45.8333 22.6988 47.6987 20.8333 49.9999 20.8333Z" fill="#024089"/>
</g>
<defs>
<filter id="filter0_d_199_2511" x="-4" y="0" width="108" height="108" filterUnits="userSpaceOnUse" color-interpolation-filters="sRGB">
<feFlood flood-opacity="0" result="BackgroundImageFix"/>
<feColorMatrix in="SourceAlpha" type="matrix" values="0 0 0 0 0 0 0 0 0 0 0 0 0 0 0 0 0 0 127 0" result="hardAlpha"/>
<feOffset dy="4"/>
<feGaussianBlur stdDeviation="2"/>
<feComposite in2="hardAlpha" operator="out"/>
<feColorMatrix type="matrix" values="0 0 0 0 0 0 0 0 0 0 0 0 0 0 0 0 0 0 0.25 0"/>
<feBlend mode="normal" in2="BackgroundImageFix" result="effect1_dropShadow_199_2511"/>
<feBlend mode="normal" in="SourceGraphic" in2="effect1_dropShadow_199_2511" result="shape"/>
</filter>
</defs>
</svg>
