<svg width="100" height="100" viewBox="0 0 100 100" fill="none" xmlns="http://www.w3.org/2000/svg">
<g id="react-icons/hi/HiOutlineOfficeBuilding" filter="url(#filter0_d_193_1302)">
<path id="Vector (Stroke)" fill-rule="evenodd" clip-rule="evenodd" d="M20.3277 11.9945C22.672 9.6503 25.8514 8.33334 29.1666 8.33334H70.8332C74.1485 8.33334 77.3279 9.6503 79.6721 11.9945C82.0163 14.3387 83.3333 17.5181 83.3333 20.8333V83.3333H87.4999C89.8011 83.3333 91.6666 85.1988 91.6666 87.5C91.6666 89.8012 89.8011 91.6667 87.4999 91.6667H12.4999C10.1987 91.6667 8.33325 89.8012 8.33325 87.5C8.33325 85.1988 10.1987 83.3333 12.4999 83.3333H16.6666V20.8333C16.6666 17.5181 17.9835 14.3387 20.3277 11.9945ZM24.9999 83.3333H37.4999V66.6667C37.4999 64.4565 38.3779 62.3369 39.9407 60.7741C41.5035 59.2113 43.6231 58.3333 45.8333 58.3333H54.1666C56.3767 58.3333 58.4963 59.2113 60.0591 60.7741C61.6219 62.3369 62.4999 64.4565 62.4999 66.6667V83.3333H74.9999V20.8333C74.9999 19.7283 74.5609 18.6685 73.7795 17.8871C72.9981 17.1057 71.9383 16.6667 70.8332 16.6667H29.1666C28.0615 16.6667 27.0017 17.1057 26.2203 17.8871C25.4389 18.6685 24.9999 19.7283 24.9999 20.8333V83.3333ZM54.1666 83.3333V66.6667H45.8333V83.3333H54.1666ZM33.3333 29.1667C33.3333 26.8655 35.1987 25 37.4999 25H41.6666C43.9678 25 45.8333 26.8655 45.8333 29.1667C45.8333 31.4679 43.9678 33.3333 41.6666 33.3333H37.4999C35.1987 33.3333 33.3333 31.4679 33.3333 29.1667ZM54.1666 29.1667C54.1666 26.8655 56.0321 25 58.3333 25H62.4999C64.8011 25 66.6666 26.8655 66.6666 29.1667C66.6666 31.4679 64.8011 33.3333 62.4999 33.3333H58.3333C56.0321 33.3333 54.1666 31.4679 54.1666 29.1667ZM33.3333 45.8333C33.3333 43.5322 35.1987 41.6667 37.4999 41.6667H41.6666C43.9678 41.6667 45.8333 43.5322 45.8333 45.8333C45.8333 48.1345 43.9678 50 41.6666 50H37.4999C35.1987 50 33.3333 48.1345 33.3333 45.8333ZM54.1666 45.8333C54.1666 43.5322 56.0321 41.6667 58.3333 41.6667H62.4999C64.8011 41.6667 66.6666 43.5322 66.6666 45.8333C66.6666 48.1345 64.8011 50 62.4999 50H58.3333C56.0321 50 54.1666 48.1345 54.1666 45.8333Z" fill="#024089"/>
</g>
<defs>
<filter id="filter0_d_193_1302" x="-4" y="0" width="108" height="108" filterUnits="userSpaceOnUse" color-interpolation-filters="sRGB">
<feFlood flood-opacity="0" result="BackgroundImageFix"/>
<feColorMatrix in="SourceAlpha" type="matrix" values="0 0 0 0 0 0 0 0 0 0 0 0 0 0 0 0 0 0 127 0" result="hardAlpha"/>
<feOffset dy="4"/>
<feGaussianBlur stdDeviation="2"/>
<feComposite in2="hardAlpha" operator="out"/>
<feColorMatrix type="matrix" values="0 0 0 0 0 0 0 0 0 0 0 0 0 0 0 0 0 0 0.25 0"/>
<feBlend mode="normal" in2="BackgroundImageFix" result="effect1_dropShadow_193_1302"/>
<feBlend mode="normal" in="SourceGraphic" in2="effect1_dropShadow_193_1302" result="shape"/>
</filter>
</defs>
</svg>
