<svg width="100" height="100" viewBox="0 0 100 100" fill="none" xmlns="http://www.w3.org/2000/svg">
<g id="react-icons/hi/HiOutlineUserGroup" filter="url(#filter0_d_193_1295)">
<path id="Vector (Stroke)" fill-rule="evenodd" clip-rule="evenodd" d="M50.0001 20.8333C47.7899 20.8333 45.6703 21.7113 44.1075 23.2741C42.5447 24.8369 41.6668 26.9565 41.6668 29.1667C41.6668 31.3768 42.5447 33.4964 44.1075 35.0592C45.6703 36.622 47.7899 37.5 50.0001 37.5C52.2102 37.5 54.3298 36.622 55.8926 35.0592C57.4554 33.4964 58.3334 31.3768 58.3334 29.1667C58.3334 26.9565 57.4554 24.8369 55.8926 23.2741C54.3298 21.7113 52.2102 20.8333 50.0001 20.8333ZM38.215 17.3816C41.3406 14.2559 45.5798 12.5 50.0001 12.5C54.4204 12.5 58.6596 14.2559 61.7852 17.3816C64.9108 20.5072 66.6668 24.7464 66.6668 29.1667C66.6668 33.5869 64.9108 37.8262 61.7852 40.9518C58.6596 44.0774 54.4204 45.8333 50.0001 45.8333C45.5798 45.8333 41.3406 44.0774 38.215 40.9518C35.0894 37.8262 33.3334 33.5869 33.3334 29.1667C33.3334 24.7464 35.0894 20.5072 38.215 17.3816ZM20.8334 37.5C19.7283 37.5 18.6685 37.939 17.8871 38.7204C17.1057 39.5018 16.6667 40.5616 16.6667 41.6667C16.6667 42.7717 17.1057 43.8315 17.8871 44.6129C18.6685 45.3943 19.7283 45.8333 20.8334 45.8333C21.9385 45.8333 22.9983 45.3943 23.7797 44.6129C24.5611 43.8315 25.0001 42.7717 25.0001 41.6667C25.0001 40.5616 24.5611 39.5018 23.7797 38.7204C22.9983 37.939 21.9385 37.5 20.8334 37.5ZM11.9946 32.8278C14.3388 30.4836 17.5182 29.1667 20.8334 29.1667C24.1486 29.1667 27.328 30.4836 29.6723 32.8278C32.0165 35.172 33.3334 38.3515 33.3334 41.6667C33.3334 44.9819 32.0165 48.1613 29.6723 50.5055C27.328 52.8497 24.1486 54.1667 20.8334 54.1667C17.5182 54.1667 14.3388 52.8497 11.9946 50.5055C9.65038 48.1613 8.33342 44.9819 8.33342 41.6667C8.33342 38.3515 9.65038 35.172 11.9946 32.8278ZM79.1668 37.5C78.0617 37.5 77.0019 37.939 76.2205 38.7204C75.4391 39.5018 75.0001 40.5616 75.0001 41.6667C75.0001 42.7717 75.4391 43.8315 76.2205 44.6129C77.0019 45.3943 78.0617 45.8333 79.1668 45.8333C80.2718 45.8333 81.3316 45.3943 82.113 44.6129C82.8944 43.8315 83.3334 42.7717 83.3334 41.6667C83.3334 40.5616 82.8944 39.5018 82.113 38.7204C81.3316 37.939 80.2718 37.5 79.1668 37.5ZM70.3279 32.8278C72.6721 30.4836 75.8515 29.1667 79.1668 29.1667C82.482 29.1667 85.6614 30.4836 88.0056 32.8278C90.3498 35.172 91.6668 38.3515 91.6668 41.6667C91.6668 44.9819 90.3498 48.1613 88.0056 50.5055C85.6614 52.8497 82.482 54.1667 79.1668 54.1667C75.8515 54.1667 72.6721 52.8497 70.3279 50.5055C67.9837 48.1613 66.6668 44.9819 66.6668 41.6667C66.6668 38.3515 67.9837 35.172 70.3279 32.8278ZM50.0001 58.3304C46.6678 58.3304 43.412 59.3288 40.6525 61.1968C37.893 63.0648 35.7565 65.7167 34.5185 68.8105C33.7553 70.7151 33.3334 72.8038 33.3334 75V79.1667H66.6668V75C66.6668 72.8038 66.2456 70.7169 65.4824 68.8123C64.2444 65.7185 62.1071 63.0648 59.3477 61.1968C56.5882 59.3288 53.3324 58.3304 50.0001 58.3304ZM75.0001 79.1667H87.5001V75.0003C87.5001 75.0002 87.5001 75.0004 87.5001 75.0003C87.4999 73.2686 86.9602 71.5796 85.956 70.1687C84.9518 68.7577 83.5329 67.6947 81.8966 67.1274C80.2603 66.5601 78.4879 66.5166 76.8258 67.0031C75.8393 67.2919 74.9207 67.7588 74.1128 68.375C74.6924 70.4896 75.0001 72.7124 75.0001 75V79.1667ZM70.5408 60.7401C68.7917 58.2216 66.585 56.0328 64.0191 54.2959C59.8806 51.4944 54.9977 49.9971 50.0001 49.9971C45.0025 49.9971 40.1195 51.4944 35.981 54.2959C33.4152 56.0328 31.2085 58.2216 29.4594 60.7401C28.2324 59.9979 26.9077 59.4129 25.5153 59.0054C22.1911 58.0324 18.6463 58.1192 15.3737 59.2539C12.1011 60.3885 9.26334 62.5146 7.25487 65.3365C5.24639 68.1584 4.167 71.536 4.16675 74.9997V83.3333C4.16675 85.6345 6.03223 87.5 8.33342 87.5H91.6668C93.9679 87.5 95.8334 85.6345 95.8334 83.3333V75C95.8332 71.5363 94.7538 68.1584 92.7453 65.3365C90.7368 62.5146 87.8991 60.3885 84.6265 59.2539C81.3539 58.1192 77.8091 58.0324 74.4849 59.0054C73.0925 59.4129 71.7678 59.9979 70.5408 60.7401ZM25.8874 68.375C25.0794 67.7588 24.1609 67.2919 23.1744 67.0031C21.5122 66.5166 19.7398 66.5601 18.1036 67.1274C16.4673 67.6947 15.0484 68.7577 14.0441 70.1687C13.04 71.5796 12.5003 73.2683 12.5001 75C12.5001 74.9999 12.5001 75.0001 12.5001 75V79.1667H25.0001V75C25.0001 72.7124 25.3077 70.4896 25.8874 68.375Z" fill="#024089"/>
</g>
<defs>
<filter id="filter0_d_193_1295" x="-4" y="0" width="108" height="108" filterUnits="userSpaceOnUse" color-interpolation-filters="sRGB">
<feFlood flood-opacity="0" result="BackgroundImageFix"/>
<feColorMatrix in="SourceAlpha" type="matrix" values="0 0 0 0 0 0 0 0 0 0 0 0 0 0 0 0 0 0 127 0" result="hardAlpha"/>
<feOffset dy="4"/>
<feGaussianBlur stdDeviation="2"/>
<feComposite in2="hardAlpha" operator="out"/>
<feColorMatrix type="matrix" values="0 0 0 0 0 0 0 0 0 0 0 0 0 0 0 0 0 0 0.25 0"/>
<feBlend mode="normal" in2="BackgroundImageFix" result="effect1_dropShadow_193_1295"/>
<feBlend mode="normal" in="SourceGraphic" in2="effect1_dropShadow_193_1295" result="shape"/>
</filter>
</defs>
</svg>
