<svg width="100" height="100" viewBox="0 0 100 100" fill="none" xmlns="http://www.w3.org/2000/svg">
<g id="react-icons/hi/HiOutlineDocumentDuplicate" filter="url(#filter0_d_193_1340)">
<path id="Vector (Stroke)" fill-rule="evenodd" clip-rule="evenodd" d="M41.6667 16.6667C40.5616 16.6667 39.5018 17.1057 38.7204 17.8871C37.939 18.6685 37.5 19.7283 37.5 20.8333V62.5C37.5 63.6051 37.939 64.6649 38.7204 65.4463C39.5018 66.2277 40.5616 66.6667 41.6667 66.6667H75C76.1051 66.6667 77.1649 66.2277 77.9463 65.4463C78.7277 64.6649 79.1667 63.6051 79.1667 62.5V35.0592L60.7746 16.6671L41.6667 16.6667ZM32.8278 11.9945C35.172 9.65029 38.3515 8.33333 41.6667 8.33333H60.775C62.9847 8.3338 65.1047 9.21192 66.6671 10.7746M66.6671 10.7746L85.0583 29.1658C85.0582 29.1656 85.0585 29.1659 85.0583 29.1658C86.621 30.7282 87.4995 32.8477 87.5 35.0574V62.5C87.5 65.8152 86.183 68.9946 83.8388 71.3388C81.4946 73.683 78.3152 75 75 75H70.8333V79.1667C70.8333 82.4819 69.5164 85.6613 67.1722 88.0055C64.828 90.3497 61.6485 91.6667 58.3333 91.6667H25C21.6848 91.6667 18.5054 90.3497 16.1612 88.0055C13.817 85.6613 12.5 82.4819 12.5 79.1667V37.5C12.5 34.1848 13.817 31.0054 16.1612 28.6612C18.5054 26.317 21.6848 25 25 25H29.1667V20.8333C29.1667 17.5181 30.4836 14.3387 32.8278 11.9945M29.1667 33.3333H25C23.8949 33.3333 22.8351 33.7723 22.0537 34.5537C21.2723 35.3351 20.8333 36.3949 20.8333 37.5V79.1667C20.8333 80.2717 21.2723 81.3315 22.0537 82.1129C22.8351 82.8943 23.8949 83.3333 25 83.3333H58.3333C59.4384 83.3333 60.4982 82.8943 61.2796 82.1129C62.061 81.3315 62.5 80.2717 62.5 79.1667V75H41.6667C38.3515 75 35.172 73.683 32.8278 71.3388C30.4836 68.9946 29.1667 65.8152 29.1667 62.5V33.3333Z" fill="#024089"/>
</g>
<defs>
<filter id="filter0_d_193_1340" x="-4" y="0" width="108" height="108" filterUnits="userSpaceOnUse" color-interpolation-filters="sRGB">
<feFlood flood-opacity="0" result="BackgroundImageFix"/>
<feColorMatrix in="SourceAlpha" type="matrix" values="0 0 0 0 0 0 0 0 0 0 0 0 0 0 0 0 0 0 127 0" result="hardAlpha"/>
<feOffset dy="4"/>
<feGaussianBlur stdDeviation="2"/>
<feComposite in2="hardAlpha" operator="out"/>
<feColorMatrix type="matrix" values="0 0 0 0 0 0 0 0 0 0 0 0 0 0 0 0 0 0 0.25 0"/>
<feBlend mode="normal" in2="BackgroundImageFix" result="effect1_dropShadow_193_1340"/>
<feBlend mode="normal" in="SourceGraphic" in2="effect1_dropShadow_193_1340" result="shape"/>
</filter>
</defs>
</svg>
