<svg width="35" height="35" viewBox="0 0 35 35" fill="none" xmlns="http://www.w3.org/2000/svg">
<path fill-rule="evenodd" clip-rule="evenodd" d="M14.5834 5.83334C12.2628 5.83334 10.0372 6.75521 8.39623 8.39615C6.75529 10.0371 5.83341 12.2627 5.83341 14.5833C5.83341 15.7324 6.05974 16.8702 6.49947 17.9318C6.9392 18.9934 7.58372 19.958 8.39623 20.7705C9.20874 21.583 10.1733 22.2276 11.2349 22.6673C12.2965 23.107 13.4343 23.3333 14.5834 23.3333C15.7325 23.3333 16.8703 23.107 17.9319 22.6673C18.9935 22.2276 19.9581 21.583 20.7706 20.7705C21.5831 19.958 22.2276 18.9934 22.6674 17.9318C23.1071 16.8702 23.3334 15.7324 23.3334 14.5833C23.3334 12.2627 22.4115 10.0371 20.7706 8.39615C19.1297 6.75521 16.9041 5.83334 14.5834 5.83334ZM6.33384 6.33376C8.52176 4.14583 11.4892 2.91667 14.5834 2.91667C17.6776 2.91667 20.6451 4.14583 22.833 6.33376C25.0209 8.52168 26.2501 11.4891 26.2501 14.5833C26.2501 16.1154 25.9483 17.6325 25.362 19.048C24.9627 20.0121 24.4367 20.9161 23.7995 21.737L31.6563 29.5938C32.2258 30.1633 32.2258 31.0867 31.6563 31.6562C31.0868 32.2257 30.1634 32.2257 29.5939 31.6562L21.7371 23.7994C20.9162 24.4366 20.0121 24.9626 19.0481 25.3619C17.6326 25.9482 16.1155 26.25 14.5834 26.25C13.0513 26.25 11.5342 25.9482 10.1188 25.3619C8.70331 24.7756 7.41718 23.9163 6.33384 22.8329C5.25049 21.7496 4.39113 20.4634 3.80482 19.048C3.21852 17.6325 2.91675 16.1154 2.91675 14.5833C2.91675 11.4891 4.14591 8.52168 6.33384 6.33376Z" fill="#2BAACA"/>
</svg>
