<svg width="31" height="30" viewBox="0 0 31 30" fill="none" xmlns="http://www.w3.org/2000/svg">
<path fill-rule="evenodd" clip-rule="evenodd" d="M15.4998 6.6C12.5174 6.6 10.0998 9.01766 10.0998 12C10.0998 14.9823 12.5174 17.4 15.4998 17.4C18.4821 17.4 20.8998 14.9823 20.8998 12C20.8998 9.01766 18.4821 6.6 15.4998 6.6ZM8.89978 12C8.89978 8.35492 11.8547 5.4 15.4998 5.4C19.1449 5.4 22.0998 8.35492 22.0998 12C22.0998 15.6451 19.1449 18.6 15.4998 18.6C11.8547 18.6 8.89978 15.6451 8.89978 12Z" fill="#024089"/>
<path fill-rule="evenodd" clip-rule="evenodd" d="M15.4998 7.8C15.8312 7.8 16.0998 8.06863 16.0998 8.4V11.6292L18.1681 12.6633C18.4645 12.8115 18.5846 13.1719 18.4364 13.4683C18.2882 13.7647 17.9278 13.8849 17.6315 13.7367L15.2315 12.5367C15.0282 12.435 14.8998 12.2273 14.8998 12V8.4C14.8998 8.06863 15.1684 7.8 15.4998 7.8Z" fill="#024089"/>
<path fill-rule="evenodd" clip-rule="evenodd" d="M8.625 22.5C8.12772 22.5 7.65081 22.6975 7.29917 23.0492C6.94754 23.4008 6.75 23.8777 6.75 24.375C6.75 25.0654 6.19036 25.625 5.5 25.625C4.80964 25.625 4.25 25.0654 4.25 24.375C4.25 23.2147 4.71094 22.1019 5.53141 21.2814C6.35188 20.4609 7.46468 20 8.625 20H25.5C26.1904 20 26.75 20.5596 26.75 21.25C26.75 21.9404 26.1904 22.5 25.5 22.5H8.625Z" fill="#024089"/>
<path fill-rule="evenodd" clip-rule="evenodd" d="M8.625 3.75C8.12772 3.75 7.65081 3.94754 7.29917 4.29917C6.94754 4.65081 6.75 5.12772 6.75 5.625V24.375C6.75 24.8723 6.94754 25.3492 7.29917 25.7008C7.65081 26.0525 8.12772 26.25 8.625 26.25H24.25V3.75H8.625ZM5.53141 2.53141C6.35188 1.71094 7.46468 1.25 8.625 1.25H25.5C26.1904 1.25 26.75 1.80964 26.75 2.5V27.5C26.75 28.1904 26.1904 28.75 25.5 28.75H8.625C7.46468 28.75 6.35188 28.2891 5.53141 27.4686C4.71094 26.6481 4.25 25.5353 4.25 24.375V5.625C4.25 4.46468 4.71094 3.35188 5.53141 2.53141Z" fill="#024089"/>
</svg>
