<svg width="41" height="41" viewBox="0 0 41 41" fill="none" xmlns="http://www.w3.org/2000/svg">
<path d="M11.9347 37.5952C11.5936 38.2762 11.8675 39.1094 12.5698 39.404C16.4164 41.0178 20.6757 41.4237 24.7767 40.5489C29.3285 39.578 33.4144 37.087 36.3626 33.4857C39.3108 29.8843 40.9458 25.3869 40.9987 20.733C41.0516 16.0791 39.5193 11.5457 36.6537 7.87824C33.7881 4.21079 29.7598 1.62761 25.2313 0.553445C20.7027 -0.52072 15.9434 -0.0219215 11.736 1.96782C7.52851 3.95757 4.12336 7.31981 2.08043 11.5017C0.239833 15.2694 -0.396298 19.5004 0.23927 23.6231C0.355313 24.3758 1.09756 24.8431 1.84079 24.6768C2.58402 24.5104 3.04599 23.7733 2.93783 23.0194C2.43426 19.5095 2.99293 15.9172 4.5586 12.7123C6.32667 9.09307 9.27369 6.18318 12.9151 4.46114C16.5565 2.73909 20.6754 2.3074 24.5947 3.23705C28.514 4.1667 32.0003 6.40234 34.4804 9.57637C36.9604 12.7504 38.2866 16.6739 38.2408 20.7017C38.195 24.7294 36.78 28.6217 34.2285 31.7386C31.6769 34.8554 28.1407 37.0112 24.2013 37.8516C20.7129 38.5957 17.0922 38.269 13.8082 36.9316C13.1029 36.6443 12.2759 36.9143 11.9347 37.5952Z" fill="#024089"/>
<path d="M2.85962 27.8776C2.15698 28.1714 1.82141 28.9818 2.16183 29.6631C2.97728 31.295 4.00697 32.8109 5.22354 34.1704C5.73143 34.738 6.6084 34.7246 7.14053 34.1798C7.67266 33.6349 7.65776 32.7651 7.15584 32.1923C6.19715 31.0982 5.37664 29.8902 4.71284 28.5958C4.36531 27.9181 3.56227 27.5837 2.85962 27.8776Z" fill="#024089"/>
<path d="M20.5 20.5V31.4333" stroke="#024089" stroke-width="2" stroke-linecap="round"/>
<circle cx="20.4999" cy="12.3" r="2.73333" fill="#024089"/>
</svg>
