<svg width="49" height="49" viewBox="0 0 49 49" fill="none" xmlns="http://www.w3.org/2000/svg">
<mask id="mask0_233_14865" style="mask-type:luminance" maskUnits="userSpaceOnUse" x="13" y="5" width="30" height="20">
<path d="M42.1489 24.9027C41.9531 23.4543 41.8412 21.9867 41.548 20.5614C39.9952 13.0052 33.8565 7.1828 26.6405 6.38604C22.1185 5.88626 18.0341 7.11456 14.3927 10.0075C14.1609 10.192 13.9137 10.34 13.6592 10.1613C13.4934 10.0322 13.3751 9.84563 13.3245 9.63362C13.2596 9.34528 13.4535 9.15306 13.6656 8.9916C15.5966 7.50983 17.7824 6.44717 20.0984 5.86416C27.4146 4.01306 35.0655 7.2222 39.1607 13.8759C41.1826 17.162 42.1462 20.7796 42.0794 24.7086C42.0794 24.7778 42.0794 24.847 42.0794 24.9171L42.1489 24.9027Z" fill="white"/>
</mask>
<g mask="url(#mask0_233_14865)">
<path d="M16.8558 4.01392H13.2595V24.918H16.8558V4.01392Z" fill="white"/>
<path d="M17.0385 4.01392H16.8555V24.918H17.0385V4.01392Z" fill="white"/>
<path d="M17.2226 4.01392H17.0396V24.918H17.2226V4.01392Z" fill="white"/>
<path d="M17.4052 4.01392H17.2222V24.918H17.4052V4.01392Z" fill="white"/>
<path d="M17.5888 4.01392H17.4058V24.918H17.5888V4.01392Z" fill="white"/>
<path d="M17.7717 4.01392H17.5886V24.918H17.7717V4.01392Z" fill="white"/>
<path d="M17.9548 4.01392H17.7717V24.918H17.9548V4.01392Z" fill="white"/>
<path d="M18.1377 4.01392H17.9546V24.918H18.1377V4.01392Z" fill="white"/>
<path d="M18.322 4.01392H18.1389V24.918H18.322V4.01392Z" fill="white"/>
<path d="M18.5051 4.01392H18.322V24.918H18.5051V4.01392Z" fill="white"/>
<path d="M18.688 4.01392H18.5049V24.918H18.688V4.01392Z" fill="white"/>
<path d="M18.8715 4.01392H18.6885V24.918H18.8715V4.01392Z" fill="white"/>
<path d="M19.0544 4.01392H18.8713V24.918H19.0544V4.01392Z" fill="white"/>
<path d="M19.2382 4.01392H19.0552V24.918H19.2382V4.01392Z" fill="white"/>
<path d="M19.4209 4.01392H19.2378V24.918H19.4209V4.01392Z" fill="white"/>
<path d="M19.6037 4.01392H19.4207V24.918H19.6037V4.01392Z" fill="white"/>
<path d="M19.7873 4.01392H19.6042V24.918H19.7873V4.01392Z" fill="white"/>
<path d="M19.9709 4.01392H19.7878V24.918H19.9709V4.01392Z" fill="white"/>
<path d="M20.1535 4.01392H19.9705V24.918H20.1535V4.01392Z" fill="white"/>
<path d="M20.3369 4.01392H20.1538V24.918H20.3369V4.01392Z" fill="white"/>
<path d="M20.5197 4.01392H20.3367V24.918H20.5197V4.01392Z" fill="white"/>
<path d="M20.7038 4.01392H20.5208V24.918H20.7038V4.01392Z" fill="white"/>
<path d="M20.8862 4.01392H20.7031V24.918H20.8862V4.01392Z" fill="white"/>
<path d="M21.0698 4.01392H20.8867V24.918H21.0698V4.01392Z" fill="white"/>
<path d="M21.2522 4.01392H21.0691V24.918H21.2522V4.01392Z" fill="white"/>
<path d="M21.4362 4.01392H21.2532V24.918H21.4362V4.01392Z" fill="white"/>
<path d="M21.6194 4.01392H21.4363V24.918H21.6194V4.01392Z" fill="white"/>
<path d="M21.8025 4.01392H21.6194V24.918H21.8025V4.01392Z" fill="white"/>
<path d="M21.9853 4.01392H21.8022V24.918H21.9853V4.01392Z" fill="white"/>
<path d="M22.1684 4.01392H21.9854V24.918H22.1684V4.01392Z" fill="white"/>
<path d="M22.3513 4.01392H22.1682V24.918H22.3513V4.01392Z" fill="white"/>
<path d="M22.5346 4.01392H22.3516V24.918H22.5346V4.01392Z" fill="white"/>
<path d="M22.7182 4.01392H22.5352V24.918H22.7182V4.01392Z" fill="white"/>
<path d="M22.9011 4.01392H22.718V24.918H22.9011V4.01392Z" fill="white"/>
<path d="M23.0844 4.01392H22.9014V24.918H23.0844V4.01392Z" fill="white"/>
<path d="M23.2668 4.01392H23.0837V24.918H23.2668V4.01392Z" fill="white"/>
<path d="M23.4507 4.01392H23.2676V24.918H23.4507V4.01392Z" fill="white"/>
<path d="M23.6347 4.01392H23.4517V24.918H23.6347V4.01392Z" fill="white"/>
<path d="M23.8171 4.01392H23.634V24.918H23.8171V4.01392Z" fill="white"/>
<path d="M24.0009 4.01392H23.8179V24.918H24.0009V4.01392Z" fill="white"/>
<path d="M24.1843 4.01392H24.0012V24.918H24.1843V4.01392Z" fill="white"/>
<path d="M24.3667 4.01392H24.1836V24.918H24.3667V4.01392Z" fill="white"/>
<path d="M24.5495 4.01392H24.3665V24.918H24.5495V4.01392Z" fill="white"/>
<path d="M24.7341 4.01392H24.551V24.918H24.7341V4.01392Z" fill="white"/>
<path d="M24.917 4.01392H24.7339V24.918H24.917V4.01392Z" fill="white"/>
<path d="M25.0998 4.01392H24.9167V24.918H25.0998V4.01392Z" fill="white"/>
<path d="M25.2824 4.01392H25.0994V24.918H25.2824V4.01392Z" fill="white"/>
<path d="M25.4655 4.01392H25.2825V24.918H25.4655V4.01392Z" fill="white"/>
<path d="M25.6491 4.01392H25.4661V24.918H25.6491V4.01392Z" fill="white"/>
<path d="M25.832 4.01392H25.6489V24.918H25.832V4.01392Z" fill="white"/>
<path d="M26.0156 4.01392H25.8325V24.918H26.0156V4.01392Z" fill="white"/>
<path d="M26.1994 4.01392H26.0164V24.918H26.1994V4.01392Z" fill="white"/>
<path d="M26.3816 4.01392H26.1985V24.918H26.3816V4.01392Z" fill="white"/>
<path d="M26.5649 4.01392H26.3818V24.918H26.5649V4.01392Z" fill="white"/>
<path d="M26.7478 4.01392H26.5647V24.918H26.7478V4.01392Z" fill="white"/>
<path d="M26.9318 4.01392H26.7488V24.918H26.9318V4.01392Z" fill="white"/>
<path d="M27.1147 4.01392H26.9316V24.918H27.1147V4.01392Z" fill="white"/>
<path d="M27.2976 4.01392H27.1145V24.918H27.2976V4.01392Z" fill="white"/>
<path d="M27.4804 4.01392H27.2974V24.918H27.4804V4.01392Z" fill="white"/>
<path d="M27.6638 4.01392H27.4807V24.918H27.6638V4.01392Z" fill="white"/>
<path d="M27.8471 4.01392H27.6641V24.918H27.8471V4.01392Z" fill="white"/>
<path d="M28.0315 4.01392H27.8484V24.918H28.0315V4.01392Z" fill="white"/>
<path d="M28.2141 4.01392H28.031V24.918H28.2141V4.01392Z" fill="white"/>
<path d="M28.7491 4.01392H28.2134V24.918H28.7491V4.01392Z" fill="white"/>
<path d="M29.2859 4.01416H28.7502V24.9182H29.2859V4.01416Z" fill="white"/>
<path d="M29.8216 4.01416H29.2859V24.9182H29.8216V4.01416Z" fill="white"/>
<path d="M30.3582 4.01416H29.8225V24.9182H30.3582V4.01416Z" fill="white"/>
<path d="M30.8931 4.01416H30.3574V24.9182H30.8931V4.01416Z" fill="white"/>
<path d="M31.4302 4.01416H30.8945V24.9182H31.4302V4.01416Z" fill="white"/>
<path d="M31.9661 4.01416H31.4304V24.9182H31.9661V4.01416Z" fill="white"/>
<path d="M32.5017 4.01416H31.9661V24.9182H32.5017V4.01416Z" fill="white"/>
<path d="M33.0379 4.01416H32.5022V24.9182H33.0379V4.01416Z" fill="white"/>
<path d="M33.5735 4.01416H33.0378V24.9182H33.5735V4.01416Z" fill="white"/>
<path d="M34.1099 4.01416H33.5742V24.9182H34.1099V4.01416Z" fill="white"/>
<path d="M34.6455 4.01416H34.1099V24.9182H34.6455V4.01416Z" fill="white"/>
<path d="M35.1814 4.01416H34.6458V24.9182H35.1814V4.01416Z" fill="white"/>
<path d="M35.7176 4.01416H35.1819V24.9182H35.7176V4.01416Z" fill="white"/>
<path d="M36.2525 4.01416H35.7168V24.9182H36.2525V4.01416Z" fill="white"/>
<path d="M36.7884 4.01416H36.2527V24.9182H36.7884V4.01416Z" fill="white"/>
<path d="M37.3248 4.01416H36.7891V24.9182H37.3248V4.01416Z" fill="white"/>
<path d="M37.8616 4.01416H37.3259V24.9182H37.8616V4.01416Z" fill="white"/>
<path d="M38.398 4.01416H37.8623V24.9182H38.398V4.01416Z" fill="white"/>
<path d="M38.9344 4.01416H38.3987V24.9182H38.9344V4.01416Z" fill="white"/>
<path d="M39.4698 4.01416H38.9341V24.9182H39.4698V4.01416Z" fill="white"/>
<path d="M40.0059 4.01416H39.4702V24.9182H40.0059V4.01416Z" fill="white"/>
<path d="M40.542 4.01416H40.0063V24.9182H40.542V4.01416Z" fill="white"/>
<path d="M41.0777 4.01416H40.542V24.9182H41.0777V4.01416Z" fill="white"/>
<path d="M41.6136 4.01416H41.0779V24.9182H41.6136V4.01416Z" fill="white"/>
<path d="M42.1494 4.01416H41.6138V24.9182H42.1494V4.01416Z" fill="white"/>
</g>
<mask id="mask1_233_14865" style="mask-type:luminance" maskUnits="userSpaceOnUse" x="10" y="7" width="30" height="12">
<path d="M39.1322 18.0916C38.6486 17.1978 38.2065 16.229 37.6381 15.3534C34.8764 11.1005 31.0807 8.57761 26.2375 8.11916C20.3424 7.55691 15.6282 9.95968 12.1032 15.0151C11.9769 15.1968 11.8669 15.3909 11.7487 15.5793C11.5222 15.9416 11.2073 16.0425 10.9294 15.8426C10.6516 15.6427 10.6299 15.2986 10.8627 14.9315C12.155 12.9009 13.8395 11.1877 15.8036 9.90675C17.7677 8.62576 19.966 7.80648 22.2513 7.50373C24.5367 7.20099 26.8564 7.42177 29.0552 8.1513C31.2539 8.88083 33.2811 10.1023 35.0009 11.7339C36.7529 13.4012 38.1285 15.4688 39.0248 17.7821C39.0681 17.8975 39.106 18.0166 39.1322 18.0916Z" fill="white"/>
</mask>
<g mask="url(#mask1_233_14865)">
<path d="M14.2003 5.87671H10.6311V18.0914H14.2003V5.87671Z" fill="white"/>
<path d="M14.3798 5.87622H14.1995V18.0909H14.3798V5.87622Z" fill="white"/>
<path d="M14.56 5.87622H14.3796V18.0909H14.56V5.87622Z" fill="white"/>
<path d="M14.7407 5.87622H14.5603V18.0909H14.7407V5.87622Z" fill="white"/>
<path d="M14.9211 5.87622H14.7407V18.0909H14.9211V5.87622Z" fill="white"/>
<path d="M15.1013 5.87622H14.9209V18.0909H15.1013V5.87622Z" fill="white"/>
<path d="M15.2817 5.87622H15.1013V18.0909H15.2817V5.87622Z" fill="white"/>
<path d="M15.4638 5.87622H15.2834V18.0909H15.4638V5.87622Z" fill="white"/>
<path d="M15.6437 5.87622H15.4634V18.0909H15.6437V5.87622Z" fill="white"/>
<path d="M15.8234 5.87622H15.6431V18.0909H15.8234V5.87622Z" fill="white"/>
<path d="M16.0048 5.87622H15.8245V18.0909H16.0048V5.87622Z" fill="white"/>
<path d="M16.1855 5.87622H16.0051V18.0909H16.1855V5.87622Z" fill="white"/>
<path d="M16.3657 5.87622H16.1853V18.0909H16.3657V5.87622Z" fill="white"/>
<path d="M16.5463 5.87622H16.366V18.0909H16.5463V5.87622Z" fill="white"/>
<path d="M16.7275 5.87622H16.5471V18.0909H16.7275V5.87622Z" fill="white"/>
<path d="M16.9081 5.87622H16.7278V18.0909H16.9081V5.87622Z" fill="white"/>
<path d="M17.0881 5.87622H16.9077V18.0909H17.0881V5.87622Z" fill="white"/>
<path d="M17.2687 5.87622H17.0884V18.0909H17.2687V5.87622Z" fill="white"/>
<path d="M17.4497 5.87622H17.2693V18.0909H17.4497V5.87622Z" fill="white"/>
<path d="M17.6293 5.87622H17.449V18.0909H17.6293V5.87622Z" fill="white"/>
<path d="M17.8107 5.87622H17.6304V18.0909H17.8107V5.87622Z" fill="white"/>
<path d="M17.9919 5.87622H17.8115V18.0909H17.9919V5.87622Z" fill="white"/>
<path d="M18.1721 5.87622H17.9917V18.0909H18.1721V5.87622Z" fill="white"/>
<path d="M18.3518 5.87622H18.1714V18.0909H18.3518V5.87622Z" fill="white"/>
<path d="M18.5324 5.87622H18.3521V18.0909H18.5324V5.87622Z" fill="white"/>
<path d="M18.7133 5.87622H18.533V18.0909H18.7133V5.87622Z" fill="white"/>
<path d="M18.8945 5.87622H18.7141V18.0909H18.8945V5.87622Z" fill="white"/>
<path d="M19.0744 5.87622H18.894V18.0909H19.0744V5.87622Z" fill="white"/>
<path d="M19.2558 5.87622H19.0754V18.0909H19.2558V5.87622Z" fill="white"/>
<path d="M19.4357 5.87622H19.2554V18.0909H19.4357V5.87622Z" fill="white"/>
<path d="M19.6157 5.87622H19.4353V18.0909H19.6157V5.87622Z" fill="white"/>
<path d="M19.7966 5.87622H19.6162V18.0909H19.7966V5.87622Z" fill="white"/>
<path d="M19.9772 5.87622H19.7969V18.0909H19.9772V5.87622Z" fill="white"/>
<path d="M20.1581 5.87622H19.9778V18.0909H20.1581V5.87622Z" fill="white"/>
<path d="M20.3383 5.87622H20.158V18.0909H20.3383V5.87622Z" fill="white"/>
<path d="M20.5197 5.87622H20.3394V18.0909H20.5197V5.87622Z" fill="white"/>
<path d="M20.7004 5.87622H20.52V18.0909H20.7004V5.87622Z" fill="white"/>
<path d="M20.8803 5.87622H20.7V18.0909H20.8803V5.87622Z" fill="white"/>
<path d="M21.061 5.87622H20.8806V18.0909H21.061V5.87622Z" fill="white"/>
<path d="M21.2419 5.87622H21.0615V18.0909H21.2419V5.87622Z" fill="white"/>
<path d="M21.4228 5.87622H21.2424V18.0909H21.4228V5.87622Z" fill="white"/>
<path d="M21.6035 5.87622H21.4231V18.0909H21.6035V5.87622Z" fill="white"/>
<path d="M21.7841 5.87622H21.6038V18.0909H21.7841V5.87622Z" fill="white"/>
<path d="M21.9643 5.87622H21.7839V18.0909H21.9643V5.87622Z" fill="white"/>
<path d="M22.144 5.87622H21.9636V18.0909H22.144V5.87622Z" fill="white"/>
<path d="M22.3244 5.87622H22.144V18.0909H22.3244V5.87622Z" fill="white"/>
<path d="M22.5068 5.87622H22.3264V18.0909H22.5068V5.87622Z" fill="white"/>
<path d="M22.6867 5.87622H22.5063V18.0909H22.6867V5.87622Z" fill="white"/>
<path d="M22.8674 5.87622H22.687V18.0909H22.8674V5.87622Z" fill="white"/>
<path d="M23.0471 5.87622H22.8667V18.0909H23.0471V5.87622Z" fill="white"/>
<path d="M23.2277 5.87622H23.0474V18.0909H23.2277V5.87622Z" fill="white"/>
<path d="M23.4077 5.87622H23.2273V18.0909H23.4077V5.87622Z" fill="white"/>
<path d="M23.5898 5.87622H23.4094V18.0909H23.5898V5.87622Z" fill="white"/>
<path d="M23.77 5.87622H23.5896V18.0909H23.77V5.87622Z" fill="white"/>
<path d="M23.9504 5.87622H23.77V18.0909H23.9504V5.87622Z" fill="white"/>
<path d="M24.1308 5.87622H23.9504V18.0909H24.1308V5.87622Z" fill="white"/>
<path d="M24.3107 5.87622H24.1304V18.0909H24.3107V5.87622Z" fill="white"/>
<path d="M24.4921 5.87622H24.3118V18.0909H24.4921V5.87622Z" fill="white"/>
<path d="M24.6726 5.87622H24.4922V18.0909H24.6726V5.87622Z" fill="white"/>
<path d="M24.8532 5.87622H24.6729V18.0909H24.8532V5.87622Z" fill="white"/>
<path d="M25.0341 5.87622H24.8538V18.0909H25.0341V5.87622Z" fill="white"/>
<path d="M25.215 5.87622H25.0347V18.0909H25.215V5.87622Z" fill="white"/>
<path d="M25.3952 5.87622H25.2148V18.0909H25.3952V5.87622Z" fill="white"/>
<path d="M25.9237 5.87622H25.3953V18.0909H25.9237V5.87622Z" fill="white"/>
<path d="M26.4525 5.87622H25.9241V18.0909H26.4525V5.87622Z" fill="white"/>
<path d="M26.9796 5.87622H26.4512V18.0909H26.9796V5.87622Z" fill="white"/>
<path d="M27.5089 5.87622H26.9805V18.0909H27.5089V5.87622Z" fill="white"/>
<path d="M28.0377 5.87622H27.5093V18.0909H28.0377V5.87622Z" fill="white"/>
<path d="M28.5648 5.87622H28.0364V18.0909H28.5648V5.87622Z" fill="white"/>
<path d="M29.0942 5.87646H28.5657V18.0912H29.0942V5.87646Z" fill="white"/>
<path d="M29.6222 5.87646H29.0938V18.0912H29.6222V5.87646Z" fill="white"/>
<path d="M30.151 5.87646H29.6226V18.0912H30.151V5.87646Z" fill="white"/>
<path d="M30.6793 5.87646H30.1509V18.0912H30.6793V5.87646Z" fill="white"/>
<path d="M31.2072 5.87646H30.6787V18.0912H31.2072V5.87646Z" fill="white"/>
<path d="M31.736 5.87646H31.2075V18.0912H31.736V5.87646Z" fill="white"/>
<path d="M32.2646 5.87646H31.7361V18.0912H32.2646V5.87646Z" fill="white"/>
<path d="M32.7924 5.87646H32.2639V18.0912H32.7924V5.87646Z" fill="white"/>
<path d="M33.3212 5.87646H32.7927V18.0912H33.3212V5.87646Z" fill="white"/>
<path d="M33.8495 5.87646H33.321V18.0912H33.8495V5.87646Z" fill="white"/>
<path d="M34.3776 5.87646H33.8491V18.0912H34.3776V5.87646Z" fill="white"/>
<path d="M34.9054 5.87646H34.377V18.0912H34.9054V5.87646Z" fill="white"/>
<path d="M35.4347 5.87646H34.9062V18.0912H35.4347V5.87646Z" fill="white"/>
<path d="M35.9626 5.87646H35.4341V18.0912H35.9626V5.87646Z" fill="white"/>
<path d="M36.4906 5.87646H35.9622V18.0912H36.4906V5.87646Z" fill="white"/>
<path d="M37.0194 5.87646H36.491V18.0912H37.0194V5.87646Z" fill="white"/>
<path d="M37.5485 5.87646H37.02V18.0912H37.5485V5.87646Z" fill="white"/>
<path d="M38.0756 5.87646H37.5471V18.0912H38.0756V5.87646Z" fill="white"/>
<path d="M38.6042 5.87646H38.0757V18.0912H38.6042V5.87646Z" fill="white"/>
<path d="M39.1327 5.87646H38.6042V18.0912H39.1327V5.87646Z" fill="white"/>
</g>
<mask id="mask2_233_14865" style="mask-type:luminance" maskUnits="userSpaceOnUse" x="33" y="0" width="16" height="47">
<path d="M36.1467 46.9869C37.1238 46.2478 38.2281 45.5116 39.2278 44.6409C44.3182 40.2082 47.3082 34.5127 48.0182 27.5332C49.1153 16.7601 43.6505 6.58103 34.4225 2.07921C34.1519 1.94465 33.8659 1.8274 33.5907 1.69476C33.1179 1.46986 32.9194 0.994115 33.0999 0.527978C33.2803 0.0618412 33.7693 -0.133263 34.2565 0.096442C36.2187 1.00902 38.0561 2.20005 39.7186 3.63716C44.7151 7.98617 47.7539 13.55 48.7292 20.3537C50.244 30.9259 45.3007 41.6105 36.5392 46.7582C36.3831 46.8562 36.2288 46.9427 36.1467 46.9869Z" fill="white"/>
</mask>
<g mask="url(#mask2_233_14865)">
<path d="M34.9952 -0.126953H32.9192V46.9865H34.9952V-0.126953Z" fill="white"/>
<path d="M35.0973 -0.127197H34.9963V46.9863H35.0973V-0.127197Z" fill="white"/>
<path d="M35.1991 -0.127197H35.0981V46.9863H35.1991V-0.127197Z" fill="white"/>
<path d="M35.2992 -0.127197H35.1982V46.9863H35.2992V-0.127197Z" fill="white"/>
<path d="M35.4018 -0.127197H35.3008V46.9863H35.4018V-0.127197Z" fill="white"/>
<path d="M35.5026 -0.127197H35.4016V46.9863H35.5026V-0.127197Z" fill="white"/>
<path d="M35.6042 -0.127197H35.5032V46.9863H35.6042V-0.127197Z" fill="white"/>
<path d="M35.7048 -0.127197H35.6038V46.9863H35.7048V-0.127197Z" fill="white"/>
<path d="M35.8075 -0.127197H35.7065V46.9863H35.8075V-0.127197Z" fill="white"/>
<path d="M35.9081 -0.127197H35.8071V46.9863H35.9081V-0.127197Z" fill="white"/>
<path d="M36.0099 -0.127197H35.9089V46.9863H36.0099V-0.127197Z" fill="white"/>
<path d="M36.112 -0.127197H36.011V46.9863H36.112V-0.127197Z" fill="white"/>
<path d="M36.2121 -0.127197H36.1111V46.9863H36.2121V-0.127197Z" fill="white"/>
<path d="M36.3141 -0.127197H36.2131V46.9863H36.3141V-0.127197Z" fill="white"/>
<path d="M36.4155 -0.127197H36.3145V46.9863H36.4155V-0.127197Z" fill="white"/>
<path d="M36.5163 -0.127197H36.4153V46.9863H36.5163V-0.127197Z" fill="white"/>
<path d="M36.6188 -0.127197H36.5178V46.9863H36.6188V-0.127197Z" fill="white"/>
<path d="M36.7197 -0.127197H36.6187V46.9863H36.7197V-0.127197Z" fill="white"/>
<path d="M36.822 -0.127197H36.7209V46.9863H36.822V-0.127197Z" fill="white"/>
<path d="M36.9228 -0.127197H36.8218V46.9863H36.9228V-0.127197Z" fill="white"/>
<path d="M37.0253 -0.127197H36.9243V46.9863H37.0253V-0.127197Z" fill="white"/>
<path d="M37.1254 -0.127197H37.0244V46.9863H37.1254V-0.127197Z" fill="white"/>
<path d="M37.2267 -0.127197H37.1257V46.9863H37.2267V-0.127197Z" fill="white"/>
<path d="M37.3288 -0.127197H37.2278V46.9863H37.3288V-0.127197Z" fill="white"/>
<path d="M37.4294 -0.127197H37.3284V46.9863H37.4294V-0.127197Z" fill="white"/>
<path d="M37.5319 -0.127197H37.4309V46.9863H37.5319V-0.127197Z" fill="white"/>
<path d="M37.6328 -0.127197H37.5317V46.9863H37.6328V-0.127197Z" fill="white"/>
<path d="M37.7336 -0.127197H37.6326V46.9863H37.7336V-0.127197Z" fill="white"/>
<path d="M37.8361 -0.127197H37.7351V46.9863H37.8361V-0.127197Z" fill="white"/>
<path d="M37.9367 -0.127197H37.8357V46.9863H37.9367V-0.127197Z" fill="white"/>
<path d="M38.038 -0.127197H37.937V46.9863H38.038V-0.127197Z" fill="white"/>
<path d="M38.1401 -0.127197H38.0391V46.9863H38.1401V-0.127197Z" fill="white"/>
<path d="M38.2409 -0.127197H38.1399V46.9863H38.2409V-0.127197Z" fill="white"/>
<path d="M38.3427 -0.127197H38.2417V46.9863H38.3427V-0.127197Z" fill="white"/>
<path d="M38.4435 -0.127197H38.3425V46.9863H38.4435V-0.127197Z" fill="white"/>
<path d="M38.5451 -0.127197H38.4441V46.9863H38.5451V-0.127197Z" fill="white"/>
<path d="M38.6464 -0.127197H38.5454V46.9863H38.6464V-0.127197Z" fill="white"/>
<path d="M38.7482 -0.127197H38.6472V46.9863H38.7482V-0.127197Z" fill="white"/>
<path d="M38.8498 -0.127197H38.7488V46.9863H38.8498V-0.127197Z" fill="white"/>
<path d="M38.9513 -0.127197H38.8503V46.9863H38.9513V-0.127197Z" fill="white"/>
<path d="M39.0524 -0.127197H38.9514V46.9863H39.0524V-0.127197Z" fill="white"/>
<path d="M39.1547 -0.127197H39.0537V46.9863H39.1547V-0.127197Z" fill="white"/>
<path d="M39.2555 -0.127197H39.1545V46.9863H39.2555V-0.127197Z" fill="white"/>
<path d="M39.3571 -0.127197H39.2561V46.9863H39.3571V-0.127197Z" fill="white"/>
<path d="M39.4582 -0.127197H39.3572V46.9863H39.4582V-0.127197Z" fill="white"/>
<path d="M39.5597 -0.127197H39.4587V46.9863H39.5597V-0.127197Z" fill="white"/>
<path d="M39.6611 -0.127197H39.5601V46.9863H39.6611V-0.127197Z" fill="white"/>
<path d="M39.7629 -0.127197H39.6619V46.9863H39.7629V-0.127197Z" fill="white"/>
<path d="M39.8637 -0.127197H39.7627V46.9863H39.8637V-0.127197Z" fill="white"/>
<path d="M39.966 -0.127197H39.865V46.9863H39.966V-0.127197Z" fill="white"/>
<path d="M40.0671 -0.127197H39.9661V46.9863H40.0671V-0.127197Z" fill="white"/>
<path d="M40.1681 -0.127197H40.0671V46.9863H40.1681V-0.127197Z" fill="white"/>
<path d="M40.2697 -0.127197H40.1687V46.9863H40.2697V-0.127197Z" fill="white"/>
<path d="M40.3715 -0.127197H40.2705V46.9863H40.3715V-0.127197Z" fill="white"/>
<path d="M40.4728 -0.127197H40.3718V46.9863H40.4728V-0.127197Z" fill="white"/>
<path d="M40.5741 -0.127197H40.4731V46.9863H40.5741V-0.127197Z" fill="white"/>
<path d="M40.6755 -0.127197H40.5745V46.9863H40.6755V-0.127197Z" fill="white"/>
<path d="M40.777 -0.127197H40.676V46.9863H40.777V-0.127197Z" fill="white"/>
<path d="M40.8779 -0.127197H40.7769V46.9863H40.8779V-0.127197Z" fill="white"/>
<path d="M40.9804 -0.127197H40.8794V46.9863H40.9804V-0.127197Z" fill="white"/>
<path d="M41.081 -0.127197H40.98V46.9863H41.081V-0.127197Z" fill="white"/>
<path d="M41.1818 -0.127197H41.0808V46.9863H41.1818V-0.127197Z" fill="white"/>
<path d="M41.2844 -0.127197H41.1833V46.9863H41.2844V-0.127197Z" fill="white"/>
<path d="M41.5806 -0.127197H41.2839V46.9863H41.5806V-0.127197Z" fill="white"/>
<path d="M41.8778 -0.127197H41.5811V46.9863H41.8778V-0.127197Z" fill="white"/>
<path d="M42.1741 -0.127197H41.8774V46.9863H42.1741V-0.127197Z" fill="white"/>
<path d="M42.4708 -0.127197H42.1741V46.9863H42.4708V-0.127197Z" fill="white"/>
<path d="M42.7674 -0.127197H42.4707V46.9863H42.7674V-0.127197Z" fill="white"/>
<path d="M43.065 -0.127197H42.7683V46.9863H43.065V-0.127197Z" fill="white"/>
<path d="M43.3619 -0.127197H43.0652V46.9863H43.3619V-0.127197Z" fill="white"/>
<path d="M43.6585 -0.127197H43.3618V46.9863H43.6585V-0.127197Z" fill="white"/>
<path d="M43.9561 -0.127197H43.6594V46.9863H43.9561V-0.127197Z" fill="white"/>
<path d="M44.2508 -0.127197H43.9541V46.9863H44.2508V-0.127197Z" fill="white"/>
<path d="M44.5477 -0.127197H44.251V46.9863H44.5477V-0.127197Z" fill="white"/>
<path d="M44.8453 -0.127197H44.5486V46.9863H44.8453V-0.127197Z" fill="white"/>
<path d="M45.1419 -0.127197H44.8452V46.9863H45.1419V-0.127197Z" fill="white"/>
<path d="M45.4383 -0.127197H45.1416V46.9863H45.4383V-0.127197Z" fill="white"/>
<path d="M45.7359 -0.127197H45.4392V46.9863H45.7359V-0.127197Z" fill="white"/>
<path d="M46.0323 -0.127197H45.7356V46.9863H46.0323V-0.127197Z" fill="white"/>
<path d="M46.3289 -0.127197H46.0322V46.9863H46.3289V-0.127197Z" fill="white"/>
<path d="M46.6263 -0.127197H46.3296V46.9863H46.6263V-0.127197Z" fill="white"/>
<path d="M46.9227 -0.127197H46.626V46.9863H46.9227V-0.127197Z" fill="white"/>
<path d="M47.2186 -0.127197H46.9219V46.9863H47.2186V-0.127197Z" fill="white"/>
<path d="M47.5157 -0.127197H47.219V46.9863H47.5157V-0.127197Z" fill="white"/>
<path d="M47.8123 -0.127197H47.5156V46.9863H47.8123V-0.127197Z" fill="white"/>
<path d="M48.1094 -0.127197H47.8127V46.9863H48.1094V-0.127197Z" fill="white"/>
<path d="M48.4058 -0.127197H48.1091V46.9863H48.4058V-0.127197Z" fill="white"/>
<path d="M48.7032 -0.127197H48.4065V46.9863H48.7032V-0.127197Z" fill="white"/>
<path d="M48.9998 -0.127197H48.7031V46.9863H48.9998V-0.127197Z" fill="white"/>
<path d="M50.2434 -0.127197H48.9998V46.9863H50.2434V-0.127197Z" fill="white"/>
</g>
<mask id="mask3_233_14865" style="mask-type:luminance" maskUnits="userSpaceOnUse" x="0" y="2" width="16" height="47">
<path d="M12.6038 2.17432C11.6113 2.9432 10.5594 3.66596 9.6084 4.50789C4.77698 8.78289 1.86368 14.2304 1.04988 20.8765C-0.294443 31.862 5.13335 42.2746 14.558 46.9119C14.8224 47.0417 15.093 47.1561 15.3601 47.2791C15.8789 47.5174 16.0918 47.9932 15.9014 48.4805C15.7111 48.9677 15.2212 49.1311 14.7087 48.887C12.164 47.6879 9.83033 46.0343 7.80846 43.9979C3.6546 39.7946 1.1416 34.6754 0.269446 28.6403C-1.23366 18.1393 3.6555 7.49597 12.3512 2.30599C12.436 2.26082 12.5244 2.21757 12.6038 2.17432Z" fill="white"/>
</mask>
<g mask="url(#mask3_233_14865)">
<path d="M1.96205 2.17505H-1.23364V49.1319H1.96205V2.17505Z" fill="white"/>
<path d="M2.06389 2.17505H1.96289V49.1319H2.06389V2.17505Z" fill="white"/>
<path d="M2.16546 2.17505H2.06445V49.1319H2.16546V2.17505Z" fill="white"/>
<path d="M2.26531 2.17505H2.16431V49.1319H2.26531V2.17505Z" fill="white"/>
<path d="M2.36785 2.17505H2.26685V49.1319H2.36785V2.17505Z" fill="white"/>
<path d="M2.46892 2.17505H2.36792V49.1319H2.46892V2.17505Z" fill="white"/>
<path d="M2.57049 2.17505H2.46948V49.1319H2.57049V2.17505Z" fill="white"/>
<path d="M2.67205 2.17505H2.57104V49.1319H2.67205V2.17505Z" fill="white"/>
<path d="M2.77386 2.17505H2.67285V49.1319H2.77386V2.17505Z" fill="white"/>
<path d="M2.87493 2.17505H2.77393V49.1319H2.87493V2.17505Z" fill="white"/>
<path d="M2.97722 2.17505H2.87622V49.1319H2.97722V2.17505Z" fill="white"/>
<path d="M3.0783 2.17505H2.97729V49.1319H3.0783V2.17505Z" fill="white"/>
<path d="M3.17815 2.17505H3.07715V49.1319H3.17815V2.17505Z" fill="white"/>
<path d="M3.28167 2.17505H3.18066V49.1319H3.28167V2.17505Z" fill="white"/>
<path d="M3.38225 2.17505H3.28125V49.1319H3.38225V2.17505Z" fill="white"/>
<path d="M3.48382 2.17505H3.38281V49.1319H3.48382V2.17505Z" fill="white"/>
<path d="M3.58489 2.17505H3.48389V49.1319H3.58489V2.17505Z" fill="white"/>
<path d="M3.68719 2.17505H3.58618V49.1319H3.68719V2.17505Z" fill="white"/>
<path d="M3.78802 2.17505H3.68701V49.1319H3.78802V2.17505Z" fill="white"/>
<path d="M3.88885 2.17505H3.78784V49.1319H3.88885V2.17505Z" fill="white"/>
<path d="M3.99138 2.17505H3.89038V49.1319H3.99138V2.17505Z" fill="white"/>
<path d="M4.09173 2.17505H3.99072V49.1319H4.09173V2.17505Z" fill="white"/>
<path d="M4.19475 2.17505H4.09375V49.1319H4.19475V2.17505Z" fill="white"/>
<path d="M4.2951 2.17505H4.19409V49.1319H4.2951V2.17505Z" fill="white"/>
<path d="M4.39666 2.17505H4.29565V49.1319H4.39666V2.17505Z" fill="white"/>
<path d="M4.49822 2.17505H4.39722V49.1319H4.49822V2.17505Z" fill="white"/>
<path d="M4.60003 2.17505H4.49902V49.1319H4.60003V2.17505Z" fill="white"/>
<path d="M4.70159 2.17505H4.60059V49.1319H4.70159V2.17505Z" fill="white"/>
<path d="M4.80242 2.17505H4.70142V49.1319H4.80242V2.17505Z" fill="white"/>
<path d="M4.90496 2.17505H4.80396V49.1319H4.90496V2.17505Z" fill="white"/>
<path d="M5.00481 2.17505H4.90381V49.1319H5.00481V2.17505Z" fill="white"/>
<path d="M5.10735 2.17505H5.00635V49.1319H5.10735V2.17505Z" fill="white"/>
<path d="M5.20843 2.17505H5.10742V49.1319H5.20843V2.17505Z" fill="white"/>
<path d="M5.30999 2.17505H5.20898V49.1319H5.30999V2.17505Z" fill="white"/>
<path d="M5.41155 2.17505H5.31055V49.1319H5.41155V2.17505Z" fill="white"/>
<path d="M5.51262 2.17505H5.41162V49.1319H5.51262V2.17505Z" fill="white"/>
<path d="M5.61443 2.17505H5.51343V49.1319H5.61443V2.17505Z" fill="white"/>
<path d="M5.71502 2.17505H5.61401V49.1319H5.71502V2.17505Z" fill="white"/>
<path d="M5.8178 2.17505H5.7168V49.1319H5.8178V2.17505Z" fill="white"/>
<path d="M5.91765 2.17505H5.81665V49.1319H5.91765V2.17505Z" fill="white"/>
<path d="M6.02117 2.17505H5.92017V49.1319H6.02117V2.17505Z" fill="white"/>
<path d="M6.12102 2.17505H6.02002V49.1319H6.12102V2.17505Z" fill="white"/>
<path d="M6.22161 2.17505H6.12061V49.1319H6.22161V2.17505Z" fill="white"/>
<path d="M6.32439 2.17505H6.22339V49.1319H6.32439V2.17505Z" fill="white"/>
<path d="M6.42498 2.17505H6.32397V49.1319H6.42498V2.17505Z" fill="white"/>
<path d="M6.52752 2.17505H6.42651V49.1319H6.52752V2.17505Z" fill="white"/>
<path d="M6.62786 2.17505H6.52686V49.1319H6.62786V2.17505Z" fill="white"/>
<path d="M6.73089 2.17505H6.62988V49.1319H6.73089V2.17505Z" fill="white"/>
<path d="M6.83123 2.17505H6.73022V49.1319H6.83123V2.17505Z" fill="white"/>
<path d="M6.93279 2.17505H6.83179V49.1319H6.93279V2.17505Z" fill="white"/>
<path d="M7.0346 2.17505H6.93359V49.1319H7.0346V2.17505Z" fill="white"/>
<path d="M7.13445 2.17505H7.03345V49.1319H7.13445V2.17505Z" fill="white"/>
<path d="M7.23772 2.17505H7.13672V49.1319H7.23772V2.17505Z" fill="white"/>
<path d="M7.33855 2.17505H7.23755V49.1319H7.33855V2.17505Z" fill="white"/>
<path d="M7.44012 2.17505H7.33911V49.1319H7.44012V2.17505Z" fill="white"/>
<path d="M7.54119 2.17505H7.44019V49.1319H7.54119V2.17505Z" fill="white"/>
<path d="M7.64348 2.17505H7.54248V49.1319H7.64348V2.17505Z" fill="white"/>
<path d="M7.74431 2.17505H7.64331V49.1319H7.74431V2.17505Z" fill="white"/>
<path d="M7.84514 2.17505H7.74414V49.1319H7.84514V2.17505Z" fill="white"/>
<path d="M7.94793 2.17505H7.84692V49.1319H7.94793V2.17505Z" fill="white"/>
<path d="M8.04778 2.17505H7.94678V49.1319H8.04778V2.17505Z" fill="white"/>
<path d="M8.15105 2.17505H8.05005V49.1319H8.15105V2.17505Z" fill="white"/>
<path d="M8.25115 2.17505H8.15015V49.1319H8.25115V2.17505Z" fill="white"/>
<path d="M8.54841 2.17505H8.25171V49.1319H8.54841V2.17505Z" fill="white"/>
<path d="M8.8465 2.17505H8.5498V49.1319H8.8465V2.17505Z" fill="white"/>
<path d="M9.1424 2.17505H8.8457V49.1319H9.1424V2.17505Z" fill="white"/>
<path d="M9.43977 2.17505H9.14307V49.1319H9.43977V2.17505Z" fill="white"/>
<path d="M9.7364 2.17505H9.4397V49.1319H9.7364V2.17505Z" fill="white"/>
<path d="M10.0328 2.17505H9.73608V49.1319H10.0328V2.17505Z" fill="white"/>
<path d="M10.3287 2.17505H10.032V49.1319H10.3287V2.17505Z" fill="white"/>
<path d="M10.6256 2.17505H10.3289V49.1319H10.6256V2.17505Z" fill="white"/>
<path d="M10.9224 2.17505H10.6257V49.1319H10.9224V2.17505Z" fill="white"/>
<path d="M11.2198 2.17505H10.9231V49.1319H11.2198V2.17505Z" fill="white"/>
<path d="M11.5162 2.17505H11.2195V49.1319H11.5162V2.17505Z" fill="white"/>
<path d="M11.8133 2.17505H11.5166V49.1319H11.8133V2.17505Z" fill="white"/>
<path d="M12.1099 2.17505H11.8132V49.1319H12.1099V2.17505Z" fill="white"/>
<path d="M12.4066 2.17505H12.1099V49.1319H12.4066V2.17505Z" fill="white"/>
<path d="M12.7037 2.17505H12.407V49.1319H12.7037V2.17505Z" fill="white"/>
<path d="M13.0003 2.17505H12.7036V49.1319H13.0003V2.17505Z" fill="white"/>
<path d="M13.2974 2.17505H13.0007V49.1319H13.2974V2.17505Z" fill="white"/>
<path d="M13.5945 2.17505H13.2979V49.1319H13.5945V2.17505Z" fill="white"/>
<path d="M13.8912 2.17505H13.5945V49.1319H13.8912V2.17505Z" fill="white"/>
<path d="M14.1881 2.17505H13.8914V49.1319H14.1881V2.17505Z" fill="white"/>
<path d="M14.4847 2.17505H14.188V49.1319H14.4847V2.17505Z" fill="white"/>
<path d="M14.782 2.17505H14.4854V49.1319H14.782V2.17505Z" fill="white"/>
<path d="M15.0784 2.17505H14.7817V49.1319H15.0784V2.17505Z" fill="white"/>
<path d="M15.3748 2.17505H15.0781V49.1319H15.3748V2.17505Z" fill="white"/>
<path d="M15.6724 2.17505H15.3757V49.1319H15.6724V2.17505Z" fill="white"/>
<path d="M15.9691 2.17505H15.6724V49.1319H15.9691V2.17505Z" fill="white"/>
<path d="M16.0919 2.17505H15.9692V49.1319H16.0919V2.17505Z" fill="white"/>
</g>
<mask id="mask4_233_14865" style="mask-type:luminance" maskUnits="userSpaceOnUse" x="2" y="9" width="23" height="40">
<path d="M8.10704 9.36694C6.65107 11.3105 5.46876 13.4698 4.59737 15.7766C0.818846 25.8788 4.32671 37.4822 12.9502 43.2969C16.0623 45.4134 19.6471 46.6096 23.3366 46.7627C23.8482 46.7857 24.1811 47.1269 24.1559 47.594C24.1288 48.0746 23.795 48.3581 23.2663 48.335C23.1652 48.335 23.0651 48.3254 22.964 48.3158C20.7084 48.1034 18.5097 47.6008 16.4301 46.6425C8.82612 43.1412 4.17784 37.0536 2.85337 28.3392C1.79416 21.3789 3.5932 15.1403 7.81562 9.70717C7.91126 9.58992 8.0114 9.47843 8.10704 9.36694Z" fill="white"/>
</mask>
<g mask="url(#mask4_233_14865)">
<path d="M5.21065 9.36694H0.818604V48.3581H5.21065V9.36694Z" fill="white"/>
<path d="M5.34777 9.36694H5.21069V48.3581H5.34777V9.36694Z" fill="white"/>
<path d="M5.48522 9.36694H5.34814V48.3581H5.48522V9.36694Z" fill="white"/>
<path d="M5.62292 9.36694H5.48584V48.3581H5.62292V9.36694Z" fill="white"/>
<path d="M5.75963 9.36694H5.62256V48.3581H5.75963V9.36694Z" fill="white"/>
<path d="M5.89636 9.36694H5.75928V48.3581H5.89636V9.36694Z" fill="white"/>
<path d="M6.03405 9.36694H5.89697V48.3581H6.03405V9.36694Z" fill="white"/>
<path d="M6.1715 9.36694H6.03442V48.3581H6.1715V9.36694Z" fill="white"/>
<path d="M6.30895 9.36694H6.17188V48.3581H6.30895V9.36694Z" fill="white"/>
<path d="M6.44592 9.36694H6.30884V48.3581H6.44592V9.36694Z" fill="white"/>
<path d="M6.58361 9.36694H6.44653V48.3581H6.58361V9.36694Z" fill="white"/>
<path d="M6.72082 9.36694H6.58374V48.3581H6.72082V9.36694Z" fill="white"/>
<path d="M6.85754 9.36694H6.72046V48.3581H6.85754V9.36694Z" fill="white"/>
<path d="M6.9945 9.36694H6.85742V48.3581H6.9945V9.36694Z" fill="white"/>
<path d="M7.13171 9.36694H6.99463V48.3581H7.13171V9.36694Z" fill="white"/>
<path d="M7.26843 9.36694H7.13135V48.3581H7.26843V9.36694Z" fill="white"/>
<path d="M7.40612 9.36694H7.26904V48.3581H7.40612V9.36694Z" fill="white"/>
<path d="M7.54284 9.36694H7.40576V48.3581H7.54284V9.36694Z" fill="white"/>
<path d="M7.68127 9.36694H7.54419V48.3581H7.68127V9.36694Z" fill="white"/>
<path d="M7.81823 9.36694H7.68115V48.3581H7.81823V9.36694Z" fill="white"/>
<path d="M7.95568 9.36694H7.8186V48.3581H7.95568V9.36694Z" fill="white"/>
<path d="M8.09313 9.36694H7.95605V48.3581H8.09313V9.36694Z" fill="white"/>
<path d="M8.22911 9.36694H8.09204V48.3581H8.22911V9.36694Z" fill="white"/>
<path d="M8.36682 9.36694H8.22974V48.3581H8.36682V9.36694Z" fill="white"/>
<path d="M8.50329 9.36694H8.36621V48.3581H8.50329V9.36694Z" fill="white"/>
<path d="M8.64098 9.36694H8.50391V48.3581H8.64098V9.36694Z" fill="white"/>
<path d="M8.77844 9.36694H8.64136V48.3581H8.77844V9.36694Z" fill="white"/>
<path d="M8.91516 9.36694H8.77808V48.3581H8.91516V9.36694Z" fill="white"/>
<path d="M9.05211 9.36694H8.91504V48.3581H9.05211V9.36694Z" fill="white"/>
<path d="M9.19128 9.36694H9.0542V48.3581H9.19128V9.36694Z" fill="white"/>
<path d="M9.32726 9.36694H9.19019V48.3581H9.32726V9.36694Z" fill="white"/>
<path d="M9.4652 9.36694H9.32812V48.3581H9.4652V9.36694Z" fill="white"/>
<path d="M9.60119 9.36694H9.46411V48.3581H9.60119V9.36694Z" fill="white"/>
<path d="M9.73962 9.36694H9.60254V48.3581H9.73962V9.36694Z" fill="white"/>
<path d="M9.87633 9.36694H9.73926V48.3581H9.87633V9.36694Z" fill="white"/>
<path d="M10.0135 9.36694H9.87646V48.3581H10.0135V9.36694Z" fill="white"/>
<path d="M10.1508 9.36694H10.0137V48.3581H10.1508V9.36694Z" fill="white"/>
<path d="M10.2884 9.36694H10.1514V48.3581H10.2884V9.36694Z" fill="white"/>
<path d="M10.4252 9.36694H10.2881V48.3581H10.4252V9.36694Z" fill="white"/>
<path d="M10.5616 9.36694H10.4246V48.3581H10.5616V9.36694Z" fill="white"/>
<path d="M10.6996 9.36694H10.5625V48.3581H10.6996V9.36694Z" fill="white"/>
<path d="M10.8368 9.36694H10.6997V48.3581H10.8368V9.36694Z" fill="white"/>
<path d="M10.9745 9.36694H10.8374V48.3581H10.9745V9.36694Z" fill="white"/>
<path d="M11.1112 9.36694H10.9741V48.3581H11.1112V9.36694Z" fill="white"/>
<path d="M11.2489 9.36694H11.1118V48.3581H11.2489V9.36694Z" fill="white"/>
<path d="M11.3856 9.36694H11.2485V48.3581H11.3856V9.36694Z" fill="white"/>
<path d="M11.5228 9.36694H11.3857V48.3581H11.5228V9.36694Z" fill="white"/>
<path d="M11.6598 9.36694H11.5227V48.3581H11.6598V9.36694Z" fill="white"/>
<path d="M11.798 9.36694H11.6609V48.3581H11.798V9.36694Z" fill="white"/>
<path d="M11.9339 9.36694H11.7969V48.3581H11.9339V9.36694Z" fill="white"/>
<path d="M12.0712 9.36694H11.9341V48.3581H12.0712V9.36694Z" fill="white"/>
<path d="M12.2091 9.36694H12.072V48.3581H12.2091V9.36694Z" fill="white"/>
<path d="M12.3468 9.36694H12.2097V48.3581H12.3468V9.36694Z" fill="white"/>
<path d="M12.4838 9.36694H12.3467V48.3581H12.4838V9.36694Z" fill="white"/>
<path d="M12.6212 9.36694H12.4841V48.3581H12.6212V9.36694Z" fill="white"/>
<path d="M12.7579 9.36694H12.6208V48.3581H12.7579V9.36694Z" fill="white"/>
<path d="M12.8964 9.36694H12.7593V48.3581H12.8964V9.36694Z" fill="white"/>
<path d="M13.0321 9.36694H12.895V48.3581H13.0321V9.36694Z" fill="white"/>
<path d="M13.1693 9.36694H13.0322V48.3581H13.1693V9.36694Z" fill="white"/>
<path d="M13.3065 9.36694H13.1694V48.3581H13.3065V9.36694Z" fill="white"/>
<path d="M13.444 9.36694H13.3069V48.3581H13.444V9.36694Z" fill="white"/>
<path d="M13.5807 9.36694H13.4436V48.3581H13.5807V9.36694Z" fill="white"/>
<path d="M13.7184 9.36694H13.5813V48.3581H13.7184V9.36694Z" fill="white"/>
<path d="M14.1201 9.36694H13.7188V48.3581H14.1201V9.36694Z" fill="white"/>
<path d="M14.5217 9.36694H14.1204V48.3581H14.5217V9.36694Z" fill="white"/>
<path d="M14.923 9.36694H14.5217V48.3581H14.923V9.36694Z" fill="white"/>
<path d="M15.3247 9.36694H14.9233V48.3581H15.3247V9.36694Z" fill="white"/>
<path d="M15.7265 9.36694H15.3252V48.3581H15.7265V9.36694Z" fill="white"/>
<path d="M16.1281 9.36694H15.7268V48.3581H16.1281V9.36694Z" fill="white"/>
<path d="M16.5297 9.36694H16.1284V48.3581H16.5297V9.36694Z" fill="white"/>
<path d="M16.9311 9.36694H16.5298V48.3581H16.9311V9.36694Z" fill="white"/>
<path d="M17.3322 9.36694H16.9309V48.3581H17.3322V9.36694Z" fill="white"/>
<path d="M17.7338 9.36694H17.3325V48.3581H17.7338V9.36694Z" fill="white"/>
<path d="M18.1352 9.36694H17.7339V48.3581H18.1352V9.36694Z" fill="white"/>
<path d="M18.5358 9.36694H18.1345V48.3581H18.5358V9.36694Z" fill="white"/>
<path d="M18.9374 9.36694H18.5361V48.3581H18.9374V9.36694Z" fill="white"/>
<path d="M19.3386 9.36694H18.9373V48.3581H19.3386V9.36694Z" fill="white"/>
<path d="M19.7399 9.36694H19.3386V48.3581H19.7399V9.36694Z" fill="white"/>
<path d="M20.1415 9.36694H19.7402V48.3581H20.1415V9.36694Z" fill="white"/>
<path d="M20.5432 9.36694H20.1418V48.3581H20.5432V9.36694Z" fill="white"/>
<path d="M20.9443 9.36694H20.543V48.3581H20.9443V9.36694Z" fill="white"/>
<path d="M21.3464 9.36694H20.9451V48.3581H21.3464V9.36694Z" fill="white"/>
<path d="M21.7477 9.36694H21.3464V48.3581H21.7477V9.36694Z" fill="white"/>
<path d="M22.1489 9.36694H21.7476V48.3581H22.1489V9.36694Z" fill="white"/>
<path d="M22.5512 9.36694H22.1499V48.3581H22.5512V9.36694Z" fill="white"/>
<path d="M22.9514 9.36694H22.55V48.3581H22.9514V9.36694Z" fill="white"/>
<path d="M23.3532 9.36694H22.9519V48.3581H23.3532V9.36694Z" fill="white"/>
<path d="M23.7553 9.36694H23.354V48.3581H23.7553V9.36694Z" fill="white"/>
<path d="M24.1569 9.36694H23.7556V48.3581H24.1569V9.36694Z" fill="white"/>
</g>
<mask id="mask5_233_14865" style="mask-type:luminance" maskUnits="userSpaceOnUse" x="24" y="0" width="23" height="40">
<path d="M41.1958 39.1973C41.655 38.4948 42.0908 37.8758 42.4805 37.2271C48.9901 26.3858 45.8982 12.3344 36.0242 5.69121C32.9204 3.58783 29.3487 2.39858 25.6729 2.24468C25.1929 2.22161 24.8934 1.95634 24.8528 1.52288C24.8364 1.33698 24.8833 1.15101 24.9848 0.998792C25.0863 0.846571 25.2357 0.738224 25.4059 0.693453C25.5827 0.664908 25.7625 0.662319 25.94 0.685763C28.8046 0.935651 31.5392 1.70646 34.1033 3.09526C39.9525 6.26691 43.8934 11.1907 45.6103 17.9357C47.5835 25.689 46.0822 32.7531 41.3897 39.0436C41.369 39.0719 41.3461 39.0982 41.3212 39.1224C41.2811 39.1505 41.2392 39.1755 41.1958 39.1973Z" fill="white"/>
</mask>
<g mask="url(#mask5_233_14865)">
<path d="M27.4991 0.657227H24.8123V39.1976H27.4991V0.657227Z" fill="white"/>
<path d="M27.6371 0.657227H27.5V39.1976H27.6371V0.657227Z" fill="white"/>
<path d="M27.7753 0.657227H27.6382V39.1976H27.7753V0.657227Z" fill="white"/>
<path d="M27.9127 0.657227H27.7756V39.1976H27.9127V0.657227Z" fill="white"/>
<path d="M28.0504 0.657227H27.9133V39.1976H28.0504V0.657227Z" fill="white"/>
<path d="M28.1869 0.657227H28.0498V39.1976H28.1869V0.657227Z" fill="white"/>
<path d="M28.3238 0.657227H28.1868V39.1976H28.3238V0.657227Z" fill="white"/>
<path d="M28.4613 0.657227H28.3242V39.1976H28.4613V0.657227Z" fill="white"/>
<path d="M28.598 0.657227H28.4609V39.1976H28.598V0.657227Z" fill="white"/>
<path d="M28.7355 0.657227H28.5984V39.1976H28.7355V0.657227Z" fill="white"/>
<path d="M28.8739 0.657227H28.7368V39.1976H28.8739V0.657227Z" fill="white"/>
<path d="M29.0106 0.657227H28.8735V39.1976H29.0106V0.657227Z" fill="white"/>
<path d="M29.1478 0.657227H29.0107V39.1976H29.1478V0.657227Z" fill="white"/>
<path d="M29.2848 0.657227H29.1477V39.1976H29.2848V0.657227Z" fill="white"/>
<path d="M29.422 0.657227H29.2849V39.1976H29.422V0.657227Z" fill="white"/>
<path d="M29.5587 0.657227H29.4216V39.1976H29.5587V0.657227Z" fill="white"/>
<path d="M29.6964 0.657227H29.5593V39.1976H29.6964V0.657227Z" fill="white"/>
<path d="M29.8351 0.657227H29.698V39.1976H29.8351V0.657227Z" fill="white"/>
<path d="M29.9716 0.657227H29.8345V39.1976H29.9716V0.657227Z" fill="white"/>
<path d="M30.109 0.657227H29.9719V39.1976H30.109V0.657227Z" fill="white"/>
<path d="M30.2462 0.657227H30.1091V39.1976H30.2462V0.657227Z" fill="white"/>
<path d="M30.3832 0.657227H30.2461V39.1976H30.3832V0.657227Z" fill="white"/>
<path d="M30.5201 0.657227H30.3831V39.1976H30.5201V0.657227Z" fill="white"/>
<path d="M30.6566 0.657227H30.5195V39.1976H30.6566V0.657227Z" fill="white"/>
<path d="M30.7941 0.657227H30.657V39.1976H30.7941V0.657227Z" fill="white"/>
<path d="M30.933 0.657227H30.7959V39.1976H30.933V0.657227Z" fill="white"/>
<path d="M31.0697 0.657227H30.9326V39.1976H31.0697V0.657227Z" fill="white"/>
<path d="M31.2067 0.657227H31.0696V39.1976H31.2067V0.657227Z" fill="white"/>
<path d="M31.3434 0.657227H31.2063V39.1976H31.3434V0.657227Z" fill="white"/>
<path d="M31.4806 0.657227H31.3435V39.1976H31.4806V0.657227Z" fill="white"/>
<path d="M31.6183 0.657227H31.4812V39.1976H31.6183V0.657227Z" fill="white"/>
<path d="M31.755 0.657227H31.6179V39.1976H31.755V0.657227Z" fill="white"/>
<path d="M31.8934 0.657227H31.7563V39.1976H31.8934V0.657227Z" fill="white"/>
<path d="M32.0301 0.657227H31.8931V39.1976H32.0301V0.657227Z" fill="white"/>
<path d="M32.1678 0.657227H32.0308V39.1976H32.1678V0.657227Z" fill="white"/>
<path d="M32.305 0.657227H32.168V39.1976H32.305V0.657227Z" fill="white"/>
<path d="M32.4418 0.657227H32.3047V39.1976H32.4418V0.657227Z" fill="white"/>
<path d="M32.5782 0.657227H32.4412V39.1976H32.5782V0.657227Z" fill="white"/>
<path d="M32.7159 0.657227H32.5789V39.1976H32.7159V0.657227Z" fill="white"/>
<path d="M32.8544 0.657227H32.7173V39.1976H32.8544V0.657227Z" fill="white"/>
<path d="M32.9918 0.657227H32.8547V39.1976H32.9918V0.657227Z" fill="white"/>
<path d="M33.1283 0.657227H32.9912V39.1976H33.1283V0.657227Z" fill="white"/>
<path d="M33.2655 0.657227H33.1284V39.1976H33.2655V0.657227Z" fill="white"/>
<path d="M33.4029 0.657227H33.2659V39.1976H33.4029V0.657227Z" fill="white"/>
<path d="M33.5399 0.657227H33.4028V39.1976H33.5399V0.657227Z" fill="white"/>
<path d="M33.6761 0.657227H33.5391V39.1976H33.6761V0.657227Z" fill="white"/>
<path d="M33.8146 0.657227H33.6775V39.1976H33.8146V0.657227Z" fill="white"/>
<path d="M33.9523 0.657227H33.8152V39.1976H33.9523V0.657227Z" fill="white"/>
<path d="M34.0897 0.657227H33.9526V39.1976H34.0897V0.657227Z" fill="white"/>
<path d="M34.2264 0.657227H34.0894V39.1976H34.2264V0.657227Z" fill="white"/>
<path d="M34.3629 0.657227H34.2258V39.1976H34.3629V0.657227Z" fill="white"/>
<path d="M34.5008 0.657227H34.3638V39.1976H34.5008V0.657227Z" fill="white"/>
<path d="M34.6378 0.657227H34.5007V39.1976H34.6378V0.657227Z" fill="white"/>
<path d="M34.7745 0.657227H34.6375V39.1976H34.7745V0.657227Z" fill="white"/>
<path d="M34.913 0.657227H34.7759V39.1976H34.913V0.657227Z" fill="white"/>
<path d="M35.0504 0.657227H34.9133V39.1976H35.0504V0.657227Z" fill="white"/>
<path d="M35.1874 0.657227H35.0503V39.1976H35.1874V0.657227Z" fill="white"/>
<path d="M35.3248 0.657227H35.1877V39.1976H35.3248V0.657227Z" fill="white"/>
<path d="M35.4611 0.657227H35.324V39.1976H35.4611V0.657227Z" fill="white"/>
<path d="M35.5987 0.657227H35.4617V39.1976H35.5987V0.657227Z" fill="white"/>
<path d="M35.7357 0.657227H35.5986V39.1976H35.7357V0.657227Z" fill="white"/>
<path d="M35.8739 0.657227H35.7368V39.1976H35.8739V0.657227Z" fill="white"/>
<path d="M36.0109 0.657227H35.8738V39.1976H36.0109V0.657227Z" fill="white"/>
<path d="M36.4121 0.657227H36.0107V39.1976H36.4121V0.657227Z" fill="white"/>
<path d="M36.8139 0.657227H36.4126V39.1976H36.8139V0.657227Z" fill="white"/>
<path d="M37.2158 0.657227H36.8145V39.1976H37.2158V0.657227Z" fill="white"/>
<path d="M37.6169 0.657227H37.2156V39.1976H37.6169V0.657227Z" fill="white"/>
<path d="M38.019 0.657227H37.6177V39.1976H38.019V0.657227Z" fill="white"/>
<path d="M38.4206 0.657227H38.0193V39.1976H38.4206V0.657227Z" fill="white"/>
<path d="M38.8227 0.657227H38.4214V39.1976H38.8227V0.657227Z" fill="white"/>
<path d="M39.2233 0.657227H38.822V39.1976H39.2233V0.657227Z" fill="white"/>
<path d="M39.6247 0.657227H39.2234V39.1976H39.6247V0.657227Z" fill="white"/>
<path d="M40.0268 0.657227H39.6255V39.1976H40.0268V0.657227Z" fill="white"/>
<path d="M40.4279 0.657227H40.0266V39.1976H40.4279V0.657227Z" fill="white"/>
<path d="M40.8303 0.657227H40.429V39.1976H40.8303V0.657227Z" fill="white"/>
<path d="M41.2314 0.657227H40.8301V39.1976H41.2314V0.657227Z" fill="white"/>
<path d="M41.6335 0.657227H41.2322V39.1976H41.6335V0.657227Z" fill="white"/>
<path d="M42.0353 0.657227H41.634V39.1976H42.0353V0.657227Z" fill="white"/>
<path d="M42.4367 0.657227H42.0354V39.1976H42.4367V0.657227Z" fill="white"/>
<path d="M42.8381 0.657227H42.4368V39.1976H42.8381V0.657227Z" fill="white"/>
<path d="M43.2399 0.657227H42.8386V39.1976H43.2399V0.657227Z" fill="white"/>
<path d="M43.6416 0.657227H43.2402V39.1976H43.6416V0.657227Z" fill="white"/>
<path d="M44.0419 0.657227H43.6406V39.1976H44.0419V0.657227Z" fill="white"/>
<path d="M44.4438 0.657227H44.0425V39.1976H44.4438V0.657227Z" fill="white"/>
<path d="M44.8466 0.657227H44.4453V39.1976H44.8466V0.657227Z" fill="white"/>
<path d="M45.248 0.657227H44.8467V39.1976H45.248V0.657227Z" fill="white"/>
<path d="M45.6494 0.657227H45.248V39.1976H45.6494V0.657227Z" fill="white"/>
<path d="M46.0515 0.657227H45.6501V39.1976H46.0515V0.657227Z" fill="white"/>
<path d="M46.4521 0.657227H46.0508V39.1976H46.4521V0.657227Z" fill="white"/>
<path d="M48.9888 0.657227H46.4529V39.1976H48.9888V0.657227Z" fill="white"/>
</g>
<mask id="mask6_233_14865" style="mask-type:luminance" maskUnits="userSpaceOnUse" x="18" y="3" width="27" height="29">
<path d="M42.916 31.3668C43.1325 30.3989 43.3671 29.5042 43.5295 28.5949C45.5559 17.4086 38.5122 6.56732 27.9616 4.6403C25.0585 4.10284 22.0773 4.30439 19.2614 5.22851C19.1649 5.26022 19.0692 5.29386 18.9718 5.32462C18.5784 5.4313 18.2193 5.2285 18.1201 4.85079C18.0937 4.75888 18.0855 4.66214 18.096 4.56668C18.1065 4.47123 18.1355 4.37913 18.1811 4.29621C18.2267 4.21329 18.288 4.14135 18.361 4.08494C18.4341 4.02854 18.5173 3.98888 18.6055 3.96849C19.2316 3.7878 19.8605 3.61096 20.5001 3.48794C28.7167 1.86655 36.8666 5.65524 41.2225 13.2538C44.4038 18.8041 44.9514 24.7409 43.0964 30.9324C43.0658 31.0342 43.0261 31.1332 42.9891 31.2322C42.9746 31.2591 42.9557 31.288 42.916 31.3668Z" fill="white"/>
</mask>
<g mask="url(#mask6_233_14865)">
<path d="M21.2963 1.8606H18.0186V31.3666H21.2963V1.8606Z" fill="white"/>
<path d="M21.4623 1.86084H21.2964V31.3668H21.4623V1.86084Z" fill="white"/>
<path d="M21.6281 1.86084H21.4622V31.3668H21.6281V1.86084Z" fill="white"/>
<path d="M21.7936 1.86084H21.6277V31.3668H21.7936V1.86084Z" fill="white"/>
<path d="M21.9587 1.86084H21.7927V31.3668H21.9587V1.86084Z" fill="white"/>
<path d="M22.1235 1.86084H21.9575V31.3668H22.1235V1.86084Z" fill="white"/>
<path d="M22.29 1.86084H22.124V31.3668H22.29V1.86084Z" fill="white"/>
<path d="M22.4552 1.86084H22.2893V31.3668H22.4552V1.86084Z" fill="white"/>
<path d="M22.621 1.86084H22.4551V31.3668H22.621V1.86084Z" fill="white"/>
<path d="M22.7865 1.86084H22.6206V31.3668H22.7865V1.86084Z" fill="white"/>
<path d="M22.9523 1.86084H22.7864V31.3668H22.9523V1.86084Z" fill="white"/>
<path d="M23.1173 1.86084H22.9514V31.3668H23.1173V1.86084Z" fill="white"/>
<path d="M23.2839 1.86084H23.1179V31.3668H23.2839V1.86084Z" fill="white"/>
<path d="M23.4484 1.86084H23.2825V31.3668H23.4484V1.86084Z" fill="white"/>
<path d="M23.6144 1.86084H23.4485V31.3668H23.6144V1.86084Z" fill="white"/>
<path d="M23.7797 1.86084H23.6138V31.3668H23.7797V1.86084Z" fill="white"/>
<path d="M23.9455 1.86084H23.7795V31.3668H23.9455V1.86084Z" fill="white"/>
<path d="M24.1105 1.86084H23.9446V31.3668H24.1105V1.86084Z" fill="white"/>
<path d="M24.2768 1.86084H24.1108V31.3668H24.2768V1.86084Z" fill="white"/>
<path d="M24.4421 1.86084H24.2761V31.3668H24.4421V1.86084Z" fill="white"/>
<path d="M24.6069 1.86084H24.4409V31.3668H24.6069V1.86084Z" fill="white"/>
<path d="M24.7734 1.86084H24.6074V31.3668H24.7734V1.86084Z" fill="white"/>
<path d="M24.9391 1.86084H24.7732V31.3668H24.9391V1.86084Z" fill="white"/>
<path d="M25.1037 1.86084H24.9377V31.3668H25.1037V1.86084Z" fill="white"/>
<path d="M25.2707 1.86084H25.1047V31.3668H25.2707V1.86084Z" fill="white"/>
<path d="M25.4357 1.86084H25.2698V31.3668H25.4357V1.86084Z" fill="white"/>
<path d="M25.6015 1.86084H25.4355V31.3668H25.6015V1.86084Z" fill="white"/>
<path d="M25.7663 1.86084H25.6003V31.3668H25.7663V1.86084Z" fill="white"/>
<path d="M25.933 1.86084H25.7671V31.3668H25.933V1.86084Z" fill="white"/>
<path d="M26.0976 1.86084H25.9316V31.3668H26.0976V1.86084Z" fill="white"/>
<path d="M26.2636 1.86084H26.0977V31.3668H26.2636V1.86084Z" fill="white"/>
<path d="M26.4286 1.86084H26.2627V31.3668H26.4286V1.86084Z" fill="white"/>
<path d="M26.5946 1.86084H26.4287V31.3668H26.5946V1.86084Z" fill="white"/>
<path d="M26.7592 1.86084H26.5933V31.3668H26.7592V1.86084Z" fill="white"/>
<path d="M26.9257 1.86084H26.7598V31.3668H26.9257V1.86084Z" fill="white"/>
<path d="M27.0905 1.86084H26.9246V31.3668H27.0905V1.86084Z" fill="white"/>
<path d="M27.2568 1.86084H27.0908V31.3668H27.2568V1.86084Z" fill="white"/>
<path d="M27.422 1.86084H27.2561V31.3668H27.422V1.86084Z" fill="white"/>
<path d="M27.5883 1.86084H27.4224V31.3668H27.5883V1.86084Z" fill="white"/>
<path d="M27.7531 1.86084H27.5872V31.3668H27.7531V1.86084Z" fill="white"/>
<path d="M27.9189 1.86084H27.7529V31.3668H27.9189V1.86084Z" fill="white"/>
<path d="M28.0844 1.86084H27.9185V31.3668H28.0844V1.86084Z" fill="white"/>
<path d="M28.2499 1.86084H28.084V31.3668H28.2499V1.86084Z" fill="white"/>
<path d="M28.415 1.86084H28.249V31.3668H28.415V1.86084Z" fill="white"/>
<path d="M28.5812 1.86084H28.4153V31.3668H28.5812V1.86084Z" fill="white"/>
<path d="M28.7463 1.86084H28.5803V31.3668H28.7463V1.86084Z" fill="white"/>
<path d="M28.912 1.86084H28.7461V31.3668H28.912V1.86084Z" fill="white"/>
<path d="M29.0778 1.86084H28.9119V31.3668H29.0778V1.86084Z" fill="white"/>
<path d="M29.2441 1.86084H29.0781V31.3668H29.2441V1.86084Z" fill="white"/>
<path d="M29.4091 1.86084H29.2432V31.3668H29.4091V1.86084Z" fill="white"/>
<path d="M29.5751 1.86084H29.4092V31.3668H29.5751V1.86084Z" fill="white"/>
<path d="M29.7397 1.86084H29.5737V31.3668H29.7397V1.86084Z" fill="white"/>
<path d="M29.9059 1.86084H29.74V31.3668H29.9059V1.86084Z" fill="white"/>
<path d="M30.0717 1.86084H29.9058V31.3668H30.0717V1.86084Z" fill="white"/>
<path d="M30.237 1.86084H30.071V31.3668H30.237V1.86084Z" fill="white"/>
<path d="M30.402 1.86084H30.2361V31.3668H30.402V1.86084Z" fill="white"/>
<path d="M30.568 1.86084H30.4021V31.3668H30.568V1.86084Z" fill="white"/>
<path d="M30.7326 1.86084H30.5667V31.3668H30.7326V1.86084Z" fill="white"/>
<path d="M30.8996 1.86084H30.7336V31.3668H30.8996V1.86084Z" fill="white"/>
<path d="M31.0651 1.86084H30.8992V31.3668H31.0651V1.86084Z" fill="white"/>
<path d="M31.2299 1.86084H31.064V31.3668H31.2299V1.86084Z" fill="white"/>
<path d="M31.3959 1.86084H31.23V31.3668H31.3959V1.86084Z" fill="white"/>
<path d="M31.5617 1.86084H31.3958V31.3668H31.5617V1.86084Z" fill="white"/>
<path d="M32.0448 1.86084H31.5605V31.3668H32.0448V1.86084Z" fill="white"/>
<path d="M32.5292 1.86084H32.0449V31.3668H32.5292V1.86084Z" fill="white"/>
<path d="M33.0138 1.86084H32.5295V31.3668H33.0138V1.86084Z" fill="white"/>
<path d="M33.4982 1.86084H33.0139V31.3668H33.4982V1.86084Z" fill="white"/>
<path d="M33.9828 1.86084H33.4985V31.3668H33.9828V1.86084Z" fill="white"/>
<path d="M34.4679 1.86084H33.9836V31.3668H34.4679V1.86084Z" fill="white"/>
<path d="M34.9528 1.86084H34.4685V31.3668H34.9528V1.86084Z" fill="white"/>
<path d="M35.4369 1.86084H34.9526V31.3668H35.4369V1.86084Z" fill="white"/>
<path d="M35.9198 1.86084H35.4355V31.3668H35.9198V1.86084Z" fill="white"/>
<path d="M36.4052 1.86084H35.9209V31.3668H36.4052V1.86084Z" fill="white"/>
<path d="M36.8891 1.86084H36.4048V31.3668H36.8891V1.86084Z" fill="white"/>
<path d="M37.373 1.86084H36.8887V31.3668H37.373V1.86084Z" fill="white"/>
<path d="M37.8581 1.86084H37.3738V31.3668H37.8581V1.86084Z" fill="white"/>
<path d="M38.3432 1.86084H37.8589V31.3668H38.3432V1.86084Z" fill="white"/>
<path d="M38.8271 1.86084H38.3428V31.3668H38.8271V1.86084Z" fill="white"/>
<path d="M39.3112 1.86084H38.8269V31.3668H39.3112V1.86084Z" fill="white"/>
<path d="M39.7968 1.86084H39.3125V31.3668H39.7968V1.86084Z" fill="white"/>
<path d="M40.2799 1.86084H39.7957V31.3668H40.2799V1.86084Z" fill="white"/>
<path d="M40.7646 1.86084H40.2803V31.3668H40.7646V1.86084Z" fill="white"/>
<path d="M41.2487 1.86084H40.7644V31.3668H41.2487V1.86084Z" fill="white"/>
<path d="M41.7326 1.86084H41.2483V31.3668H41.7326V1.86084Z" fill="white"/>
<path d="M42.2177 1.86084H41.7334V31.3668H42.2177V1.86084Z" fill="white"/>
<path d="M42.7016 1.86084H42.2173V31.3668H42.7016V1.86084Z" fill="white"/>
<path d="M43.1869 1.86084H42.7026V31.3668H43.1869V1.86084Z" fill="white"/>
<path d="M43.6715 1.86084H43.1873V31.3668H43.6715V1.86084Z" fill="white"/>
<path d="M44.1559 1.86084H43.6716V31.3668H44.1559V1.86084Z" fill="white"/>
<path d="M45.5568 1.86084H44.1562V31.3668H45.5568V1.86084Z" fill="white"/>
</g>
<mask id="mask7_233_14865" style="mask-type:luminance" maskUnits="userSpaceOnUse" x="4" y="17" width="27" height="29">
<path d="M6.20355 17.3409C6.02311 18.0243 5.82913 18.7019 5.67665 19.391C3.66739 28.4831 7.42516 37.652 15.1049 42.1548C19.737 44.8728 24.6478 45.3543 29.7309 43.7839C29.8383 43.7502 29.9439 43.708 30.0521 43.6801C30.4265 43.584 30.7793 43.7848 30.8795 44.1491C30.9072 44.2374 30.9178 44.3309 30.9104 44.4237C30.9031 44.5165 30.8781 44.6068 30.8368 44.6889C30.7956 44.7711 30.7391 44.8434 30.6707 44.9015C30.6023 44.9595 30.5235 45.0021 30.4392 45.0266C29.7824 45.2188 29.1201 45.4053 28.4543 45.5341C20.5869 47.0401 12.8918 43.6945 8.34995 36.7034C5.45019 32.24 4.39278 27.2663 5.06314 21.8831C5.25074 20.3934 5.59734 18.9314 6.09619 17.5255C6.11964 17.4592 6.14941 17.3967 6.17648 17.3333L6.20355 17.3409Z" fill="white"/>
</mask>
<g mask="url(#mask7_233_14865)">
<path d="M8.07125 17.3318H3.66748V47.0396H8.07125V17.3318Z" fill="white"/>
<path d="M8.23706 17.3318H8.07202V47.0396H8.23706V17.3318Z" fill="white"/>
<path d="M8.40234 17.3318H8.2373V47.0396H8.40234V17.3318Z" fill="white"/>
<path d="M8.56713 17.3318H8.4021V47.0396H8.56713V17.3318Z" fill="white"/>
<path d="M8.73315 17.3318H8.56812V47.0396H8.73315V17.3318Z" fill="white"/>
<path d="M8.89868 17.3318H8.73364V47.0396H8.89868V17.3318Z" fill="white"/>
<path d="M9.06371 17.3318H8.89868V47.0396H9.06371V17.3318Z" fill="white"/>
<path d="M9.22998 17.3318H9.06494V47.0396H9.22998V17.3318Z" fill="white"/>
<path d="M9.39428 17.3318H9.22925V47.0396H9.39428V17.3318Z" fill="white"/>
<path d="M9.55932 17.3318H9.39429V47.0396H9.55932V17.3318Z" fill="white"/>
<path d="M9.72485 17.3318H9.55981V47.0396H9.72485V17.3318Z" fill="white"/>
<path d="M9.89087 17.3318H9.72583V47.0396H9.89087V17.3318Z" fill="white"/>
<path d="M10.0557 17.3318H9.89062V47.0396H10.0557V17.3318Z" fill="white"/>
<path d="M10.2222 17.3318H10.0571V47.0396H10.2222V17.3318Z" fill="white"/>
<path d="M10.3872 17.3318H10.2222V47.0396H10.3872V17.3318Z" fill="white"/>
<path d="M10.5515 17.3318H10.3865V47.0396H10.5515V17.3318Z" fill="white"/>
<path d="M10.7178 17.3318H10.5527V47.0396H10.7178V17.3318Z" fill="white"/>
<path d="M10.8838 17.3318H10.7188V47.0396H10.8838V17.3318Z" fill="white"/>
<path d="M11.0486 17.3318H10.8835V47.0396H11.0486V17.3318Z" fill="white"/>
<path d="M11.2144 17.3318H11.0493V47.0396H11.2144V17.3318Z" fill="white"/>
<path d="M11.3791 17.3318H11.2141V47.0396H11.3791V17.3318Z" fill="white"/>
<path d="M11.5444 17.3318H11.3794V47.0396H11.5444V17.3318Z" fill="white"/>
<path d="M11.7102 17.3318H11.5452V47.0396H11.7102V17.3318Z" fill="white"/>
<path d="M11.8755 17.3318H11.7104V47.0396H11.8755V17.3318Z" fill="white"/>
<path d="M12.0405 17.3318H11.8755V47.0396H12.0405V17.3318Z" fill="white"/>
<path d="M12.2056 17.3318H12.0405V47.0396H12.2056V17.3318Z" fill="white"/>
<path d="M12.3718 17.3318H12.2068V47.0396H12.3718V17.3318Z" fill="white"/>
<path d="M12.5361 17.3318H12.3711V47.0396H12.5361V17.3318Z" fill="white"/>
<path d="M12.7021 17.3318H12.5371V47.0396H12.7021V17.3318Z" fill="white"/>
<path d="M12.8684 17.3318H12.7034V47.0396H12.8684V17.3318Z" fill="white"/>
<path d="M13.0334 17.3318H12.8684V47.0396H13.0334V17.3318Z" fill="white"/>
<path d="M13.1985 17.3318H13.0334V47.0396H13.1985V17.3318Z" fill="white"/>
<path d="M13.3643 17.3318H13.1992V47.0396H13.3643V17.3318Z" fill="white"/>
<path d="M13.53 17.3318H13.365V47.0396H13.53V17.3318Z" fill="white"/>
<path d="M13.6951 17.3318H13.53V47.0396H13.6951V17.3318Z" fill="white"/>
<path d="M13.8608 17.3318H13.6958V47.0396H13.8608V17.3318Z" fill="white"/>
<path d="M14.0256 17.3318H13.8606V47.0396H14.0256V17.3318Z" fill="white"/>
<path d="M14.1904 17.3318H14.0254V47.0396H14.1904V17.3318Z" fill="white"/>
<path d="M14.3564 17.3318H14.1914V47.0396H14.3564V17.3318Z" fill="white"/>
<path d="M14.5215 17.3318H14.3564V47.0396H14.5215V17.3318Z" fill="white"/>
<path d="M14.6868 17.3318H14.5217V47.0396H14.6868V17.3318Z" fill="white"/>
<path d="M14.8538 17.3318H14.6887V47.0396H14.8538V17.3318Z" fill="white"/>
<path d="M15.0181 17.3318H14.853V47.0396H15.0181V17.3318Z" fill="white"/>
<path d="M15.1831 17.3318H15.0181V47.0396H15.1831V17.3318Z" fill="white"/>
<path d="M15.3494 17.3318H15.1843V47.0396H15.3494V17.3318Z" fill="white"/>
<path d="M15.5144 17.3318H15.3494V47.0396H15.5144V17.3318Z" fill="white"/>
<path d="M15.6797 17.3318H15.5146V47.0396H15.6797V17.3318Z" fill="white"/>
<path d="M15.8455 17.3318H15.6804V47.0396H15.8455V17.3318Z" fill="white"/>
<path d="M16.011 17.3318H15.8459V47.0396H16.011V17.3318Z" fill="white"/>
<path d="M16.176 17.3318H16.011V47.0396H16.176V17.3318Z" fill="white"/>
<path d="M16.3415 17.3318H16.1765V47.0396H16.3415V17.3318Z" fill="white"/>
<path d="M16.5061 17.3318H16.3411V47.0396H16.5061V17.3318Z" fill="white"/>
<path d="M16.6721 17.3318H16.5071V47.0396H16.6721V17.3318Z" fill="white"/>
<path d="M16.8384 17.3318H16.6733V47.0396H16.8384V17.3318Z" fill="white"/>
<path d="M17.0024 17.3318H16.8374V47.0396H17.0024V17.3318Z" fill="white"/>
<path d="M17.1677 17.3318H17.0027V47.0396H17.1677V17.3318Z" fill="white"/>
<path d="M17.3342 17.3318H17.1692V47.0396H17.3342V17.3318Z" fill="white"/>
<path d="M17.499 17.3318H17.334V47.0396H17.499V17.3318Z" fill="white"/>
<path d="M17.6641 17.3318H17.499V47.0396H17.6641V17.3318Z" fill="white"/>
<path d="M17.8306 17.3318H17.6655V47.0396H17.8306V17.3318Z" fill="white"/>
<path d="M17.9954 17.3318H17.8303V47.0396H17.9954V17.3318Z" fill="white"/>
<path d="M18.1606 17.3318H17.9956V47.0396H18.1606V17.3318Z" fill="white"/>
<path d="M18.3257 17.3318H18.1606V47.0396H18.3257V17.3318Z" fill="white"/>
<path d="M18.8103 17.3318H18.3269V47.0396H18.8103V17.3318Z" fill="white"/>
<path d="M19.2932 17.3318H18.8098V47.0396H19.2932V17.3318Z" fill="white"/>
<path d="M19.7778 17.3318H19.2944V47.0396H19.7778V17.3318Z" fill="white"/>
<path d="M20.2615 17.3318H19.7781V47.0396H20.2615V17.3318Z" fill="white"/>
<path d="M20.7456 17.3318H20.2622V47.0396H20.7456V17.3318Z" fill="white"/>
<path d="M21.2295 17.3318H20.7461V47.0396H21.2295V17.3318Z" fill="white"/>
<path d="M21.7126 17.3318H21.2292V47.0396H21.7126V17.3318Z" fill="white"/>
<path d="M22.1972 17.3318H21.7139V47.0396H22.1972V17.3318Z" fill="white"/>
<path d="M22.6814 17.3318H22.198V47.0396H22.6814V17.3318Z" fill="white"/>
<path d="M23.165 17.3318H22.6816V47.0396H23.165V17.3318Z" fill="white"/>
<path d="M23.6484 17.3318H23.165V47.0396H23.6484V17.3318Z" fill="white"/>
<path d="M24.133 17.3318H23.6497V47.0396H24.133V17.3318Z" fill="white"/>
<path d="M24.6167 17.3318H24.1333V47.0396H24.6167V17.3318Z" fill="white"/>
<path d="M25.1018 17.3318H24.6184V47.0396H25.1018V17.3318Z" fill="white"/>
<path d="M25.5849 17.3318H25.1016V47.0396H25.5849V17.3318Z" fill="white"/>
<path d="M26.0683 17.3318H25.585V47.0396H26.0683V17.3318Z" fill="white"/>
<path d="M26.5532 17.3318H26.0698V47.0396H26.5532V17.3318Z" fill="white"/>
<path d="M27.0361 17.3318H26.5527V47.0396H27.0361V17.3318Z" fill="white"/>
<path d="M27.5195 17.3318H27.0361V47.0396H27.5195V17.3318Z" fill="white"/>
<path d="M28.0049 17.3318H27.5215V47.0396H28.0049V17.3318Z" fill="white"/>
<path d="M28.4883 17.3318H28.0049V47.0396H28.4883V17.3318Z" fill="white"/>
<path d="M28.9729 17.332H28.4895V47.0399H28.9729V17.332Z" fill="white"/>
<path d="M29.4565 17.332H28.9731V47.0399H29.4565V17.332Z" fill="white"/>
<path d="M29.9404 17.332H29.457V47.0399H29.9404V17.332Z" fill="white"/>
<path d="M30.425 17.332H29.9417V47.0399H30.425V17.332Z" fill="white"/>
<path d="M30.9077 17.332H30.4243V47.0399H30.9077V17.332Z" fill="white"/>
<path d="M30.985 17.332H30.9092V47.0399H30.985V17.332Z" fill="white"/>
</g>
<mask id="mask8_233_14865" style="mask-type:luminance" maskUnits="userSpaceOnUse" x="6" y="24" width="30" height="20">
<path d="M6.94398 24.251C7.01435 26.2876 7.24622 28.303 7.92109 30.2166C10.4979 37.5268 15.4303 41.7566 22.7176 42.637C27.1033 43.1675 31.0903 41.8133 34.627 38.9847C34.8607 38.7983 35.0926 38.6964 35.3696 38.8367C35.7855 39.052 35.8207 39.6585 35.4065 39.9487C34.6018 40.5081 33.8024 41.0915 32.948 41.5538C25.1572 45.7682 15.8481 43.5125 10.5141 36.1399C8.12138 32.8462 6.72564 28.2127 6.94398 24.251Z" fill="white"/>
</mask>
<g mask="url(#mask8_233_14865)">
<path d="M10.4589 24.251H6.72729V45.7731H10.4589V24.251Z" fill="white"/>
<path d="M10.6411 24.251H10.458V45.7731H10.6411V24.251Z" fill="white"/>
<path d="M10.8249 24.251H10.6418V45.7731H10.8249V24.251Z" fill="white"/>
<path d="M11.0078 24.251H10.8247V45.7731H11.0078V24.251Z" fill="white"/>
<path d="M11.1899 24.251H11.0068V45.7731H11.1899V24.251Z" fill="white"/>
<path d="M11.3733 24.251H11.1902V45.7731H11.3733V24.251Z" fill="white"/>
<path d="M11.5554 24.251H11.3723V45.7731H11.5554V24.251Z" fill="white"/>
<path d="M11.7382 24.251H11.5552V45.7731H11.7382V24.251Z" fill="white"/>
<path d="M11.9214 24.251H11.7383V45.7731H11.9214V24.251Z" fill="white"/>
<path d="M12.103 24.251H11.9199V45.7731H12.103V24.251Z" fill="white"/>
<path d="M12.2868 24.251H12.1038V45.7731H12.2868V24.251Z" fill="white"/>
<path d="M12.4697 24.251H12.2866V45.7731H12.4697V24.251Z" fill="white"/>
<path d="M12.6526 24.251H12.4695V45.7731H12.6526V24.251Z" fill="white"/>
<path d="M12.8347 24.251H12.6516V45.7731H12.8347V24.251Z" fill="white"/>
<path d="M13.018 24.251H12.835V45.7731H13.018V24.251Z" fill="white"/>
<path d="M13.2014 24.251H13.0183V45.7731H13.2014V24.251Z" fill="white"/>
<path d="M13.383 24.251H13.2V45.7731H13.383V24.251Z" fill="white"/>
<path d="M13.5666 24.251H13.3835V45.7731H13.5666V24.251Z" fill="white"/>
<path d="M13.748 24.251H13.5649V45.7731H13.748V24.251Z" fill="white"/>
<path d="M13.9318 24.251H13.7488V45.7731H13.9318V24.251Z" fill="white"/>
<path d="M14.1147 24.251H13.9316V45.7731H14.1147V24.251Z" fill="white"/>
<path d="M14.2976 24.251H14.1145V45.7731H14.2976V24.251Z" fill="white"/>
<path d="M14.4802 24.251H14.2971V45.7731H14.4802V24.251Z" fill="white"/>
<path d="M14.6623 24.251H14.4792V45.7731H14.6623V24.251Z" fill="white"/>
<path d="M14.8459 24.251H14.6628V45.7731H14.8459V24.251Z" fill="white"/>
<path d="M15.0288 24.251H14.8457V45.7731H15.0288V24.251Z" fill="white"/>
<path d="M15.2111 24.251H15.0281V45.7731H15.2111V24.251Z" fill="white"/>
<path d="M15.3947 24.251H15.2117V45.7731H15.3947V24.251Z" fill="white"/>
<path d="M15.5766 24.251H15.3936V45.7731H15.5766V24.251Z" fill="white"/>
<path d="M15.7597 24.251H15.5767V45.7731H15.7597V24.251Z" fill="white"/>
<path d="M15.9428 24.251H15.7598V45.7731H15.9428V24.251Z" fill="white"/>
<path d="M16.1252 24.251H15.9421V45.7731H16.1252V24.251Z" fill="white"/>
<path d="M16.3081 24.251H16.125V45.7731H16.3081V24.251Z" fill="white"/>
<path d="M16.4909 24.251H16.3079V45.7731H16.4909V24.251Z" fill="white"/>
<path d="M16.6736 24.251H16.4905V45.7731H16.6736V24.251Z" fill="white"/>
<path d="M16.8564 24.251H16.6733V45.7731H16.8564V24.251Z" fill="white"/>
<path d="M17.0385 24.251H16.8555V45.7731H17.0385V24.251Z" fill="white"/>
<path d="M17.2224 24.251H17.0393V45.7731H17.2224V24.251Z" fill="white"/>
<path d="M17.4047 24.251H17.2217V45.7731H17.4047V24.251Z" fill="white"/>
<path d="M17.5879 24.251H17.4048V45.7731H17.5879V24.251Z" fill="white"/>
<path d="M17.77 24.251H17.5869V45.7731H17.77V24.251Z" fill="white"/>
<path d="M17.9528 24.251H17.7698V45.7731H17.9528V24.251Z" fill="white"/>
<path d="M18.1367 24.251H17.9536V45.7731H18.1367V24.251Z" fill="white"/>
<path d="M18.3186 24.251H18.1355V45.7731H18.3186V24.251Z" fill="white"/>
<path d="M18.5024 24.251H18.3193V45.7731H18.5024V24.251Z" fill="white"/>
<path d="M18.6848 24.251H18.5017V45.7731H18.6848V24.251Z" fill="white"/>
<path d="M18.8664 24.251H18.6833V45.7731H18.8664V24.251Z" fill="white"/>
<path d="M19.05 24.251H18.8669V45.7731H19.05V24.251Z" fill="white"/>
<path d="M19.2326 24.251H19.0496V45.7731H19.2326V24.251Z" fill="white"/>
<path d="M19.4157 24.251H19.2327V45.7731H19.4157V24.251Z" fill="white"/>
<path d="M19.5986 24.251H19.4155V45.7731H19.5986V24.251Z" fill="white"/>
<path d="M19.7807 24.251H19.5977V45.7731H19.7807V24.251Z" fill="white"/>
<path d="M19.9643 24.251H19.7812V45.7731H19.9643V24.251Z" fill="white"/>
<path d="M20.1465 24.251H19.9634V45.7731H20.1465V24.251Z" fill="white"/>
<path d="M20.3286 24.251H20.1455V45.7731H20.3286V24.251Z" fill="white"/>
<path d="M20.5122 24.251H20.3291V45.7731H20.5122V24.251Z" fill="white"/>
<path d="M20.6943 24.251H20.5112V45.7731H20.6943V24.251Z" fill="white"/>
<path d="M20.8776 24.251H20.6946V45.7731H20.8776V24.251Z" fill="white"/>
<path d="M21.061 24.251H20.8779V45.7731H21.061V24.251Z" fill="white"/>
<path d="M21.2434 24.251H21.0603V45.7731H21.2434V24.251Z" fill="white"/>
<path d="M21.4262 24.251H21.2432V45.7731H21.4262V24.251Z" fill="white"/>
<path d="M21.6086 24.251H21.4255V45.7731H21.6086V24.251Z" fill="white"/>
<path d="M21.7922 24.251H21.6091V45.7731H21.7922V24.251Z" fill="white"/>
<path d="M22.3258 24.251H21.791V45.7731H22.3258V24.251Z" fill="white"/>
<path d="M22.8617 24.251H22.3269V45.7731H22.8617V24.251Z" fill="white"/>
<path d="M23.3959 24.251H22.8611V45.7731H23.3959V24.251Z" fill="white"/>
<path d="M23.9313 24.251H23.3965V45.7731H23.9313V24.251Z" fill="white"/>
<path d="M24.4652 24.251H23.9304V45.7731H24.4652V24.251Z" fill="white"/>
<path d="M24.9996 24.251H24.4648V45.7731H24.9996V24.251Z" fill="white"/>
<path d="M25.5345 24.251H24.9998V45.7731H25.5345V24.251Z" fill="white"/>
<path d="M26.0692 24.251H25.5344V45.7731H26.0692V24.251Z" fill="white"/>
<path d="M26.6046 24.251H26.0698V45.7731H26.6046V24.251Z" fill="white"/>
<path d="M27.1393 24.251H26.6045V45.7731H27.1393V24.251Z" fill="white"/>
<path d="M27.6747 24.251H27.1399V45.7731H27.6747V24.251Z" fill="white"/>
<path d="M28.2096 24.251H27.6748V45.7731H28.2096V24.251Z" fill="white"/>
<path d="M28.743 24.251H28.2083V45.7731H28.743V24.251Z" fill="white"/>
<path d="M29.2789 24.2512H28.7441V45.7733H29.2789V24.2512Z" fill="white"/>
<path d="M29.8131 24.2512H29.2783V45.7733H29.8131V24.2512Z" fill="white"/>
<path d="M30.349 24.2512H29.8142V45.7733H30.349V24.2512Z" fill="white"/>
<path d="M30.8837 24.2512H30.3489V45.7733H30.8837V24.2512Z" fill="white"/>
<path d="M31.4181 24.2512H30.8833V45.7733H31.4181V24.2512Z" fill="white"/>
<path d="M31.9537 24.2512H31.4189V45.7733H31.9537V24.2512Z" fill="white"/>
<path d="M32.4877 24.2512H31.9529V45.7733H32.4877V24.2512Z" fill="white"/>
<path d="M33.0213 24.2512H32.4866V45.7733H33.0213V24.2512Z" fill="white"/>
<path d="M33.5572 24.2512H33.0225V45.7733H33.5572V24.2512Z" fill="white"/>
<path d="M34.0921 24.2512H33.5574V45.7733H34.0921V24.2512Z" fill="white"/>
<path d="M34.6276 24.2512H34.0928V45.7733H34.6276V24.2512Z" fill="white"/>
<path d="M35.1615 24.2512H34.6267V45.7733H35.1615V24.2512Z" fill="white"/>
<path d="M35.6964 24.2512H35.1616V45.7733H35.6964V24.2512Z" fill="white"/>
<path d="M35.8192 24.2512H35.6965V45.7733H35.8192V24.2512Z" fill="white"/>
</g>
<mask id="mask9_233_14865" style="mask-type:luminance" maskUnits="userSpaceOnUse" x="9" y="30" width="30" height="12">
<path d="M9.87521 30.8643C10.2361 31.5716 10.5546 32.3059 10.9579 32.9787C13.6005 37.4719 17.3808 40.2312 22.3259 40.8348C28.5784 41.5979 33.5442 39.0798 37.164 33.5832C37.2091 33.515 37.2461 33.441 37.2912 33.3727C37.4951 33.0613 37.81 32.9758 38.0725 33.1584C38.3351 33.341 38.3883 33.6861 38.188 34.0061C37.347 35.3619 36.321 36.5766 35.1439 37.6103C31.7181 40.6041 27.7916 42.0506 23.3861 41.5806C17.0335 40.8992 12.5494 37.346 9.94287 31.1305C9.91117 31.0462 9.88347 30.9602 9.85986 30.8729L9.87521 30.8643Z" fill="white"/>
</mask>
<g mask="url(#mask9_233_14865)">
<path d="M13.3511 30.8643H9.85498V42.0496H13.3511V30.8643Z" fill="white"/>
<path d="M13.5319 30.8643H13.3516V42.0496H13.5319V30.8643Z" fill="white"/>
<path d="M13.7136 30.8643H13.5332V42.0496H13.7136V30.8643Z" fill="white"/>
<path d="M13.8935 30.8643H13.7131V42.0496H13.8935V30.8643Z" fill="white"/>
<path d="M14.0737 30.8643H13.8933V42.0496H14.0737V30.8643Z" fill="white"/>
<path d="M14.2556 30.8643H14.0752V42.0496H14.2556V30.8643Z" fill="white"/>
<path d="M14.4362 30.8643H14.2559V42.0496H14.4362V30.8643Z" fill="white"/>
<path d="M14.6162 30.8643H14.4358V42.0496H14.6162V30.8643Z" fill="white"/>
<path d="M14.7966 30.8643H14.6162V42.0496H14.7966V30.8643Z" fill="white"/>
<path d="M14.978 30.8643H14.7976V42.0496H14.978V30.8643Z" fill="white"/>
<path d="M15.1589 30.8643H14.9785V42.0496H15.1589V30.8643Z" fill="white"/>
<path d="M15.3386 30.8643H15.1582V42.0496H15.3386V30.8643Z" fill="white"/>
<path d="M15.5205 30.8643H15.3401V42.0496H15.5205V30.8643Z" fill="white"/>
<path d="M15.7011 30.8643H15.5208V42.0496H15.7011V30.8643Z" fill="white"/>
<path d="M15.881 30.8643H15.7007V42.0496H15.881V30.8643Z" fill="white"/>
<path d="M16.061 30.8643H15.8806V42.0496H16.061V30.8643Z" fill="white"/>
<path d="M16.2431 30.8643H16.0627V42.0496H16.2431V30.8643Z" fill="white"/>
<path d="M16.423 30.8643H16.2427V42.0496H16.423V30.8643Z" fill="white"/>
<path d="M16.6039 30.8643H16.4236V42.0496H16.6039V30.8643Z" fill="white"/>
<path d="M16.7849 30.8643H16.6045V42.0496H16.7849V30.8643Z" fill="white"/>
<path d="M16.9655 30.8643H16.7852V42.0496H16.9655V30.8643Z" fill="white"/>
<path d="M17.1464 30.8643H16.9661V42.0496H17.1464V30.8643Z" fill="white"/>
<path d="M17.3264 30.8643H17.146V42.0496H17.3264V30.8643Z" fill="white"/>
<path d="M17.5075 30.8643H17.3271V42.0496H17.5075V30.8643Z" fill="white"/>
<path d="M17.6879 30.8643H17.5076V42.0496H17.6879V30.8643Z" fill="white"/>
<path d="M17.8684 30.8643H17.688V42.0496H17.8684V30.8643Z" fill="white"/>
<path d="M18.05 30.8643H17.8696V42.0496H18.05V30.8643Z" fill="white"/>
<path d="M18.2299 30.8643H18.0496V42.0496H18.2299V30.8643Z" fill="white"/>
<path d="M18.4108 30.8643H18.2305V42.0496H18.4108V30.8643Z" fill="white"/>
<path d="M18.5913 30.8643H18.4109V42.0496H18.5913V30.8643Z" fill="white"/>
<path d="M18.7722 30.8643H18.5918V42.0496H18.7722V30.8643Z" fill="white"/>
<path d="M18.9533 30.8643H18.7729V42.0496H18.9533V30.8643Z" fill="white"/>
<path d="M19.134 30.8643H18.9536V42.0496H19.134V30.8643Z" fill="white"/>
<path d="M19.3149 30.8643H19.1345V42.0496H19.3149V30.8643Z" fill="white"/>
<path d="M19.4951 30.8643H19.3147V42.0496H19.4951V30.8643Z" fill="white"/>
<path d="M19.676 30.8643H19.4956V42.0496H19.676V30.8643Z" fill="white"/>
<path d="M19.8564 30.8643H19.676V42.0496H19.8564V30.8643Z" fill="white"/>
<path d="M20.0378 30.8643H19.8574V42.0496H20.0378V30.8643Z" fill="white"/>
<path d="M20.2177 30.8643H20.0374V42.0496H20.2177V30.8643Z" fill="white"/>
<path d="M20.3986 30.8643H20.2183V42.0496H20.3986V30.8643Z" fill="white"/>
<path d="M20.5803 30.8643H20.3999V42.0496H20.5803V30.8643Z" fill="white"/>
<path d="M20.7602 30.8643H20.5798V42.0496H20.7602V30.8643Z" fill="white"/>
<path d="M20.9409 30.8643H20.7605V42.0496H20.9409V30.8643Z" fill="white"/>
<path d="M21.1225 30.8643H20.9421V42.0496H21.1225V30.8643Z" fill="white"/>
<path d="M21.3029 30.8643H21.1226V42.0496H21.3029V30.8643Z" fill="white"/>
<path d="M21.4829 30.8643H21.3025V42.0496H21.4829V30.8643Z" fill="white"/>
<path d="M21.6633 30.8643H21.4829V42.0496H21.6633V30.8643Z" fill="white"/>
<path d="M21.8447 30.8643H21.6643V42.0496H21.8447V30.8643Z" fill="white"/>
<path d="M22.0246 30.8643H21.8442V42.0496H22.0246V30.8643Z" fill="white"/>
<path d="M22.205 30.8643H22.0247V42.0496H22.205V30.8643Z" fill="white"/>
<path d="M22.3872 30.8643H22.2068V42.0496H22.3872V30.8643Z" fill="white"/>
<path d="M22.5678 30.8643H22.3875V42.0496H22.5678V30.8643Z" fill="white"/>
<path d="M22.7477 30.8643H22.5674V42.0496H22.7477V30.8643Z" fill="white"/>
<path d="M22.9284 30.8643H22.748V42.0496H22.9284V30.8643Z" fill="white"/>
<path d="M23.1098 30.8643H22.9294V42.0496H23.1098V30.8643Z" fill="white"/>
<path d="M23.2897 30.8643H23.1094V42.0496H23.2897V30.8643Z" fill="white"/>
<path d="M23.4706 30.8643H23.2903V42.0496H23.4706V30.8643Z" fill="white"/>
<path d="M23.6523 30.8643H23.4719V42.0496H23.6523V30.8643Z" fill="white"/>
<path d="M23.832 30.8643H23.6516V42.0496H23.832V30.8643Z" fill="white"/>
<path d="M24.0117 30.8643H23.8313V42.0496H24.0117V30.8643Z" fill="white"/>
<path d="M24.1935 30.8643H24.0132V42.0496H24.1935V30.8643Z" fill="white"/>
<path d="M24.3747 30.8643H24.1943V42.0496H24.3747V30.8643Z" fill="white"/>
<path d="M24.5546 30.8643H24.3743V42.0496H24.5546V30.8643Z" fill="white"/>
<path d="M25.0834 30.8643H24.5549V42.0496H25.0834V30.8643Z" fill="white"/>
<path d="M25.6122 30.8643H25.0837V42.0496H25.6122V30.8643Z" fill="white"/>
<path d="M26.141 30.8643H25.6125V42.0496H26.141V30.8643Z" fill="white"/>
<path d="M26.6701 30.8643H26.1416V42.0496H26.6701V30.8643Z" fill="white"/>
<path d="M27.1986 30.8643H26.6702V42.0496H27.1986V30.8643Z" fill="white"/>
<path d="M27.7272 30.8643H27.1987V42.0496H27.7272V30.8643Z" fill="white"/>
<path d="M28.256 30.8643H27.7275V42.0496H28.256V30.8643Z" fill="white"/>
<path d="M28.7843 30.8643H28.2559V42.0496H28.7843V30.8643Z" fill="white"/>
<path d="M29.3141 30.8643H28.7856V42.0496H29.3141V30.8643Z" fill="white"/>
<path d="M29.8427 30.8643H29.3142V42.0496H29.8427V30.8643Z" fill="white"/>
<path d="M30.3708 30.8643H29.8423V42.0496H30.3708V30.8643Z" fill="white"/>
<path d="M30.8996 30.8643H30.3711V42.0496H30.8996V30.8643Z" fill="white"/>
<path d="M31.4284 30.8643H30.8999V42.0496H31.4284V30.8643Z" fill="white"/>
<path d="M31.9564 30.8643H31.428V42.0496H31.9564V30.8643Z" fill="white"/>
<path d="M32.486 30.8643H31.9575V42.0496H32.486V30.8643Z" fill="white"/>
<path d="M33.0141 30.8643H32.4856V42.0496H33.0141V30.8643Z" fill="white"/>
<path d="M33.5431 30.8643H33.0146V42.0496H33.5431V30.8643Z" fill="white"/>
<path d="M34.0722 30.8643H33.5437V42.0496H34.0722V30.8643Z" fill="white"/>
<path d="M34.6002 30.8643H34.0718V42.0496H34.6002V30.8643Z" fill="white"/>
<path d="M35.1298 30.8643H34.6013V42.0496H35.1298V30.8643Z" fill="white"/>
<path d="M35.6583 30.8643H35.1299V42.0496H35.6583V30.8643Z" fill="white"/>
<path d="M36.1869 30.8643H35.6584V42.0496H36.1869V30.8643Z" fill="white"/>
<path d="M36.7155 30.8643H36.187V42.0496H36.7155V30.8643Z" fill="white"/>
<path d="M37.2443 30.8643H36.7158V42.0496H37.2443V30.8643Z" fill="white"/>
<path d="M37.7726 30.8643H37.2441V42.0496H37.7726V30.8643Z" fill="white"/>
<path d="M38.3017 30.8643H37.7732V42.0496H38.3017V30.8643Z" fill="white"/>
<path d="M38.3836 30.8643H38.3022V42.0496H38.3836V30.8643Z" fill="white"/>
</g>
<mask id="mask10_233_14865" style="mask-type:luminance" maskUnits="userSpaceOnUse" x="14" y="27" width="25" height="13">
<path d="M14.1965 34.9879C14.9634 35.6241 15.724 36.3498 16.5676 36.9418C24.7273 42.6719 35.5974 38.0673 37.8601 27.9468C37.9081 27.7353 38.0248 27.5488 38.1895 27.4201C38.2968 27.348 38.5792 27.399 38.6658 27.5047C38.7251 27.5854 38.768 27.6783 38.7918 27.7776C38.8155 27.8768 38.8197 27.9803 38.8039 28.0814C38.5361 29.2894 38.1231 30.4556 37.5751 31.551C34.8215 37.1408 29.2358 40.3931 23.3415 39.7992C19.7795 39.4368 16.7616 37.8318 14.2768 35.0898C14.2371 35.0446 14.2047 34.9975 14.1965 34.9879Z" fill="white"/>
</mask>
<g mask="url(#mask10_233_14865)">
<path d="M17.2215 27.3484H14.1963V42.6723H17.2215V27.3484Z" fill="white"/>
<path d="M17.3777 27.3481H17.2217V42.672H17.3777V27.3481Z" fill="white"/>
<path d="M17.5337 27.3481H17.3777V42.672H17.5337V27.3481Z" fill="white"/>
<path d="M17.69 27.3481H17.5339V42.672H17.69V27.3481Z" fill="white"/>
<path d="M17.8474 27.3481H17.6914V42.672H17.8474V27.3481Z" fill="white"/>
<path d="M18.0034 27.3481H17.8474V42.672H18.0034V27.3481Z" fill="white"/>
<path d="M18.1589 27.3481H18.0029V42.672H18.1589V27.3481Z" fill="white"/>
<path d="M18.3167 27.3481H18.1606V42.672H18.3167V27.3481Z" fill="white"/>
<path d="M18.4722 27.3481H18.3162V42.672H18.4722V27.3481Z" fill="white"/>
<path d="M18.6282 27.3481H18.4722V42.672H18.6282V27.3481Z" fill="white"/>
<path d="M18.7854 27.3481H18.6294V42.672H18.7854V27.3481Z" fill="white"/>
<path d="M18.9414 27.3481H18.7854V42.672H18.9414V27.3481Z" fill="white"/>
<path d="M19.0974 27.3481H18.9414V42.672H19.0974V27.3481Z" fill="white"/>
<path d="M19.2554 27.3481H19.0994V42.672H19.2554V27.3481Z" fill="white"/>
<path d="M19.4109 27.3481H19.2549V42.672H19.4109V27.3481Z" fill="white"/>
<path d="M19.5664 27.3481H19.4104V42.672H19.5664V27.3481Z" fill="white"/>
<path d="M19.7236 27.3481H19.5676V42.672H19.7236V27.3481Z" fill="white"/>
<path d="M19.8799 27.3481H19.7239V42.672H19.8799V27.3481Z" fill="white"/>
<path d="M20.0359 27.3481H19.8799V42.672H20.0359V27.3481Z" fill="white"/>
<path d="M20.1926 27.3481H20.0366V42.672H20.1926V27.3481Z" fill="white"/>
<path d="M20.3491 27.3481H20.1931V42.672H20.3491V27.3481Z" fill="white"/>
<path d="M20.5046 27.3481H20.3486V42.672H20.5046V27.3481Z" fill="white"/>
<path d="M20.6619 27.3481H20.5059V42.672H20.6619V27.3481Z" fill="white"/>
<path d="M20.8184 27.3481H20.6624V42.672H20.8184V27.3481Z" fill="white"/>
<path d="M20.9746 27.3481H20.8186V42.672H20.9746V27.3481Z" fill="white"/>
<path d="M21.1306 27.3481H20.9746V42.672H21.1306V27.3481Z" fill="white"/>
<path d="M21.2871 27.3481H21.1311V42.672H21.2871V27.3481Z" fill="white"/>
<path d="M21.4434 27.3481H21.2874V42.672H21.4434V27.3481Z" fill="white"/>
<path d="M21.5991 27.3481H21.4431V42.672H21.5991V27.3481Z" fill="white"/>
<path d="M21.7566 27.3481H21.6006V42.672H21.7566V27.3481Z" fill="white"/>
<path d="M21.9129 27.3481H21.7568V42.672H21.9129V27.3481Z" fill="white"/>
<path d="M22.0684 27.3481H21.9124V42.672H22.0684V27.3481Z" fill="white"/>
<path d="M22.2263 27.3481H22.0703V42.672H22.2263V27.3481Z" fill="white"/>
<path d="M22.3818 27.3481H22.2258V42.672H22.3818V27.3481Z" fill="white"/>
<path d="M22.5374 27.3481H22.3813V42.672H22.5374V27.3481Z" fill="white"/>
<path d="M22.6948 27.3481H22.5388V42.672H22.6948V27.3481Z" fill="white"/>
<path d="M22.8503 27.3481H22.6943V42.672H22.8503V27.3481Z" fill="white"/>
<path d="M23.0064 27.3481H22.8503V42.672H23.0064V27.3481Z" fill="white"/>
<path d="M23.1638 27.3481H23.0078V42.672H23.1638V27.3481Z" fill="white"/>
<path d="M23.3198 27.3481H23.1638V42.672H23.3198V27.3481Z" fill="white"/>
<path d="M23.4763 27.3481H23.3203V42.672H23.4763V27.3481Z" fill="white"/>
<path d="M23.6328 27.3481H23.4768V42.672H23.6328V27.3481Z" fill="white"/>
<path d="M23.7893 27.3481H23.6333V42.672H23.7893V27.3481Z" fill="white"/>
<path d="M23.9448 27.3481H23.7888V42.672H23.9448V27.3481Z" fill="white"/>
<path d="M24.1028 27.3481H23.9468V42.672H24.1028V27.3481Z" fill="white"/>
<path d="M24.2588 27.3481H24.1028V42.672H24.2588V27.3481Z" fill="white"/>
<path d="M24.4143 27.3481H24.2583V42.672H24.4143V27.3481Z" fill="white"/>
<path d="M24.5711 27.3481H24.415V42.672H24.5711V27.3481Z" fill="white"/>
<path d="M24.7276 27.3481H24.5715V42.672H24.7276V27.3481Z" fill="white"/>
<path d="M24.8838 27.3481H24.7278V42.672H24.8838V27.3481Z" fill="white"/>
<path d="M25.04 27.3481H24.884V42.672H25.04V27.3481Z" fill="white"/>
<path d="M25.1975 27.3481H25.0415V42.672H25.1975V27.3481Z" fill="white"/>
<path d="M25.353 27.3481H25.197V42.672H25.353V27.3481Z" fill="white"/>
<path d="M25.5095 27.3481H25.3535V42.672H25.5095V27.3481Z" fill="white"/>
<path d="M25.6663 27.3481H25.5103V42.672H25.6663V27.3481Z" fill="white"/>
<path d="M25.8218 27.3481H25.6658V42.672H25.8218V27.3481Z" fill="white"/>
<path d="M25.9788 27.3481H25.8228V42.672H25.9788V27.3481Z" fill="white"/>
<path d="M26.1348 27.3481H25.9788V42.672H26.1348V27.3481Z" fill="white"/>
<path d="M26.291 27.3481H26.135V42.672H26.291V27.3481Z" fill="white"/>
<path d="M26.448 27.3481H26.292V42.672H26.448V27.3481Z" fill="white"/>
<path d="M26.604 27.3481H26.448V42.672H26.604V27.3481Z" fill="white"/>
<path d="M26.7603 27.3481H26.6042V42.672H26.7603V27.3481Z" fill="white"/>
<path d="M26.9168 27.3481H26.7607V42.672H26.9168V27.3481Z" fill="white"/>
<path d="M27.3742 27.3481H26.917V42.672H27.3742V27.3481Z" fill="white"/>
<path d="M27.832 27.3481H27.3748V42.672H27.832V27.3481Z" fill="white"/>
<path d="M28.2895 27.3481H27.8323V42.672H28.2895V27.3481Z" fill="white"/>
<path d="M28.7475 27.3481H28.2903V42.672H28.7475V27.3481Z" fill="white"/>
<path d="M29.2041 27.3484H28.7468V42.6723H29.2041V27.3484Z" fill="white"/>
<path d="M29.6621 27.3484H29.2048V42.6723H29.6621V27.3484Z" fill="white"/>
<path d="M30.1201 27.3484H29.6628V42.6723H30.1201V27.3484Z" fill="white"/>
<path d="M30.5776 27.3484H30.1204V42.6723H30.5776V27.3484Z" fill="white"/>
<path d="M31.0353 27.3484H30.5781V42.6723H31.0353V27.3484Z" fill="white"/>
<path d="M31.4924 27.3484H31.0352V42.6723H31.4924V27.3484Z" fill="white"/>
<path d="M31.9494 27.3484H31.4922V42.6723H31.9494V27.3484Z" fill="white"/>
<path d="M32.4072 27.3484H31.95V42.6723H32.4072V27.3484Z" fill="white"/>
<path d="M32.8647 27.3484H32.4075V42.6723H32.8647V27.3484Z" fill="white"/>
<path d="M33.3225 27.3484H32.8652V42.6723H33.3225V27.3484Z" fill="white"/>
<path d="M33.78 27.3484H33.3228V42.6723H33.78V27.3484Z" fill="white"/>
<path d="M34.2375 27.3484H33.7803V42.6723H34.2375V27.3484Z" fill="white"/>
<path d="M34.695 27.3484H34.2378V42.6723H34.695V27.3484Z" fill="white"/>
<path d="M35.1533 27.3484H34.696V42.6723H35.1533V27.3484Z" fill="white"/>
<path d="M35.6103 27.3484H35.1531V42.6723H35.6103V27.3484Z" fill="white"/>
<path d="M36.0678 27.3484H35.6106V42.6723H36.0678V27.3484Z" fill="white"/>
<path d="M36.5251 27.3484H36.0679V42.6723H36.5251V27.3484Z" fill="white"/>
<path d="M36.9831 27.3484H36.5259V42.6723H36.9831V27.3484Z" fill="white"/>
<path d="M37.4404 27.3484H36.9832V42.6723H37.4404V27.3484Z" fill="white"/>
<path d="M37.8974 27.3484H37.4402V42.6723H37.8974V27.3484Z" fill="white"/>
<path d="M38.3557 27.3484H37.8984V42.6723H38.3557V27.3484Z" fill="white"/>
<path d="M38.8134 27.3484H38.3562V42.6723H38.8134V27.3484Z" fill="white"/>
</g>
<mask id="mask11_233_14865" style="mask-type:luminance" maskUnits="userSpaceOnUse" x="10" y="9" width="25" height="13">
<path d="M34.8418 14.0854C34.1661 13.4982 33.5417 12.8859 32.8569 12.3679C24.7811 6.28217 13.5826 10.6245 11.1972 20.8814C11.1701 20.9977 11.1529 21.1159 11.1214 21.2293C11.0311 21.5378 10.8029 21.6954 10.5376 21.633C10.474 21.6197 10.4136 21.5924 10.3605 21.5527C10.3074 21.513 10.2628 21.4618 10.2294 21.4026C10.1961 21.3433 10.1748 21.2772 10.167 21.2086C10.1591 21.14 10.1649 21.0705 10.184 21.0044C10.3572 20.3393 10.5151 19.6589 10.7659 19.0284C12.9466 13.526 16.7855 10.1622 22.3451 9.30869C27.1449 8.57152 31.2816 10.216 34.6993 13.8884C34.75 13.9513 34.7976 14.0171 34.8418 14.0854Z" fill="white"/>
</mask>
<g mask="url(#mask11_233_14865)">
<path d="M13.1953 6.28223H10.1016V21.6955H13.1953V6.28223Z" fill="white"/>
<path d="M13.3527 6.28223H13.1958V21.6955H13.3527V6.28223Z" fill="white"/>
<path d="M13.509 6.28223H13.3521V21.6955H13.509V6.28223Z" fill="white"/>
<path d="M13.6657 6.28223H13.5088V21.6955H13.6657V6.28223Z" fill="white"/>
<path d="M13.8227 6.28223H13.6658V21.6955H13.8227V6.28223Z" fill="white"/>
<path d="M13.9789 6.28223H13.822V21.6955H13.9789V6.28223Z" fill="white"/>
<path d="M14.1367 6.28223H13.9797V21.6955H14.1367V6.28223Z" fill="white"/>
<path d="M14.2934 6.28223H14.1365V21.6955H14.2934V6.28223Z" fill="white"/>
<path d="M14.4496 6.28223H14.2927V21.6955H14.4496V6.28223Z" fill="white"/>
<path d="M14.6069 6.28223H14.45V21.6955H14.6069V6.28223Z" fill="white"/>
<path d="M14.7643 6.28223H14.6074V21.6955H14.7643V6.28223Z" fill="white"/>
<path d="M14.9199 6.28223H14.7629V21.6955H14.9199V6.28223Z" fill="white"/>
<path d="M15.0771 6.28223H14.9202V21.6955H15.0771V6.28223Z" fill="white"/>
<path d="M15.2336 6.28223H15.0767V21.6955H15.2336V6.28223Z" fill="white"/>
<path d="M15.3906 6.28223H15.2336V21.6955H15.3906V6.28223Z" fill="white"/>
<path d="M15.548 6.28223H15.3911V21.6955H15.548V6.28223Z" fill="white"/>
<path d="M15.7038 6.28223H15.5469V21.6955H15.7038V6.28223Z" fill="white"/>
<path d="M15.8613 6.28223H15.7043V21.6955H15.8613V6.28223Z" fill="white"/>
<path d="M16.018 6.28223H15.8611V21.6955H16.018V6.28223Z" fill="white"/>
<path d="M16.175 6.28223H16.0181V21.6955H16.175V6.28223Z" fill="white"/>
<path d="M16.3315 6.28223H16.1746V21.6955H16.3315V6.28223Z" fill="white"/>
<path d="M16.4877 6.28223H16.3308V21.6955H16.4877V6.28223Z" fill="white"/>
<path d="M16.6452 6.28223H16.4883V21.6955H16.6452V6.28223Z" fill="white"/>
<path d="M16.8014 6.28223H16.6445V21.6955H16.8014V6.28223Z" fill="white"/>
<path d="M16.9577 6.28223H16.8008V21.6955H16.9577V6.28223Z" fill="white"/>
<path d="M17.114 6.28223H16.957V21.6955H17.114V6.28223Z" fill="white"/>
<path d="M17.2722 6.28223H17.1152V21.6955H17.2722V6.28223Z" fill="white"/>
<path d="M17.4296 6.28223H17.2727V21.6955H17.4296V6.28223Z" fill="white"/>
<path d="M17.5856 6.28223H17.4287V21.6955H17.5856V6.28223Z" fill="white"/>
<path d="M17.7414 6.28223H17.5845V21.6955H17.7414V6.28223Z" fill="white"/>
<path d="M17.8989 6.28223H17.7419V21.6955H17.8989V6.28223Z" fill="white"/>
<path d="M18.0561 6.28223H17.8992V21.6955H18.0561V6.28223Z" fill="white"/>
<path d="M18.2131 6.28223H18.0562V21.6955H18.2131V6.28223Z" fill="white"/>
<path d="M18.3691 6.28223H18.2122V21.6955H18.3691V6.28223Z" fill="white"/>
<path d="M18.5265 6.28223H18.3696V21.6955H18.5265V6.28223Z" fill="white"/>
<path d="M18.6826 6.28223H18.5256V21.6955H18.6826V6.28223Z" fill="white"/>
<path d="M18.84 6.28223H18.6831V21.6955H18.84V6.28223Z" fill="white"/>
<path d="M18.9958 6.28223H18.8389V21.6955H18.9958V6.28223Z" fill="white"/>
<path d="M19.153 6.28223H18.9961V21.6955H19.153V6.28223Z" fill="white"/>
<path d="M19.3095 6.28223H19.1526V21.6955H19.3095V6.28223Z" fill="white"/>
<path d="M19.4675 6.28223H19.3105V21.6955H19.4675V6.28223Z" fill="white"/>
<path d="M19.624 6.28223H19.467V21.6955H19.624V6.28223Z" fill="white"/>
<path d="M19.7802 6.28223H19.6233V21.6955H19.7802V6.28223Z" fill="white"/>
<path d="M19.9365 6.28223H19.7795V21.6955H19.9365V6.28223Z" fill="white"/>
<path d="M20.0939 6.28223H19.937V21.6955H20.0939V6.28223Z" fill="white"/>
<path d="M20.2509 6.28223H20.094V21.6955H20.2509V6.28223Z" fill="white"/>
<path d="M20.4072 6.28223H20.2502V21.6955H20.4072V6.28223Z" fill="white"/>
<path d="M20.5644 6.28223H20.4075V21.6955H20.5644V6.28223Z" fill="white"/>
<path d="M20.7209 6.28223H20.564V21.6955H20.7209V6.28223Z" fill="white"/>
<path d="M20.8774 6.28223H20.7205V21.6955H20.8774V6.28223Z" fill="white"/>
<path d="M21.0349 6.28223H20.8779V21.6955H21.0349V6.28223Z" fill="white"/>
<path d="M21.1911 6.28223H21.0342V21.6955H21.1911V6.28223Z" fill="white"/>
<path d="M21.3481 6.28223H21.1912V21.6955H21.3481V6.28223Z" fill="white"/>
<path d="M21.5053 6.28223H21.3484V21.6955H21.5053V6.28223Z" fill="white"/>
<path d="M21.6625 6.28223H21.5056V21.6955H21.6625V6.28223Z" fill="white"/>
<path d="M21.8188 6.28223H21.6619V21.6955H21.8188V6.28223Z" fill="white"/>
<path d="M21.9745 6.28223H21.8176V21.6955H21.9745V6.28223Z" fill="white"/>
<path d="M22.1325 6.28223H21.9756V21.6955H22.1325V6.28223Z" fill="white"/>
<path d="M22.289 6.28223H22.1321V21.6955H22.289V6.28223Z" fill="white"/>
<path d="M22.445 6.28223H22.2881V21.6955H22.445V6.28223Z" fill="white"/>
<path d="M22.6027 6.28223H22.4458V21.6955H22.6027V6.28223Z" fill="white"/>
<path d="M22.759 6.28223H22.6021V21.6955H22.759V6.28223Z" fill="white"/>
<path d="M22.9169 6.28223H22.76V21.6955H22.9169V6.28223Z" fill="white"/>
<path d="M23.3737 6.28223H22.9155V21.6955H23.3737V6.28223Z" fill="white"/>
<path d="M23.8334 6.28223H23.3752V21.6955H23.8334V6.28223Z" fill="white"/>
<path d="M24.2909 6.28223H23.8328V21.6955H24.2909V6.28223Z" fill="white"/>
<path d="M24.7499 6.28223H24.2917V21.6955H24.7499V6.28223Z" fill="white"/>
<path d="M25.2091 6.28223H24.751V21.6955H25.2091V6.28223Z" fill="white"/>
<path d="M25.6681 6.28223H25.21V21.6955H25.6681V6.28223Z" fill="white"/>
<path d="M26.1256 6.28223H25.6675V21.6955H26.1256V6.28223Z" fill="white"/>
<path d="M26.5841 6.28223H26.126V21.6955H26.5841V6.28223Z" fill="white"/>
<path d="M27.0443 6.28223H26.5862V21.6955H27.0443V6.28223Z" fill="white"/>
<path d="M27.5023 6.28223H27.0442V21.6955H27.5023V6.28223Z" fill="white"/>
<path d="M27.9608 6.28223H27.5027V21.6955H27.9608V6.28223Z" fill="white"/>
<path d="M28.42 6.28223H27.9619V21.6955H28.42V6.28223Z" fill="white"/>
<path d="M28.8783 6.28223H28.4202V21.6955H28.8783V6.28223Z" fill="white"/>
<path d="M29.3375 6.28223H28.8794V21.6955H29.3375V6.28223Z" fill="white"/>
<path d="M29.7955 6.28223H29.3374V21.6955H29.7955V6.28223Z" fill="white"/>
<path d="M30.255 6.28223H29.7969V21.6955H30.255V6.28223Z" fill="white"/>
<path d="M30.7132 6.28223H30.2551V21.6955H30.7132V6.28223Z" fill="white"/>
<path d="M31.1717 6.28223H30.7136V21.6955H31.1717V6.28223Z" fill="white"/>
<path d="M31.6305 6.28223H31.1724V21.6955H31.6305V6.28223Z" fill="white"/>
<path d="M32.0895 6.28223H31.6313V21.6955H32.0895V6.28223Z" fill="white"/>
<path d="M32.5477 6.28223H32.0896V21.6955H32.5477V6.28223Z" fill="white"/>
<path d="M33.0065 6.28223H32.5483V21.6955H33.0065V6.28223Z" fill="white"/>
<path d="M33.4662 6.28223H33.0081V21.6955H33.4662V6.28223Z" fill="white"/>
<path d="M33.9244 6.28223H33.4663V21.6955H33.9244V6.28223Z" fill="white"/>
<path d="M34.3834 6.28223H33.9253V21.6955H34.3834V6.28223Z" fill="white"/>
<path d="M34.8419 6.28223H34.3838V21.6955H34.8419V6.28223Z" fill="white"/>
</g>
<g filter="url(#filter0_d_233_14865)">
<path d="M16.5327 19.3286L18.4145 21.2602" stroke="white" stroke-linecap="round"/>
<path d="M22.2781 17.4966L18.4149 21.2601" stroke="white" stroke-linecap="round"/>
</g>
<g filter="url(#filter1_d_233_14865)">
<path d="M16.4456 25.0483L18.3273 26.9799" stroke="white" stroke-linecap="round"/>
<path d="M22.1907 23.2166L18.3275 26.9801" stroke="white" stroke-linecap="round"/>
</g>
<g filter="url(#filter2_d_233_14865)">
<path d="M16.3586 30.7693L18.2404 32.7009" stroke="white" stroke-linecap="round"/>
<path d="M22.1038 28.9368L18.2405 32.7003" stroke="white" stroke-linecap="round"/>
</g>
<g filter="url(#filter3_d_233_14865)">
<path d="M25.0442 20.6887H32.6663" stroke="white" stroke-linecap="round"/>
</g>
<g filter="url(#filter4_d_233_14865)">
<path d="M25.0442 25.0442H32.6663" stroke="white" stroke-linecap="round"/>
</g>
<g filter="url(#filter5_d_233_14865)">
<path d="M25.0444 29.3999H32.6666" stroke="white" stroke-linecap="round"/>
</g>
<defs>
<filter id="filter0_d_233_14865" x="12.0327" y="16.9966" width="14.7454" height="12.7637" filterUnits="userSpaceOnUse" color-interpolation-filters="sRGB">
<feFlood flood-opacity="0" result="BackgroundImageFix"/>
<feColorMatrix in="SourceAlpha" type="matrix" values="0 0 0 0 0 0 0 0 0 0 0 0 0 0 0 0 0 0 127 0" result="hardAlpha"/>
<feOffset dy="4"/>
<feGaussianBlur stdDeviation="2"/>
<feComposite in2="hardAlpha" operator="out"/>
<feColorMatrix type="matrix" values="0 0 0 0 0 0 0 0 0 0 0 0 0 0 0 0 0 0 0.25 0"/>
<feBlend mode="normal" in2="BackgroundImageFix" result="effect1_dropShadow_233_14865"/>
<feBlend mode="normal" in="SourceGraphic" in2="effect1_dropShadow_233_14865" result="shape"/>
</filter>
<filter id="filter1_d_233_14865" x="11.9456" y="22.7166" width="14.7451" height="12.7634" filterUnits="userSpaceOnUse" color-interpolation-filters="sRGB">
<feFlood flood-opacity="0" result="BackgroundImageFix"/>
<feColorMatrix in="SourceAlpha" type="matrix" values="0 0 0 0 0 0 0 0 0 0 0 0 0 0 0 0 0 0 127 0" result="hardAlpha"/>
<feOffset dy="4"/>
<feGaussianBlur stdDeviation="2"/>
<feComposite in2="hardAlpha" operator="out"/>
<feColorMatrix type="matrix" values="0 0 0 0 0 0 0 0 0 0 0 0 0 0 0 0 0 0 0.25 0"/>
<feBlend mode="normal" in2="BackgroundImageFix" result="effect1_dropShadow_233_14865"/>
<feBlend mode="normal" in="SourceGraphic" in2="effect1_dropShadow_233_14865" result="shape"/>
</filter>
<filter id="filter2_d_233_14865" x="11.8586" y="28.4368" width="14.7451" height="12.7642" filterUnits="userSpaceOnUse" color-interpolation-filters="sRGB">
<feFlood flood-opacity="0" result="BackgroundImageFix"/>
<feColorMatrix in="SourceAlpha" type="matrix" values="0 0 0 0 0 0 0 0 0 0 0 0 0 0 0 0 0 0 127 0" result="hardAlpha"/>
<feOffset dy="4"/>
<feGaussianBlur stdDeviation="2"/>
<feComposite in2="hardAlpha" operator="out"/>
<feColorMatrix type="matrix" values="0 0 0 0 0 0 0 0 0 0 0 0 0 0 0 0 0 0 0.25 0"/>
<feBlend mode="normal" in2="BackgroundImageFix" result="effect1_dropShadow_233_14865"/>
<feBlend mode="normal" in="SourceGraphic" in2="effect1_dropShadow_233_14865" result="shape"/>
</filter>
<filter id="filter3_d_233_14865" x="20.5442" y="20.1887" width="16.6221" height="9" filterUnits="userSpaceOnUse" color-interpolation-filters="sRGB">
<feFlood flood-opacity="0" result="BackgroundImageFix"/>
<feColorMatrix in="SourceAlpha" type="matrix" values="0 0 0 0 0 0 0 0 0 0 0 0 0 0 0 0 0 0 127 0" result="hardAlpha"/>
<feOffset dy="4"/>
<feGaussianBlur stdDeviation="2"/>
<feComposite in2="hardAlpha" operator="out"/>
<feColorMatrix type="matrix" values="0 0 0 0 0 0 0 0 0 0 0 0 0 0 0 0 0 0 0.25 0"/>
<feBlend mode="normal" in2="BackgroundImageFix" result="effect1_dropShadow_233_14865"/>
<feBlend mode="normal" in="SourceGraphic" in2="effect1_dropShadow_233_14865" result="shape"/>
</filter>
<filter id="filter4_d_233_14865" x="20.5442" y="24.5442" width="16.6221" height="9" filterUnits="userSpaceOnUse" color-interpolation-filters="sRGB">
<feFlood flood-opacity="0" result="BackgroundImageFix"/>
<feColorMatrix in="SourceAlpha" type="matrix" values="0 0 0 0 0 0 0 0 0 0 0 0 0 0 0 0 0 0 127 0" result="hardAlpha"/>
<feOffset dy="4"/>
<feGaussianBlur stdDeviation="2"/>
<feComposite in2="hardAlpha" operator="out"/>
<feColorMatrix type="matrix" values="0 0 0 0 0 0 0 0 0 0 0 0 0 0 0 0 0 0 0.25 0"/>
<feBlend mode="normal" in2="BackgroundImageFix" result="effect1_dropShadow_233_14865"/>
<feBlend mode="normal" in="SourceGraphic" in2="effect1_dropShadow_233_14865" result="shape"/>
</filter>
<filter id="filter5_d_233_14865" x="20.5444" y="28.8999" width="16.6221" height="9" filterUnits="userSpaceOnUse" color-interpolation-filters="sRGB">
<feFlood flood-opacity="0" result="BackgroundImageFix"/>
<feColorMatrix in="SourceAlpha" type="matrix" values="0 0 0 0 0 0 0 0 0 0 0 0 0 0 0 0 0 0 127 0" result="hardAlpha"/>
<feOffset dy="4"/>
<feGaussianBlur stdDeviation="2"/>
<feComposite in2="hardAlpha" operator="out"/>
<feColorMatrix type="matrix" values="0 0 0 0 0 0 0 0 0 0 0 0 0 0 0 0 0 0 0.25 0"/>
<feBlend mode="normal" in2="BackgroundImageFix" result="effect1_dropShadow_233_14865"/>
<feBlend mode="normal" in="SourceGraphic" in2="effect1_dropShadow_233_14865" result="shape"/>
</filter>
</defs>
</svg>
