<svg width="130" height="125" viewBox="0 0 130 125" fill="none" xmlns="http://www.w3.org/2000/svg">
<path d="M30 5C16.215 5 5 16.215 5 30C5 43.785 16.215 55 30 55C43.785 55 55 43.785 55 30C55 16.215 43.785 5 30 5ZM30 50C18.9725 50 10 41.0275 10 30C10 18.9725 18.9725 10 30 10C41.0275 10 50 18.9725 50 30C50 41.0275 41.0275 50 30 50Z" fill="#D1D1D1"/>
<path d="M26.7674 30.7324L23.5349 27.4999L26.7674 24.2674L23.2324 20.7324L19.9999 23.9649L16.7674 20.7324L13.2324 24.2674L16.4649 27.4999L13.2324 30.7324L16.7674 34.2674L19.9999 31.0349L23.2324 34.2674L26.7674 30.7324ZM43.2324 20.7324L39.9999 23.9649L36.7674 20.7324L33.2324 24.2674L36.4649 27.4999L33.2324 30.7324L36.7674 34.2674L39.9999 31.0349L43.2324 34.2674L46.7674 30.7324L43.5349 27.4999L46.7674 24.2674L43.2324 20.7324ZM24.9999 39.9999H34.9999V44.9999H24.9999V39.9999Z" fill="#D1D1D1"/>
<path d="M120 72.5H80C77.2425 72.5 75 74.7425 75 77.5V112.5C75 115.257 77.2425 117.5 80 117.5H120C122.757 117.5 125 115.257 125 112.5V77.5C125 74.7425 122.757 72.5 120 72.5ZM80 112.5V82.5H120L120.002 112.5H80Z" fill="#D1D1D1"/>
<path d="M109.267 91.7674L105.732 88.2324L99.9999 93.9649L94.2674 88.2324L90.7324 91.7674L96.4649 97.4999L90.7324 103.232L94.2674 106.767L99.9999 101.035L105.732 106.767L109.267 103.232L103.535 97.4999L109.267 91.7674Z" fill="#D1D1D1"/>
<path d="M30 70C17.5925 70 7.5 80.095 7.5 92.5V112.5H7.6275C8.24 116.728 11.8525 120 16.25 120C19.185 120 21.435 118.958 22.93 117.065C23.8597 117.998 24.9651 118.739 26.1824 119.242C27.3997 119.746 28.7048 120.004 30.0223 120.001C31.3398 119.998 32.6436 119.733 33.8584 119.223C35.0732 118.714 36.1749 117.968 37.1 117.03C38.6025 118.935 40.86 120 43.75 120C48.575 120 52.5 116.075 52.5 111.25V92.5C52.5 80.095 42.4075 70 30 70ZM47.5 111.25C47.5 113.318 45.8175 115 43.75 115C42.6275 115 40 115 40 110V107.5H35V110C35 112.757 32.7575 115 30 115C27.2425 115 25 112.757 25 110V107.5H20V110C20 114.612 18.065 115 16.25 115C14.1825 115 12.5 113.318 12.5 111.25V92.5C12.5 82.85 20.3525 75 30 75C39.6475 75 47.5 82.85 47.5 92.5V111.25Z" fill="#D1D1D1"/>
<path d="M22.5 95C25.2614 95 27.5 92.7614 27.5 90C27.5 87.2386 25.2614 85 22.5 85C19.7386 85 17.5 87.2386 17.5 90C17.5 92.7614 19.7386 95 22.5 95Z" fill="#D1D1D1"/>
<path d="M37.5 95C40.2614 95 42.5 92.7614 42.5 90C42.5 87.2386 40.2614 85 37.5 85C34.7386 85 32.5 87.2386 32.5 90C32.5 92.7614 34.7386 95 37.5 95Z" fill="#D1D1D1"/>
<path d="M124.82 29.0175C124.315 27.7975 123.233 27.505 122.5 27.435V20C122.5 17.2425 120.258 15 117.5 15H102.5V11.525C103.263 10.84 103.75 9.855 103.75 8.75C103.75 7.75544 103.355 6.80161 102.652 6.09835C101.948 5.39509 100.995 5 100 5C99.0055 5 98.0517 5.39509 97.3484 6.09835C96.6452 6.80161 96.2501 7.75544 96.2501 8.75C96.2501 9.855 96.7376 10.84 97.5001 11.525V15H82.5001C79.7426 15 77.5001 17.2425 77.5001 20V27.4925L77.2951 27.5075C76.665 27.553 76.0755 27.8353 75.6451 28.2977C75.2147 28.7601 74.9754 29.3683 74.9751 30V35C74.9751 35.663 75.2385 36.2989 75.7073 36.7678C76.1762 37.2366 76.8121 37.5 77.4751 37.5H77.5001V50C77.5001 52.7575 79.7426 55 82.5001 55H117.5C120.258 55 122.5 52.7575 122.5 50V37.5C123.163 37.5 123.799 37.2366 124.268 36.7678C124.737 36.2989 125 35.663 125 35V30.155C125.029 29.767 124.967 29.3776 124.82 29.0175ZM82.5001 50V20H117.5L117.503 29.99L117.5 30V35L117.503 35.0125L117.505 50H82.5001Z" fill="#D1D1D1"/>
<path d="M91.25 35C93.3211 35 95 32.7614 95 30C95 27.2386 93.3211 25 91.25 25C89.1789 25 87.5 27.2386 87.5 30C87.5 32.7614 89.1789 35 91.25 35Z" fill="#D1D1D1"/>
<path d="M108.75 35C110.821 35 112.5 32.7614 112.5 30C112.5 27.2386 110.821 25 108.75 25C106.679 25 105 27.2386 105 30C105 32.7614 106.679 35 108.75 35Z" fill="#D1D1D1"/>
<path d="M90 40H110V45H90V40Z" fill="#D1D1D1"/>
</svg>
