<svg width="15" height="14" viewBox="0 0 15 14" fill="none" xmlns="http://www.w3.org/2000/svg">
<path d="M7.5 7.875C9.8291 7.875 11.7188 6.11133 11.7188 3.9375C11.7188 1.76367 9.8291 0 7.5 0C5.1709 0 3.28125 1.76367 3.28125 3.9375C3.28125 6.11133 5.1709 7.875 7.5 7.875ZM11.25 8.75H9.63574C8.98535 9.02891 8.26172 9.1875 7.5 9.1875C6.73828 9.1875 6.01758 9.02891 5.36426 8.75H3.75C1.67871 8.75 0 10.3168 0 12.25V12.6875C0 13.4121 0.629883 14 1.40625 14H13.5938C14.3701 14 15 13.4121 15 12.6875V12.25C15 10.3168 13.3213 8.75 11.25 8.75Z" fill="#024089"/>
</svg>
