<svg width="42" height="40" viewBox="0 0 42 40" fill="none" xmlns="http://www.w3.org/2000/svg">
<path d="M36.1289 20.3264C35.9605 19.1451 35.8651 17.9466 35.614 16.7824C34.2827 10.6137 29.0208 5.85989 22.8343 5.20943C18.9583 4.80237 15.4583 5.80437 12.3356 8.16707C12.1378 8.3094 11.926 8.4375 11.7071 8.29232C11.5684 8.18656 11.4694 8.03592 11.4266 7.86533C11.3705 7.63333 11.5374 7.47249 11.7184 7.34155C13.3733 6.13102 15.2472 5.26334 17.2329 4.78813C23.5049 3.27657 30.0631 5.89689 33.5729 11.3354C35.2825 13.9522 36.1559 17.04 36.0742 20.1784V20.3492L36.1289 20.3264Z" fill="white"/>
<mask id="mask0_9_3674" style="mask-type:luminance" maskUnits="userSpaceOnUse" x="11" y="4" width="26" height="17">
<path d="M36.1289 20.3264C35.9605 19.1451 35.8651 17.9466 35.614 16.7824C34.2827 10.6137 29.0208 5.85989 22.8343 5.20943C18.9583 4.80237 15.4583 5.80437 12.3356 8.16707C12.1378 8.3094 11.926 8.4375 11.7071 8.29232C11.5684 8.18656 11.4694 8.03592 11.4266 7.86533C11.3705 7.63333 11.5374 7.47249 11.7184 7.34155C13.3733 6.13102 15.2472 5.26334 17.2329 4.78813C23.5049 3.27657 30.0631 5.89689 33.5729 11.3354C35.2825 13.9522 36.1559 17.04 36.0742 20.1784V20.3492L36.1289 20.3264Z" fill="white"/>
</mask>
<g mask="url(#mask0_9_3674)">
<path d="M14.4481 3.27222H11.3647V20.3391H14.4481V3.27222Z" fill="white"/>
<path d="M14.6065 3.27222H14.4487V20.3391H14.6065V3.27222Z" fill="white"/>
<path d="M14.7633 3.27222H14.6055V20.3391H14.7633V3.27222Z" fill="white"/>
<path d="M14.92 3.27222H14.7622V20.3391H14.92V3.27222Z" fill="white"/>
<path d="M15.0767 3.27222H14.9189V20.3391H15.0767V3.27222Z" fill="white"/>
<path d="M15.234 3.27222H15.0762V20.3391H15.234V3.27222Z" fill="white"/>
<path d="M15.3897 3.27222H15.2319V20.3391H15.3897V3.27222Z" fill="white"/>
<path d="M15.547 3.27222H15.3892V20.3391H15.547V3.27222Z" fill="white"/>
<path d="M15.7037 3.27222H15.5459V20.3391H15.7037V3.27222Z" fill="white"/>
<path d="M15.8614 3.27222H15.7036V20.3391H15.8614V3.27222Z" fill="white"/>
<path d="M16.0186 3.27222H15.8608V20.3391H16.0186V3.27222Z" fill="white"/>
<path d="M16.1754 3.27222H16.0176V20.3391H16.1754V3.27222Z" fill="white"/>
<path d="M16.3331 3.27222H16.1753V20.3391H16.3331V3.27222Z" fill="white"/>
<path d="M16.4898 3.27222H16.332V20.3391H16.4898V3.27222Z" fill="white"/>
<path d="M16.6475 3.27222H16.4897V20.3391H16.6475V3.27222Z" fill="white"/>
<path d="M16.8038 3.27222H16.646V20.3391H16.8038V3.27222Z" fill="white"/>
<path d="M16.9615 3.27222H16.8037V20.3391H16.9615V3.27222Z" fill="white"/>
<path d="M17.1187 3.27222H16.9609V20.3391H17.1187V3.27222Z" fill="white"/>
<path d="M17.2755 3.27222H17.1177V20.3391H17.2755V3.27222Z" fill="white"/>
<path d="M17.4327 3.27222H17.2749V20.3391H17.4327V3.27222Z" fill="white"/>
<path d="M17.5894 3.27222H17.4316V20.3391H17.5894V3.27222Z" fill="white"/>
<path d="M17.7467 3.27222H17.5889V20.3391H17.7467V3.27222Z" fill="white"/>
<path d="M17.9019 3.27222H17.7441V20.3391H17.9019V3.27222Z" fill="white"/>
<path d="M18.0592 3.27222H17.9014V20.3391H18.0592V3.27222Z" fill="white"/>
<path d="M18.2169 3.27222H18.0591V20.3391H18.2169V3.27222Z" fill="white"/>
<path d="M18.3736 3.27222H18.2158V20.3391H18.3736V3.27222Z" fill="white"/>
<path d="M18.5308 3.27222H18.373V20.3391H18.5308V3.27222Z" fill="white"/>
<path d="M18.6881 3.27222H18.5303V20.3391H18.6881V3.27222Z" fill="white"/>
<path d="M18.8453 3.27222H18.6875V20.3391H18.8453V3.27222Z" fill="white"/>
<path d="M19.0025 3.27222H18.8447V20.3391H19.0025V3.27222Z" fill="white"/>
<path d="M19.1593 3.27222H19.0015V20.3391H19.1593V3.27222Z" fill="white"/>
<path d="M19.317 3.27222H19.1592V20.3391H19.317V3.27222Z" fill="white"/>
<path d="M19.4737 3.27222H19.3159V20.3391H19.4737V3.27222Z" fill="white"/>
<path d="M19.6309 3.27222H19.4731V20.3391H19.6309V3.27222Z" fill="white"/>
<path d="M19.7882 3.27222H19.6304V20.3391H19.7882V3.27222Z" fill="white"/>
<path d="M19.9454 3.27222H19.7876V20.3391H19.9454V3.27222Z" fill="white"/>
<path d="M20.1026 3.27222H19.9448V20.3391H20.1026V3.27222Z" fill="white"/>
<path d="M20.2579 3.27222H20.1001V20.3391H20.2579V3.27222Z" fill="white"/>
<path d="M20.4146 3.27222H20.2568V20.3391H20.4146V3.27222Z" fill="white"/>
<path d="M20.5719 3.27222H20.4141V20.3391H20.5719V3.27222Z" fill="white"/>
<path d="M20.7286 3.27222H20.5708V20.3391H20.7286V3.27222Z" fill="white"/>
<path d="M20.8863 3.27222H20.7285V20.3391H20.8863V3.27222Z" fill="white"/>
<path d="M21.0435 3.27222H20.8857V20.3391H21.0435V3.27222Z" fill="white"/>
<path d="M21.2008 3.27222H21.043V20.3391H21.2008V3.27222Z" fill="white"/>
<path d="M21.3575 3.27222H21.1997V20.3391H21.3575V3.27222Z" fill="white"/>
<path d="M21.5147 3.27222H21.3569V20.3391H21.5147V3.27222Z" fill="white"/>
<path d="M21.6724 3.27222H21.5146V20.3391H21.6724V3.27222Z" fill="white"/>
<path d="M21.8292 3.27222H21.6714V20.3391H21.8292V3.27222Z" fill="white"/>
<path d="M21.9864 3.27222H21.8286V20.3391H21.9864V3.27222Z" fill="white"/>
<path d="M22.1431 3.27222H21.9854V20.3391H22.1431V3.27222Z" fill="white"/>
<path d="M22.3009 3.27222H22.1431V20.3391H22.3009V3.27222Z" fill="white"/>
<path d="M22.4576 3.27222H22.2998V20.3391H22.4576V3.27222Z" fill="white"/>
<path d="M22.6134 3.27222H22.4556V20.3391H22.6134V3.27222Z" fill="white"/>
<path d="M22.7706 3.27222H22.6128V20.3391H22.7706V3.27222Z" fill="white"/>
<path d="M22.9278 3.27222H22.77V20.3391H22.9278V3.27222Z" fill="white"/>
<path d="M23.0841 3.27222H22.9263V20.3391H23.0841V3.27222Z" fill="white"/>
<path d="M23.2413 3.27222H23.0835V20.3391H23.2413V3.27222Z" fill="white"/>
<path d="M23.3985 3.27222H23.2407V20.3391H23.3985V3.27222Z" fill="white"/>
<path d="M23.5562 3.27222H23.3984V20.3391H23.5562V3.27222Z" fill="white"/>
<path d="M23.713 3.27222H23.5552V20.3391H23.713V3.27222Z" fill="white"/>
<path d="M23.8702 3.27222H23.7124V20.3391H23.8702V3.27222Z" fill="white"/>
<path d="M24.0274 3.27222H23.8696V20.3391H24.0274V3.27222Z" fill="white"/>
<path d="M24.1842 3.27222H24.0264V20.3391H24.1842V3.27222Z" fill="white"/>
<path d="M24.6428 3.27222H24.1841V20.3391H24.6428V3.27222Z" fill="white"/>
<path d="M25.1013 3.27222H24.6426V20.3391H25.1013V3.27222Z" fill="white"/>
<path d="M25.5608 3.27222H25.1021V20.3391H25.5608V3.27222Z" fill="white"/>
<path d="M26.0198 3.27222H25.561V20.3391H26.0198V3.27222Z" fill="white"/>
<path d="M26.4802 3.27222H26.0215V20.3391H26.4802V3.27222Z" fill="white"/>
<path d="M26.9387 3.27222H26.48V20.3391H26.9387V3.27222Z" fill="white"/>
<path d="M27.3992 3.27222H26.9404V20.3391H27.3992V3.27222Z" fill="white"/>
<path d="M27.8577 3.27222H27.3989V20.3391H27.8577V3.27222Z" fill="white"/>
<path d="M28.3176 3.27222H27.8589V20.3391H28.3176V3.27222Z" fill="white"/>
<path d="M28.7766 3.27222H28.3179V20.3391H28.7766V3.27222Z" fill="white"/>
<path d="M29.2366 3.27222H28.7778V20.3391H29.2366V3.27222Z" fill="white"/>
<path d="M29.6956 3.27222H29.2368V20.3391H29.6956V3.27222Z" fill="white"/>
<path d="M30.1555 3.27222H29.6968V20.3391H30.1555V3.27222Z" fill="white"/>
<path d="M30.6145 3.27222H30.1558V20.3391H30.6145V3.27222Z" fill="white"/>
<path d="M31.075 3.27222H30.6162V20.3391H31.075V3.27222Z" fill="white"/>
<path d="M31.5335 3.27222H31.0747V20.3391H31.5335V3.27222Z" fill="white"/>
<path d="M31.9934 3.27222H31.5347V20.3391H31.9934V3.27222Z" fill="white"/>
<path d="M32.4519 3.27222H31.9932V20.3391H32.4519V3.27222Z" fill="white"/>
<path d="M32.9119 3.27222H32.4531V20.3391H32.9119V3.27222Z" fill="white"/>
<path d="M33.3709 3.27222H32.9121V20.3391H33.3709V3.27222Z" fill="white"/>
<path d="M33.8308 3.27222H33.3721V20.3391H33.8308V3.27222Z" fill="white"/>
<path d="M34.2893 3.27222H33.8306V20.3391H34.2893V3.27222Z" fill="white"/>
<path d="M34.7498 3.27222H34.291V20.3391H34.7498V3.27222Z" fill="white"/>
<path d="M35.2088 3.27222H34.75V20.3391H35.2088V3.27222Z" fill="white"/>
<path d="M35.6682 3.27222H35.2095V20.3391H35.6682V3.27222Z" fill="white"/>
<path d="M36.1272 3.27222H35.6685V20.3391H36.1272V3.27222Z" fill="white"/>
</g>
<path d="M33.5438 14.7669C33.123 14.0367 32.7498 13.2453 32.2631 12.5308C29.8951 9.05797 26.642 6.99844 22.491 6.62411C17.4408 6.16865 13.3965 8.1257 10.3748 12.2547C10.2668 12.3971 10.1728 12.5622 10.0718 12.7159C9.87683 13.0105 9.60609 13.0931 9.37041 12.9294C9.13474 12.7657 9.1137 12.4853 9.3129 12.1864C10.4207 10.5286 11.8648 9.12996 13.5484 8.08416C15.2321 7.03836 17.1165 6.36951 19.0755 6.12236C21.0345 5.87522 23.023 6.05549 24.9078 6.65111C26.7926 7.24673 28.5303 8.24396 30.0045 9.57605C31.5048 10.9379 32.6829 12.6256 33.4513 14.5135C33.4891 14.6075 33.5214 14.7042 33.5438 14.7669Z" fill="white"/>
<mask id="mask1_9_3674" style="mask-type:luminance" maskUnits="userSpaceOnUse" x="9" y="6" width="25" height="9">
<path d="M33.5438 14.7669C33.123 14.0367 32.7498 13.2453 32.2631 12.5308C29.8951 9.05797 26.642 6.99844 22.491 6.62411C17.4408 6.16865 13.3965 8.1257 10.3748 12.2547C10.2668 12.3971 10.1728 12.5622 10.0718 12.7159C9.87683 13.0105 9.60609 13.0931 9.37041 12.9294C9.13474 12.7657 9.1137 12.4853 9.3129 12.1864C10.4207 10.5286 11.8648 9.12996 13.5484 8.08416C15.2321 7.03836 17.1165 6.36951 19.0755 6.12236C21.0345 5.87522 23.023 6.05549 24.9078 6.65111C26.7926 7.24673 28.5303 8.24396 30.0045 9.57605C31.5048 10.9379 32.6829 12.6256 33.4513 14.5135C33.4891 14.6075 33.5214 14.7042 33.5438 14.7669Z" fill="white"/>
</mask>
<g mask="url(#mask1_9_3674)">
<path d="M12.1719 4.79419H9.1123V14.7659H12.1719V4.79419Z" fill="white"/>
<path d="M12.3269 4.79419H12.1719V14.7659H12.3269V4.79419Z" fill="white"/>
<path d="M12.4807 4.79419H12.3257V14.7659H12.4807V4.79419Z" fill="white"/>
<path d="M12.6354 4.79419H12.4805V14.7659H12.6354V4.79419Z" fill="white"/>
<path d="M12.7907 4.79419H12.6357V14.7659H12.7907V4.79419Z" fill="white"/>
<path d="M12.945 4.79419H12.79V14.7659H12.945V4.79419Z" fill="white"/>
<path d="M13.0998 4.79419H12.9448V14.7659H13.0998V4.79419Z" fill="white"/>
<path d="M13.2551 4.79419H13.1001V14.7659H13.2551V4.79419Z" fill="white"/>
<path d="M13.4099 4.79419H13.2549V14.7659H13.4099V4.79419Z" fill="white"/>
<path d="M13.5637 4.79419H13.4087V14.7659H13.5637V4.79419Z" fill="white"/>
<path d="M13.7194 4.79419H13.5645V14.7659H13.7194V4.79419Z" fill="white"/>
<path d="M13.8742 4.79419H13.7192V14.7659H13.8742V4.79419Z" fill="white"/>
<path d="M14.0285 4.79419H13.8735V14.7659H14.0285V4.79419Z" fill="white"/>
<path d="M14.1838 4.79419H14.0288V14.7659H14.1838V4.79419Z" fill="white"/>
<path d="M14.3381 4.79419H14.1831V14.7659H14.3381V4.79419Z" fill="white"/>
<path d="M14.4929 4.79419H14.3379V14.7659H14.4929V4.79419Z" fill="white"/>
<path d="M14.6486 4.79419H14.4937V14.7659H14.6486V4.79419Z" fill="white"/>
<path d="M14.8024 4.79419H14.6475V14.7659H14.8024V4.79419Z" fill="white"/>
<path d="M14.9572 4.79419H14.8022V14.7659H14.9572V4.79419Z" fill="white"/>
<path d="M15.113 4.79419H14.958V14.7659H15.113V4.79419Z" fill="white"/>
<path d="M15.2673 4.79419H15.1123V14.7659H15.2673V4.79419Z" fill="white"/>
<path d="M15.4216 4.79419H15.2666V14.7659H15.4216V4.79419Z" fill="white"/>
<path d="M15.5769 4.79419H15.4219V14.7659H15.5769V4.79419Z" fill="white"/>
<path d="M15.7316 4.79419H15.5767V14.7659H15.7316V4.79419Z" fill="white"/>
<path d="M15.8864 4.79419H15.7314V14.7659H15.8864V4.79419Z" fill="white"/>
<path d="M16.0417 4.79419H15.8867V14.7659H16.0417V4.79419Z" fill="white"/>
<path d="M16.196 4.79419H16.041V14.7659H16.196V4.79419Z" fill="white"/>
<path d="M16.3503 4.79419H16.1953V14.7659H16.3503V4.79419Z" fill="white"/>
<path d="M16.506 4.79419H16.3511V14.7659H16.506V4.79419Z" fill="white"/>
<path d="M16.6603 4.79419H16.5054V14.7659H16.6603V4.79419Z" fill="white"/>
<path d="M16.8156 4.79419H16.6606V14.7659H16.8156V4.79419Z" fill="white"/>
<path d="M16.9699 4.79419H16.8149V14.7659H16.9699V4.79419Z" fill="white"/>
<path d="M17.1242 4.79419H16.9692V14.7659H17.1242V4.79419Z" fill="white"/>
<path d="M17.28 4.79419H17.125V14.7659H17.28V4.79419Z" fill="white"/>
<path d="M17.4343 4.79419H17.2793V14.7659H17.4343V4.79419Z" fill="white"/>
<path d="M17.5881 4.79419H17.4331V14.7659H17.5881V4.79419Z" fill="white"/>
<path d="M17.7438 4.79419H17.5889V14.7659H17.7438V4.79419Z" fill="white"/>
<path d="M17.8981 4.79419H17.7432V14.7659H17.8981V4.79419Z" fill="white"/>
<path d="M18.0529 4.79419H17.8979V14.7659H18.0529V4.79419Z" fill="white"/>
<path d="M18.2082 4.79419H18.0532V14.7659H18.2082V4.79419Z" fill="white"/>
<path d="M18.3625 4.79419H18.2075V14.7659H18.3625V4.79419Z" fill="white"/>
<path d="M18.5173 4.79419H18.3623V14.7659H18.5173V4.79419Z" fill="white"/>
<path d="M18.673 4.79419H18.5181V14.7659H18.673V4.79419Z" fill="white"/>
<path d="M18.8269 4.79419H18.6719V14.7659H18.8269V4.79419Z" fill="white"/>
<path d="M18.9816 4.79419H18.8267V14.7659H18.9816V4.79419Z" fill="white"/>
<path d="M19.1369 4.79419H18.9819V14.7659H19.1369V4.79419Z" fill="white"/>
<path d="M19.2917 4.79419H19.1367V14.7659H19.2917V4.79419Z" fill="white"/>
<path d="M19.446 4.79419H19.291V14.7659H19.446V4.79419Z" fill="white"/>
<path d="M19.6013 4.79419H19.4463V14.7659H19.6013V4.79419Z" fill="white"/>
<path d="M19.756 4.79419H19.6011V14.7659H19.756V4.79419Z" fill="white"/>
<path d="M19.9099 4.79419H19.7549V14.7659H19.9099V4.79419Z" fill="white"/>
<path d="M20.0656 4.79419H19.9106V14.7659H20.0656V4.79419Z" fill="white"/>
<path d="M20.2204 4.79419H20.0654V14.7659H20.2204V4.79419Z" fill="white"/>
<path d="M20.3742 4.79419H20.2192V14.7659H20.3742V4.79419Z" fill="white"/>
<path d="M20.5305 4.79419H20.3755V14.7659H20.5305V4.79419Z" fill="white"/>
<path d="M20.6848 4.79419H20.5298V14.7659H20.6848V4.79419Z" fill="white"/>
<path d="M20.8386 4.79419H20.6836V14.7659H20.8386V4.79419Z" fill="white"/>
<path d="M20.9948 4.79419H20.8398V14.7659H20.9948V4.79419Z" fill="white"/>
<path d="M21.1491 4.79419H20.9941V14.7659H21.1491V4.79419Z" fill="white"/>
<path d="M21.3034 4.79419H21.1484V14.7659H21.3034V4.79419Z" fill="white"/>
<path d="M21.4587 4.79419H21.3037V14.7659H21.4587V4.79419Z" fill="white"/>
<path d="M21.6135 4.79419H21.4585V14.7659H21.6135V4.79419Z" fill="white"/>
<path d="M21.7692 4.79419H21.6143V14.7659H21.7692V4.79419Z" fill="white"/>
<path d="M22.2217 4.79419H21.7686V14.7659H22.2217V4.79419Z" fill="white"/>
<path d="M22.6738 4.79419H22.2207V14.7659H22.6738V4.79419Z" fill="white"/>
<path d="M23.1275 4.79419H22.6743V14.7659H23.1275V4.79419Z" fill="white"/>
<path d="M23.5796 4.79419H23.1265V14.7659H23.5796V4.79419Z" fill="white"/>
<path d="M24.0327 4.79419H23.5796V14.7659H24.0327V4.79419Z" fill="white"/>
<path d="M24.4859 4.79419H24.0327V14.7659H24.4859V4.79419Z" fill="white"/>
<path d="M24.9385 4.79419H24.4854V14.7659H24.9385V4.79419Z" fill="white"/>
<path d="M25.3921 4.79419H24.939V14.7659H25.3921V4.79419Z" fill="white"/>
<path d="M25.8447 4.79419H25.3916V14.7659H25.8447V4.79419Z" fill="white"/>
<path d="M26.2969 4.79419H25.8438V14.7659H26.2969V4.79419Z" fill="white"/>
<path d="M26.75 4.79419H26.2969V14.7659H26.75V4.79419Z" fill="white"/>
<path d="M27.2031 4.79419H26.75V14.7659H27.2031V4.79419Z" fill="white"/>
<path d="M27.6558 4.79419H27.2026V14.7659H27.6558V4.79419Z" fill="white"/>
<path d="M28.1089 4.79419H27.6558V14.7659H28.1089V4.79419Z" fill="white"/>
<path d="M28.5625 4.79419H28.1094V14.7659H28.5625V4.79419Z" fill="white"/>
<path d="M29.0152 4.79419H28.562V14.7659H29.0152V4.79419Z" fill="white"/>
<path d="M29.4668 4.79419H29.0137V14.7659H29.4668V4.79419Z" fill="white"/>
<path d="M29.9204 4.79419H29.4673V14.7659H29.9204V4.79419Z" fill="white"/>
<path d="M30.3731 4.79419H29.9199V14.7659H30.3731V4.79419Z" fill="white"/>
<path d="M30.8262 4.79419H30.373V14.7659H30.8262V4.79419Z" fill="white"/>
<path d="M31.2793 4.79419H30.8262V14.7659H31.2793V4.79419Z" fill="white"/>
<path d="M31.7329 4.79419H31.2798V14.7659H31.7329V4.79419Z" fill="white"/>
<path d="M32.1846 4.79419H31.7314V14.7659H32.1846V4.79419Z" fill="white"/>
<path d="M32.6377 4.79419H32.1846V14.7659H32.6377V4.79419Z" fill="white"/>
<path d="M33.0908 4.79419H32.6377V14.7659H33.0908V4.79419Z" fill="white"/>
<path d="M33.544 4.79419H33.0908V14.7659H33.544V4.79419Z" fill="white"/>
</g>
<path d="M30.9832 38.357C31.8249 37.7535 32.7676 37.1529 33.6247 36.4427C37.9875 32.8232 40.5504 28.1733 41.1592 22.4786C41.6227 18.2097 40.7449 13.9015 38.6511 10.169C36.5573 6.43657 33.3546 3.47086 29.5004 1.69541C29.2661 1.58724 29.0234 1.49046 28.7878 1.38371C28.3823 1.2001 28.2126 0.814384 28.3669 0.431514C28.5212 0.0486434 28.9407 -0.107918 29.3587 0.0785357C31.0421 0.825862 32.6182 1.80064 34.0441 2.97639C38.3284 6.52755 40.932 11.0693 41.7681 16.6245C43.0671 25.2555 38.8221 33.9789 31.3199 38.182C31.1838 38.2503 31.0505 38.3214 30.9832 38.357Z" fill="white"/>
<mask id="mask2_9_3674" style="mask-type:luminance" maskUnits="userSpaceOnUse" x="28" y="0" width="14" height="39">
<path d="M30.9832 38.357C31.8249 37.7535 32.7676 37.1529 33.6247 36.4427C37.9875 32.8232 40.5504 28.1733 41.1592 22.4786C41.6227 18.2097 40.7449 13.9015 38.6511 10.169C36.5573 6.43657 33.3546 3.47086 29.5004 1.69541C29.2661 1.58724 29.0234 1.49046 28.7878 1.38371C28.3823 1.2001 28.2126 0.814384 28.3669 0.431514C28.5212 0.0486434 28.9407 -0.107918 29.3587 0.0785357C31.0421 0.825862 32.6182 1.80064 34.0441 2.97639C38.3284 6.52755 40.932 11.0693 41.7681 16.6245C43.0671 25.2555 38.8221 33.9789 31.3199 38.182C31.1838 38.2503 31.0505 38.3214 30.9832 38.357Z" fill="white"/>
</mask>
<g mask="url(#mask2_9_3674)">
<path d="M29.9971 -0.106659H28.2168V38.3569H29.9971V-0.106659Z" fill="white"/>
<path d="M30.0855 -0.106934H29.9971V38.3566H30.0855V-0.106934Z" fill="white"/>
<path d="M30.1729 -0.106934H30.0845V38.3566H30.1729V-0.106934Z" fill="white"/>
<path d="M30.2598 -0.106934H30.1714V38.3566H30.2598V-0.106934Z" fill="white"/>
<path d="M30.3467 -0.106934H30.2583V38.3566H30.3467V-0.106934Z" fill="white"/>
<path d="M30.4331 -0.106934H30.3447V38.3566H30.4331V-0.106934Z" fill="white"/>
<path d="M30.5205 -0.106934H30.4321V38.3566H30.5205V-0.106934Z" fill="white"/>
<path d="M30.6079 -0.106934H30.5195V38.3566H30.6079V-0.106934Z" fill="white"/>
<path d="M30.6944 -0.106934H30.606V38.3566H30.6944V-0.106934Z" fill="white"/>
<path d="M30.7818 -0.106934H30.6934V38.3566H30.7818V-0.106934Z" fill="white"/>
<path d="M30.8687 -0.106934H30.7803V38.3566H30.8687V-0.106934Z" fill="white"/>
<path d="M30.9556 -0.106934H30.8672V38.3566H30.9556V-0.106934Z" fill="white"/>
<path d="M31.042 -0.106934H30.9536V38.3566H31.042V-0.106934Z" fill="white"/>
<path d="M31.1294 -0.106934H31.041V38.3566H31.1294V-0.106934Z" fill="white"/>
<path d="M31.2163 -0.106934H31.1279V38.3566H31.2163V-0.106934Z" fill="white"/>
<path d="M31.3028 -0.106934H31.2144V38.3566H31.3028V-0.106934Z" fill="white"/>
<path d="M31.3887 -0.106934H31.3003V38.3566H31.3887V-0.106934Z" fill="white"/>
<path d="M31.4761 -0.106934H31.3877V38.3566H31.4761V-0.106934Z" fill="white"/>
<path d="M31.563 -0.106934H31.4746V38.3566H31.563V-0.106934Z" fill="white"/>
<path d="M31.6499 -0.106934H31.5615V38.3566H31.6499V-0.106934Z" fill="white"/>
<path d="M31.7368 -0.106934H31.6484V38.3566H31.7368V-0.106934Z" fill="white"/>
<path d="M31.8238 -0.106934H31.7354V38.3566H31.8238V-0.106934Z" fill="white"/>
<path d="M31.9112 -0.106934H31.8228V38.3566H31.9112V-0.106934Z" fill="white"/>
<path d="M31.9981 -0.106934H31.9097V38.3566H31.9981V-0.106934Z" fill="white"/>
<path d="M32.0845 -0.106934H31.9961V38.3566H32.0845V-0.106934Z" fill="white"/>
<path d="M32.1719 -0.106934H32.0835V38.3566H32.1719V-0.106934Z" fill="white"/>
<path d="M32.2588 -0.106934H32.1704V38.3566H32.2588V-0.106934Z" fill="white"/>
<path d="M32.3457 -0.106934H32.2573V38.3566H32.3457V-0.106934Z" fill="white"/>
<path d="M32.4322 -0.106934H32.3438V38.3566H32.4322V-0.106934Z" fill="white"/>
<path d="M32.5196 -0.106934H32.4312V38.3566H32.5196V-0.106934Z" fill="white"/>
<path d="M32.607 -0.106934H32.5186V38.3566H32.607V-0.106934Z" fill="white"/>
<path d="M32.6934 -0.106934H32.605V38.3566H32.6934V-0.106934Z" fill="white"/>
<path d="M32.7803 -0.106934H32.6919V38.3566H32.7803V-0.106934Z" fill="white"/>
<path d="M32.8677 -0.106934H32.7793V38.3566H32.8677V-0.106934Z" fill="white"/>
<path d="M32.9546 -0.106934H32.8662V38.3566H32.9546V-0.106934Z" fill="white"/>
<path d="M33.0415 -0.106934H32.9531V38.3566H33.0415V-0.106934Z" fill="white"/>
<path d="M33.128 -0.106934H33.0396V38.3566H33.128V-0.106934Z" fill="white"/>
<path d="M33.2154 -0.106934H33.127V38.3566H33.2154V-0.106934Z" fill="white"/>
<path d="M33.3023 -0.106934H33.2139V38.3566H33.3023V-0.106934Z" fill="white"/>
<path d="M33.3892 -0.106934H33.3008V38.3566H33.3892V-0.106934Z" fill="white"/>
<path d="M33.4761 -0.106934H33.3877V38.3566H33.4761V-0.106934Z" fill="white"/>
<path d="M33.563 -0.106934H33.4746V38.3566H33.563V-0.106934Z" fill="white"/>
<path d="M33.6499 -0.106934H33.5615V38.3566H33.6499V-0.106934Z" fill="white"/>
<path d="M33.7378 -0.106934H33.6494V38.3566H33.7378V-0.106934Z" fill="white"/>
<path d="M33.8243 -0.106934H33.7358V38.3566H33.8243V-0.106934Z" fill="white"/>
<path d="M33.9112 -0.106934H33.8228V38.3566H33.9112V-0.106934Z" fill="white"/>
<path d="M33.9981 -0.106934H33.9097V38.3566H33.9981V-0.106934Z" fill="white"/>
<path d="M34.085 -0.106934H33.9966V38.3566H34.085V-0.106934Z" fill="white"/>
<path d="M34.1724 -0.106934H34.084V38.3566H34.1724V-0.106934Z" fill="white"/>
<path d="M34.2588 -0.106934H34.1704V38.3566H34.2588V-0.106934Z" fill="white"/>
<path d="M34.3462 -0.106934H34.2578V38.3566H34.3462V-0.106934Z" fill="white"/>
<path d="M34.4331 -0.106934H34.3447V38.3566H34.4331V-0.106934Z" fill="white"/>
<path d="M34.5196 -0.106934H34.4312V38.3566H34.5196V-0.106934Z" fill="white"/>
<path d="M34.606 -0.106934H34.5176V38.3566H34.606V-0.106934Z" fill="white"/>
<path d="M34.6929 -0.106934H34.6045V38.3566H34.6929V-0.106934Z" fill="white"/>
<path d="M34.7793 -0.106934H34.6909V38.3566H34.7793V-0.106934Z" fill="white"/>
<path d="M34.8662 -0.106934H34.7778V38.3566H34.8662V-0.106934Z" fill="white"/>
<path d="M34.9536 -0.106934H34.8652V38.3566H34.9536V-0.106934Z" fill="white"/>
<path d="M35.0406 -0.106934H34.9521V38.3566H35.0406V-0.106934Z" fill="white"/>
<path d="M35.1275 -0.106934H35.0391V38.3566H35.1275V-0.106934Z" fill="white"/>
<path d="M35.2139 -0.106934H35.1255V38.3566H35.2139V-0.106934Z" fill="white"/>
<path d="M35.3013 -0.106934H35.2129V38.3566H35.3013V-0.106934Z" fill="white"/>
<path d="M35.3882 -0.106934H35.2998V38.3566H35.3882V-0.106934Z" fill="white"/>
<path d="M35.6406 -0.106934H35.3867V38.3566H35.6406V-0.106934Z" fill="white"/>
<path d="M35.897 -0.106934H35.6431V38.3566H35.897V-0.106934Z" fill="white"/>
<path d="M36.1499 -0.106934H35.896V38.3566H36.1499V-0.106934Z" fill="white"/>
<path d="M36.4038 -0.106934H36.1499V38.3566H36.4038V-0.106934Z" fill="white"/>
<path d="M36.6592 -0.106934H36.4053V38.3566H36.6592V-0.106934Z" fill="white"/>
<path d="M36.9131 -0.106934H36.6592V38.3566H36.9131V-0.106934Z" fill="white"/>
<path d="M37.167 -0.106934H36.9131V38.3566H37.167V-0.106934Z" fill="white"/>
<path d="M37.4209 -0.106934H37.167V38.3566H37.4209V-0.106934Z" fill="white"/>
<path d="M37.6768 -0.106934H37.4229V38.3566H37.6768V-0.106934Z" fill="white"/>
<path d="M37.9302 -0.106934H37.6763V38.3566H37.9302V-0.106934Z" fill="white"/>
<path d="M38.1841 -0.106934H37.9302V38.3566H38.1841V-0.106934Z" fill="white"/>
<path d="M38.4395 -0.106934H38.1855V38.3566H38.4395V-0.106934Z" fill="white"/>
<path d="M38.6934 -0.106934H38.4395V38.3566H38.6934V-0.106934Z" fill="white"/>
<path d="M38.9468 -0.106934H38.6929V38.3566H38.9468V-0.106934Z" fill="white"/>
<path d="M39.2022 -0.106934H38.9482V38.3566H39.2022V-0.106934Z" fill="white"/>
<path d="M39.4566 -0.106934H39.2026V38.3566H39.4566V-0.106934Z" fill="white"/>
<path d="M39.711 -0.106934H39.457V38.3566H39.711V-0.106934Z" fill="white"/>
<path d="M39.9658 -0.106934H39.7119V38.3566H39.9658V-0.106934Z" fill="white"/>
<path d="M40.2197 -0.106934H39.9658V38.3566H40.2197V-0.106934Z" fill="white"/>
<path d="M40.4737 -0.106934H40.2197V38.3566H40.4737V-0.106934Z" fill="white"/>
<path d="M40.729 -0.106934H40.4751V38.3566H40.729V-0.106934Z" fill="white"/>
<path d="M40.9829 -0.106934H40.729V38.3566H40.9829V-0.106934Z" fill="white"/>
<path d="M41.2373 -0.106934H40.9834V38.3566H41.2373V-0.106934Z" fill="white"/>
<path d="M41.4922 -0.106934H41.2383V38.3566H41.4922V-0.106934Z" fill="white"/>
<path d="M41.7461 -0.106934H41.4922V38.3566H41.7461V-0.106934Z" fill="white"/>
<path d="M42 -0.106934H41.7461V38.3566H42V-0.106934Z" fill="white"/>
</g>
<path d="M10.8025 1.77164C9.94813 2.40074 9.05173 2.98999 8.23529 3.67745C4.09416 7.16741 1.59713 11.6153 0.89993 17.0409C-0.25319 26.0078 4.39997 34.5106 12.4788 38.2966C12.7047 38.4019 12.9361 38.4959 13.1662 38.5955C13.6095 38.7905 13.7933 39.1791 13.6277 39.5776C13.4622 39.9761 13.0442 40.1071 12.6051 39.9078C10.4248 38.9307 8.42512 37.5829 6.69218 35.9225C3.13182 32.4924 0.978022 28.3131 0.230785 23.3846C-1.05701 14.812 3.13322 6.11985 10.5864 1.89262C10.6594 1.83711 10.7351 1.8058 10.8025 1.77164Z" fill="white"/>
<mask id="mask3_9_3674" style="mask-type:luminance" maskUnits="userSpaceOnUse" x="0" y="1" width="14" height="39">
<path d="M10.8025 1.77164C9.94813 2.40074 9.05173 2.98999 8.23529 3.67745C4.09416 7.16741 1.59713 11.6153 0.89993 17.0409C-0.25319 26.0078 4.39997 34.5106 12.4788 38.2966C12.7047 38.4019 12.9361 38.4959 13.1662 38.5955C13.6095 38.7905 13.7933 39.1791 13.6277 39.5776C13.4622 39.9761 13.0442 40.1071 12.6051 39.9078C10.4248 38.9307 8.42512 37.5829 6.69218 35.9225C3.13182 32.4924 0.978022 28.3131 0.230785 23.3846C-1.05701 14.812 3.13322 6.11985 10.5864 1.89262C10.6594 1.83711 10.7351 1.8058 10.8025 1.77164Z" fill="white"/>
</mask>
<g mask="url(#mask3_9_3674)">
<path d="M1.68307 1.77164H-1.05664V40.1085H1.68307V1.77164Z" fill="white"/>
<path d="M1.76908 1.77164H1.68066V40.1085H1.76908V1.77164Z" fill="white"/>
<path d="M1.85697 1.77164H1.76855V40.1085H1.85697V1.77164Z" fill="white"/>
<path d="M1.94339 1.77164H1.85498V40.1085H1.94339V1.77164Z" fill="white"/>
<path d="M2.03031 1.77164H1.94189V40.1085H2.03031V1.77164Z" fill="white"/>
<path d="M2.11771 1.77164H2.0293V40.1085H2.11771V1.77164Z" fill="white"/>
<path d="M2.20462 1.77164H2.11621V40.1085H2.20462V1.77164Z" fill="white"/>
<path d="M2.29105 1.77164H2.20264V40.1085H2.29105V1.77164Z" fill="white"/>
<path d="M2.37796 1.77164H2.28955V40.1085H2.37796V1.77164Z" fill="white"/>
<path d="M2.46586 1.77164H2.37744V40.1085H2.46586V1.77164Z" fill="white"/>
<path d="M2.55228 1.77164H2.46387V40.1085H2.55228V1.77164Z" fill="white"/>
<path d="M2.6387 1.77164H2.55029V40.1085H2.6387V1.77164Z" fill="white"/>
<path d="M2.7266 1.77164H2.63818V40.1085H2.7266V1.77164Z" fill="white"/>
<path d="M2.81351 1.77164H2.7251V40.1085H2.81351V1.77164Z" fill="white"/>
<path d="M2.90042 1.77164H2.81201V40.1085H2.90042V1.77164Z" fill="white"/>
<path d="M2.98783 1.77164H2.89941V40.1085H2.98783V1.77164Z" fill="white"/>
<path d="M3.07425 1.77164H2.98584V40.1085H3.07425V1.77164Z" fill="white"/>
<path d="M3.16068 1.77164H3.07227V40.1085H3.16068V1.77164Z" fill="white"/>
<path d="M3.24857 1.77164H3.16016V40.1085H3.24857V1.77164Z" fill="white"/>
<path d="M3.33548 1.77164H3.24707V40.1085H3.33548V1.77164Z" fill="white"/>
<path d="M3.42191 1.77164H3.3335V40.1085H3.42191V1.77164Z" fill="white"/>
<path d="M3.50882 1.77164H3.42041V40.1085H3.50882V1.77164Z" fill="white"/>
<path d="M3.59622 1.77164H3.50781V40.1085H3.59622V1.77164Z" fill="white"/>
<path d="M3.68314 1.77164H3.59473V40.1085H3.68314V1.77164Z" fill="white"/>
<path d="M3.76957 1.77164H3.68115V40.1085H3.76957V1.77164Z" fill="white"/>
<path d="M3.85745 1.77164H3.76904V40.1085H3.85745V1.77164Z" fill="white"/>
<path d="M3.94388 1.77164H3.85547V40.1085H3.94388V1.77164Z" fill="white"/>
<path d="M4.03079 1.77164H3.94238V40.1085H4.03079V1.77164Z" fill="white"/>
<path d="M4.1182 1.77164H4.02979V40.1085H4.1182V1.77164Z" fill="white"/>
<path d="M4.20511 1.77164H4.1167V40.1085H4.20511V1.77164Z" fill="white"/>
<path d="M4.29154 1.77164H4.20312V40.1085H4.29154V1.77164Z" fill="white"/>
<path d="M4.37845 1.77164H4.29004V40.1085H4.37845V1.77164Z" fill="white"/>
<path d="M4.46634 1.77164H4.37793V40.1085H4.46634V1.77164Z" fill="white"/>
<path d="M4.55277 1.77164H4.46436V40.1085H4.55277V1.77164Z" fill="white"/>
<path d="M4.63968 1.77164H4.55127V40.1085H4.63968V1.77164Z" fill="white"/>
<path d="M4.7266 1.77164H4.63818V40.1085H4.7266V1.77164Z" fill="white"/>
<path d="M4.81351 1.77164H4.7251V40.1085H4.81351V1.77164Z" fill="white"/>
<path d="M4.90043 1.77164H4.81201V40.1085H4.90043V1.77164Z" fill="white"/>
<path d="M4.98831 1.77164H4.8999V40.1085H4.98831V1.77164Z" fill="white"/>
<path d="M5.07425 1.77164H4.98584V40.1085H5.07425V1.77164Z" fill="white"/>
<path d="M5.16117 1.77164H5.07275V40.1085H5.16117V1.77164Z" fill="white"/>
<path d="M5.24857 1.77164H5.16016V40.1085H5.24857V1.77164Z" fill="white"/>
<path d="M5.33597 1.77164H5.24756V40.1085H5.33597V1.77164Z" fill="white"/>
<path d="M5.42191 1.77164H5.3335V40.1085H5.42191V1.77164Z" fill="white"/>
<path d="M5.50931 1.77164H5.4209V40.1085H5.50931V1.77164Z" fill="white"/>
<path d="M5.59671 1.77164H5.5083V40.1085H5.59671V1.77164Z" fill="white"/>
<path d="M5.68363 1.77164H5.59521V40.1085H5.68363V1.77164Z" fill="white"/>
<path d="M5.77054 1.77164H5.68213V40.1085H5.77054V1.77164Z" fill="white"/>
<path d="M5.85745 1.77164H5.76904V40.1085H5.85745V1.77164Z" fill="white"/>
<path d="M5.94437 1.77164H5.85596V40.1085H5.94437V1.77164Z" fill="white"/>
<path d="M6.03128 1.77164H5.94287V40.1085H6.03128V1.77164Z" fill="white"/>
<path d="M6.11869 1.77164H6.03027V40.1085H6.11869V1.77164Z" fill="white"/>
<path d="M6.20511 1.77164H6.1167V40.1085H6.20511V1.77164Z" fill="white"/>
<path d="M6.29203 1.77164H6.20361V40.1085H6.29203V1.77164Z" fill="white"/>
<path d="M6.37894 1.77164H6.29053V40.1085H6.37894V1.77164Z" fill="white"/>
<path d="M6.46634 1.77164H6.37793V40.1085H6.46634V1.77164Z" fill="white"/>
<path d="M6.5513 1.77164H6.46289V40.1085H6.5513V1.77164Z" fill="white"/>
<path d="M6.63871 1.77164H6.55029V40.1085H6.63871V1.77164Z" fill="white"/>
<path d="M6.72562 1.77164H6.63721V40.1085H6.72562V1.77164Z" fill="white"/>
<path d="M6.81253 1.77164H6.72412V40.1085H6.81253V1.77164Z" fill="white"/>
<path d="M6.89994 1.77164H6.81152V40.1085H6.89994V1.77164Z" fill="white"/>
<path d="M6.98685 1.77164H6.89844V40.1085H6.98685V1.77164Z" fill="white"/>
<path d="M7.07328 1.77164H6.98486V40.1085H7.07328V1.77164Z" fill="white"/>
<path d="M7.3257 1.77164H7.07178V40.1085H7.3257V1.77164Z" fill="white"/>
<path d="M7.58156 1.77164H7.32764V40.1085H7.58156V1.77164Z" fill="white"/>
<path d="M7.83498 1.77164H7.58105V40.1085H7.83498V1.77164Z" fill="white"/>
<path d="M8.08889 1.77164H7.83496V40.1085H8.08889V1.77164Z" fill="white"/>
<path d="M8.34426 1.77164H8.09033V40.1085H8.34426V1.77164Z" fill="white"/>
<path d="M8.59817 1.77164H8.34424V40.1085H8.59817V1.77164Z" fill="white"/>
<path d="M8.85403 1.77164H8.6001V40.1085H8.85403V1.77164Z" fill="white"/>
<path d="M9.10744 1.77164H8.85352V40.1085H9.10744V1.77164Z" fill="white"/>
<path d="M9.36184 1.77164H9.10791V40.1085H9.36184V1.77164Z" fill="white"/>
<path d="M9.61721 1.77164H9.36328V40.1085H9.61721V1.77164Z" fill="white"/>
<path d="M9.87112 1.77164H9.61719V40.1085H9.87112V1.77164Z" fill="white"/>
<path d="M10.125 1.77164H9.87109V40.1085H10.125V1.77164Z" fill="white"/>
<path d="M10.3799 1.77164H10.126V40.1085H10.3799V1.77164Z" fill="white"/>
<path d="M10.6343 1.77164H10.3804V40.1085H10.6343V1.77164Z" fill="white"/>
<path d="M10.8877 1.77164H10.6338V40.1085H10.8877V1.77164Z" fill="white"/>
<path d="M11.1436 1.77164H10.8896V40.1085H11.1436V1.77164Z" fill="white"/>
<path d="M11.3975 1.77164H11.1436V40.1085H11.3975V1.77164Z" fill="white"/>
<path d="M11.6509 1.77164H11.397V40.1085H11.6509V1.77164Z" fill="white"/>
<path d="M11.9063 1.77164H11.6523V40.1085H11.9063V1.77164Z" fill="white"/>
<path d="M12.1602 1.77164H11.9062V40.1085H12.1602V1.77164Z" fill="white"/>
<path d="M12.4156 1.77164H12.1616V40.1085H12.4156V1.77164Z" fill="white"/>
<path d="M12.669 1.77164H12.415V40.1085H12.669V1.77164Z" fill="white"/>
<path d="M12.9234 1.77164H12.6694V40.1085H12.9234V1.77164Z" fill="white"/>
<path d="M13.1787 1.77164H12.9248V40.1085H13.1787V1.77164Z" fill="white"/>
<path d="M13.4326 1.77164H13.1787V40.1085H13.4326V1.77164Z" fill="white"/>
<path d="M13.6861 1.77164H13.4321V40.1085H13.6861V1.77164Z" fill="white"/>
</g>
<path d="M6.94848 7.6438C5.70031 9.2308 4.68665 10.9938 3.93942 12.8773C2.36909 16.882 2.22443 21.3169 3.53035 25.4182C4.83627 29.5194 7.51101 33.0302 11.0938 35.3457C13.7614 37.0741 16.8347 38.0503 19.9975 38.1738C20.4352 38.1937 20.7214 38.4713 20.6989 38.8527C20.6765 39.2342 20.3875 39.4775 19.9372 39.459C19.8502 39.459 19.7647 39.4505 19.6777 39.4434C17.7446 39.2697 15.8592 38.8584 14.0776 38.077C7.5587 35.219 3.57469 30.2488 2.43419 23.1323C1.52657 17.449 3.06967 12.3564 6.69316 7.92135C6.77453 7.82598 6.86571 7.73631 6.94848 7.6438Z" fill="white"/>
<mask id="mask4_9_3674" style="mask-type:luminance" maskUnits="userSpaceOnUse" x="2" y="7" width="19" height="33">
<path d="M6.94848 7.6438C5.70031 9.2308 4.68665 10.9938 3.93942 12.8773C2.36909 16.882 2.22443 21.3169 3.53035 25.4182C4.83627 29.5194 7.51101 33.0302 11.0938 35.3457C13.7614 37.0741 16.8347 38.0503 19.9975 38.1738C20.4352 38.1937 20.7214 38.4713 20.6989 38.8527C20.6765 39.2342 20.3875 39.4775 19.9372 39.459C19.8502 39.459 19.7647 39.4505 19.6777 39.4434C17.7446 39.2697 15.8592 38.8584 14.0776 38.077C7.5587 35.219 3.57469 30.2488 2.43419 23.1323C1.52657 17.449 3.06967 12.3564 6.69316 7.92135C6.77453 7.82598 6.86571 7.73631 6.94848 7.6438Z" fill="white"/>
</mask>
<g mask="url(#mask4_9_3674)">
<path d="M4.46537 7.6438H0.700195V39.4761H4.46537V7.6438Z" fill="white"/>
<path d="M4.58417 7.6438H4.46582V39.4761H4.58417V7.6438Z" fill="white"/>
<path d="M4.70233 7.6438H4.58398V39.4761H4.70233V7.6438Z" fill="white"/>
<path d="M4.81952 7.6438H4.70117V39.4761H4.81952V7.6438Z" fill="white"/>
<path d="M4.93768 7.6438H4.81934V39.4761H4.93768V7.6438Z" fill="white"/>
<path d="M5.05585 7.6438H4.9375V39.4761H5.05585V7.6438Z" fill="white"/>
<path d="M5.17206 7.6438H5.05371V39.4761H5.17206V7.6438Z" fill="white"/>
<path d="M5.28973 7.6438H5.17139V39.4761H5.28973V7.6438Z" fill="white"/>
<path d="M5.40741 7.6438H5.28906V39.4761H5.40741V7.6438Z" fill="white"/>
<path d="M5.52508 7.6438H5.40674V39.4761H5.52508V7.6438Z" fill="white"/>
<path d="M5.64276 7.6438H5.52441V39.4761H5.64276V7.6438Z" fill="white"/>
<path d="M5.76092 7.6438H5.64258V39.4761H5.76092V7.6438Z" fill="white"/>
<path d="M5.87713 7.6438H5.75879V39.4761H5.87713V7.6438Z" fill="white"/>
<path d="M5.9953 7.6438H5.87695V39.4761H5.9953V7.6438Z" fill="white"/>
<path d="M6.11346 7.6438H5.99512V39.4761H6.11346V7.6438Z" fill="white"/>
<path d="M6.23065 7.6438H6.1123V39.4761H6.23065V7.6438Z" fill="white"/>
<path d="M6.34881 7.6438H6.23047V39.4761H6.34881V7.6438Z" fill="white"/>
<path d="M6.46698 7.6438H6.34863V39.4761H6.46698V7.6438Z" fill="white"/>
<path d="M6.58416 7.6438H6.46582V39.4761H6.58416V7.6438Z" fill="white"/>
<path d="M6.70086 7.6438H6.58252V39.4761H6.70086V7.6438Z" fill="white"/>
<path d="M6.81903 7.6438H6.70068V39.4761H6.81903V7.6438Z" fill="white"/>
<path d="M6.9367 7.6438H6.81836V39.4761H6.9367V7.6438Z" fill="white"/>
<path d="M7.05487 7.6438H6.93652V39.4761H7.05487V7.6438Z" fill="white"/>
<path d="M7.17303 7.6438H7.05469V39.4761H7.17303V7.6438Z" fill="white"/>
<path d="M7.29022 7.6438H7.17188V39.4761H7.29022V7.6438Z" fill="white"/>
<path d="M7.40643 7.6438H7.28809V39.4761H7.40643V7.6438Z" fill="white"/>
<path d="M7.52459 7.6438H7.40625V39.4761H7.52459V7.6438Z" fill="white"/>
<path d="M7.64178 7.6438H7.52344V39.4761H7.64178V7.6438Z" fill="white"/>
<path d="M7.75995 7.6438H7.6416V39.4761H7.75995V7.6438Z" fill="white"/>
<path d="M7.87762 7.6438H7.75928V39.4761H7.87762V7.6438Z" fill="white"/>
<path d="M7.99578 7.6438H7.87744V39.4761H7.99578V7.6438Z" fill="white"/>
<path d="M8.11346 7.6438H7.99512V39.4761H8.11346V7.6438Z" fill="white"/>
<path d="M8.22967 7.6438H8.11133V39.4761H8.22967V7.6438Z" fill="white"/>
<path d="M8.34784 7.6438H8.22949V39.4761H8.34784V7.6438Z" fill="white"/>
<path d="M8.46551 7.6438H8.34717V39.4761H8.46551V7.6438Z" fill="white"/>
<path d="M8.58319 7.6438H8.46484V39.4761H8.58319V7.6438Z" fill="white"/>
<path d="M8.70135 7.6438H8.58301V39.4761H8.70135V7.6438Z" fill="white"/>
<path d="M8.82001 7.6438H8.70166V39.4761H8.82001V7.6438Z" fill="white"/>
<path d="M8.93524 7.6438H8.81689V39.4761H8.93524V7.6438Z" fill="white"/>
<path d="M9.0534 7.6438H8.93506V39.4761H9.0534V7.6438Z" fill="white"/>
<path d="M9.17205 7.6438H9.05371V39.4761H9.17205V7.6438Z" fill="white"/>
<path d="M9.28875 7.6438H9.17041V39.4761H9.28875V7.6438Z" fill="white"/>
<path d="M9.40692 7.6438H9.28857V39.4761H9.40692V7.6438Z" fill="white"/>
<path d="M9.52508 7.6438H9.40674V39.4761H9.52508V7.6438Z" fill="white"/>
<path d="M9.64276 7.6438H9.52441V39.4761H9.64276V7.6438Z" fill="white"/>
<path d="M9.75848 7.6438H9.64014V39.4761H9.75848V7.6438Z" fill="white"/>
<path d="M9.87713 7.6438H9.75879V39.4761H9.87713V7.6438Z" fill="white"/>
<path d="M9.99481 7.6438H9.87646V39.4761H9.99481V7.6438Z" fill="white"/>
<path d="M10.1125 7.6438H9.99414V39.4761H10.1125V7.6438Z" fill="white"/>
<path d="M10.2307 7.6438H10.1123V39.4761H10.2307V7.6438Z" fill="white"/>
<path d="M10.3483 7.6438H10.23V39.4761H10.3483V7.6438Z" fill="white"/>
<path d="M10.466 7.6438H10.3477V39.4761H10.466V7.6438Z" fill="white"/>
<path d="M10.5827 7.6438H10.4644V39.4761H10.5827V7.6438Z" fill="white"/>
<path d="M10.7004 7.6438H10.582V39.4761H10.7004V7.6438Z" fill="white"/>
<path d="M10.8185 7.6438H10.7002V39.4761H10.8185V7.6438Z" fill="white"/>
<path d="M10.9362 7.6438H10.8179V39.4761H10.9362V7.6438Z" fill="white"/>
<path d="M11.0539 7.6438H10.9355V39.4761H11.0539V7.6438Z" fill="white"/>
<path d="M11.1721 7.6438H11.0537V39.4761H11.1721V7.6438Z" fill="white"/>
<path d="M11.2883 7.6438H11.1699V39.4761H11.2883V7.6438Z" fill="white"/>
<path d="M11.4059 7.6438H11.2876V39.4761H11.4059V7.6438Z" fill="white"/>
<path d="M11.5236 7.6438H11.4053V39.4761H11.5236V7.6438Z" fill="white"/>
<path d="M11.6413 7.6438H11.5229V39.4761H11.6413V7.6438Z" fill="white"/>
<path d="M11.759 7.6438H11.6406V39.4761H11.759V7.6438Z" fill="white"/>
<path d="M12.103 7.6438H11.7593V39.4761H12.103V7.6438Z" fill="white"/>
<path d="M12.4463 7.6438H12.1025V39.4761H12.4463V7.6438Z" fill="white"/>
<path d="M12.7905 7.6438H12.4468V39.4761H12.7905V7.6438Z" fill="white"/>
<path d="M13.1352 7.6438H12.7915V39.4761H13.1352V7.6438Z" fill="white"/>
<path d="M13.479 7.6438H13.1353V39.4761H13.479V7.6438Z" fill="white"/>
<path d="M13.8222 7.6438H13.4785V39.4761H13.8222V7.6438Z" fill="white"/>
<path d="M14.1679 7.6438H13.8242V39.4761H14.1679V7.6438Z" fill="white"/>
<path d="M14.5117 7.6438H14.168V39.4761H14.5117V7.6438Z" fill="white"/>
<path d="M14.8549 7.6438H14.5112V39.4761H14.8549V7.6438Z" fill="white"/>
<path d="M15.2002 7.6438H14.8564V39.4761H15.2002V7.6438Z" fill="white"/>
<path d="M15.5434 7.6438H15.1997V39.4761H15.5434V7.6438Z" fill="white"/>
<path d="M15.8872 7.6438H15.5435V39.4761H15.8872V7.6438Z" fill="white"/>
<path d="M16.2324 7.6438H15.8887V39.4761H16.2324V7.6438Z" fill="white"/>
<path d="M16.5761 7.6438H16.2324V39.4761H16.5761V7.6438Z" fill="white"/>
<path d="M16.9199 7.6438H16.5762V39.4761H16.9199V7.6438Z" fill="white"/>
<path d="M17.2631 7.6438H16.9194V39.4761H17.2631V7.6438Z" fill="white"/>
<path d="M17.6089 7.6438H17.2651V39.4761H17.6089V7.6438Z" fill="white"/>
<path d="M17.9526 7.6438H17.6089V39.4761H17.9526V7.6438Z" fill="white"/>
<path d="M18.2964 7.6438H17.9526V39.4761H18.2964V7.6438Z" fill="white"/>
<path d="M18.6416 7.6438H18.2979V39.4761H18.6416V7.6438Z" fill="white"/>
<path d="M18.9848 7.6438H18.6411V39.4761H18.9848V7.6438Z" fill="white"/>
<path d="M19.3286 7.6438H18.9849V39.4761H19.3286V7.6438Z" fill="white"/>
<path d="M19.6738 7.6438H19.3301V39.4761H19.6738V7.6438Z" fill="white"/>
<path d="M20.0175 7.6438H19.6738V39.4761H20.0175V7.6438Z" fill="white"/>
<path d="M20.3608 7.6438H20.0171V39.4761H20.3608V7.6438Z" fill="white"/>
<path d="M20.7065 7.6438H20.3628V39.4761H20.7065V7.6438Z" fill="white"/>
</g>
<path d="M35.311 31.9976C35.7052 31.4283 36.0784 30.9187 36.4123 30.3878C41.9927 21.5377 39.3413 10.0687 30.8781 4.64301C28.2168 2.92416 25.1534 1.95311 22.0011 1.82913C21.59 1.8092 21.3333 1.59286 21.2997 1.23988C21.2855 1.08804 21.3256 0.936099 21.4127 0.811745C21.4997 0.687391 21.6279 0.598895 21.7738 0.562379C21.9256 0.541707 22.0794 0.541707 22.2311 0.562379C24.6682 0.746733 27.0457 1.41557 29.2284 2.53082C34.2435 5.11697 37.6215 9.13925 39.093 14.646C40.7849 20.9755 39.4971 26.7442 35.4752 31.8795C35.457 31.9022 35.4373 31.9236 35.4163 31.9435C35.3825 31.9641 35.3473 31.9822 35.311 31.9976Z" fill="white"/>
<mask id="mask5_9_3674" style="mask-type:luminance" maskUnits="userSpaceOnUse" x="21" y="0" width="19" height="32">
<path d="M35.311 31.9976C35.7052 31.4283 36.0784 30.9187 36.4123 30.3878C41.9927 21.5377 39.3413 10.0687 30.8781 4.64301C28.2168 2.92416 25.1534 1.95311 22.0011 1.82913C21.59 1.8092 21.3333 1.59286 21.2997 1.23988C21.2855 1.08804 21.3256 0.936099 21.4127 0.811745C21.4997 0.687391 21.6279 0.598895 21.7738 0.562379C21.9256 0.541707 22.0794 0.541707 22.2311 0.562379C24.6682 0.746733 27.0457 1.41557 29.2284 2.53082C34.2435 5.11697 37.6215 9.13925 39.093 14.646C40.7849 20.9755 39.4971 26.7442 35.4752 31.8795C35.457 31.9022 35.4373 31.9236 35.4163 31.9435C35.3825 31.9641 35.3473 31.9822 35.311 31.9976Z" fill="white"/>
</mask>
<g mask="url(#mask5_9_3674)">
<path d="M23.5725 0.532471H21.269V31.9976H23.5725V0.532471Z" fill="white"/>
<path d="M23.6906 0.532471H23.5723V31.9976H23.6906V0.532471Z" fill="white"/>
<path d="M23.8088 0.532471H23.6904V31.9976H23.8088V0.532471Z" fill="white"/>
<path d="M23.926 0.532471H23.8076V31.9976H23.926V0.532471Z" fill="white"/>
<path d="M24.0446 0.532471H23.9263V31.9976H24.0446V0.532471Z" fill="white"/>
<path d="M24.1623 0.532471H24.0439V31.9976H24.1623V0.532471Z" fill="white"/>
<path d="M24.2785 0.532471H24.1602V31.9976H24.2785V0.532471Z" fill="white"/>
<path d="M24.3967 0.532471H24.2783V31.9976H24.3967V0.532471Z" fill="white"/>
<path d="M24.5143 0.532471H24.396V31.9976H24.5143V0.532471Z" fill="white"/>
<path d="M24.6325 0.532471H24.5142V31.9976H24.6325V0.532471Z" fill="white"/>
<path d="M24.7497 0.532471H24.6313V31.9976H24.7497V0.532471Z" fill="white"/>
<path d="M24.8679 0.532471H24.7495V31.9976H24.8679V0.532471Z" fill="white"/>
<path d="M24.9855 0.532471H24.8672V31.9976H24.9855V0.532471Z" fill="white"/>
<path d="M25.1027 0.532471H24.9844V31.9976H25.1027V0.532471Z" fill="white"/>
<path d="M25.2194 0.532471H25.1011V31.9976H25.2194V0.532471Z" fill="white"/>
<path d="M25.3376 0.532471H25.2192V31.9976H25.3376V0.532471Z" fill="white"/>
<path d="M25.4553 0.532471H25.3369V31.9976H25.4553V0.532471Z" fill="white"/>
<path d="M25.5729 0.532471H25.4546V31.9976H25.5729V0.532471Z" fill="white"/>
<path d="M25.6911 0.532471H25.5728V31.9976H25.6911V0.532471Z" fill="white"/>
<path d="M25.8088 0.532471H25.6904V31.9976H25.8088V0.532471Z" fill="white"/>
<path d="M25.9264 0.532471H25.8081V31.9976H25.9264V0.532471Z" fill="white"/>
<path d="M26.0451 0.532471H25.9268V31.9976H26.0451V0.532471Z" fill="white"/>
<path d="M26.1608 0.532471H26.0425V31.9976H26.1608V0.532471Z" fill="white"/>
<path d="M26.2785 0.532471H26.1602V31.9976H26.2785V0.532471Z" fill="white"/>
<path d="M26.3967 0.532471H26.2783V31.9976H26.3967V0.532471Z" fill="white"/>
<path d="M26.5148 0.532471H26.3965V31.9976H26.5148V0.532471Z" fill="white"/>
<path d="M26.6325 0.532471H26.5142V31.9976H26.6325V0.532471Z" fill="white"/>
<path d="M26.7507 0.532471H26.6323V31.9976H26.7507V0.532471Z" fill="white"/>
<path d="M26.8683 0.532471H26.75V31.9976H26.8683V0.532471Z" fill="white"/>
<path d="M26.986 0.532471H26.8677V31.9976H26.986V0.532471Z" fill="white"/>
<path d="M27.1022 0.532471H26.9839V31.9976H27.1022V0.532471Z" fill="white"/>
<path d="M27.2199 0.532471H27.1016V31.9976H27.2199V0.532471Z" fill="white"/>
<path d="M27.3381 0.532471H27.2197V31.9976H27.3381V0.532471Z" fill="white"/>
<path d="M27.4562 0.532471H27.3379V31.9976H27.4562V0.532471Z" fill="white"/>
<path d="M27.5734 0.532471H27.4551V31.9976H27.5734V0.532471Z" fill="white"/>
<path d="M27.6916 0.532471H27.5732V31.9976H27.6916V0.532471Z" fill="white"/>
<path d="M27.8093 0.532471H27.6909V31.9976H27.8093V0.532471Z" fill="white"/>
<path d="M27.9269 0.532471H27.8086V31.9976H27.9269V0.532471Z" fill="white"/>
<path d="M28.0436 0.532471H27.9253V31.9976H28.0436V0.532471Z" fill="white"/>
<path d="M28.1613 0.532471H28.043V31.9976H28.1613V0.532471Z" fill="white"/>
<path d="M28.2795 0.532471H28.1611V31.9976H28.2795V0.532471Z" fill="white"/>
<path d="M28.3972 0.532471H28.2788V31.9976H28.3972V0.532471Z" fill="white"/>
<path d="M28.5148 0.532471H28.3965V31.9976H28.5148V0.532471Z" fill="white"/>
<path d="M28.633 0.532471H28.5146V31.9976H28.633V0.532471Z" fill="white"/>
<path d="M28.7507 0.532471H28.6323V31.9976H28.7507V0.532471Z" fill="white"/>
<path d="M28.8683 0.532471H28.75V31.9976H28.8683V0.532471Z" fill="white"/>
<path d="M28.985 0.532471H28.8667V31.9976H28.985V0.532471Z" fill="white"/>
<path d="M29.1022 0.532471H28.9839V31.9976H29.1022V0.532471Z" fill="white"/>
<path d="M29.2204 0.532471H29.1021V31.9976H29.2204V0.532471Z" fill="white"/>
<path d="M29.3381 0.532471H29.2197V31.9976H29.3381V0.532471Z" fill="white"/>
<path d="M29.4567 0.532471H29.3384V31.9976H29.4567V0.532471Z" fill="white"/>
<path d="M29.5739 0.532471H29.4556V31.9976H29.5739V0.532471Z" fill="white"/>
<path d="M29.6921 0.532471H29.5737V31.9976H29.6921V0.532471Z" fill="white"/>
<path d="M29.8088 0.532471H29.6904V31.9976H29.8088V0.532471Z" fill="white"/>
<path d="M29.926 0.532471H29.8076V31.9976H29.926V0.532471Z" fill="white"/>
<path d="M30.0441 0.532471H29.9258V31.9976H30.0441V0.532471Z" fill="white"/>
<path d="M30.1623 0.532471H30.0439V31.9976H30.1623V0.532471Z" fill="white"/>
<path d="M30.28 0.532471H30.1616V31.9976H30.28V0.532471Z" fill="white"/>
<path d="M30.3976 0.532471H30.2793V31.9976H30.3976V0.532471Z" fill="white"/>
<path d="M30.5153 0.532471H30.397V31.9976H30.5153V0.532471Z" fill="white"/>
<path d="M30.6335 0.532471H30.5151V31.9976H30.6335V0.532471Z" fill="white"/>
<path d="M30.7497 0.532471H30.6313V31.9976H30.7497V0.532471Z" fill="white"/>
<path d="M30.8674 0.532471H30.749V31.9976H30.8674V0.532471Z" fill="white"/>
<path d="M31.2109 0.532471H30.8672V31.9976H31.2109V0.532471Z" fill="white"/>
<path d="M31.5556 0.532471H31.2119V31.9976H31.5556V0.532471Z" fill="white"/>
<path d="M31.8989 0.532471H31.5552V31.9976H31.8989V0.532471Z" fill="white"/>
<path d="M32.2431 0.532471H31.8994V31.9976H32.2431V0.532471Z" fill="white"/>
<path d="M32.5883 0.532471H32.2446V31.9976H32.5883V0.532471Z" fill="white"/>
<path d="M32.9316 0.532471H32.5879V31.9976H32.9316V0.532471Z" fill="white"/>
<path d="M33.2773 0.532471H32.9336V31.9976H33.2773V0.532471Z" fill="white"/>
<path d="M33.6211 0.532471H33.2773V31.9976H33.6211V0.532471Z" fill="white"/>
<path d="M33.9648 0.532471H33.6211V31.9976H33.9648V0.532471Z" fill="white"/>
<path d="M34.3095 0.532471H33.9658V31.9976H34.3095V0.532471Z" fill="white"/>
<path d="M34.6533 0.532471H34.3096V31.9976H34.6533V0.532471Z" fill="white"/>
<path d="M34.998 0.532471H34.6543V31.9976H34.998V0.532471Z" fill="white"/>
<path d="M35.3418 0.532471H34.998V31.9976H35.3418V0.532471Z" fill="white"/>
<path d="M35.686 0.532471H35.3423V31.9976H35.686V0.532471Z" fill="white"/>
<path d="M36.0307 0.532471H35.687V31.9976H36.0307V0.532471Z" fill="white"/>
<path d="M36.3745 0.532471H36.0308V31.9976H36.3745V0.532471Z" fill="white"/>
<path d="M36.7197 0.532471H36.376V31.9976H36.7197V0.532471Z" fill="white"/>
<path d="M37.063 0.532471H36.7192V31.9976H37.063V0.532471Z" fill="white"/>
<path d="M37.4067 0.532471H37.063V31.9976H37.4067V0.532471Z" fill="white"/>
<path d="M37.7519 0.532471H37.4082V31.9976H37.7519V0.532471Z" fill="white"/>
<path d="M38.0962 0.532471H37.7524V31.9976H38.0962V0.532471Z" fill="white"/>
<path d="M38.4409 0.532471H38.0972V31.9976H38.4409V0.532471Z" fill="white"/>
<path d="M38.7841 0.532471H38.4404V31.9976H38.7841V0.532471Z" fill="white"/>
<path d="M39.1284 0.532471H38.7847V31.9976H39.1284V0.532471Z" fill="white"/>
<path d="M39.4731 0.532471H39.1294V31.9976H39.4731V0.532471Z" fill="white"/>
<path d="M39.8169 0.532471H39.4731V31.9976H39.8169V0.532471Z" fill="white"/>
<path d="M41.9924 0.532471H39.8179V31.9976H41.9924V0.532471Z" fill="white"/>
</g>
<path d="M36.7856 25.6068C36.9707 24.8169 37.1713 24.0867 37.3116 23.3452C39.0497 14.2118 33.0106 5.36164 23.968 3.78746C21.4791 3.34859 18.9232 3.51345 16.5092 4.26854C16.4278 4.29273 16.345 4.32119 16.2623 4.34254C16.1893 4.36713 16.1121 4.37657 16.0355 4.37031C15.9588 4.36405 15.8842 4.34221 15.816 4.30609C15.7478 4.26998 15.6875 4.22032 15.6386 4.16008C15.5897 4.09983 15.5532 4.03023 15.5314 3.95541C15.5092 3.88005 15.5025 3.80082 15.512 3.72274C15.5214 3.64466 15.5467 3.56941 15.5863 3.50174C15.6258 3.43407 15.6787 3.37545 15.7417 3.32957C15.8047 3.2837 15.8764 3.25157 15.9522 3.23521C16.4881 3.09288 17.0282 2.95055 17.5739 2.84238C24.6175 1.5187 31.6021 4.61155 35.3364 10.8129C38.0579 15.3433 38.5293 20.1982 36.9357 25.2453C36.909 25.3278 36.8753 25.409 36.8431 25.4901C36.8263 25.5302 36.8071 25.5692 36.7856 25.6068Z" fill="white"/>
<mask id="mask6_9_3674" style="mask-type:luminance" maskUnits="userSpaceOnUse" x="15" y="2" width="23" height="24">
<path d="M36.7856 25.6068C36.9707 24.8169 37.1713 24.0867 37.3116 23.3452C39.0497 14.2118 33.0106 5.36164 23.968 3.78746C21.4791 3.34859 18.9232 3.51345 16.5092 4.26854C16.4278 4.29273 16.345 4.32119 16.2623 4.34254C16.1893 4.36713 16.1121 4.37657 16.0355 4.37031C15.9588 4.36405 15.8842 4.34221 15.816 4.30609C15.7478 4.26998 15.6875 4.22032 15.6386 4.16008C15.5897 4.09983 15.5532 4.03023 15.5314 3.95541C15.5092 3.88005 15.5025 3.80082 15.512 3.72274C15.5214 3.64466 15.5467 3.56941 15.5863 3.50174C15.6258 3.43407 15.6787 3.37545 15.7417 3.32957C15.8047 3.2837 15.8764 3.25157 15.9522 3.23521C16.4881 3.09288 17.0282 2.95055 17.5739 2.84238C24.6175 1.5187 31.6021 4.61155 35.3364 10.8129C38.0579 15.3433 38.5293 20.1982 36.9357 25.2453C36.909 25.3278 36.8753 25.409 36.8431 25.4901C36.8263 25.5302 36.8071 25.5692 36.7856 25.6068Z" fill="white"/>
</mask>
<g mask="url(#mask6_9_3674)">
<path d="M18.2542 1.51562H15.4443V25.6051H18.2542V1.51562Z" fill="white"/>
<path d="M18.3962 1.51562H18.2539V25.6051H18.3962V1.51562Z" fill="white"/>
<path d="M18.5383 1.51562H18.396V25.6051H18.5383V1.51562Z" fill="white"/>
<path d="M18.6794 1.51562H18.5371V25.6051H18.6794V1.51562Z" fill="white"/>
<path d="M18.8215 1.51562H18.6792V25.6051H18.8215V1.51562Z" fill="white"/>
<path d="M18.9631 1.51562H18.8208V25.6051H18.9631V1.51562Z" fill="white"/>
<path d="M19.1066 1.51562H18.9644V25.6051H19.1066V1.51562Z" fill="white"/>
<path d="M19.2483 1.51562H19.106V25.6051H19.2483V1.51562Z" fill="white"/>
<path d="M19.3899 1.51562H19.2476V25.6051H19.3899V1.51562Z" fill="white"/>
<path d="M19.5315 1.51562H19.3892V25.6051H19.5315V1.51562Z" fill="white"/>
<path d="M19.6731 1.51562H19.5308V25.6051H19.6731V1.51562Z" fill="white"/>
<path d="M19.8147 1.51562H19.6724V25.6051H19.8147V1.51562Z" fill="white"/>
<path d="M19.9577 1.51562H19.8154V25.6051H19.9577V1.51562Z" fill="white"/>
<path d="M20.0998 1.51562H19.9575V25.6051H20.0998V1.51562Z" fill="white"/>
<path d="M20.2414 1.51562H20.0991V25.6051H20.2414V1.51562Z" fill="white"/>
<path d="M20.383 1.51562H20.2407V25.6051H20.383V1.51562Z" fill="white"/>
<path d="M20.5246 1.51562H20.3823V25.6051H20.5246V1.51562Z" fill="white"/>
<path d="M20.6657 1.51562H20.5234V25.6051H20.6657V1.51562Z" fill="white"/>
<path d="M20.8088 1.51562H20.6665V25.6051H20.8088V1.51562Z" fill="white"/>
<path d="M20.9514 1.51562H20.8091V25.6051H20.9514V1.51562Z" fill="white"/>
<path d="M21.0925 1.51562H20.9502V25.6051H21.0925V1.51562Z" fill="white"/>
<path d="M21.2336 1.51562H21.0913V25.6051H21.2336V1.51562Z" fill="white"/>
<path d="M21.3757 1.51562H21.2334V25.6051H21.3757V1.51562Z" fill="white"/>
<path d="M21.5178 1.51562H21.3755V25.6051H21.5178V1.51562Z" fill="white"/>
<path d="M21.6608 1.51562H21.5186V25.6051H21.6608V1.51562Z" fill="white"/>
<path d="M21.8025 1.51562H21.6602V25.6051H21.8025V1.51562Z" fill="white"/>
<path d="M21.9441 1.51562H21.8018V25.6051H21.9441V1.51562Z" fill="white"/>
<path d="M22.0861 1.51562H21.9438V25.6051H22.0861V1.51562Z" fill="white"/>
<path d="M22.2277 1.51562H22.0854V25.6051H22.2277V1.51562Z" fill="white"/>
<path d="M22.3689 1.51562H22.2266V25.6051H22.3689V1.51562Z" fill="white"/>
<path d="M22.5119 1.51562H22.3696V25.6051H22.5119V1.51562Z" fill="white"/>
<path d="M22.6545 1.51562H22.5122V25.6051H22.6545V1.51562Z" fill="white"/>
<path d="M22.7956 1.51562H22.6533V25.6051H22.7956V1.51562Z" fill="white"/>
<path d="M22.9377 1.51562H22.7954V25.6051H22.9377V1.51562Z" fill="white"/>
<path d="M23.0793 1.51562H22.937V25.6051H23.0793V1.51562Z" fill="white"/>
<path d="M23.2214 1.51562H23.0791V25.6051H23.2214V1.51562Z" fill="white"/>
<path d="M23.3625 1.51562H23.2202V25.6051H23.3625V1.51562Z" fill="white"/>
<path d="M23.5056 1.51562H23.3633V25.6051H23.5056V1.51562Z" fill="white"/>
<path d="M23.6472 1.51562H23.5049V25.6051H23.6472V1.51562Z" fill="white"/>
<path d="M23.7888 1.51562H23.6465V25.6051H23.7888V1.51562Z" fill="white"/>
<path d="M23.9304 1.51562H23.7881V25.6051H23.9304V1.51562Z" fill="white"/>
<path d="M24.072 1.51562H23.9297V25.6051H24.072V1.51562Z" fill="white"/>
<path d="M24.2141 1.51562H24.0718V25.6051H24.2141V1.51562Z" fill="white"/>
<path d="M24.3566 1.51562H24.2144V25.6051H24.3566V1.51562Z" fill="white"/>
<path d="M24.4987 1.51562H24.3564V25.6051H24.4987V1.51562Z" fill="white"/>
<path d="M24.6408 1.51562H24.4985V25.6051H24.6408V1.51562Z" fill="white"/>
<path d="M24.7819 1.51562H24.6396V25.6051H24.7819V1.51562Z" fill="white"/>
<path d="M24.9231 1.51562H24.7808V25.6051H24.9231V1.51562Z" fill="white"/>
<path d="M25.0656 1.51562H24.9233V25.6051H25.0656V1.51562Z" fill="white"/>
<path d="M25.2087 1.51562H25.0664V25.6051H25.2087V1.51562Z" fill="white"/>
<path d="M25.3498 1.51562H25.2075V25.6051H25.3498V1.51562Z" fill="white"/>
<path d="M25.4919 1.51562H25.3496V25.6051H25.4919V1.51562Z" fill="white"/>
<path d="M25.634 1.51562H25.4917V25.6051H25.634V1.51562Z" fill="white"/>
<path d="M25.7756 1.51562H25.6333V25.6051H25.7756V1.51562Z" fill="white"/>
<path d="M25.9172 1.51562H25.7749V25.6051H25.9172V1.51562Z" fill="white"/>
<path d="M26.0598 1.51562H25.9175V25.6051H26.0598V1.51562Z" fill="white"/>
<path d="M26.2014 1.51562H26.0591V25.6051H26.2014V1.51562Z" fill="white"/>
<path d="M26.3435 1.51562H26.2012V25.6051H26.3435V1.51562Z" fill="white"/>
<path d="M26.4851 1.51562H26.3428V25.6051H26.4851V1.51562Z" fill="white"/>
<path d="M26.6272 1.51562H26.4849V25.6051H26.6272V1.51562Z" fill="white"/>
<path d="M26.7683 1.51562H26.626V25.6051H26.7683V1.51562Z" fill="white"/>
<path d="M26.9113 1.51562H26.769V25.6051H26.9113V1.51562Z" fill="white"/>
<path d="M27.0534 1.51562H26.9111V25.6051H27.0534V1.51562Z" fill="white"/>
<path d="M27.468 1.51562H27.0527V25.6051H27.468V1.51562Z" fill="white"/>
<path d="M27.8825 1.51562H27.4673V25.6051H27.8825V1.51562Z" fill="white"/>
<path d="M28.2981 1.51562H27.8828V25.6051H28.2981V1.51562Z" fill="white"/>
<path d="M28.7141 1.51562H28.2988V25.6051H28.7141V1.51562Z" fill="white"/>
<path d="M29.1286 1.51562H28.7134V25.6051H29.1286V1.51562Z" fill="white"/>
<path d="M29.5442 1.51562H29.1289V25.6051H29.5442V1.51562Z" fill="white"/>
<path d="M29.9597 1.51562H29.5444V25.6051H29.9597V1.51562Z" fill="white"/>
<path d="M30.3742 1.51562H29.959V25.6051H30.3742V1.51562Z" fill="white"/>
<path d="M30.7898 1.51562H30.3745V25.6051H30.7898V1.51562Z" fill="white"/>
<path d="M31.2048 1.51562H30.7896V25.6051H31.2048V1.51562Z" fill="white"/>
<path d="M31.6199 1.51562H31.2046V25.6051H31.6199V1.51562Z" fill="white"/>
<path d="M32.0359 1.51562H31.6206V25.6051H32.0359V1.51562Z" fill="white"/>
<path d="M32.4504 1.51562H32.0352V25.6051H32.4504V1.51562Z" fill="white"/>
<path d="M32.8659 1.51562H32.4507V25.6051H32.8659V1.51562Z" fill="white"/>
<path d="M33.2815 1.51562H32.8662V25.6051H33.2815V1.51562Z" fill="white"/>
<path d="M33.6965 1.51562H33.2812V25.6051H33.6965V1.51562Z" fill="white"/>
<path d="M34.112 1.51562H33.6968V25.6051H34.112V1.51562Z" fill="white"/>
<path d="M34.5266 1.51562H34.1113V25.6051H34.5266V1.51562Z" fill="white"/>
<path d="M34.9426 1.51562H34.5273V25.6051H34.9426V1.51562Z" fill="white"/>
<path d="M35.3572 1.51562H34.9419V25.6051H35.3572V1.51562Z" fill="white"/>
<path d="M35.7722 1.51562H35.3569V25.6051H35.7722V1.51562Z" fill="white"/>
<path d="M36.1877 1.51562H35.7725V25.6051H36.1877V1.51562Z" fill="white"/>
<path d="M36.6032 1.51562H36.188V25.6051H36.6032V1.51562Z" fill="white"/>
<path d="M37.0183 1.51562H36.603V25.6051H37.0183V1.51562Z" fill="white"/>
<path d="M37.4333 1.51562H37.0181V25.6051H37.4333V1.51562Z" fill="white"/>
<path d="M37.8489 1.51562H37.4336V25.6051H37.8489V1.51562Z" fill="white"/>
</g>
<path d="M5.31612 14.1534C5.16462 14.7114 4.99628 15.2636 4.86581 15.8272C3.14315 23.2498 6.36403 30.735 12.9461 34.4114C16.9175 36.6303 21.1273 37.0232 25.4845 35.7408C25.5757 35.7137 25.6669 35.6796 25.7651 35.6568C25.909 35.6136 26.064 35.6295 26.1965 35.7011C26.329 35.7727 26.4285 35.8943 26.4735 36.0397C26.4964 36.1115 26.5048 36.1873 26.4981 36.2625C26.4915 36.3377 26.4698 36.4108 26.4346 36.4772C26.3993 36.5437 26.3511 36.6023 26.293 36.6494C26.2348 36.6965 26.1679 36.7312 26.0961 36.7513C25.535 36.9079 24.9655 37.0602 24.3917 37.1641C17.6581 38.3938 11.0551 35.6597 7.16504 29.955C4.67924 26.3114 3.77302 22.2506 4.34677 17.8569C4.50798 16.6404 4.80543 15.4466 5.23335 14.2986C5.25299 14.2445 5.27824 14.1933 5.30209 14.1406L5.31612 14.1534Z" fill="white"/>
<mask id="mask7_9_3674" style="mask-type:luminance" maskUnits="userSpaceOnUse" x="4" y="14" width="23" height="24">
<path d="M5.31612 14.1534C5.16462 14.7114 4.99628 15.2636 4.86581 15.8272C3.14315 23.2498 6.36403 30.735 12.9461 34.4114C16.9175 36.6303 21.1273 37.0232 25.4845 35.7408C25.5757 35.7137 25.6669 35.6796 25.7651 35.6568C25.909 35.6136 26.064 35.6295 26.1965 35.7011C26.329 35.7727 26.4285 35.8943 26.4735 36.0397C26.4964 36.1115 26.5048 36.1873 26.4981 36.2625C26.4915 36.3377 26.4698 36.4108 26.4346 36.4772C26.3993 36.5437 26.3511 36.6023 26.293 36.6494C26.2348 36.6965 26.1679 36.7312 26.0961 36.7513C25.535 36.9079 24.9655 37.0602 24.3917 37.1641C17.6581 38.3938 11.0551 35.6597 7.16504 29.955C4.67924 26.3114 3.77302 22.2506 4.34677 17.8569C4.50798 16.6404 4.80543 15.4466 5.23335 14.2986C5.25299 14.2445 5.27824 14.1933 5.30209 14.1406L5.31612 14.1534Z" fill="white"/>
</mask>
<g mask="url(#mask7_9_3674)">
<path d="M6.91806 14.1453H3.14307V38.3999H6.91806V14.1453Z" fill="white"/>
<path d="M7.06026 14.1453H6.91797V38.3999H7.06026V14.1453Z" fill="white"/>
<path d="M7.20186 14.1453H7.05957V38.3999H7.20186V14.1453Z" fill="white"/>
<path d="M7.34396 14.1453H7.20166V38.3999H7.34396V14.1453Z" fill="white"/>
<path d="M7.48507 14.1453H7.34277V38.3999H7.48507V14.1453Z" fill="white"/>
<path d="M7.62667 14.1453H7.48438V38.3999H7.62667V14.1453Z" fill="white"/>
<path d="M7.76974 14.1453H7.62744V38.3999H7.76974V14.1453Z" fill="white"/>
<path d="M7.91183 14.1453H7.76953V38.3999H7.91183V14.1453Z" fill="white"/>
<path d="M8.05294 14.1453H7.91064V38.3999H8.05294V14.1453Z" fill="white"/>
<path d="M8.19503 14.1453H8.05273V38.3999H8.19503V14.1453Z" fill="white"/>
<path d="M8.33614 14.1453H8.19385V38.3999H8.33614V14.1453Z" fill="white"/>
<path d="M8.47823 14.1453H8.33594V38.3999H8.47823V14.1453Z" fill="white"/>
<path d="M8.62032 14.1453H8.47803V38.3999H8.62032V14.1453Z" fill="white"/>
<path d="M8.76192 14.1453H8.61963V38.3999H8.76192V14.1453Z" fill="white"/>
<path d="M8.90304 14.1453H8.76074V38.3999H8.90304V14.1453Z" fill="white"/>
<path d="M9.04561 14.1453H8.90332V38.3999H9.04561V14.1453Z" fill="white"/>
<path d="M9.18722 14.1453H9.04492V38.3999H9.18722V14.1453Z" fill="white"/>
<path d="M9.32882 14.1453H9.18652V38.3999H9.32882V14.1453Z" fill="white"/>
<path d="M9.47042 14.1453H9.32812V38.3999H9.47042V14.1453Z" fill="white"/>
<path d="M9.61202 14.1453H9.46973V38.3999H9.61202V14.1453Z" fill="white"/>
<path d="M9.75411 14.1453H9.61182V38.3999H9.75411V14.1453Z" fill="white"/>
<path d="M9.89523 14.1453H9.75293V38.3999H9.89523V14.1453Z" fill="white"/>
<path d="M10.0383 14.1453H9.896V38.3999H10.0383V14.1453Z" fill="white"/>
<path d="M10.1799 14.1453H10.0376V38.3999H10.1799V14.1453Z" fill="white"/>
<path d="M10.3215 14.1453H10.1792V38.3999H10.3215V14.1453Z" fill="white"/>
<path d="M10.4631 14.1453H10.3208V38.3999H10.4631V14.1453Z" fill="white"/>
<path d="M10.6052 14.1453H10.4629V38.3999H10.6052V14.1453Z" fill="white"/>
<path d="M10.7468 14.1453H10.6045V38.3999H10.7468V14.1453Z" fill="white"/>
<path d="M10.8879 14.1453H10.7456V38.3999H10.8879V14.1453Z" fill="white"/>
<path d="M11.03 14.1453H10.8877V38.3999H11.03V14.1453Z" fill="white"/>
<path d="M11.1716 14.1453H11.0293V38.3999H11.1716V14.1453Z" fill="white"/>
<path d="M11.3132 14.1453H11.1709V38.3999H11.3132V14.1453Z" fill="white"/>
<path d="M11.4553 14.1453H11.313V38.3999H11.4553V14.1453Z" fill="white"/>
<path d="M11.5969 14.1453H11.4546V38.3999H11.5969V14.1453Z" fill="white"/>
<path d="M11.739 14.1453H11.5967V38.3999H11.739V14.1453Z" fill="white"/>
<path d="M11.8801 14.1453H11.7378V38.3999H11.8801V14.1453Z" fill="white"/>
<path d="M12.0217 14.1453H11.8794V38.3999H12.0217V14.1453Z" fill="white"/>
<path d="M12.1652 14.1453H12.0229V38.3999H12.1652V14.1453Z" fill="white"/>
<path d="M12.3068 14.1453H12.1646V38.3999H12.3068V14.1453Z" fill="white"/>
<path d="M12.448 14.1453H12.3057V38.3999H12.448V14.1453Z" fill="white"/>
<path d="M12.5905 14.1453H12.4482V38.3999H12.5905V14.1453Z" fill="white"/>
<path d="M12.7321 14.1453H12.5898V38.3999H12.7321V14.1453Z" fill="white"/>
<path d="M12.8737 14.1453H12.7314V38.3999H12.8737V14.1453Z" fill="white"/>
<path d="M13.0153 14.1453H12.873V38.3999H13.0153V14.1453Z" fill="white"/>
<path d="M13.1569 14.1453H13.0146V38.3999H13.1569V14.1453Z" fill="white"/>
<path d="M13.2985 14.1453H13.1562V38.3999H13.2985V14.1453Z" fill="white"/>
<path d="M13.4401 14.1453H13.2979V38.3999H13.4401V14.1453Z" fill="white"/>
<path d="M13.5817 14.1453H13.4395V38.3999H13.5817V14.1453Z" fill="white"/>
<path d="M13.7233 14.1453H13.5811V38.3999H13.7233V14.1453Z" fill="white"/>
<path d="M13.8654 14.1453H13.7231V38.3999H13.8654V14.1453Z" fill="white"/>
<path d="M14.0066 14.1453H13.8643V38.3999H14.0066V14.1453Z" fill="white"/>
<path d="M14.1486 14.1453H14.0063V38.3999H14.1486V14.1453Z" fill="white"/>
<path d="M14.2917 14.1453H14.1494V38.3999H14.2917V14.1453Z" fill="white"/>
<path d="M14.4333 14.1453H14.291V38.3999H14.4333V14.1453Z" fill="white"/>
<path d="M14.5749 14.1453H14.4326V38.3999H14.5749V14.1453Z" fill="white"/>
<path d="M14.7165 14.1453H14.5742V38.3999H14.7165V14.1453Z" fill="white"/>
<path d="M14.8581 14.1453H14.7158V38.3999H14.8581V14.1453Z" fill="white"/>
<path d="M15.0002 14.1453H14.8579V38.3999H15.0002V14.1453Z" fill="white"/>
<path d="M15.1418 14.1453H14.9995V38.3999H15.1418V14.1453Z" fill="white"/>
<path d="M15.2834 14.1453H15.1411V38.3999H15.2834V14.1453Z" fill="white"/>
<path d="M15.4255 14.1453H15.2832V38.3999H15.4255V14.1453Z" fill="white"/>
<path d="M15.5671 14.1453H15.4248V38.3999H15.5671V14.1453Z" fill="white"/>
<path d="M15.7087 14.1453H15.5664V38.3999H15.7087V14.1453Z" fill="white"/>
<path d="M16.1238 14.1453H15.7085V38.3999H16.1238V14.1453Z" fill="white"/>
<path d="M16.5383 14.1453H16.123V38.3999H16.5383V14.1453Z" fill="white"/>
<path d="M16.9538 14.1453H16.5386V38.3999H16.9538V14.1453Z" fill="white"/>
<path d="M17.3679 14.1453H16.9526V38.3999H17.3679V14.1453Z" fill="white"/>
<path d="M17.7829 14.1453H17.3677V38.3999H17.7829V14.1453Z" fill="white"/>
<path d="M18.1985 14.1453H17.7832V38.3999H18.1985V14.1453Z" fill="white"/>
<path d="M18.612 14.1453H18.1968V38.3999H18.612V14.1453Z" fill="white"/>
<path d="M19.0276 14.1453H18.6123V38.3999H19.0276V14.1453Z" fill="white"/>
<path d="M19.4421 14.1453H19.0269V38.3999H19.4421V14.1453Z" fill="white"/>
<path d="M19.8572 14.1453H19.4419V38.3999H19.8572V14.1453Z" fill="white"/>
<path d="M20.2712 14.1453H19.856V38.3999H20.2712V14.1453Z" fill="white"/>
<path d="M20.6867 14.1453H20.2715V38.3999H20.6867V14.1453Z" fill="white"/>
<path d="M21.1018 14.1453H20.6865V38.3999H21.1018V14.1453Z" fill="white"/>
<path d="M21.5154 14.1453H21.1001V38.3999H21.5154V14.1453Z" fill="white"/>
<path d="M21.9314 14.1453H21.5161V38.3999H21.9314V14.1453Z" fill="white"/>
<path d="M22.3459 14.1453H21.9307V38.3999H22.3459V14.1453Z" fill="white"/>
<path d="M22.76 14.1453H22.3447V38.3999H22.76V14.1453Z" fill="white"/>
<path d="M23.175 14.1453H22.7598V38.3999H23.175V14.1453Z" fill="white"/>
<path d="M23.5906 14.1453H23.1753V38.3999H23.5906V14.1453Z" fill="white"/>
<path d="M24.0046 14.1453H23.5894V38.3999H24.0046V14.1453Z" fill="white"/>
<path d="M24.4187 14.1453H24.0034V38.3999H24.4187V14.1453Z" fill="white"/>
<path d="M24.8342 14.1453H24.4189V38.3999H24.8342V14.1453Z" fill="white"/>
<path d="M25.2497 14.1453H24.8345V38.3999H25.2497V14.1453Z" fill="white"/>
<path d="M25.6633 14.1453H25.248V38.3999H25.6633V14.1453Z" fill="white"/>
<path d="M26.0788 14.1453H25.6636V38.3999H26.0788V14.1453Z" fill="white"/>
<path d="M26.4944 14.1453H26.0791V38.3999H26.4944V14.1453Z" fill="white"/>
<path d="M26.5567 14.1453H26.4927V38.3999H26.5567V14.1453Z" fill="white"/>
</g>
<path d="M5.95141 19.7957C6.01173 21.4581 6.21093 23.1034 6.7931 24.6648C9.00255 30.6327 13.2292 34.0871 19.4732 34.8059C23.2328 35.2329 26.65 34.1326 29.6801 31.8283C29.8807 31.676 30.08 31.5906 30.317 31.7073C30.3996 31.7483 30.4697 31.8113 30.5197 31.8896C30.5698 31.9678 30.598 32.0583 30.6013 32.1516C30.6046 32.2448 30.5829 32.3372 30.5385 32.4188C30.4942 32.5005 30.4287 32.5685 30.3493 32.6154C29.6718 33.0902 28.9693 33.5274 28.2451 33.9248C21.5676 37.3664 13.5884 35.5246 9.01517 29.5126C6.96144 26.8126 5.76624 23.0294 5.95141 19.7957Z" fill="white"/>
<mask id="mask8_9_3674" style="mask-type:luminance" maskUnits="userSpaceOnUse" x="5" y="19" width="26" height="17">
<path d="M5.95141 19.7957C6.01173 21.4581 6.21093 23.1034 6.7931 24.6648C9.00255 30.6327 13.2292 34.0871 19.4732 34.8059C23.2328 35.2329 26.65 34.1326 29.6801 31.8283C29.8807 31.676 30.08 31.5906 30.317 31.7073C30.3996 31.7483 30.4697 31.8113 30.5197 31.8896C30.5698 31.9678 30.598 32.0583 30.6013 32.1516C30.6046 32.2448 30.5829 32.3372 30.5385 32.4188C30.4942 32.5005 30.4287 32.5685 30.3493 32.6154C29.6718 33.0902 28.9693 33.5274 28.2451 33.9248C21.5676 37.3664 13.5884 35.5246 9.01517 29.5126C6.96144 26.8126 5.76624 23.0294 5.95141 19.7957Z" fill="white"/>
</mask>
<g mask="url(#mask8_9_3674)">
<path d="M8.96504 19.7957H5.7666V37.3664H8.96504V19.7957Z" fill="white"/>
<path d="M9.12215 19.7957H8.96436V37.3664H9.12215V19.7957Z" fill="white"/>
<path d="M9.2784 19.7957H9.12061V37.3664H9.2784V19.7957Z" fill="white"/>
<path d="M9.43563 19.7957H9.27783V37.3664H9.43563V19.7957Z" fill="white"/>
<path d="M9.59236 19.7957H9.43457V37.3664H9.59236V19.7957Z" fill="white"/>
<path d="M9.74861 19.7957H9.59082V37.3664H9.74861V19.7957Z" fill="white"/>
<path d="M9.90486 19.7957H9.74707V37.3664H9.90486V19.7957Z" fill="white"/>
<path d="M10.0626 19.7957H9.90479V37.3664H10.0626V19.7957Z" fill="white"/>
<path d="M10.2198 19.7957H10.062V37.3664H10.2198V19.7957Z" fill="white"/>
<path d="M10.3751 19.7957H10.2173V37.3664H10.3751V19.7957Z" fill="white"/>
<path d="M10.5323 19.7957H10.3745V37.3664H10.5323V19.7957Z" fill="white"/>
<path d="M10.6895 19.7957H10.5317V37.3664H10.6895V19.7957Z" fill="white"/>
<path d="M10.8458 19.7957H10.688V37.3664H10.8458V19.7957Z" fill="white"/>
<path d="M11.0025 19.7957H10.8447V37.3664H11.0025V19.7957Z" fill="white"/>
<path d="M11.1597 19.7957H11.002V37.3664H11.1597V19.7957Z" fill="white"/>
<path d="M11.3155 19.7957H11.1577V37.3664H11.3155V19.7957Z" fill="white"/>
<path d="M11.4727 19.7957H11.3149V37.3664H11.4727V19.7957Z" fill="white"/>
<path d="M11.6295 19.7957H11.4717V37.3664H11.6295V19.7957Z" fill="white"/>
<path d="M11.7852 19.7957H11.6274V37.3664H11.7852V19.7957Z" fill="white"/>
<path d="M11.942 19.7957H11.7842V37.3664H11.942V19.7957Z" fill="white"/>
<path d="M12.0997 19.7957H11.9419V37.3664H12.0997V19.7957Z" fill="white"/>
<path d="M12.255 19.7957H12.0972V37.3664H12.255V19.7957Z" fill="white"/>
<path d="M12.4122 19.7957H12.2544V37.3664H12.4122V19.7957Z" fill="white"/>
<path d="M12.5694 19.7957H12.4116V37.3664H12.5694V19.7957Z" fill="white"/>
<path d="M12.7262 19.7957H12.5684V37.3664H12.7262V19.7957Z" fill="white"/>
<path d="M12.8824 19.7957H12.7246V37.3664H12.8824V19.7957Z" fill="white"/>
<path d="M13.0391 19.7957H12.8813V37.3664H13.0391V19.7957Z" fill="white"/>
<path d="M13.1969 19.7957H13.0391V37.3664H13.1969V19.7957Z" fill="white"/>
<path d="M13.3516 19.7957H13.1938V37.3664H13.3516V19.7957Z" fill="white"/>
<path d="M13.5094 19.7957H13.3516V37.3664H13.5094V19.7957Z" fill="white"/>
<path d="M13.6666 19.7957H13.5088V37.3664H13.6666V19.7957Z" fill="white"/>
<path d="M13.8223 19.7957H13.6646V37.3664H13.8223V19.7957Z" fill="white"/>
<path d="M13.9796 19.7957H13.8218V37.3664H13.9796V19.7957Z" fill="white"/>
<path d="M14.1363 19.7957H13.9785V37.3664H14.1363V19.7957Z" fill="white"/>
<path d="M14.2926 19.7957H14.1348V37.3664H14.2926V19.7957Z" fill="white"/>
<path d="M14.4498 19.7957H14.292V37.3664H14.4498V19.7957Z" fill="white"/>
<path d="M14.6065 19.7957H14.4487V37.3664H14.6065V19.7957Z" fill="white"/>
<path d="M14.7637 19.7957H14.606V37.3664H14.7637V19.7957Z" fill="white"/>
<path d="M14.919 19.7957H14.7612V37.3664H14.919V19.7957Z" fill="white"/>
<path d="M15.0758 19.7957H14.918V37.3664H15.0758V19.7957Z" fill="white"/>
<path d="M15.233 19.7957H15.0752V37.3664H15.233V19.7957Z" fill="white"/>
<path d="M15.3887 19.7957H15.231V37.3664H15.3887V19.7957Z" fill="white"/>
<path d="M15.5465 19.7957H15.3887V37.3664H15.5465V19.7957Z" fill="white"/>
<path d="M15.7032 19.7957H15.5454V37.3664H15.7032V19.7957Z" fill="white"/>
<path d="M15.859 19.7957H15.7012V37.3664H15.859V19.7957Z" fill="white"/>
<path d="M16.0162 19.7957H15.8584V37.3664H16.0162V19.7957Z" fill="white"/>
<path d="M16.1734 19.7957H16.0156V37.3664H16.1734V19.7957Z" fill="white"/>
<path d="M16.3292 19.7957H16.1714V37.3664H16.3292V19.7957Z" fill="white"/>
<path d="M16.4859 19.7957H16.3281V37.3664H16.4859V19.7957Z" fill="white"/>
<path d="M16.6436 19.7957H16.4858V37.3664H16.6436V19.7957Z" fill="white"/>
<path d="M16.7989 19.7957H16.6411V37.3664H16.7989V19.7957Z" fill="white"/>
<path d="M16.9561 19.7957H16.7983V37.3664H16.9561V19.7957Z" fill="white"/>
<path d="M17.1129 19.7957H16.9551V37.3664H17.1129V19.7957Z" fill="white"/>
<path d="M17.2701 19.7957H17.1123V37.3664H17.2701V19.7957Z" fill="white"/>
<path d="M17.4264 19.7957H17.2686V37.3664H17.4264V19.7957Z" fill="white"/>
<path d="M17.5831 19.7957H17.4253V37.3664H17.5831V19.7957Z" fill="white"/>
<path d="M17.7403 19.7957H17.5825V37.3664H17.7403V19.7957Z" fill="white"/>
<path d="M17.8961 19.7957H17.7383V37.3664H17.8961V19.7957Z" fill="white"/>
<path d="M18.0528 19.7957H17.895V37.3664H18.0528V19.7957Z" fill="white"/>
<path d="M18.21 19.7957H18.0522V37.3664H18.21V19.7957Z" fill="white"/>
<path d="M18.3653 19.7957H18.2075V37.3664H18.3653V19.7957Z" fill="white"/>
<path d="M18.5225 19.7957H18.3647V37.3664H18.5225V19.7957Z" fill="white"/>
<path d="M18.6798 19.7957H18.522V37.3664H18.6798V19.7957Z" fill="white"/>
<path d="M19.137 19.7957H18.6782V37.3664H19.137V19.7957Z" fill="white"/>
<path d="M19.5955 19.7957H19.1367V37.3664H19.5955V19.7957Z" fill="white"/>
<path d="M20.054 19.7957H19.5952V37.3664H20.054V19.7957Z" fill="white"/>
<path d="M20.5125 19.7957H20.0537V37.3664H20.5125V19.7957Z" fill="white"/>
<path d="M20.9719 19.7957H20.5132V37.3664H20.9719V19.7957Z" fill="white"/>
<path d="M21.429 19.7957H20.9702V37.3664H21.429V19.7957Z" fill="white"/>
<path d="M21.8875 19.7957H21.4287V37.3664H21.8875V19.7957Z" fill="white"/>
<path d="M22.346 19.7957H21.8872V37.3664H22.346V19.7957Z" fill="white"/>
<path d="M22.8054 19.7957H22.3467V37.3664H22.8054V19.7957Z" fill="white"/>
<path d="M23.2625 19.7957H22.8037V37.3664H23.2625V19.7957Z" fill="white"/>
<path d="M23.721 19.7957H23.2622V37.3664H23.721V19.7957Z" fill="white"/>
<path d="M24.1804 19.7957H23.7217V37.3664H24.1804V19.7957Z" fill="white"/>
<path d="M24.6389 19.7957H24.1802V37.3664H24.6389V19.7957Z" fill="white"/>
<path d="M25.0974 19.7957H24.6387V37.3664H25.0974V19.7957Z" fill="white"/>
<path d="M25.5545 19.7957H25.0957V37.3664H25.5545V19.7957Z" fill="white"/>
<path d="M26.013 19.7957H25.5542V37.3664H26.013V19.7957Z" fill="white"/>
<path d="M26.4719 19.7957H26.0132V37.3664H26.4719V19.7957Z" fill="white"/>
<path d="M26.9304 19.7957H26.4717V37.3664H26.9304V19.7957Z" fill="white"/>
<path d="M27.3894 19.7957H26.9307V37.3664H27.3894V19.7957Z" fill="white"/>
<path d="M27.8474 19.7957H27.3887V37.3664H27.8474V19.7957Z" fill="white"/>
<path d="M28.3059 19.7957H27.8472V37.3664H28.3059V19.7957Z" fill="white"/>
<path d="M28.7644 19.7957H28.3057V37.3664H28.7644V19.7957Z" fill="white"/>
<path d="M29.2234 19.7957H28.7646V37.3664H29.2234V19.7957Z" fill="white"/>
<path d="M29.6804 19.7957H29.2217V37.3664H29.6804V19.7957Z" fill="white"/>
<path d="M30.1389 19.7957H29.6802V37.3664H30.1389V19.7957Z" fill="white"/>
<path d="M30.5974 19.7957H30.1387V37.3664H30.5974V19.7957Z" fill="white"/>
<path d="M30.7041 19.7957H30.5981V37.3664H30.7041V19.7957Z" fill="white"/>
</g>
<path d="M8.45873 25.1943C8.76454 25.7708 9.0409 26.3671 9.38319 26.9222C11.6473 30.5915 14.8879 32.8432 19.1258 33.3357C24.4846 33.9591 28.7407 31.9038 31.8438 27.4161C31.8817 27.3606 31.9139 27.2994 31.9532 27.2439C32.1271 26.9906 32.3979 26.9208 32.6223 27.0688C32.8468 27.2169 32.8931 27.4958 32.7219 27.762C32.0006 28.8683 31.1212 29.8598 30.1127 30.704C27.1822 33.1464 23.8154 34.3263 20.0404 33.9406C14.5947 33.3841 10.7509 30.4834 8.51204 25.4093C8.48258 25.3409 8.46434 25.2669 8.44189 25.1986L8.45873 25.1943Z" fill="white"/>
<mask id="mask9_9_3674" style="mask-type:luminance" maskUnits="userSpaceOnUse" x="8" y="25" width="25" height="10">
<path d="M8.45873 25.1943C8.76454 25.7708 9.0409 26.3671 9.38319 26.9222C11.6473 30.5915 14.8879 32.8432 19.1258 33.3357C24.4846 33.9591 28.7407 31.9038 31.8438 27.4161C31.8817 27.3606 31.9139 27.2994 31.9532 27.2439C32.1271 26.9906 32.3979 26.9208 32.6223 27.0688C32.8468 27.2169 32.8931 27.4958 32.7219 27.762C32.0006 28.8683 31.1212 29.8598 30.1127 30.704C27.1822 33.1464 23.8154 34.3263 20.0404 33.9406C14.5947 33.3841 10.7509 30.4834 8.51204 25.4093C8.48258 25.3409 8.46434 25.2669 8.44189 25.1986L8.45873 25.1943Z" fill="white"/>
</mask>
<g mask="url(#mask9_9_3674)">
<path d="M11.4432 25.1943H8.44678V34.3263H11.4432V25.1943Z" fill="white"/>
<path d="M11.5978 25.1943H11.4429V34.3263H11.5978V25.1943Z" fill="white"/>
<path d="M11.7541 25.1943H11.5991V34.3263H11.7541V25.1943Z" fill="white"/>
<path d="M11.9084 25.1943H11.7534V34.3263H11.9084V25.1943Z" fill="white"/>
<path d="M12.0627 25.1943H11.9077V34.3263H12.0627V25.1943Z" fill="white"/>
<path d="M12.2185 25.1943H12.0635V34.3263H12.2185V25.1943Z" fill="white"/>
<path d="M12.3727 25.1943H12.2178V34.3263H12.3727V25.1943Z" fill="white"/>
<path d="M12.5285 25.1943H12.3735V34.3263H12.5285V25.1943Z" fill="white"/>
<path d="M12.6828 25.1943H12.5278V34.3263H12.6828V25.1943Z" fill="white"/>
<path d="M12.8386 25.1943H12.6836V34.3263H12.8386V25.1943Z" fill="white"/>
<path d="M12.9929 25.1943H12.8379V34.3263H12.9929V25.1943Z" fill="white"/>
<path d="M13.1467 25.1943H12.9917V34.3263H13.1467V25.1943Z" fill="white"/>
<path d="M13.3029 25.1943H13.1479V34.3263H13.3029V25.1943Z" fill="white"/>
<path d="M13.4567 25.1943H13.3018V34.3263H13.4567V25.1943Z" fill="white"/>
<path d="M13.613 25.1943H13.458V34.3263H13.613V25.1943Z" fill="white"/>
<path d="M13.7668 25.1943H13.6118V34.3263H13.7668V25.1943Z" fill="white"/>
<path d="M13.9211 25.1943H13.7661V34.3263H13.9211V25.1943Z" fill="white"/>
<path d="M14.0773 25.1943H13.9224V34.3263H14.0773V25.1943Z" fill="white"/>
<path d="M14.2311 25.1943H14.0762V34.3263H14.2311V25.1943Z" fill="white"/>
<path d="M14.3874 25.1943H14.2324V34.3263H14.3874V25.1943Z" fill="white"/>
<path d="M14.5417 25.1943H14.3867V34.3263H14.5417V25.1943Z" fill="white"/>
<path d="M14.697 25.1943H14.542V34.3263H14.697V25.1943Z" fill="white"/>
<path d="M14.8518 25.1943H14.6968V34.3263H14.8518V25.1943Z" fill="white"/>
<path d="M15.0056 25.1943H14.8506V34.3263H15.0056V25.1943Z" fill="white"/>
<path d="M15.1613 25.1943H15.0063V34.3263H15.1613V25.1943Z" fill="white"/>
<path d="M15.3161 25.1943H15.1611V34.3263H15.3161V25.1943Z" fill="white"/>
<path d="M15.4714 25.1943H15.3164V34.3263H15.4714V25.1943Z" fill="white"/>
<path d="M15.6262 25.1943H15.4712V34.3263H15.6262V25.1943Z" fill="white"/>
<path d="M15.7805 25.1943H15.6255V34.3263H15.7805V25.1943Z" fill="white"/>
<path d="M15.9357 25.1943H15.7808V34.3263H15.9357V25.1943Z" fill="white"/>
<path d="M16.0905 25.1943H15.9355V34.3263H16.0905V25.1943Z" fill="white"/>
<path d="M16.2458 25.1943H16.0908V34.3263H16.2458V25.1943Z" fill="white"/>
<path d="M16.4001 25.1943H16.2451V34.3263H16.4001V25.1943Z" fill="white"/>
<path d="M16.5563 25.1943H16.4014V34.3263H16.5563V25.1943Z" fill="white"/>
<path d="M16.7106 25.1943H16.5557V34.3263H16.7106V25.1943Z" fill="white"/>
<path d="M16.8644 25.1943H16.7095V34.3263H16.8644V25.1943Z" fill="white"/>
<path d="M17.0202 25.1943H16.8652V34.3263H17.0202V25.1943Z" fill="white"/>
<path d="M17.175 25.1943H17.02V34.3263H17.175V25.1943Z" fill="white"/>
<path d="M17.3303 25.1943H17.1753V34.3263H17.3303V25.1943Z" fill="white"/>
<path d="M17.4841 25.1943H17.3291V34.3263H17.4841V25.1943Z" fill="white"/>
<path d="M17.6389 25.1943H17.4839V34.3263H17.6389V25.1943Z" fill="white"/>
<path d="M17.7941 25.1943H17.6392V34.3263H17.7941V25.1943Z" fill="white"/>
<path d="M17.9489 25.1943H17.7939V34.3263H17.9489V25.1943Z" fill="white"/>
<path d="M18.1042 25.1943H17.9492V34.3263H18.1042V25.1943Z" fill="white"/>
<path d="M18.2585 25.1943H18.1035V34.3263H18.2585V25.1943Z" fill="white"/>
<path d="M18.4147 25.1943H18.2598V34.3263H18.4147V25.1943Z" fill="white"/>
<path d="M18.5685 25.1943H18.4136V34.3263H18.5685V25.1943Z" fill="white"/>
<path d="M18.7228 25.1943H18.5679V34.3263H18.7228V25.1943Z" fill="white"/>
<path d="M18.8791 25.1943H18.7241V34.3263H18.8791V25.1943Z" fill="white"/>
<path d="M19.0324 25.1943H18.8774V34.3263H19.0324V25.1943Z" fill="white"/>
<path d="M19.1887 25.1943H19.0337V34.3263H19.1887V25.1943Z" fill="white"/>
<path d="M19.3435 25.1943H19.1885V34.3263H19.3435V25.1943Z" fill="white"/>
<path d="M19.4973 25.1943H19.3423V34.3263H19.4973V25.1943Z" fill="white"/>
<path d="M19.6535 25.1943H19.4985V34.3263H19.6535V25.1943Z" fill="white"/>
<path d="M19.8073 25.1943H19.6523V34.3263H19.8073V25.1943Z" fill="white"/>
<path d="M19.9631 25.1943H19.8081V34.3263H19.9631V25.1943Z" fill="white"/>
<path d="M20.1179 25.1943H19.9629V34.3263H20.1179V25.1943Z" fill="white"/>
<path d="M20.2731 25.1943H20.1182V34.3263H20.2731V25.1943Z" fill="white"/>
<path d="M20.4274 25.1943H20.2725V34.3263H20.4274V25.1943Z" fill="white"/>
<path d="M20.5817 25.1943H20.4268V34.3263H20.5817V25.1943Z" fill="white"/>
<path d="M20.7375 25.1943H20.5825V34.3263H20.7375V25.1943Z" fill="white"/>
<path d="M20.8923 25.1943H20.7373V34.3263H20.8923V25.1943Z" fill="white"/>
<path d="M21.0475 25.1943H20.8926V34.3263H21.0475V25.1943Z" fill="white"/>
<path d="M21.5 25.1943H21.0469V34.3263H21.5V25.1943Z" fill="white"/>
<path d="M21.9536 25.1943H21.5005V34.3263H21.9536V25.1943Z" fill="white"/>
<path d="M22.4068 25.1943H21.9536V34.3263H22.4068V25.1943Z" fill="white"/>
<path d="M22.8599 25.1943H22.4067V34.3263H22.8599V25.1943Z" fill="white"/>
<path d="M23.313 25.1943H22.8599V34.3263H23.313V25.1943Z" fill="white"/>
<path d="M23.7651 25.1943H23.312V34.3263H23.7651V25.1943Z" fill="white"/>
<path d="M24.2188 25.1943H23.7656V34.3263H24.2188V25.1943Z" fill="white"/>
<path d="M24.6714 25.1943H24.2183V34.3263H24.6714V25.1943Z" fill="white"/>
<path d="M25.1265 25.1943H24.6733V34.3263H25.1265V25.1943Z" fill="white"/>
<path d="M25.5796 25.1943H25.1265V34.3263H25.5796V25.1943Z" fill="white"/>
<path d="M26.0327 25.1943H25.5796V34.3263H26.0327V25.1943Z" fill="white"/>
<path d="M26.4859 25.1943H26.0327V34.3263H26.4859V25.1943Z" fill="white"/>
<path d="M26.939 25.1943H26.4858V34.3263H26.939V25.1943Z" fill="white"/>
<path d="M27.3921 25.1943H26.939V34.3263H27.3921V25.1943Z" fill="white"/>
<path d="M27.8447 25.1943H27.3916V34.3263H27.8447V25.1943Z" fill="white"/>
<path d="M28.2988 25.1943H27.8457V34.3263H28.2988V25.1943Z" fill="white"/>
<path d="M28.7515 25.1943H28.2983V34.3263H28.7515V25.1943Z" fill="white"/>
<path d="M29.2046 25.1943H28.7515V34.3263H29.2046V25.1943Z" fill="white"/>
<path d="M29.6572 25.1943H29.2041V34.3263H29.6572V25.1943Z" fill="white"/>
<path d="M30.1104 25.1943H29.6572V34.3263H30.1104V25.1943Z" fill="white"/>
<path d="M30.564 25.1943H30.1108V34.3263H30.564V25.1943Z" fill="white"/>
<path d="M31.0171 25.1943H30.564V34.3263H31.0171V25.1943Z" fill="white"/>
<path d="M31.4697 25.1943H31.0166V34.3263H31.4697V25.1943Z" fill="white"/>
<path d="M31.9229 25.1943H31.4697V34.3263H31.9229V25.1943Z" fill="white"/>
<path d="M32.376 25.1943H31.9229V34.3263H32.376V25.1943Z" fill="white"/>
<path d="M32.8306 25.1943H32.3774V34.3263H32.8306V25.1943Z" fill="white"/>
</g>
<path d="M12.1689 28.5611C12.8255 29.0806 13.4778 29.6727 14.2002 30.1566C15.8065 31.2429 17.6485 31.9177 19.5682 32.1233C21.4879 32.3288 23.4281 32.059 25.2224 31.3369C27.0168 30.6149 28.6119 29.4621 29.8708 27.9774C31.1298 26.4927 32.0151 24.7204 32.4509 22.8124C32.4922 22.641 32.5915 22.4899 32.7315 22.3854C32.7997 22.3603 32.8731 22.3536 32.9447 22.3658C33.0162 22.378 33.0834 22.4088 33.1397 22.4551C33.19 22.5208 33.2265 22.5962 33.2467 22.6768C33.267 22.7574 33.2707 22.8413 33.2576 22.9234C33.0283 23.9097 32.6742 24.8617 32.2041 25.7558C31.0628 27.9844 29.2912 29.8162 27.1166 31.016C24.942 32.2158 22.4636 32.7289 19.9995 32.4894C16.9456 32.1948 14.3588 30.884 12.2293 28.6465C12.207 28.6197 12.1868 28.5912 12.1689 28.5611Z" fill="white"/>
<mask id="mask10_9_3674" style="mask-type:luminance" maskUnits="userSpaceOnUse" x="12" y="22" width="22" height="11">
<path d="M12.1689 28.5611C12.8255 29.0806 13.4778 29.6727 14.2002 30.1566C15.8065 31.2429 17.6485 31.9177 19.5682 32.1233C21.4879 32.3288 23.4281 32.059 25.2224 31.3369C27.0168 30.6149 28.6119 29.4621 29.8708 27.9774C31.1298 26.4927 32.0151 24.7204 32.4509 22.8124C32.4922 22.641 32.5915 22.4899 32.7315 22.3854C32.7997 22.3603 32.8731 22.3536 32.9447 22.3658C33.0162 22.378 33.0834 22.4088 33.1397 22.4551C33.19 22.5208 33.2265 22.5962 33.2467 22.6768C33.267 22.7574 33.2707 22.8413 33.2576 22.9234C33.0283 23.9097 32.6742 24.8617 32.2041 25.7558C31.0628 27.9844 29.2912 29.8162 27.1166 31.016C24.942 32.2158 22.4636 32.7289 19.9995 32.4894C16.9456 32.1948 14.3588 30.884 12.2293 28.6465C12.207 28.6197 12.1868 28.5912 12.1689 28.5611Z" fill="white"/>
</mask>
<g mask="url(#mask10_9_3674)">
<path d="M14.7628 22.324H12.1689V34.8349H14.7628V22.324Z" fill="white"/>
<path d="M14.8965 22.324H14.7612V34.8349H14.8965V22.324Z" fill="white"/>
<path d="M15.0312 22.324H14.896V34.8349H15.0312V22.324Z" fill="white"/>
<path d="M15.1655 22.324H15.0303V34.8349H15.1655V22.324Z" fill="white"/>
<path d="M15.2993 22.324H15.1641V34.8349H15.2993V22.324Z" fill="white"/>
<path d="M15.4336 22.324H15.2983V34.8349H15.4336V22.324Z" fill="white"/>
<path d="M15.5669 22.324H15.4316V34.8349H15.5669V22.324Z" fill="white"/>
<path d="M15.7017 22.324H15.5664V34.8349H15.7017V22.324Z" fill="white"/>
<path d="M15.8345 22.324H15.6992V34.8349H15.8345V22.324Z" fill="white"/>
<path d="M15.9697 22.324H15.8345V34.8349H15.9697V22.324Z" fill="white"/>
<path d="M16.1025 22.324H15.9673V34.8349H16.1025V22.324Z" fill="white"/>
<path d="M16.2373 22.324H16.1021V34.8349H16.2373V22.324Z" fill="white"/>
<path d="M16.3706 22.324H16.2354V34.8349H16.3706V22.324Z" fill="white"/>
<path d="M16.5054 22.324H16.3701V34.8349H16.5054V22.324Z" fill="white"/>
<path d="M16.6406 22.324H16.5054V34.8349H16.6406V22.324Z" fill="white"/>
<path d="M16.7734 22.324H16.6382V34.8349H16.7734V22.324Z" fill="white"/>
<path d="M16.9077 22.324H16.7725V34.8349H16.9077V22.324Z" fill="white"/>
<path d="M17.0415 22.324H16.9062V34.8349H17.0415V22.324Z" fill="white"/>
<path d="M17.1763 22.324H17.041V34.8349H17.1763V22.324Z" fill="white"/>
<path d="M17.3096 22.324H17.1743V34.8349H17.3096V22.324Z" fill="white"/>
<path d="M17.4438 22.324H17.3086V34.8349H17.4438V22.324Z" fill="white"/>
<path d="M17.5767 22.324H17.4414V34.8349H17.5767V22.324Z" fill="white"/>
<path d="M17.7119 22.324H17.5767V34.8349H17.7119V22.324Z" fill="white"/>
<path d="M17.8467 22.324H17.7114V34.8349H17.8467V22.324Z" fill="white"/>
<path d="M17.98 22.324H17.8447V34.8349H17.98V22.324Z" fill="white"/>
<path d="M18.1143 22.324H17.979V34.8349H18.1143V22.324Z" fill="white"/>
<path d="M18.2476 22.324H18.1123V34.8349H18.2476V22.324Z" fill="white"/>
<path d="M18.3828 22.324H18.2476V34.8349H18.3828V22.324Z" fill="white"/>
<path d="M18.5161 22.324H18.3809V34.8349H18.5161V22.324Z" fill="white"/>
<path d="M18.6504 22.324H18.5151V34.8349H18.6504V22.324Z" fill="white"/>
<path d="M18.7837 22.324H18.6484V34.8349H18.7837V22.324Z" fill="white"/>
<path d="M18.9185 22.324H18.7832V34.8349H18.9185V22.324Z" fill="white"/>
<path d="M19.0537 22.324H18.9185V34.8349H19.0537V22.324Z" fill="white"/>
<path d="M19.1865 22.324H19.0513V34.8349H19.1865V22.324Z" fill="white"/>
<path d="M19.3208 22.324H19.1855V34.8349H19.3208V22.324Z" fill="white"/>
<path d="M19.4541 22.324H19.3188V34.8349H19.4541V22.324Z" fill="white"/>
<path d="M19.5889 22.324H19.4536V34.8349H19.5889V22.324Z" fill="white"/>
<path d="M19.7227 22.324H19.5874V34.8349H19.7227V22.324Z" fill="white"/>
<path d="M19.8569 22.324H19.7217V34.8349H19.8569V22.324Z" fill="white"/>
<path d="M19.9902 22.324H19.855V34.8349H19.9902V22.324Z" fill="white"/>
<path d="M20.125 22.324H19.9897V34.8349H20.125V22.324Z" fill="white"/>
<path d="M20.2598 22.324H20.1245V34.8349H20.2598V22.324Z" fill="white"/>
<path d="M20.3926 22.324H20.2573V34.8349H20.3926V22.324Z" fill="white"/>
<path d="M20.5273 22.324H20.3921V34.8349H20.5273V22.324Z" fill="white"/>
<path d="M20.6606 22.324H20.5254V34.8349H20.6606V22.324Z" fill="white"/>
<path d="M20.7954 22.324H20.6602V34.8349H20.7954V22.324Z" fill="white"/>
<path d="M20.9282 22.324H20.793V34.8349H20.9282V22.324Z" fill="white"/>
<path d="M21.063 22.324H20.9277V34.8349H21.063V22.324Z" fill="white"/>
<path d="M21.1968 22.324H21.0615V34.8349H21.1968V22.324Z" fill="white"/>
<path d="M21.3311 22.324H21.1958V34.8349H21.3311V22.324Z" fill="white"/>
<path d="M21.4663 22.324H21.3311V34.8349H21.4663V22.324Z" fill="white"/>
<path d="M21.5991 22.324H21.4639V34.8349H21.5991V22.324Z" fill="white"/>
<path d="M21.7334 22.324H21.5981V34.8349H21.7334V22.324Z" fill="white"/>
<path d="M21.8672 22.324H21.7319V34.8349H21.8672V22.324Z" fill="white"/>
<path d="M22.0015 22.324H21.8662V34.8349H22.0015V22.324Z" fill="white"/>
<path d="M22.1348 22.324H21.9995V34.8349H22.1348V22.324Z" fill="white"/>
<path d="M22.2695 22.324H22.1343V34.8349H22.2695V22.324Z" fill="white"/>
<path d="M22.4028 22.324H22.2676V34.8349H22.4028V22.324Z" fill="white"/>
<path d="M22.5381 22.324H22.4028V34.8349H22.5381V22.324Z" fill="white"/>
<path d="M22.6709 22.324H22.5356V34.8349H22.6709V22.324Z" fill="white"/>
<path d="M22.8052 22.324H22.6699V34.8349H22.8052V22.324Z" fill="white"/>
<path d="M22.9404 22.324H22.8052V34.8349H22.9404V22.324Z" fill="white"/>
<path d="M23.0737 22.324H22.9385V34.8349H23.0737V22.324Z" fill="white"/>
<path d="M23.4665 22.324H23.0737V34.8349H23.4665V22.324Z" fill="white"/>
<path d="M23.8567 22.324H23.4639V34.8349H23.8567V22.324Z" fill="white"/>
<path d="M24.2498 22.324H23.8569V34.8349H24.2498V22.324Z" fill="white"/>
<path d="M24.6413 22.324H24.2485V34.8349H24.6413V22.324Z" fill="white"/>
<path d="M25.0339 22.324H24.6411V34.8349H25.0339V22.324Z" fill="white"/>
<path d="M25.427 22.324H25.0342V34.8349H25.427V22.324Z" fill="white"/>
<path d="M25.8186 22.324H25.4258V34.8349H25.8186V22.324Z" fill="white"/>
<path d="M26.2107 22.324H25.8179V34.8349H26.2107V22.324Z" fill="white"/>
<path d="M26.6023 22.324H26.2095V34.8349H26.6023V22.324Z" fill="white"/>
<path d="M26.9954 22.324H26.6025V34.8349H26.9954V22.324Z" fill="white"/>
<path d="M27.3865 22.324H26.9937V34.8349H27.3865V22.324Z" fill="white"/>
<path d="M27.78 22.324H27.3872V34.8349H27.78V22.324Z" fill="white"/>
<path d="M28.1721 22.324H27.7793V34.8349H28.1721V22.324Z" fill="white"/>
<path d="M28.5637 22.324H28.1709V34.8349H28.5637V22.324Z" fill="white"/>
<path d="M28.9563 22.324H28.5635V34.8349H28.9563V22.324Z" fill="white"/>
<path d="M29.3479 22.324H28.9551V34.8349H29.3479V22.324Z" fill="white"/>
<path d="M29.74 22.324H29.3472V34.8349H29.74V22.324Z" fill="white"/>
<path d="M30.1326 22.324H29.7397V34.8349H30.1326V22.324Z" fill="white"/>
<path d="M30.5246 22.324H30.1318V34.8349H30.5246V22.324Z" fill="white"/>
<path d="M30.9177 22.324H30.5249V34.8349H30.9177V22.324Z" fill="white"/>
<path d="M31.3088 22.324H30.916V34.8349H31.3088V22.324Z" fill="white"/>
<path d="M31.7014 22.324H31.3086V34.8349H31.7014V22.324Z" fill="white"/>
<path d="M32.093 22.324H31.7002V34.8349H32.093V22.324Z" fill="white"/>
<path d="M32.4856 22.324H32.0928V34.8349H32.4856V22.324Z" fill="white"/>
<path d="M32.8772 22.324H32.4844V34.8349H32.8772V22.324Z" fill="white"/>
<path d="M33.2703 22.324H32.8774V34.8349H33.2703V22.324Z" fill="white"/>
</g>
<path d="M29.8652 11.4947C29.2858 11.0164 28.743 10.5169 28.1608 10.0941C21.2393 5.12537 11.6397 8.67083 9.59443 17.0442C9.57198 17.1381 9.55655 17.2349 9.5299 17.3288C9.51841 17.3838 9.49632 17.436 9.4649 17.4823C9.43348 17.5287 9.39335 17.5682 9.34682 17.5988C9.30029 17.6293 9.24826 17.6503 9.19374 17.6604C9.13921 17.6705 9.08326 17.6695 9.02909 17.6576C8.97448 17.6467 8.92274 17.6244 8.87721 17.5919C8.83168 17.5594 8.79339 17.5176 8.76482 17.4692C8.73625 17.4207 8.71804 17.3667 8.71136 17.3107C8.70469 17.2546 8.7097 17.1978 8.72608 17.1438C8.85812 16.5959 9.02494 16.0572 9.22548 15.5312C11.094 11.0392 14.3851 8.29223 19.1505 7.59624C23.2649 6.99418 26.8113 8.33635 29.7404 11.3353C29.7846 11.3862 29.8263 11.4394 29.8652 11.4947Z" fill="white"/>
<mask id="mask11_9_3674" style="mask-type:luminance" maskUnits="userSpaceOnUse" x="8" y="7" width="22" height="11">
<path d="M29.8652 11.4947C29.2858 11.0164 28.743 10.5169 28.1608 10.0941C21.2393 5.12537 11.6397 8.67083 9.59443 17.0442C9.57198 17.1381 9.55655 17.2349 9.5299 17.3288C9.51841 17.3838 9.49632 17.436 9.4649 17.4823C9.43348 17.5287 9.39335 17.5682 9.34682 17.5988C9.30029 17.6293 9.24826 17.6503 9.19374 17.6604C9.13921 17.6705 9.08326 17.6695 9.02909 17.6576C8.97448 17.6467 8.92274 17.6244 8.87721 17.5919C8.83168 17.5594 8.79339 17.5176 8.76482 17.4692C8.73625 17.4207 8.71804 17.3667 8.71136 17.3107C8.70469 17.2546 8.7097 17.1978 8.72608 17.1438C8.85812 16.5959 9.02494 16.0572 9.22548 15.5312C11.094 11.0392 14.3851 8.29223 19.1505 7.59624C23.2649 6.99418 26.8113 8.33635 29.7404 11.3353C29.7846 11.3862 29.8263 11.4394 29.8652 11.4947Z" fill="white"/>
</mask>
<g mask="url(#mask11_9_3674)">
<path d="M11.31 5.12573H8.65869V17.7092H11.31V5.12573Z" fill="white"/>
<path d="M11.4453 5.12573H11.3101V17.7092H11.4453V5.12573Z" fill="white"/>
<path d="M11.5801 5.12573H11.4448V17.7092H11.5801V5.12573Z" fill="white"/>
<path d="M11.7144 5.12573H11.5791V17.7092H11.7144V5.12573Z" fill="white"/>
<path d="M11.8481 5.12573H11.7129V17.7092H11.8481V5.12573Z" fill="white"/>
<path d="M11.9824 5.12573H11.8472V17.7092H11.9824V5.12573Z" fill="white"/>
<path d="M12.1177 5.12573H11.9824V17.7092H12.1177V5.12573Z" fill="white"/>
<path d="M12.2519 5.12573H12.1167V17.7092H12.2519V5.12573Z" fill="white"/>
<path d="M12.3867 5.12573H12.2515V17.7092H12.3867V5.12573Z" fill="white"/>
<path d="M12.5205 5.12573H12.3853V17.7092H12.5205V5.12573Z" fill="white"/>
<path d="M12.6548 5.12573H12.5195V17.7092H12.6548V5.12573Z" fill="white"/>
<path d="M12.7891 5.12573H12.6538V17.7092H12.7891V5.12573Z" fill="white"/>
<path d="M12.9238 5.12573H12.7886V17.7092H12.9238V5.12573Z" fill="white"/>
<path d="M13.0586 5.12573H12.9233V17.7092H13.0586V5.12573Z" fill="white"/>
<path d="M13.1924 5.12573H13.0571V17.7092H13.1924V5.12573Z" fill="white"/>
<path d="M13.3267 5.12573H13.1914V17.7092H13.3267V5.12573Z" fill="white"/>
<path d="M13.4609 5.12573H13.3257V17.7092H13.4609V5.12573Z" fill="white"/>
<path d="M13.5962 5.12573H13.4609V17.7092H13.5962V5.12573Z" fill="white"/>
<path d="M13.731 5.12573H13.5957V17.7092H13.731V5.12573Z" fill="white"/>
<path d="M13.8647 5.12573H13.7295V17.7092H13.8647V5.12573Z" fill="white"/>
<path d="M13.9985 5.12573H13.8633V17.7092H13.9985V5.12573Z" fill="white"/>
<path d="M14.1333 5.12573H13.998V17.7092H14.1333V5.12573Z" fill="white"/>
<path d="M14.2686 5.12573H14.1333V17.7092H14.2686V5.12573Z" fill="white"/>
<path d="M14.4023 5.12573H14.2671V17.7092H14.4023V5.12573Z" fill="white"/>
<path d="M14.5361 5.12573H14.4009V17.7092H14.5361V5.12573Z" fill="white"/>
<path d="M14.6704 5.12573H14.5352V17.7092H14.6704V5.12573Z" fill="white"/>
<path d="M14.8052 5.12573H14.6699V17.7092H14.8052V5.12573Z" fill="white"/>
<path d="M14.9399 5.12573H14.8047V17.7092H14.9399V5.12573Z" fill="white"/>
<path d="M15.0747 5.12573H14.9395V17.7092H15.0747V5.12573Z" fill="white"/>
<path d="M15.2075 5.12573H15.0723V17.7092H15.2075V5.12573Z" fill="white"/>
<path d="M15.3423 5.12573H15.207V17.7092H15.3423V5.12573Z" fill="white"/>
<path d="M15.477 5.12573H15.3418V17.7092H15.477V5.12573Z" fill="white"/>
<path d="M15.6118 5.12573H15.4766V17.7092H15.6118V5.12573Z" fill="white"/>
<path d="M15.7466 5.12573H15.6113V17.7092H15.7466V5.12573Z" fill="white"/>
<path d="M15.8794 5.12573H15.7441V17.7092H15.8794V5.12573Z" fill="white"/>
<path d="M16.0146 5.12573H15.8794V17.7092H16.0146V5.12573Z" fill="white"/>
<path d="M16.1489 5.12573H16.0137V17.7092H16.1489V5.12573Z" fill="white"/>
<path d="M16.2837 5.12573H16.1484V17.7092H16.2837V5.12573Z" fill="white"/>
<path d="M16.4189 5.12573H16.2837V17.7092H16.4189V5.12573Z" fill="white"/>
<path d="M16.5518 5.12573H16.4165V17.7092H16.5518V5.12573Z" fill="white"/>
<path d="M16.6865 5.12573H16.5513V17.7092H16.6865V5.12573Z" fill="white"/>
<path d="M16.8213 5.12573H16.686V17.7092H16.8213V5.12573Z" fill="white"/>
<path d="M16.9561 5.12573H16.8208V17.7092H16.9561V5.12573Z" fill="white"/>
<path d="M17.0903 5.12573H16.9551V17.7092H17.0903V5.12573Z" fill="white"/>
<path d="M17.2231 5.12573H17.0879V17.7092H17.2231V5.12573Z" fill="white"/>
<path d="M17.3584 5.12573H17.2231V17.7092H17.3584V5.12573Z" fill="white"/>
<path d="M17.4932 5.12573H17.3579V17.7092H17.4932V5.12573Z" fill="white"/>
<path d="M17.6279 5.12573H17.4927V17.7092H17.6279V5.12573Z" fill="white"/>
<path d="M17.7627 5.12573H17.6274V17.7092H17.7627V5.12573Z" fill="white"/>
<path d="M17.8955 5.12573H17.7603V17.7092H17.8955V5.12573Z" fill="white"/>
<path d="M18.0303 5.12573H17.895V17.7092H18.0303V5.12573Z" fill="white"/>
<path d="M18.1655 5.12573H18.0303V17.7092H18.1655V5.12573Z" fill="white"/>
<path d="M18.2998 5.12573H18.1646V17.7092H18.2998V5.12573Z" fill="white"/>
<path d="M18.4336 5.12573H18.2983V17.7092H18.4336V5.12573Z" fill="white"/>
<path d="M18.5679 5.12573H18.4326V17.7092H18.5679V5.12573Z" fill="white"/>
<path d="M18.7021 5.12573H18.5669V17.7092H18.7021V5.12573Z" fill="white"/>
<path d="M18.8369 5.12573H18.7017V17.7092H18.8369V5.12573Z" fill="white"/>
<path d="M18.9717 5.12573H18.8364V17.7092H18.9717V5.12573Z" fill="white"/>
<path d="M19.105 5.12573H18.9697V17.7092H19.105V5.12573Z" fill="white"/>
<path d="M19.2397 5.12573H19.1045V17.7092H19.2397V5.12573Z" fill="white"/>
<path d="M19.374 5.12573H19.2388V17.7092H19.374V5.12573Z" fill="white"/>
<path d="M19.5088 5.12573H19.3735V17.7092H19.5088V5.12573Z" fill="white"/>
<path d="M19.6436 5.12573H19.5083V17.7092H19.6436V5.12573Z" fill="white"/>
<path d="M20.0339 5.12573H19.6411V17.7092H20.0339V5.12573Z" fill="white"/>
<path d="M20.4285 5.12573H20.0356V17.7092H20.4285V5.12573Z" fill="white"/>
<path d="M20.821 5.12573H20.4282V17.7092H20.821V5.12573Z" fill="white"/>
<path d="M21.2141 5.12573H20.8213V17.7092H21.2141V5.12573Z" fill="white"/>
<path d="M21.6086 5.12573H21.2158V17.7092H21.6086V5.12573Z" fill="white"/>
<path d="M22.0017 5.12573H21.6089V17.7092H22.0017V5.12573Z" fill="white"/>
<path d="M22.3938 5.12573H22.001V17.7092H22.3938V5.12573Z" fill="white"/>
<path d="M22.7873 5.12573H22.3945V17.7092H22.7873V5.12573Z" fill="white"/>
<path d="M23.1809 5.12573H22.7881V17.7092H23.1809V5.12573Z" fill="white"/>
<path d="M23.574 5.12573H23.1812V17.7092H23.574V5.12573Z" fill="white"/>
<path d="M23.967 5.12573H23.5742V17.7092H23.967V5.12573Z" fill="white"/>
<path d="M24.3606 5.12573H23.9678V17.7092H24.3606V5.12573Z" fill="white"/>
<path d="M24.7537 5.12573H24.3608V17.7092H24.7537V5.12573Z" fill="white"/>
<path d="M25.1462 5.12573H24.7534V17.7092H25.1462V5.12573Z" fill="white"/>
<path d="M25.5393 5.12573H25.1465V17.7092H25.5393V5.12573Z" fill="white"/>
<path d="M25.9329 5.12573H25.54V17.7092H25.9329V5.12573Z" fill="white"/>
<path d="M26.3259 5.12573H25.9331V17.7092H26.3259V5.12573Z" fill="white"/>
<path d="M26.7185 5.12573H26.3257V17.7092H26.7185V5.12573Z" fill="white"/>
<path d="M27.1135 5.12573H26.7207V17.7092H27.1135V5.12573Z" fill="white"/>
<path d="M27.5061 5.12573H27.1133V17.7092H27.5061V5.12573Z" fill="white"/>
<path d="M27.8987 5.12573H27.5059V17.7092H27.8987V5.12573Z" fill="white"/>
<path d="M28.2927 5.12573H27.8999V17.7092H28.2927V5.12573Z" fill="white"/>
<path d="M28.6858 5.12573H28.293V17.7092H28.6858V5.12573Z" fill="white"/>
<path d="M29.0784 5.12573H28.6855V17.7092H29.0784V5.12573Z" fill="white"/>
<path d="M29.4714 5.12573H29.0786V17.7092H29.4714V5.12573Z" fill="white"/>
<path d="M29.865 5.12573H29.4722V17.7092H29.865V5.12573Z" fill="white"/>
</g>
<path d="M18.6681 13.5459H21.1259L24.3608 23.1532L29.5105 13.5459H32.0258L30.6707 26.5635H28.1919L28.9508 19.0826L25.1197 26.5635H22.9874L20.5661 19.1196L19.789 26.5635H17.313L18.6681 13.5459Z" fill="white"/>
<path d="M19.9507 17.3904C19.9507 20.2128 17.8548 22.2126 14.9089 22.2126H12.8313L12.3979 26.3928H9.92188L11.277 13.3752H15.8137C18.3977 13.3752 19.9689 14.9153 19.9507 17.3904ZM15.3606 15.6824H13.5187L13.0838 19.8983H14.9075C16.3356 19.8983 17.4326 19.2578 17.4326 17.6437C17.4578 16.2347 16.626 15.6853 15.3606 15.6853V15.6824Z" fill="white"/>
</svg>
