<svg width="35" height="33" viewBox="0 0 35 33" fill="none" xmlns="http://www.w3.org/2000/svg">
<mask id="mask0_178_4274" style="mask-type:luminance" maskUnits="userSpaceOnUse" x="9" y="3" width="22" height="14">
<path d="M30.1117 16.7707C29.9714 15.795 29.8919 14.8075 29.6826 13.8471C28.5731 8.75835 24.1875 4.83672 19.0326 4.30014C15.8021 3.96434 12.8839 4.79093 10.2824 6.73882C10.1164 6.86328 9.93988 6.96308 9.75865 6.84332C9.64099 6.7569 9.55639 6.63257 9.51897 6.49108C9.4722 6.2997 9.61134 6.16702 9.76216 6.05782C11.1418 5.06003 12.7035 4.34469 14.3582 3.95259C19.5856 2.70566 25.0515 4.86725 27.9768 9.35363C29.4019 11.5127 30.1302 14.0603 30.0626 16.6497C30.0626 16.6967 30.0626 16.7437 30.0626 16.7895L30.1117 16.7707Z" fill="white"/>
</mask>
<g mask="url(#mask0_178_4274)">
<path d="M12.0425 2.70221H9.47266V16.7813H12.0425V2.70221Z" fill="#0A478E"/>
<path d="M12.1729 2.70226H12.042V16.7814H12.1729V2.70226Z" fill="#0A478E"/>
<path d="M12.3048 2.70226H12.1738V16.7814H12.3048V2.70226Z" fill="#074790"/>
<path d="M12.4356 2.70226H12.3047V16.7814H12.4356V2.70226Z" fill="#054891"/>
<path d="M12.5664 2.70221H12.4354V16.7813H12.5664V2.70221Z" fill="#004993"/>
<path d="M12.6974 2.70221H12.5664V16.7813H12.6974V2.70221Z" fill="#074A95"/>
<path d="M12.8272 2.70226H12.6963V16.7814H12.8272V2.70226Z" fill="#084B96"/>
<path d="M12.9591 2.70226H12.8281V16.7814H12.9591V2.70226Z" fill="#084C97"/>
<path d="M13.0899 2.70226H12.959V16.7814H13.0899V2.70226Z" fill="#0A4D98"/>
<path d="M13.2207 2.70221H13.0897V16.7813H13.2207V2.70221Z" fill="#0D4E98"/>
<path d="M13.3497 2.70226H13.2188V16.7814H13.3497V2.70226Z" fill="#0D4F99"/>
<path d="M13.4815 2.70226H13.3506V16.7814H13.4815V2.70226Z" fill="#0D509A"/>
<path d="M13.6134 2.70226H13.4824V16.7814H13.6134V2.70226Z" fill="#0F519B"/>
<path d="M13.7431 2.70221H13.6122V16.7813H13.7431V2.70221Z" fill="#0F529C"/>
<path d="M13.8741 2.70221H13.7432V16.7813H13.8741V2.70221Z" fill="#0F539E"/>
<path d="M14.004 2.70226H13.873V16.7814H14.004V2.70226Z" fill="#0F549E"/>
<path d="M14.1358 2.70226H14.0049V16.7814H14.1358V2.70226Z" fill="#14559F"/>
<path d="M14.2677 2.70226H14.1367V16.7814H14.2677V2.70226Z" fill="#1456A0"/>
<path d="M14.3985 2.70226H14.2676V16.7814H14.3985V2.70226Z" fill="#1357A2"/>
<path d="M14.5293 2.70221H14.3983V16.7813H14.5293V2.70221Z" fill="#1558A2"/>
<path d="M14.6602 2.70221H14.5293V16.7813H14.6602V2.70221Z" fill="#1559A3"/>
<path d="M14.7901 2.70226H14.6592V16.7814H14.7901V2.70226Z" fill="#155BA5"/>
<path d="M14.922 2.70226H14.791V16.7814H14.922V2.70226Z" fill="#165BA6"/>
<path d="M15.0528 2.70226H14.9219V16.7814H15.0528V2.70226Z" fill="#175CA6"/>
<path d="M15.1847 2.70226H15.0537V16.7814H15.1847V2.70226Z" fill="#175DA7"/>
<path d="M15.3126 2.70226H15.1816V16.7814H15.3126V2.70226Z" fill="#195EA8"/>
<path d="M15.4444 2.70226H15.3135V16.7814H15.4444V2.70226Z" fill="#195FA8"/>
<path d="M15.5753 2.70226H15.4443V16.7814H15.5753V2.70226Z" fill="#1960A9"/>
<path d="M15.7071 2.70226H15.5762V16.7814H15.7071V2.70226Z" fill="#1761AA"/>
<path d="M15.8379 2.70221H15.7069V16.7813H15.8379V2.70221Z" fill="#1862AB"/>
<path d="M15.9669 2.70226H15.8359V16.7814H15.9669V2.70226Z" fill="#1A63AD"/>
<path d="M16.0987 2.70226H15.9678V16.7814H16.0987V2.70226Z" fill="#1C64AD"/>
<path d="M16.2296 2.70226H16.0986V16.7814H16.2296V2.70226Z" fill="#1B66AE"/>
<path d="M16.3614 2.70226H16.2305V16.7814H16.3614V2.70226Z" fill="#1D66AF"/>
<path d="M16.492 2.70221H16.3611V16.7813H16.492V2.70221Z" fill="#1D68B0"/>
<path d="M16.6231 2.70221H16.4922V16.7813H16.6231V2.70221Z" fill="#1E68B1"/>
<path d="M16.753 2.70226H16.6221V16.7814H16.753V2.70226Z" fill="#1E6AB2"/>
<path d="M16.886 2.70221H16.755V16.7813H16.886V2.70221Z" fill="#1D6AB3"/>
<path d="M17.0157 2.70226H16.8848V16.7814H17.0157V2.70226Z" fill="#1D6CB4"/>
<path d="M17.1475 2.70226H17.0166V16.7814H17.1475V2.70226Z" fill="#1E6DB5"/>
<path d="M17.2774 2.70221H17.1465V16.7813H17.2774V2.70221Z" fill="#1F6EB6"/>
<path d="M17.4084 2.70221H17.2775V16.7813H17.4084V2.70221Z" fill="#206FB7"/>
<path d="M17.5382 2.70226H17.4072V16.7814H17.5382V2.70226Z" fill="#1F70B7"/>
<path d="M17.67 2.70226H17.5391V16.7814H17.67V2.70226Z" fill="#2371B8"/>
<path d="M17.8006 2.70221H17.6697V16.7813H17.8006V2.70221Z" fill="#2372B9"/>
<path d="M17.9317 2.70221H17.8008V16.7813H17.9317V2.70221Z" fill="#2573B9"/>
<path d="M18.0627 2.70221H17.9318V16.7813H18.0627V2.70221Z" fill="#2473BA"/>
<path d="M18.1945 2.70221H18.0636V16.7813H18.1945V2.70221Z" fill="#2474BB"/>
<path d="M18.3243 2.70226H18.1934V16.7814H18.3243V2.70226Z" fill="#2675BB"/>
<path d="M18.4549 2.70221H18.324V16.7813H18.4549V2.70221Z" fill="#2677BC"/>
<path d="M18.5868 2.70221H18.4558V16.7813H18.5868V2.70221Z" fill="#2877BD"/>
<path d="M18.717 2.70221H18.5861V16.7813H18.717V2.70221Z" fill="#2978BD"/>
<path d="M18.8488 2.70221H18.7179V16.7813H18.8488V2.70221Z" fill="#2779BE"/>
<path d="M18.9786 2.70226H18.8477V16.7814H18.9786V2.70226Z" fill="#297ABF"/>
<path d="M19.1104 2.70226H18.9795V16.7814H19.1104V2.70226Z" fill="#297BC0"/>
<path d="M19.2411 2.70221H19.1101V16.7813H19.2411V2.70221Z" fill="#287CC0"/>
<path d="M19.3713 2.70221H19.2404V16.7813H19.3713V2.70221Z" fill="#2C7DC1"/>
<path d="M19.5031 2.70221H19.3722V16.7813H19.5031V2.70221Z" fill="#2D7EC2"/>
<path d="M19.6329 2.70226H19.502V16.7814H19.6329V2.70226Z" fill="#2B7FC2"/>
<path d="M19.7638 2.70226H19.6328V16.7814H19.7638V2.70226Z" fill="#2D80C3"/>
<path d="M19.8945 2.70221H19.7635V16.7813H19.8945V2.70221Z" fill="#2E81C4"/>
<path d="M20.0256 2.70221H19.8947V16.7813H20.0256V2.70221Z" fill="#2F82C4"/>
<path d="M20.1574 2.70221H20.0265V16.7813H20.1574V2.70221Z" fill="#3183C5"/>
<path d="M20.5386 2.70226H20.1562V16.7814H20.5386V2.70226Z" fill="#3183C5"/>
<path d="M20.9222 2.70221H20.5399V16.7813H20.9222V2.70221Z" fill="#3183C5"/>
<path d="M21.3052 2.70226H20.9229V16.7814H21.3052V2.70226Z" fill="#2E84C6"/>
<path d="M21.688 2.70221H21.3057V16.7813H21.688V2.70221Z" fill="#2E84C6"/>
<path d="M22.0708 2.70226H21.6885V16.7814H22.0708V2.70226Z" fill="#2D85C7"/>
<path d="M22.4546 2.70221H22.0723V16.7813H22.4546V2.70221Z" fill="#2E85C6"/>
<path d="M22.8363 2.70221H22.454V16.7813H22.8363V2.70221Z" fill="#2E85C5"/>
<path d="M23.2192 2.70226H22.8369V16.7814H23.2192V2.70226Z" fill="#2D86C4"/>
<path d="M23.602 2.70221H23.2197V16.7813H23.602V2.70221Z" fill="#2E86C3"/>
<path d="M23.9849 2.70226H23.6025V16.7814H23.9849V2.70226Z" fill="#2D87C3"/>
<path d="M24.3687 2.70221H23.9863V16.7813H24.3687V2.70221Z" fill="#2D86C1"/>
<path d="M24.7515 2.70226H24.3691V16.7814H24.7515V2.70226Z" fill="#2E86C0"/>
<path d="M25.1333 2.70226H24.751V16.7814H25.1333V2.70226Z" fill="#2D87C0"/>
<path d="M25.5168 2.70221H25.1345V16.7813H25.5168V2.70221Z" fill="#2D87BD"/>
<path d="M25.8989 2.70226H25.5166V16.7814H25.8989V2.70226Z" fill="#3087BC"/>
<path d="M26.2834 2.70221H25.9011V16.7813H26.2834V2.70221Z" fill="#2F88BB"/>
<path d="M26.6655 2.70226H26.2832V16.7814H26.6655V2.70226Z" fill="#3087B9"/>
<path d="M27.0492 2.70221H26.6669V16.7813H27.0492V2.70221Z" fill="#2E88B8"/>
<path d="M27.4311 2.70226H27.0488V16.7814H27.4311V2.70226Z" fill="#2D89B8"/>
<path d="M27.8142 2.70221H27.4319V16.7813H27.8142V2.70221Z" fill="#2E88B7"/>
<path d="M28.1967 2.70221H27.8143V16.7813H28.1967V2.70221Z" fill="#2C89B6"/>
<path d="M28.5808 2.70221H28.1985V16.7813H28.5808V2.70221Z" fill="#2C8AB5"/>
<path d="M28.9633 2.70221H28.5809V16.7813H28.9633V2.70221Z" fill="#2C89B4"/>
<path d="M29.3462 2.70226H28.9639V16.7814H29.3462V2.70226Z" fill="#2F89B2"/>
<path d="M29.7283 2.70221H29.3459V16.7813H29.7283V2.70221Z" fill="#2C8BB2"/>
<path d="M30.1118 2.70226H29.7295V16.7814H30.1118V2.70226Z" fill="#2D8BB1"/>
</g>
<mask id="mask1_178_4274" style="mask-type:luminance" maskUnits="userSpaceOnUse" x="7" y="4" width="21" height="9">
<path d="M27.9551 12.1835C27.6102 11.5824 27.2934 10.9296 26.8877 10.3402C24.9153 7.47525 22.204 5.77627 18.7432 5.46748C14.5342 5.09175 11.1634 6.70619 8.64617 10.1124C8.55498 10.2298 8.47664 10.3648 8.39246 10.4916C8.22995 10.7358 8.00546 10.8039 7.80787 10.6689C7.61028 10.5339 7.59391 10.3026 7.75994 10.056C8.68325 8.6884 9.8868 7.53463 11.29 6.67191C12.6933 5.8092 14.2638 5.25744 15.8966 5.05356C17.5293 4.84969 19.1866 4.9984 20.7575 5.48975C22.3284 5.9811 23.7766 6.80375 25.0053 7.90264C26.2567 9.02524 27.2388 10.4177 27.878 11.9757C27.9095 12.0532 27.9364 12.1331 27.9551 12.1835Z" fill="white"/>
</mask>
<g mask="url(#mask1_178_4274)">
<path d="M10.1428 3.95769H7.59277V12.1837H10.1428V3.95769Z" fill="#0A478E"/>
<path d="M10.2722 3.95779H10.1436V12.1838H10.2722V3.95779Z" fill="#0A478E"/>
<path d="M10.4001 3.95779H10.2715V12.1838H10.4001V3.95779Z" fill="#074790"/>
<path d="M10.529 3.95769H10.4004V12.1837H10.529V3.95769Z" fill="#054891"/>
<path d="M10.6579 3.95779H10.5293V12.1838H10.6579V3.95779Z" fill="#004993"/>
<path d="M10.7877 3.95769H10.6591V12.1837H10.7877V3.95769Z" fill="#074A95"/>
<path d="M10.9167 3.95779H10.7881V12.1838H10.9167V3.95779Z" fill="#084B96"/>
<path d="M11.0457 3.95769H10.9171V12.1837H11.0457V3.95769Z" fill="#084C97"/>
<path d="M11.1743 3.95769H11.0457V12.1837H11.1743V3.95769Z" fill="#0A4D98"/>
<path d="M11.3034 3.95779H11.1748V12.1838H11.3034V3.95779Z" fill="#0D4E98"/>
<path d="M11.4322 3.95769H11.3036V12.1837H11.4322V3.95769Z" fill="#0D4F99"/>
<path d="M11.5612 3.95779H11.4326V12.1838H11.5612V3.95779Z" fill="#0D509A"/>
<path d="M11.691 3.95769H11.5624V12.1837H11.691V3.95769Z" fill="#0F519B"/>
<path d="M11.82 3.95779H11.6914V12.1838H11.82V3.95779Z" fill="#0F529C"/>
<path d="M11.9482 3.95769H11.8196V12.1837H11.9482V3.95769Z" fill="#0F539E"/>
<path d="M12.0778 3.95779H11.9492V12.1838H12.0778V3.95779Z" fill="#0F549E"/>
<path d="M12.2058 3.95779H12.0771V12.1838H12.2058V3.95779Z" fill="#14559F"/>
<path d="M12.3355 3.95769H12.2069V12.1837H12.3355V3.95769Z" fill="#1456A0"/>
<path d="M12.4645 3.95779H12.3359V12.1838H12.4645V3.95779Z" fill="#1357A2"/>
<path d="M12.5935 3.95769H12.4648V12.1837H12.5935V3.95769Z" fill="#1558A2"/>
<path d="M12.7224 3.95779H12.5938V12.1838H12.7224V3.95779Z" fill="#1559A3"/>
<path d="M12.8522 3.95769H12.7236V12.1837H12.8522V3.95769Z" fill="#155BA5"/>
<path d="M12.9801 3.95769H12.8514V12.1837H12.9801V3.95769Z" fill="#165BA6"/>
<path d="M13.1091 3.95779H12.9805V12.1838H13.1091V3.95779Z" fill="#175CA6"/>
<path d="M13.2388 3.95769H13.1102V12.1837H13.2388V3.95769Z" fill="#175DA7"/>
<path d="M13.3679 3.95779H13.2393V12.1838H13.3679V3.95779Z" fill="#195EA8"/>
<path d="M13.496 3.95769H13.3674V12.1837H13.496V3.95769Z" fill="#195FA8"/>
<path d="M13.6267 3.95779H13.498V12.1838H13.6267V3.95779Z" fill="#1960A9"/>
<path d="M13.7548 3.95769H13.6262V12.1837H13.7548V3.95769Z" fill="#1761AA"/>
<path d="M13.8834 3.95769H13.7548V12.1837H13.8834V3.95769Z" fill="#1862AB"/>
<path d="M14.0124 3.95779H13.8838V12.1838H14.0124V3.95779Z" fill="#1A63AD"/>
<path d="M14.1413 3.95769H14.0127V12.1837H14.1413V3.95769Z" fill="#1C64AD"/>
<path d="M14.2702 3.95779H14.1416V12.1838H14.2702V3.95779Z" fill="#1B66AE"/>
<path d="M14.4001 3.95769H14.2715V12.1837H14.4001V3.95769Z" fill="#1D66AF"/>
<path d="M14.529 3.95779H14.4004V12.1838H14.529V3.95779Z" fill="#1D68B0"/>
<path d="M14.6569 3.95779H14.5283V12.1838H14.6569V3.95779Z" fill="#1E68B1"/>
<path d="M14.7867 3.95769H14.6581V12.1837H14.7867V3.95769Z" fill="#1E6AB2"/>
<path d="M14.9157 3.95779H14.7871V12.1838H14.9157V3.95779Z" fill="#1D6AB3"/>
<path d="M15.0455 3.95769H14.9169V12.1837H15.0455V3.95769Z" fill="#1D6CB4"/>
<path d="M15.1745 3.95779H15.0459V12.1838H15.1745V3.95779Z" fill="#1E6DB5"/>
<path d="M15.3026 3.95769H15.174V12.1837H15.3026V3.95769Z" fill="#1F6EB6"/>
<path d="M15.4323 3.95779H15.3037V12.1838H15.4323V3.95779Z" fill="#206FB7"/>
<path d="M15.5603 3.95779H15.4316V12.1838H15.5603V3.95779Z" fill="#1F70B7"/>
<path d="M15.6892 3.95769H15.5605V12.1837H15.6892V3.95769Z" fill="#2371B8"/>
<path d="M15.819 3.95779H15.6904V12.1838H15.819V3.95779Z" fill="#2372B9"/>
<path d="M15.9479 3.95769H15.8193V12.1837H15.9479V3.95769Z" fill="#2573B9"/>
<path d="M16.0769 3.95779H15.9482V12.1838H16.0769V3.95779Z" fill="#2473BA"/>
<path d="M16.2067 3.95769H16.0781V12.1837H16.2067V3.95769Z" fill="#2474BB"/>
<path d="M16.3344 3.95769H16.2058V12.1837H16.3344V3.95769Z" fill="#2675BB"/>
<path d="M16.4636 3.95779H16.335V12.1838H16.4636V3.95779Z" fill="#2677BC"/>
<path d="M16.5932 3.95769H16.4646V12.1837H16.5932V3.95769Z" fill="#2877BD"/>
<path d="M16.7224 3.95779H16.5938V12.1838H16.7224V3.95779Z" fill="#2978BD"/>
<path d="M16.8504 3.95769H16.7218V12.1837H16.8504V3.95769Z" fill="#2779BE"/>
<path d="M16.9811 3.95779H16.8525V12.1838H16.9811V3.95779Z" fill="#297ABF"/>
<path d="M17.1092 3.95769H16.9806V12.1837H17.1092V3.95769Z" fill="#297BC0"/>
<path d="M17.2377 3.95769H17.1091V12.1837H17.2377V3.95769Z" fill="#287CC0"/>
<path d="M17.3669 3.95779H17.2383V12.1838H17.3669V3.95779Z" fill="#2C7DC1"/>
<path d="M17.4958 3.95769H17.3672V12.1837H17.4958V3.95769Z" fill="#2D7EC2"/>
<path d="M17.6247 3.95779H17.4961V12.1838H17.6247V3.95779Z" fill="#2B7FC2"/>
<path d="M17.7546 3.95769H17.626V12.1837H17.7546V3.95769Z" fill="#2D80C3"/>
<path d="M17.8835 3.95779H17.7549V12.1838H17.8835V3.95779Z" fill="#2E81C4"/>
<path d="M18.0114 3.95779H17.8828V12.1838H18.0114V3.95779Z" fill="#2F82C4"/>
<path d="M18.1411 3.95769H18.0125V12.1837H18.1411V3.95769Z" fill="#3183C5"/>
<path d="M18.5192 3.95779H18.1416V12.1838H18.5192V3.95779Z" fill="#3183C5"/>
<path d="M18.8963 3.95769H18.5187V12.1837H18.8963V3.95769Z" fill="#3183C5"/>
<path d="M19.2739 3.95769H18.8962V12.1837H19.2739V3.95769Z" fill="#2E84C6"/>
<path d="M19.6523 3.95769H19.2747V12.1837H19.6523V3.95769Z" fill="#2E84C6"/>
<path d="M20.0283 3.95769H19.6506V12.1837H20.0283V3.95769Z" fill="#2D85C7"/>
<path d="M20.4058 3.95769H20.0282V12.1837H20.4058V3.95769Z" fill="#2E85C6"/>
<path d="M20.7839 3.95779H20.4062V12.1838H20.7839V3.95779Z" fill="#2E85C5"/>
<path d="M21.1611 3.95769H20.7834V12.1837H21.1611V3.95769Z" fill="#2D86C4"/>
<path d="M21.5387 3.95769H21.161V12.1837H21.5387V3.95769Z" fill="#2E86C3"/>
<path d="M21.9167 3.95779H21.5391V12.1838H21.9167V3.95779Z" fill="#2D87C3"/>
<path d="M22.2946 3.95769H21.917V12.1837H22.2946V3.95769Z" fill="#2D86C1"/>
<path d="M22.6706 3.95769H22.293V12.1837H22.6706V3.95769Z" fill="#2E86C0"/>
<path d="M23.0485 3.95779H22.6709V12.1838H23.0485V3.95779Z" fill="#2D87C0"/>
<path d="M23.4266 3.95769H23.049V12.1837H23.4266V3.95769Z" fill="#2D87BD"/>
<path d="M23.8034 3.95769H23.4258V12.1837H23.8034V3.95769Z" fill="#3087BC"/>
<path d="M24.1814 3.95779H23.8037V12.1838H24.1814V3.95779Z" fill="#2F88BB"/>
<path d="M24.5594 3.95769H24.1818V12.1837H24.5594V3.95769Z" fill="#3087B9"/>
<path d="M24.9354 3.95769H24.5577V12.1837H24.9354V3.95769Z" fill="#2E88B8"/>
<path d="M25.3129 3.95769H24.9353V12.1837H25.3129V3.95769Z" fill="#2D89B8"/>
<path d="M25.6911 3.95779H25.3135V12.1838H25.6911V3.95779Z" fill="#2E88B7"/>
<path d="M26.0682 3.95769H25.6906V12.1837H26.0682V3.95769Z" fill="#2C89B6"/>
<path d="M26.4458 3.95769H26.0681V12.1837H26.4458V3.95769Z" fill="#2C8AB5"/>
<path d="M26.8239 3.95779H26.4463V12.1838H26.8239V3.95779Z" fill="#2C89B4"/>
<path d="M27.201 3.95769H26.8234V12.1837H27.201V3.95769Z" fill="#2F89B2"/>
<path d="M27.5777 3.95769H27.2001V12.1837H27.5777V3.95769Z" fill="#2C8BB2"/>
<path d="M27.9558 3.95779H27.5781V12.1838H27.9558V3.95779Z" fill="#2D8BB1"/>
</g>
<mask id="mask2_178_4274" style="mask-type:luminance" maskUnits="userSpaceOnUse" x="23" y="0" width="12" height="32">
<path d="M25.8237 31.6402C26.5252 31.1424 27.3109 30.6469 28.0253 30.0599C31.6614 27.0752 33.7975 23.2393 34.3049 18.5415C34.6909 15.021 33.9597 11.4679 32.2155 8.38945C30.4713 5.31101 27.8035 2.86451 24.5926 1.39912C24.3962 1.30871 24.1951 1.23004 23.9975 1.14198C23.6596 0.99052 23.5181 0.672328 23.6467 0.356485C23.7753 0.0406412 24.1261 -0.0896859 24.4733 0.0653004C25.8752 0.680056 27.188 1.4822 28.376 2.44998C31.9455 5.38532 34.1167 9.12613 34.8065 13.7088C35.8892 20.8276 32.3512 28.0251 26.0985 31.4923C25.9932 31.5569 25.8798 31.6156 25.8237 31.6402Z" fill="white"/>
</mask>
<g mask="url(#mask2_178_4274)">
<path d="M25.0004 -0.0862122H23.5167V31.6437H25.0004V-0.0862122Z" fill="#0A478E"/>
<path d="M25.0726 -0.0862427H25.0001V31.6437H25.0726V-0.0862427Z" fill="#0A478E"/>
<path d="M25.1449 -0.0862427H25.0724V31.6437H25.1449V-0.0862427Z" fill="#074790"/>
<path d="M25.2169 -0.0862122H25.1444V31.6437H25.2169V-0.0862122Z" fill="#054891"/>
<path d="M25.2901 -0.0862122H25.2177V31.6437H25.2901V-0.0862122Z" fill="#004993"/>
<path d="M25.3626 -0.0862122H25.2902V31.6437H25.3626V-0.0862122Z" fill="#074A95"/>
<path d="M25.4359 -0.0862122H25.3634V31.6437H25.4359V-0.0862122Z" fill="#084B96"/>
<path d="M25.5072 -0.0862427H25.4347V31.6437H25.5072V-0.0862427Z" fill="#084C97"/>
<path d="M25.5804 -0.0862427H25.5079V31.6437H25.5804V-0.0862427Z" fill="#0A4D98"/>
<path d="M25.6527 -0.0862427H25.5802V31.6437H25.6527V-0.0862427Z" fill="#0D4E98"/>
<path d="M25.7247 -0.0862122H25.6522V31.6437H25.7247V-0.0862122Z" fill="#0D4F99"/>
<path d="M25.798 -0.0862122H25.7255V31.6437H25.798V-0.0862122Z" fill="#0D509A"/>
<path d="M25.8705 -0.0862122H25.798V31.6437H25.8705V-0.0862122Z" fill="#0F519B"/>
<path d="M25.9428 -0.0862122H25.8704V31.6437H25.9428V-0.0862122Z" fill="#0F529C"/>
<path d="M26.015 -0.0862427H25.9425V31.6437H26.015V-0.0862427Z" fill="#0F539E"/>
<path d="M26.0873 -0.0862427H26.0148V31.6437H26.0873V-0.0862427Z" fill="#0F549E"/>
<path d="M26.1593 -0.0862122H26.0868V31.6437H26.1593V-0.0862122Z" fill="#14559F"/>
<path d="M26.2325 -0.0862122H26.16V31.6437H26.2325V-0.0862122Z" fill="#1456A0"/>
<path d="M26.3058 -0.0862122H26.2333V31.6437H26.3058V-0.0862122Z" fill="#1357A2"/>
<path d="M26.3774 -0.0862122H26.3049V31.6437H26.3774V-0.0862122Z" fill="#1558A2"/>
<path d="M26.4507 -0.0862122H26.3782V31.6437H26.4507V-0.0862122Z" fill="#1559A3"/>
<path d="M26.5218 -0.0862427H26.4493V31.6437H26.5218V-0.0862427Z" fill="#155BA5"/>
<path d="M26.5951 -0.0862427H26.5226V31.6437H26.5951V-0.0862427Z" fill="#165BA6"/>
<path d="M26.6671 -0.0862122H26.5946V31.6437H26.6671V-0.0862122Z" fill="#175CA6"/>
<path d="M26.7403 -0.0862122H26.6678V31.6437H26.7403V-0.0862122Z" fill="#175DA7"/>
<path d="M26.812 -0.0862122H26.7395V31.6437H26.812V-0.0862122Z" fill="#195EA8"/>
<path d="M26.8844 -0.0862122H26.8119V31.6437H26.8844V-0.0862122Z" fill="#195FA8"/>
<path d="M26.9564 -0.0862427H26.8839V31.6437H26.9564V-0.0862427Z" fill="#1960A9"/>
<path d="M27.0287 -0.0862427H26.9562V31.6437H27.0287V-0.0862427Z" fill="#1761AA"/>
<path d="M27.1019 -0.0862427H27.0294V31.6437H27.1019V-0.0862427Z" fill="#1862AB"/>
<path d="M27.1741 -0.0862122H27.1016V31.6437H27.1741V-0.0862122Z" fill="#1A63AD"/>
<path d="M27.2466 -0.0862122H27.1741V31.6437H27.2466V-0.0862122Z" fill="#1C64AD"/>
<path d="M27.3189 -0.0862122H27.2465V31.6437H27.3189V-0.0862122Z" fill="#1B66AE"/>
<path d="M27.391 -0.0862427H27.3185V31.6437H27.391V-0.0862427Z" fill="#1D66AF"/>
<path d="M27.4632 -0.0862427H27.3907V31.6437H27.4632V-0.0862427Z" fill="#1D68B0"/>
<path d="M27.5365 -0.0862427H27.464V31.6437H27.5365V-0.0862427Z" fill="#1E68B1"/>
<path d="M27.6086 -0.0862122H27.5361V31.6437H27.6086V-0.0862122Z" fill="#1E6AB2"/>
<path d="M27.6811 -0.0862122H27.6086V31.6437H27.6811V-0.0862122Z" fill="#1D6AB3"/>
<path d="M27.7544 -0.0862122H27.6819V31.6437H27.7544V-0.0862122Z" fill="#1D6CB4"/>
<path d="M27.8268 -0.0862122H27.7543V31.6437H27.8268V-0.0862122Z" fill="#1E6DB5"/>
<path d="M27.8978 -0.0862427H27.8253V31.6437H27.8978V-0.0862427Z" fill="#1F6EB6"/>
<path d="M27.971 -0.0862427H27.8986V31.6437H27.971V-0.0862427Z" fill="#206FB7"/>
<path d="M28.0443 -0.0862427H27.9718V31.6437H28.0443V-0.0862427Z" fill="#1F70B7"/>
<path d="M28.1164 -0.0862122H28.0439V31.6437H28.1164V-0.0862122Z" fill="#2371B8"/>
<path d="M28.1888 -0.0862122H28.1163V31.6437H28.1888V-0.0862122Z" fill="#2372B9"/>
<path d="M28.2613 -0.0862122H28.1888V31.6437H28.2613V-0.0862122Z" fill="#2573B9"/>
<path d="M28.3334 -0.0862427H28.2609V31.6437H28.3334V-0.0862427Z" fill="#2473BA"/>
<path d="M28.4056 -0.0862427H28.3331V31.6437H28.4056V-0.0862427Z" fill="#2474BB"/>
<path d="M28.4789 -0.0862427H28.4064V31.6437H28.4789V-0.0862427Z" fill="#2675BB"/>
<path d="M28.551 -0.0862122H28.4785V31.6437H28.551V-0.0862122Z" fill="#2677BC"/>
<path d="M28.6234 -0.0862122H28.5509V31.6437H28.6234V-0.0862122Z" fill="#2877BD"/>
<path d="M28.6959 -0.0862122H28.6234V31.6437H28.6959V-0.0862122Z" fill="#2978BD"/>
<path d="M28.7679 -0.0862427H28.6954V31.6437H28.7679V-0.0862427Z" fill="#2779BE"/>
<path d="M28.8412 -0.0862427H28.7687V31.6437H28.8412V-0.0862427Z" fill="#297ABF"/>
<path d="M28.9134 -0.0862427H28.8409V31.6437H28.9134V-0.0862427Z" fill="#297BC0"/>
<path d="M28.9867 -0.0862427H28.9142V31.6437H28.9867V-0.0862427Z" fill="#287CC0"/>
<path d="M29.0588 -0.0862122H28.9863V31.6437H29.0588V-0.0862122Z" fill="#2C7DC1"/>
<path d="M29.1312 -0.0862122H29.0587V31.6437H29.1312V-0.0862122Z" fill="#2D7EC2"/>
<path d="M29.2037 -0.0862122H29.1312V31.6437H29.2037V-0.0862122Z" fill="#2B7FC2"/>
<path d="M29.2757 -0.0862427H29.2032V31.6437H29.2757V-0.0862427Z" fill="#2D80C3"/>
<path d="M29.348 -0.0862427H29.2755V31.6437H29.348V-0.0862427Z" fill="#2E81C4"/>
<path d="M29.4212 -0.0862427H29.3488V31.6437H29.4212V-0.0862427Z" fill="#2F82C4"/>
<path d="M29.4925 -0.0862122H29.42V31.6437H29.4925V-0.0862122Z" fill="#3183C5"/>
<path d="M29.7042 -0.0862122H29.4926V31.6437H29.7042V-0.0862122Z" fill="#3183C5"/>
<path d="M29.9168 -0.0862427H29.7052V31.6437H29.9168V-0.0862427Z" fill="#3183C5"/>
<path d="M30.1289 -0.0862122H29.9172V31.6437H30.1289V-0.0862122Z" fill="#2E84C6"/>
<path d="M30.3397 -0.0862122H30.1281V31.6437H30.3397V-0.0862122Z" fill="#2E84C6"/>
<path d="M30.5526 -0.0862427H30.3409V31.6437H30.5526V-0.0862427Z" fill="#2D85C7"/>
<path d="M30.7645 -0.0862122H30.5529V31.6437H30.7645V-0.0862122Z" fill="#2E85C6"/>
<path d="M30.9764 -0.0862427H30.7648V31.6437H30.9764V-0.0862427Z" fill="#2E85C5"/>
<path d="M31.1893 -0.0862122H30.9777V31.6437H31.1893V-0.0862122Z" fill="#2D86C4"/>
<path d="M31.4012 -0.0862427H31.1896V31.6437H31.4012V-0.0862427Z" fill="#2E86C3"/>
<path d="M31.6121 -0.0862427H31.4005V31.6437H31.6121V-0.0862427Z" fill="#2D87C3"/>
<path d="M31.8248 -0.0862122H31.6132V31.6437H31.8248V-0.0862122Z" fill="#2D86C1"/>
<path d="M32.036 -0.0862427H31.8243V31.6437H32.036V-0.0862427Z" fill="#2E86C0"/>
<path d="M32.248 -0.0862122H32.0364V31.6437H32.248V-0.0862122Z" fill="#2D87C0"/>
<path d="M32.4608 -0.0862427H32.2491V31.6437H32.4608V-0.0862427Z" fill="#2D87BD"/>
<path d="M32.6728 -0.0862122H32.4612V31.6437H32.6728V-0.0862122Z" fill="#3087BC"/>
<path d="M32.8844 -0.0862122H32.6727V31.6437H32.8844V-0.0862122Z" fill="#2F88BB"/>
<path d="M33.0965 -0.0862427H32.8849V31.6437H33.0965V-0.0862427Z" fill="#3087B9"/>
<path d="M33.3084 -0.0862122H33.0968V31.6437H33.3084V-0.0862122Z" fill="#2E88B8"/>
<path d="M33.5203 -0.0862427H33.3087V31.6437H33.5203V-0.0862427Z" fill="#2D89B8"/>
<path d="M33.7331 -0.0862122H33.5215V31.6437H33.7331V-0.0862122Z" fill="#2E88B7"/>
<path d="M33.9451 -0.0862427H33.7335V31.6437H33.9451V-0.0862427Z" fill="#2C89B6"/>
<path d="M34.1561 -0.0862427H33.9445V31.6437H34.1561V-0.0862427Z" fill="#2C8AB5"/>
<path d="M34.3687 -0.0862122H34.1571V31.6437H34.3687V-0.0862122Z" fill="#2C89B4"/>
<path d="M34.5799 -0.0862427H34.3683V31.6437H34.5799V-0.0862427Z" fill="#2F89B2"/>
<path d="M34.7927 -0.0862122H34.5811V31.6437H34.7927V-0.0862122Z" fill="#2C8BB2"/>
<path d="M35.0047 -0.0862427H34.7931V31.6437H35.0047V-0.0862427Z" fill="#2D8BB1"/>
</g>
<mask id="mask3_178_4274" style="mask-type:luminance" maskUnits="userSpaceOnUse" x="0" y="1" width="12" height="32">
<path d="M9.00444 1.46469C8.29124 1.98366 7.54413 2.46858 6.86367 3.03686C3.41226 5.91585 1.33112 9.58387 0.750043 14.0609C-0.211021 21.4579 3.67299 28.4722 10.4004 31.5943C10.5887 31.6823 10.7828 31.7586 10.9733 31.842C11.344 32.0029 11.496 32.3234 11.358 32.651C11.22 32.9786 10.8716 33.0889 10.5057 32.9246C8.68891 32.1185 7.02263 31.0066 5.57875 29.637C2.60981 26.8073 0.814348 23.3596 0.192345 19.294C-0.88096 12.2221 2.61137 5.05168 8.82438 1.56449C8.88401 1.52222 8.94832 1.49287 9.00444 1.46469Z" fill="white"/>
</mask>
<g mask="url(#mask3_178_4274)">
<path d="M1.40365 1.46494H-0.879761V33.0904H1.40365V1.46494Z" fill="#0A478E"/>
<path d="M1.47593 1.46519H1.40344V33.0906H1.47593V1.46519Z" fill="#0A478E"/>
<path d="M1.54795 1.46494H1.47546V33.0904H1.54795V1.46494Z" fill="#074790"/>
<path d="M1.62046 1.46494H1.54797V33.0904H1.62046V1.46494Z" fill="#054891"/>
<path d="M1.69285 1.46494H1.62036V33.0904H1.69285V1.46494Z" fill="#004993"/>
<path d="M1.765 1.46519H1.6925V33.0906H1.765V1.46519Z" fill="#074A95"/>
<path d="M1.83726 1.46519H1.76477V33.0906H1.83726V1.46519Z" fill="#084B96"/>
<path d="M1.90928 1.46494H1.83679V33.0904H1.90928V1.46494Z" fill="#084C97"/>
<path d="M1.98252 1.46494H1.91003V33.0904H1.98252V1.46494Z" fill="#0A4D98"/>
<path d="M2.05503 1.46494H1.98254V33.0904H2.05503V1.46494Z" fill="#0D4E98"/>
<path d="M2.12742 1.46494H2.05493V33.0904H2.12742V1.46494Z" fill="#0D4F99"/>
<path d="M2.19957 1.46519H2.12708V33.0906H2.19957V1.46519Z" fill="#0D509A"/>
<path d="M2.27183 1.46519H2.19934V33.0906H2.27183V1.46519Z" fill="#0F519B"/>
<path d="M2.34507 1.46519H2.27258V33.0906H2.34507V1.46519Z" fill="#0F529C"/>
<path d="M2.41709 1.46494H2.3446V33.0904H2.41709V1.46494Z" fill="#0F539E"/>
<path d="M2.49034 1.46494H2.41785V33.0904H2.49034V1.46494Z" fill="#0F549E"/>
<path d="M2.56284 1.46494H2.49036V33.0904H2.56284V1.46494Z" fill="#14559F"/>
<path d="M2.63523 1.46494H2.56274V33.0904H2.63523V1.46494Z" fill="#1456A0"/>
<path d="M2.70738 1.46519H2.63489V33.0906H2.70738V1.46519Z" fill="#1357A2"/>
<path d="M2.77964 1.46519H2.70715V33.0906H2.77964V1.46519Z" fill="#1558A2"/>
<path d="M2.85167 1.46494H2.77917V33.0904H2.85167V1.46494Z" fill="#1559A3"/>
<path d="M2.92491 1.46494H2.85242V33.0904H2.92491V1.46494Z" fill="#155BA5"/>
<path d="M2.99729 1.46494H2.9248V33.0904H2.99729V1.46494Z" fill="#165BA6"/>
<path d="M3.0698 1.46494H2.99731V33.0904H3.0698V1.46494Z" fill="#175CA6"/>
<path d="M3.14195 1.46519H3.06946V33.0906H3.14195V1.46519Z" fill="#175DA7"/>
<path d="M3.21421 1.46519H3.14172V33.0906H3.21421V1.46519Z" fill="#195EA8"/>
<path d="M3.28746 1.46519H3.21497V33.0906H3.28746V1.46519Z" fill="#195FA8"/>
<path d="M3.35948 1.46494H3.28699V33.0904H3.35948V1.46494Z" fill="#1960A9"/>
<path d="M3.43272 1.46494H3.36023V33.0904H3.43272V1.46494Z" fill="#1761AA"/>
<path d="M3.50511 1.46494H3.43262V33.0904H3.50511V1.46494Z" fill="#1862AB"/>
<path d="M3.57652 1.46519H3.50403V33.0906H3.57652V1.46519Z" fill="#1A63AD"/>
<path d="M3.64976 1.46519H3.57727V33.0906H3.64976V1.46519Z" fill="#1C64AD"/>
<path d="M3.72202 1.46519H3.64954V33.0906H3.72202V1.46519Z" fill="#1B66AE"/>
<path d="M3.79405 1.46494H3.72156V33.0904H3.79405V1.46494Z" fill="#1D66AF"/>
<path d="M3.86729 1.46494H3.7948V33.0904H3.86729V1.46494Z" fill="#1D68B0"/>
<path d="M3.93968 1.46494H3.86719V33.0904H3.93968V1.46494Z" fill="#1E68B1"/>
<path d="M4.01219 1.46494H3.9397V33.0904H4.01219V1.46494Z" fill="#1E6AB2"/>
<path d="M4.08457 1.46518H4.01208V33.0906H4.08457V1.46518Z" fill="#1D6AB3"/>
<path d="M4.15659 1.46519H4.08411V33.0906H4.15659V1.46519Z" fill="#1D6CB4"/>
<path d="M4.22984 1.46519H4.15735V33.0906H4.22984V1.46519Z" fill="#1E6DB5"/>
<path d="M4.3021 1.465H4.22961V33.0904H4.3021V1.465Z" fill="#1F6EB6"/>
<path d="M4.37534 1.465H4.30286V33.0904H4.37534V1.465Z" fill="#206FB7"/>
<path d="M4.44749 1.46494H4.375V33.0904H4.44749V1.46494Z" fill="#1F70B7"/>
<path d="M4.52 1.46494H4.44751V33.0904H4.52V1.46494Z" fill="#2371B8"/>
<path d="M4.59239 1.46518H4.5199V33.0906H4.59239V1.46518Z" fill="#2372B9"/>
<path d="M4.66441 1.46519H4.59192V33.0906H4.66441V1.46519Z" fill="#2573B9"/>
<path d="M4.73667 1.465H4.66418V33.0904H4.73667V1.465Z" fill="#2473BA"/>
<path d="M4.80992 1.465H4.73743V33.0904H4.80992V1.465Z" fill="#2474BB"/>
<path d="M4.88206 1.46494H4.80957V33.0904H4.88206V1.46494Z" fill="#2675BB"/>
<path d="M4.95445 1.46494H4.88196V33.0904H4.95445V1.46494Z" fill="#2677BC"/>
<path d="M5.02696 1.46518H4.95447V33.0906H5.02696V1.46518Z" fill="#2877BD"/>
<path d="M5.09898 1.46519H5.02649V33.0906H5.09898V1.46519Z" fill="#2978BD"/>
<path d="M5.17124 1.465H5.09875V33.0904H5.17124V1.465Z" fill="#2779BE"/>
<path d="M5.24449 1.465H5.172V33.0904H5.24449V1.465Z" fill="#297ABF"/>
<path d="M5.31663 1.46494H5.24414V33.0904H5.31663V1.46494Z" fill="#297BC0"/>
<path d="M5.38987 1.46494H5.31738V33.0904H5.38987V1.46494Z" fill="#287CC0"/>
<path d="M5.46226 1.46494H5.38977V33.0904H5.46226V1.46494Z" fill="#2C7DC1"/>
<path d="M5.53477 1.46518H5.46228V33.0906H5.53477V1.46518Z" fill="#2D7EC2"/>
<path d="M5.60679 1.46519H5.5343V33.0906H5.60679V1.46519Z" fill="#2B7FC2"/>
<path d="M5.67906 1.465H5.60657V33.0904H5.67906V1.465Z" fill="#2D80C3"/>
<path d="M5.7523 1.465H5.67981V33.0904H5.7523V1.465Z" fill="#2E81C4"/>
<path d="M5.82444 1.46494H5.75195V33.0904H5.82444V1.46494Z" fill="#2F82C4"/>
<path d="M5.89683 1.46494H5.82434V33.0904H5.89683V1.46494Z" fill="#3183C5"/>
<path d="M6.10847 1.46518H5.89685V33.0906H6.10847V1.46518Z" fill="#3183C5"/>
<path d="M6.32002 1.46494H6.1084V33.0904H6.32002V1.46494Z" fill="#3183C5"/>
<path d="M6.53206 1.46519H6.32043V33.0906H6.53206V1.46519Z" fill="#2E84C6"/>
<path d="M6.74482 1.46494H6.5332V33.0904H6.74482V1.46494Z" fill="#2E84C6"/>
<path d="M6.95588 1.465H6.74426V33.0904H6.95588V1.465Z" fill="#2D85C7"/>
<path d="M7.16792 1.46518H6.9563V33.0906H7.16792V1.46518Z" fill="#2E85C6"/>
<path d="M7.38069 1.465H7.16907V33.0904H7.38069V1.465Z" fill="#2E85C5"/>
<path d="M7.59163 1.46519H7.38V33.0906H7.59163V1.46519Z" fill="#2D86C4"/>
<path d="M7.80439 1.46494H7.59277V33.0904H7.80439V1.46494Z" fill="#2E86C3"/>
<path d="M8.01545 1.46519H7.80383V33.0906H8.01545V1.46519Z" fill="#2D87C3"/>
<path d="M8.22834 1.46494H8.01672V33.0904H8.22834V1.46494Z" fill="#2D86C1"/>
<path d="M8.44026 1.46519H8.22864V33.0906H8.44026V1.46519Z" fill="#2E86C0"/>
<path d="M8.65315 1.46494H8.44153V33.0904H8.65315V1.46494Z" fill="#2D87C0"/>
<path d="M8.86506 1.46519H8.65344V33.0906H8.86506V1.46519Z" fill="#2D87BD"/>
<path d="M9.0771 1.46518H8.86548V33.0906H9.0771V1.46518Z" fill="#3087BC"/>
<path d="M9.28865 1.46494H9.07703V33.0904H9.28865V1.46494Z" fill="#2F88BB"/>
<path d="M9.49983 1.46519H9.28821V33.0906H9.49983V1.46519Z" fill="#3087B9"/>
<path d="M9.71345 1.46494H9.50183V33.0904H9.71345V1.46494Z" fill="#2E88B8"/>
<path d="M9.92463 1.46519H9.71301V33.0906H9.92463V1.46519Z" fill="#2D89B8"/>
<path d="M10.1367 1.46518H9.92505V33.0906H10.1367V1.46518Z" fill="#2E88B7"/>
<path d="M10.3494 1.46519H10.1378V33.0906H10.3494V1.46519Z" fill="#2C89B6"/>
<path d="M10.5594 1.46519H10.3478V33.0906H10.5594V1.46519Z" fill="#2C8AB5"/>
<path d="M10.7722 1.46494H10.5605V33.0904H10.7722V1.46494Z" fill="#2C89B4"/>
<path d="M10.9842 1.46519H10.7726V33.0906H10.9842V1.46519Z" fill="#2F89B2"/>
<path d="M11.197 1.46494H10.9854V33.0904H11.197V1.46494Z" fill="#2C8BB2"/>
<path d="M11.409 1.46519H11.1974V33.0906H11.409V1.46519Z" fill="#2D8BB1"/>
</g>
<mask id="mask4_178_4274" style="mask-type:luminance" maskUnits="userSpaceOnUse" x="1" y="6" width="17" height="27">
<path d="M5.79104 6.30815C4.75096 7.61661 3.90614 9.07017 3.28316 10.6231C0.584697 17.4261 3.09258 25.2411 9.24596 29.1581C11.4698 30.5829 14.0309 31.3881 16.6667 31.4911C17.0315 31.5075 17.27 31.7365 17.2513 32.0511C17.2326 32.3658 16.9929 32.5666 16.6165 32.5513C16.544 32.5513 16.4726 32.5443 16.4002 32.5384C14.789 32.3952 13.2188 32.0558 11.7328 31.4112C6.30081 29.0524 2.97917 24.9535 2.02863 19.0828C1.27217 14.3945 2.5571 10.1934 5.57708 6.53476C5.65191 6.45844 5.72323 6.38447 5.79104 6.30815Z" fill="white"/>
</mask>
<g mask="url(#mask4_178_4274)">
<path d="M3.72316 6.30815H0.585083V32.5678H3.72316V6.30815Z" fill="#0A478E"/>
<path d="M3.82099 6.3082H3.72278V32.5678H3.82099V6.3082Z" fill="#0A478E"/>
<path d="M3.91865 6.3082H3.82043V32.5678H3.91865V6.3082Z" fill="#074790"/>
<path d="M4.0163 6.3082H3.91809V32.5678H4.0163V6.3082Z" fill="#054891"/>
<path d="M4.11518 6.30815H4.01697V32.5678H4.11518V6.30815Z" fill="#004993"/>
<path d="M4.21369 6.30815H4.11548V32.5678H4.21369V6.30815Z" fill="#074A95"/>
<path d="M4.31135 6.30815H4.21313V32.5678H4.31135V6.30815Z" fill="#084B96"/>
<path d="M4.40815 6.30815H4.30994V32.5678H4.40815V6.30815Z" fill="#084C97"/>
<path d="M4.50666 6.30815H4.40845V32.5678H4.50666V6.30815Z" fill="#0A4D98"/>
<path d="M4.60505 6.30815H4.50684V32.5678H4.60505V6.30815Z" fill="#0D4E98"/>
<path d="M4.7027 6.30815H4.60449V32.5678H4.7027V6.30815Z" fill="#0D4F99"/>
<path d="M4.80146 6.3082H4.70325V32.5678H4.80146V6.3082Z" fill="#0D509A"/>
<path d="M4.90009 6.3082H4.80188V32.5678H4.90009V6.3082Z" fill="#0F519B"/>
<path d="M4.99775 6.3082H4.89954V32.5678H4.99775V6.3082Z" fill="#0F529C"/>
<path d="M5.0954 6.3082H4.99719V32.5678H5.0954V6.3082Z" fill="#0F539E"/>
<path d="M5.19306 6.3082H5.09485V32.5678H5.19306V6.3082Z" fill="#0F549E"/>
<path d="M5.29072 6.3082H5.1925V32.5678H5.29072V6.3082Z" fill="#14559F"/>
<path d="M5.38959 6.30815H5.29138V32.5678H5.38959V6.30815Z" fill="#1456A0"/>
<path d="M5.48798 6.30815H5.38977V32.5678H5.48798V6.30815Z" fill="#1357A2"/>
<path d="M5.58564 6.30815H5.48743V32.5678H5.58564V6.30815Z" fill="#1558A2"/>
<path d="M5.6833 6.30815H5.58508V32.5678H5.6833V6.30815Z" fill="#1559A3"/>
<path d="M5.78095 6.30815H5.68274V32.5678H5.78095V6.30815Z" fill="#155BA5"/>
<path d="M5.87946 6.30815H5.78125V32.5678H5.87946V6.30815Z" fill="#165BA6"/>
<path d="M5.97712 6.30815H5.87891V32.5678H5.97712V6.30815Z" fill="#175CA6"/>
<path d="M6.07587 6.3082H5.97766V32.5678H6.07587V6.3082Z" fill="#175DA7"/>
<path d="M6.17451 6.3082H6.07629V32.5678H6.17451V6.3082Z" fill="#195EA8"/>
<path d="M6.27216 6.3082H6.17395V32.5678H6.27216V6.3082Z" fill="#195FA8"/>
<path d="M6.36982 6.3082H6.27161V32.5678H6.36982V6.3082Z" fill="#1960A9"/>
<path d="M6.46747 6.3082H6.36926V32.5678H6.46747V6.3082Z" fill="#1761AA"/>
<path d="M6.56635 6.30815H6.46814V32.5678H6.56635V6.30815Z" fill="#1862AB"/>
<path d="M6.66401 6.30815H6.5658V32.5678H6.66401V6.30815Z" fill="#1A63AD"/>
<path d="M6.76166 6.30815H6.66345V32.5678H6.76166V6.30815Z" fill="#1C64AD"/>
<path d="M6.86005 6.30815H6.76184V32.5678H6.86005V6.30815Z" fill="#1B66AE"/>
<path d="M6.95685 6.30815H6.85864V32.5678H6.95685V6.30815Z" fill="#1D66AF"/>
<path d="M7.05536 6.30815H6.95715V32.5678H7.05536V6.30815Z" fill="#1D68B0"/>
<path d="M7.15387 6.30815H7.05566V32.5678H7.15387V6.30815Z" fill="#1E68B1"/>
<path d="M7.25263 6.3082H7.15442V32.5678H7.25263V6.3082Z" fill="#1E6AB2"/>
<path d="M7.35029 6.3082H7.25208V32.5678H7.35029V6.3082Z" fill="#1D6AB3"/>
<path d="M7.44892 6.3082H7.35071V32.5678H7.44892V6.3082Z" fill="#1D6CB4"/>
<path d="M7.54657 6.3082H7.44836V32.5678H7.54657V6.3082Z" fill="#1E6DB5"/>
<path d="M7.64423 6.3082H7.54602V32.5678H7.64423V6.3082Z" fill="#1F6EB6"/>
<path d="M7.74189 6.3082H7.64368V32.5678H7.74189V6.3082Z" fill="#206FB7"/>
<path d="M7.83857 6.3082H7.74036V32.5678H7.83857V6.3082Z" fill="#1F70B7"/>
<path d="M7.9383 6.30815H7.84009V32.5678H7.9383V6.30815Z" fill="#2371B8"/>
<path d="M8.03681 6.30815H7.9386V32.5678H8.03681V6.30815Z" fill="#2372B9"/>
<path d="M8.13447 6.30815H8.03625V32.5678H8.13447V6.30815Z" fill="#2573B9"/>
<path d="M8.23298 6.30815H8.13477V32.5678H8.23298V6.30815Z" fill="#2473BA"/>
<path d="M8.32978 6.30815H8.23157V32.5678H8.32978V6.30815Z" fill="#2474BB"/>
<path d="M8.42829 6.30815H8.33008V32.5678H8.42829V6.30815Z" fill="#2675BB"/>
<path d="M8.52594 6.30815H8.42773V32.5678H8.52594V6.30815Z" fill="#2677BC"/>
<path d="M8.6247 6.3082H8.52649V32.5678H8.6247V6.3082Z" fill="#2877BD"/>
<path d="M8.72236 6.3082H8.62415V32.5678H8.72236V6.3082Z" fill="#2978BD"/>
<path d="M8.82001 6.3082H8.7218V32.5678H8.82001V6.3082Z" fill="#2779BE"/>
<path d="M8.91767 6.3082H8.81946V32.5678H8.91767V6.3082Z" fill="#297ABF"/>
<path d="M9.01532 6.3082H8.91711V32.5678H9.01532V6.3082Z" fill="#297BC0"/>
<path d="M9.11298 6.3082H9.01477V32.5678H9.11298V6.3082Z" fill="#287CC0"/>
<path d="M9.21271 6.30815H9.1145V32.5678H9.21271V6.30815Z" fill="#2C7DC1"/>
<path d="M9.31122 6.30815H9.21301V32.5678H9.31122V6.30815Z" fill="#2D7EC2"/>
<path d="M9.40888 6.30815H9.31067V32.5678H9.40888V6.30815Z" fill="#2B7FC2"/>
<path d="M9.50727 6.30815H9.40906V32.5678H9.50727V6.30815Z" fill="#2D80C3"/>
<path d="M9.60419 6.30815H9.50598V32.5678H9.60419V6.30815Z" fill="#2E81C4"/>
<path d="M9.70258 6.30815H9.60437V32.5678H9.70258V6.30815Z" fill="#2F82C4"/>
<path d="M9.80146 6.3082H9.70325V32.5678H9.80146V6.3082Z" fill="#3183C5"/>
<path d="M10.0873 6.3082H9.8009V32.5678H10.0873V6.3082Z" fill="#3183C5"/>
<path d="M10.3735 6.30815H10.087V32.5678H10.3735V6.30815Z" fill="#3183C5"/>
<path d="M10.6616 6.30815H10.3751V32.5678H10.6616V6.30815Z" fill="#2E84C6"/>
<path d="M10.9467 6.3082H10.6603V32.5678H10.9467V6.3082Z" fill="#2E84C6"/>
<path d="M11.2348 6.3082H10.9484V32.5678H11.2348V6.3082Z" fill="#2D85C7"/>
<path d="M11.5217 6.30815H11.2352V32.5678H11.5217V6.30815Z" fill="#2E85C6"/>
<path d="M11.8082 6.30815H11.5217V32.5678H11.8082V6.30815Z" fill="#2E85C5"/>
<path d="M12.0942 6.3082H11.8077V32.5678H12.0942V6.3082Z" fill="#2D86C4"/>
<path d="M12.3813 6.3082H12.0948V32.5678H12.3813V6.3082Z" fill="#2E86C3"/>
<path d="M12.6694 6.3082H12.3829V32.5678H12.6694V6.3082Z" fill="#2D87C3"/>
<path d="M12.9555 6.30815H12.6691V32.5678H12.9555V6.30815Z" fill="#2D86C1"/>
<path d="M13.2417 6.3082H12.9552V32.5678H13.2417V6.3082Z" fill="#2E86C0"/>
<path d="M13.5297 6.3082H13.2433V32.5678H13.5297V6.3082Z" fill="#2D87C0"/>
<path d="M13.8157 6.30815H13.5293V32.5678H13.8157V6.30815Z" fill="#2D87BD"/>
<path d="M14.101 6.3082H13.8146V32.5678H14.101V6.3082Z" fill="#3087BC"/>
<path d="M14.3891 6.3082H14.1027V32.5678H14.3891V6.3082Z" fill="#2F88BB"/>
<path d="M14.6762 6.3082H14.3898V32.5678H14.6762V6.3082Z" fill="#3087B9"/>
<path d="M14.9624 6.30815H14.6759V32.5678H14.9624V6.30815Z" fill="#2E88B8"/>
<path d="M15.2504 6.30815H14.964V32.5678H15.2504V6.30815Z" fill="#2D89B8"/>
<path d="M15.5366 6.3082H15.2501V32.5678H15.5366V6.3082Z" fill="#2E88B7"/>
<path d="M15.8237 6.3082H15.5372V32.5678H15.8237V6.3082Z" fill="#2C89B6"/>
<path d="M16.1107 6.30815H15.8242V32.5678H16.1107V6.30815Z" fill="#2C8AB5"/>
<path d="M16.3959 6.3082H16.1095V32.5678H16.3959V6.3082Z" fill="#2C89B4"/>
<path d="M16.6831 6.3082H16.3966V32.5678H16.6831V6.3082Z" fill="#2F89B2"/>
<path d="M16.9711 6.3082H16.6847V32.5678H16.9711V6.3082Z" fill="#2C8BB2"/>
<path d="M17.2573 6.30815H16.9708V32.5678H17.2573V6.30815Z" fill="#2D8BB1"/>
</g>
<mask id="mask5_178_4274" style="mask-type:luminance" maskUnits="userSpaceOnUse" x="17" y="0" width="17" height="27">
<path d="M29.4312 26.3988C29.7598 25.9292 30.0708 25.5089 30.3491 25.0709C35 17.7701 32.7915 8.30888 25.7366 3.83307C23.5184 2.41543 20.9654 1.61404 18.3381 1.51062C17.9955 1.49536 17.7816 1.31689 17.7535 1.0257C17.7412 0.900517 17.7742 0.775069 17.8466 0.6724C17.919 0.569731 18.0258 0.496731 18.1475 0.466811C18.2744 0.449173 18.403 0.449173 18.5298 0.466811C20.5608 0.61937 22.5422 1.17067 24.3617 2.08947C28.5403 4.22406 31.3557 7.54217 32.5822 12.0849C33.9922 17.3063 32.9189 22.0651 29.5669 26.3014C29.5517 26.3201 29.5353 26.3378 29.5178 26.3542C29.4897 26.3706 29.4609 26.3855 29.4312 26.3988Z" fill="white"/>
</mask>
<g mask="url(#mask5_178_4274)">
<path d="M19.6473 0.442276H17.7275V26.399H19.6473V0.442276Z" fill="#0A478E"/>
<path d="M19.7457 0.4422H19.6475V26.3989H19.7457V0.4422Z" fill="#0A478E"/>
<path d="M19.8443 0.4422H19.7461V26.3989H19.8443V0.4422Z" fill="#074790"/>
<path d="M19.942 0.4422H19.8438V26.3989H19.942V0.4422Z" fill="#054891"/>
<path d="M20.0396 0.4422H19.9414V26.3989H20.0396V0.4422Z" fill="#004993"/>
<path d="M20.1385 0.442276H20.0403V26.399H20.1385V0.442276Z" fill="#074A95"/>
<path d="M20.2369 0.442276H20.1387V26.399H20.2369V0.442276Z" fill="#084B96"/>
<path d="M20.3345 0.442276H20.2363V26.399H20.3345V0.442276Z" fill="#084C97"/>
<path d="M20.4315 0.442276H20.3333V26.399H20.4315V0.442276Z" fill="#0A4D98"/>
<path d="M20.5299 0.442276H20.4316V26.399H20.5299V0.442276Z" fill="#0D4E98"/>
<path d="M20.6284 0.442276H20.5302V26.399H20.6284V0.442276Z" fill="#0D4F99"/>
<path d="M20.726 0.442276H20.6278V26.399H20.726V0.442276Z" fill="#0D509A"/>
<path d="M20.8248 0.4422H20.7266V26.3989H20.8248V0.4422Z" fill="#0F519B"/>
<path d="M20.9234 0.4422H20.8252V26.3989H20.9234V0.4422Z" fill="#0F529C"/>
<path d="M21.0211 0.4422H20.9229V26.3989H21.0211V0.4422Z" fill="#0F539E"/>
<path d="M21.1187 0.4422H21.0205V26.3989H21.1187V0.4422Z" fill="#0F549E"/>
<path d="M21.2164 0.4422H21.1182V26.3989H21.2164V0.4422Z" fill="#14559F"/>
<path d="M21.314 0.4422H21.2158V26.3989H21.314V0.4422Z" fill="#1456A0"/>
<path d="M21.4129 0.442276H21.3147V26.399H21.4129V0.442276Z" fill="#1357A2"/>
<path d="M21.5106 0.442276H21.4124V26.399H21.5106V0.442276Z" fill="#1558A2"/>
<path d="M21.609 0.442276H21.5107V26.399H21.609V0.442276Z" fill="#1559A3"/>
<path d="M21.7075 0.442276H21.6093V26.399H21.7075V0.442276Z" fill="#155BA5"/>
<path d="M21.8051 0.442276H21.7069V26.399H21.8051V0.442276Z" fill="#165BA6"/>
<path d="M21.9039 0.4422H21.8057V26.3989H21.9039V0.4422Z" fill="#175CA6"/>
<path d="M22.0004 0.442276H21.9022V26.399H22.0004V0.442276Z" fill="#175DA7"/>
<path d="M22.0992 0.4422H22.001V26.3989H22.0992V0.4422Z" fill="#195EA8"/>
<path d="M22.1978 0.4422H22.0996V26.3989H22.1978V0.4422Z" fill="#195FA8"/>
<path d="M22.2955 0.4422H22.1973V26.3989H22.2955V0.4422Z" fill="#1960A9"/>
<path d="M22.3931 0.4422H22.2949V26.3989H22.3931V0.4422Z" fill="#1761AA"/>
<path d="M22.4919 0.442276H22.3937V26.399H22.4919V0.442276Z" fill="#1862AB"/>
<path d="M22.5895 0.442276H22.4913V26.399H22.5895V0.442276Z" fill="#1A63AD"/>
<path d="M22.6881 0.442276H22.5898V26.399H22.6881V0.442276Z" fill="#1C64AD"/>
<path d="M22.7849 0.442276H22.6866V26.399H22.7849V0.442276Z" fill="#1B66AE"/>
<path d="M22.8834 0.442276H22.7852V26.399H22.8834V0.442276Z" fill="#1D66AF"/>
<path d="M22.9819 0.442276H22.8837V26.399H22.9819V0.442276Z" fill="#1D68B0"/>
<path d="M23.0806 0.4422H22.9824V26.3989H23.0806V0.4422Z" fill="#1E68B1"/>
<path d="M23.1783 0.4422H23.0801V26.3989H23.1783V0.4422Z" fill="#1E6AB2"/>
<path d="M23.2759 0.4422H23.1777V26.3989H23.2759V0.4422Z" fill="#1D6AB3"/>
<path d="M23.3736 0.4422H23.2754V26.3989H23.3736V0.4422Z" fill="#1D6CB4"/>
<path d="M23.4713 0.4422H23.373V26.3989H23.4713V0.4422Z" fill="#1E6DB5"/>
<path d="M23.5689 0.4422H23.4707V26.3989H23.5689V0.4422Z" fill="#1F6EB6"/>
<path d="M23.6666 0.4422H23.5684V26.3989H23.6666V0.4422Z" fill="#206FB7"/>
<path d="M23.7663 0.442276H23.6681V26.399H23.7663V0.442276Z" fill="#1F70B7"/>
<path d="M23.8648 0.442276H23.7666V26.399H23.8648V0.442276Z" fill="#2371B8"/>
<path d="M23.9625 0.442276H23.8643V26.399H23.9625V0.442276Z" fill="#2372B9"/>
<path d="M24.0609 0.442276H23.9626V26.399H24.0609V0.442276Z" fill="#2573B9"/>
<path d="M24.1597 0.4422H24.0615V26.3989H24.1597V0.4422Z" fill="#2473BA"/>
<path d="M24.2562 0.442276H24.158V26.399H24.2562V0.442276Z" fill="#2474BB"/>
<path d="M24.3538 0.442276H24.2556V26.399H24.3538V0.442276Z" fill="#2675BB"/>
<path d="M24.4527 0.4422H24.3545V26.3989H24.4527V0.4422Z" fill="#2677BC"/>
<path d="M24.5504 0.4422H24.4521V26.3989H24.5504V0.4422Z" fill="#2877BD"/>
<path d="M24.648 0.4422H24.5498V26.3989H24.648V0.4422Z" fill="#2978BD"/>
<path d="M24.7457 0.4422H24.6475V26.3989H24.7457V0.4422Z" fill="#2779BE"/>
<path d="M24.8454 0.442276H24.7472V26.399H24.8454V0.442276Z" fill="#297ABF"/>
<path d="M24.9439 0.442276H24.8457V26.399H24.9439V0.442276Z" fill="#297BC0"/>
<path d="M25.0407 0.442276H24.9425V26.399H25.0407V0.442276Z" fill="#287CC0"/>
<path d="M25.1392 0.442276H25.041V26.399H25.1392V0.442276Z" fill="#2C7DC1"/>
<path d="M25.2369 0.442276H25.1387V26.399H25.2369V0.442276Z" fill="#2D7EC2"/>
<path d="M25.3353 0.442276H25.2371V26.399H25.3353V0.442276Z" fill="#2B7FC2"/>
<path d="M25.4341 0.4422H25.3359V26.3989H25.4341V0.4422Z" fill="#2D80C3"/>
<path d="M25.5318 0.4422H25.4336V26.3989H25.5318V0.4422Z" fill="#2E81C4"/>
<path d="M25.6295 0.4422H25.5312V26.3989H25.6295V0.4422Z" fill="#2F82C4"/>
<path d="M25.7271 0.4422H25.6289V26.3989H25.7271V0.4422Z" fill="#3183C5"/>
<path d="M26.013 0.4422H25.7266V26.3989H26.013V0.4422Z" fill="#3183C5"/>
<path d="M26.3011 0.4422H26.0146V26.3989H26.3011V0.4422Z" fill="#3183C5"/>
<path d="M26.588 0.442276H26.3015V26.399H26.588V0.442276Z" fill="#2E84C6"/>
<path d="M26.8752 0.442276H26.5887V26.399H26.8752V0.442276Z" fill="#2E84C6"/>
<path d="M27.1605 0.4422H26.874V26.3989H27.1605V0.4422Z" fill="#2D85C7"/>
<path d="M27.4486 0.4422H27.1621V26.3989H27.4486V0.4422Z" fill="#2E85C6"/>
<path d="M27.7357 0.4422H27.4492V26.3989H27.7357V0.4422Z" fill="#2E85C5"/>
<path d="M28.0219 0.442276H27.7355V26.399H28.0219V0.442276Z" fill="#2D86C4"/>
<path d="M28.3099 0.442276H28.0234V26.399H28.3099V0.442276Z" fill="#2E86C3"/>
<path d="M28.596 0.4422H28.3096V26.3989H28.596V0.4422Z" fill="#2D87C3"/>
<path d="M28.8831 0.4422H28.5967V26.3989H28.8831V0.4422Z" fill="#2D86C1"/>
<path d="M29.1701 0.442276H28.8837V26.399H29.1701V0.442276Z" fill="#2E86C0"/>
<path d="M29.4554 0.4422H29.1689V26.3989H29.4554V0.4422Z" fill="#2D87C0"/>
<path d="M29.7435 0.4422H29.457V26.3989H29.7435V0.4422Z" fill="#2D87BD"/>
<path d="M30.0316 0.4422H29.7451V26.3989H30.0316V0.4422Z" fill="#3087BC"/>
<path d="M30.3176 0.442276H30.0311V26.399H30.3176V0.442276Z" fill="#2F88BB"/>
<path d="M30.6048 0.442276H30.3184V26.399H30.6048V0.442276Z" fill="#3087B9"/>
<path d="M30.8909 0.4422H30.6045V26.3989H30.8909V0.4422Z" fill="#2E88B8"/>
<path d="M31.1781 0.4422H30.8916V26.3989H31.1781V0.4422Z" fill="#2D89B8"/>
<path d="M31.465 0.442276H31.1786V26.399H31.465V0.442276Z" fill="#2E88B7"/>
<path d="M31.7503 0.4422H31.4639V26.3989H31.7503V0.4422Z" fill="#2C89B6"/>
<path d="M32.0384 0.4422H31.752V26.3989H32.0384V0.4422Z" fill="#2C8AB5"/>
<path d="M32.3255 0.4422H32.0391V26.3989H32.3255V0.4422Z" fill="#2C89B4"/>
<path d="M32.6136 0.4422H32.3271V26.3989H32.6136V0.4422Z" fill="#2F89B2"/>
<path d="M32.8997 0.442276H32.6133V26.399H32.8997V0.442276Z" fill="#2C8BB2"/>
<path d="M33.1859 0.4422H32.8994V26.3989H33.1859V0.4422Z" fill="#2D8BB1"/>
</g>
<mask id="mask6_178_4274" style="mask-type:luminance" maskUnits="userSpaceOnUse" x="12" y="2" width="20" height="20">
<path d="M30.6618 21.1246C30.8161 20.473 30.9821 19.8707 31.0991 19.2578C32.5477 11.7245 27.5155 4.42252 19.9779 3.12509C17.904 2.76322 15.7743 2.8988 13.7625 3.52078C13.6935 3.54191 13.6245 3.56539 13.5556 3.583C13.4947 3.60311 13.4305 3.61078 13.3666 3.60553C13.3028 3.60029 13.2406 3.58225 13.1838 3.55248C13.1271 3.52271 13.0768 3.48181 13.036 3.4322C12.9952 3.38259 12.9648 3.32527 12.9464 3.26364C12.9279 3.20147 12.9224 3.13612 12.9302 3.0717C12.9381 3.00729 12.9592 2.94521 12.9921 2.88939C13.0251 2.83357 13.0692 2.78521 13.1217 2.74737C13.1742 2.70952 13.234 2.68302 13.2972 2.66953C13.7438 2.55211 14.1939 2.4347 14.6487 2.34429C20.5192 1.25351 26.3405 3.80492 29.4529 8.91946C31.7257 12.6579 32.1174 16.6559 30.7916 20.8264C30.7705 20.8945 30.7413 20.9614 30.7156 21.0284C30.7027 21.0518 30.6899 21.073 30.6618 21.1246Z" fill="white"/>
</mask>
<g mask="url(#mask6_178_4274)">
<path d="M15.2149 1.25389H12.873V21.1262H15.2149V1.25389Z" fill="#0A478E"/>
<path d="M15.3329 1.2538H15.2148V21.1261H15.3329V1.2538Z" fill="#0A478E"/>
<path d="M15.4512 1.25389H15.3331V21.1262H15.4512V1.25389Z" fill="#074790"/>
<path d="M15.5693 1.25389H15.4512V21.1262H15.5693V1.25389Z" fill="#054891"/>
<path d="M15.6872 1.25389H15.5691V21.1262H15.6872V1.25389Z" fill="#004993"/>
<path d="M15.8066 1.2538H15.6885V21.1261H15.8066V1.2538Z" fill="#074A95"/>
<path d="M15.9249 1.25389H15.8068V21.1262H15.9249V1.25389Z" fill="#084B96"/>
<path d="M16.0428 1.25389H15.9247V21.1262H16.0428V1.25389Z" fill="#084C97"/>
<path d="M16.1608 1.25389H16.0427V21.1262H16.1608V1.25389Z" fill="#0A4D98"/>
<path d="M16.2792 1.2538H16.1611V21.1261H16.2792V1.2538Z" fill="#0D4E98"/>
<path d="M16.3964 1.2538H16.2783V21.1261H16.3964V1.2538Z" fill="#0D4F99"/>
<path d="M16.5164 1.25389H16.3983V21.1262H16.5164V1.25389Z" fill="#0D509A"/>
<path d="M16.6344 1.25389H16.5164V21.1262H16.6344V1.25389Z" fill="#0F519B"/>
<path d="M16.7529 1.2538H16.6348V21.1261H16.7529V1.2538Z" fill="#0F529C"/>
<path d="M16.87 1.2538H16.752V21.1261H16.87V1.2538Z" fill="#0F539E"/>
<path d="M16.9884 1.25389H16.8704V21.1262H16.9884V1.25389Z" fill="#0F549E"/>
<path d="M17.1065 1.25389H16.9884V21.1262H17.1065V1.25389Z" fill="#14559F"/>
<path d="M17.2265 1.2538H17.1084V21.1261H17.2265V1.2538Z" fill="#1456A0"/>
<path d="M17.3437 1.2538H17.2256V21.1261H17.3437V1.2538Z" fill="#1357A2"/>
<path d="M17.4621 1.25389H17.344V21.1262H17.4621V1.25389Z" fill="#1558A2"/>
<path d="M17.5801 1.25389H17.462V21.1262H17.5801V1.25389Z" fill="#1559A3"/>
<path d="M17.698 1.25389H17.58V21.1262H17.698V1.25389Z" fill="#155BA5"/>
<path d="M17.8163 1.2538H17.6982V21.1261H17.8163V1.2538Z" fill="#165BA6"/>
<path d="M17.9357 1.25389H17.8176V21.1262H17.9357V1.25389Z" fill="#175CA6"/>
<path d="M18.0536 1.25389H17.9355V21.1262H18.0536V1.25389Z" fill="#175DA7"/>
<path d="M18.1717 1.25389H18.0536V21.1262H18.1717V1.25389Z" fill="#195EA8"/>
<path d="M18.29 1.2538H18.1719V21.1261H18.29V1.2538Z" fill="#195FA8"/>
<path d="M18.4081 1.2538H18.29V21.1261H18.4081V1.2538Z" fill="#1960A9"/>
<path d="M18.5253 1.2538H18.4072V21.1261H18.5253V1.2538Z" fill="#1761AA"/>
<path d="M18.6453 1.25389H18.5272V21.1262H18.6453V1.25389Z" fill="#1862AB"/>
<path d="M18.7636 1.2538H18.6455V21.1261H18.7636V1.2538Z" fill="#1A63AD"/>
<path d="M18.8818 1.2538H18.7637V21.1261H18.8818V1.2538Z" fill="#1C64AD"/>
<path d="M18.9989 1.2538H18.8809V21.1261H18.9989V1.2538Z" fill="#1B66AE"/>
<path d="M19.1181 1.25389H19V21.1262H19.1181V1.25389Z" fill="#1D66AF"/>
<path d="M19.2361 1.25389H19.118V21.1262H19.2361V1.25389Z" fill="#1D68B0"/>
<path d="M19.3554 1.2538H19.2373V21.1261H19.3554V1.2538Z" fill="#1E68B1"/>
<path d="M19.4726 1.2538H19.3545V21.1261H19.4726V1.2538Z" fill="#1E6AB2"/>
<path d="M19.591 1.25389H19.4729V21.1262H19.591V1.25389Z" fill="#1D6AB3"/>
<path d="M19.7089 1.25389H19.5908V21.1262H19.7089V1.25389Z" fill="#1D6CB4"/>
<path d="M19.828 1.2538H19.71V21.1261H19.828V1.2538Z" fill="#1E6DB5"/>
<path d="M19.9462 1.2538H19.8281V21.1261H19.9462V1.2538Z" fill="#1F6EB6"/>
<path d="M20.0645 1.25389H19.9464V21.1262H20.0645V1.25389Z" fill="#206FB7"/>
<path d="M20.1825 1.25389H20.0645V21.1262H20.1825V1.25389Z" fill="#1F70B7"/>
<path d="M20.3006 1.25389H20.1825V21.1262H20.3006V1.25389Z" fill="#2371B8"/>
<path d="M20.4198 1.2538H20.3018V21.1261H20.4198V1.2538Z" fill="#2372B9"/>
<path d="M20.537 1.2538H20.4189V21.1261H20.537V1.2538Z" fill="#2573B9"/>
<path d="M20.6553 1.25389H20.5372V21.1262H20.6553V1.25389Z" fill="#2473BA"/>
<path d="M20.7742 1.25389H20.6561V21.1262H20.7742V1.25389Z" fill="#2474BB"/>
<path d="M20.8925 1.2538H20.7744V21.1261H20.8925V1.2538Z" fill="#2675BB"/>
<path d="M21.0097 1.2538H20.8916V21.1261H21.0097V1.2538Z" fill="#2677BC"/>
<path d="M21.129 1.25389H21.0109V21.1262H21.129V1.25389Z" fill="#2877BD"/>
<path d="M21.247 1.25389H21.1289V21.1262H21.247V1.25389Z" fill="#2978BD"/>
<path d="M21.365 1.25389H21.2469V21.1262H21.365V1.25389Z" fill="#2779BE"/>
<path d="M21.4833 1.2538H21.3652V21.1261H21.4833V1.2538Z" fill="#297ABF"/>
<path d="M21.6005 1.2538H21.4824V21.1261H21.6005V1.2538Z" fill="#297BC0"/>
<path d="M21.7206 1.25389H21.6025V21.1262H21.7206V1.25389Z" fill="#287CC0"/>
<path d="M21.8385 1.25389H21.7205V21.1262H21.8385V1.25389Z" fill="#2C7DC1"/>
<path d="M21.9557 1.25389H21.8376V21.1262H21.9557V1.25389Z" fill="#2D7EC2"/>
<path d="M22.0741 1.2538H21.9561V21.1261H22.0741V1.2538Z" fill="#2B7FC2"/>
<path d="M22.1934 1.25389H22.0753V21.1262H22.1934V1.25389Z" fill="#2D80C3"/>
<path d="M22.3122 1.25389H22.1941V21.1262H22.3122V1.25389Z" fill="#2E81C4"/>
<path d="M22.4306 1.2538H22.3125V21.1261H22.4306V1.2538Z" fill="#2F82C4"/>
<path d="M22.5478 1.2538H22.4297V21.1261H22.5478V1.2538Z" fill="#3183C5"/>
<path d="M22.893 1.2538H22.5469V21.1261H22.893V1.2538Z" fill="#3183C5"/>
<path d="M23.2396 1.2538H22.8936V21.1261H23.2396V1.2538Z" fill="#3183C5"/>
<path d="M23.5863 1.2538H23.2402V21.1261H23.5863V1.2538Z" fill="#2E84C6"/>
<path d="M23.933 1.2538H23.5869V21.1261H23.933V1.2538Z" fill="#2E84C6"/>
<path d="M24.2784 1.25389H23.9324V21.1262H24.2784V1.25389Z" fill="#2D85C7"/>
<path d="M24.6243 1.25389H24.2782V21.1262H24.6243V1.25389Z" fill="#2E85C6"/>
<path d="M24.9702 1.25389H24.6241V21.1262H24.9702V1.25389Z" fill="#2E85C5"/>
<path d="M25.3169 1.25389H24.9708V21.1262H25.3169V1.25389Z" fill="#2D86C4"/>
<path d="M25.6615 1.2538H25.3154V21.1261H25.6615V1.2538Z" fill="#2E86C3"/>
<path d="M26.0082 1.2538H25.6621V21.1261H26.0082V1.2538Z" fill="#2D87C3"/>
<path d="M26.3549 1.2538H26.0088V21.1261H26.3549V1.2538Z" fill="#2D86C1"/>
<path d="M26.7015 1.2538H26.3555V21.1261H26.7015V1.2538Z" fill="#2E86C0"/>
<path d="M27.0473 1.2538H26.7012V21.1261H27.0473V1.2538Z" fill="#2D87C0"/>
<path d="M27.3928 1.25389H27.0468V21.1262H27.3928V1.25389Z" fill="#2D87BD"/>
<path d="M27.7395 1.25389H27.3934V21.1262H27.7395V1.25389Z" fill="#3087BC"/>
<path d="M28.0853 1.25389H27.7393V21.1262H28.0853V1.25389Z" fill="#2F88BB"/>
<path d="M28.4301 1.2538H28.084V21.1261H28.4301V1.2538Z" fill="#3087B9"/>
<path d="M28.7767 1.2538H28.4307V21.1261H28.7767V1.2538Z" fill="#2E88B8"/>
<path d="M29.1234 1.2538H28.7773V21.1261H29.1234V1.2538Z" fill="#2D89B8"/>
<path d="M29.4691 1.2538H29.123V21.1261H29.4691V1.2538Z" fill="#2E88B7"/>
<path d="M29.8158 1.2538H29.4697V21.1261H29.8158V1.2538Z" fill="#2C89B6"/>
<path d="M30.1625 1.2538H29.8164V21.1261H30.1625V1.2538Z" fill="#2C8AB5"/>
<path d="M30.5079 1.25389H30.1619V21.1262H30.5079V1.25389Z" fill="#2C89B4"/>
<path d="M30.8539 1.25389H30.5078V21.1262H30.8539V1.25389Z" fill="#2F89B2"/>
<path d="M31.1997 1.25389H30.8536V21.1262H31.1997V1.25389Z" fill="#2C8BB2"/>
<path d="M31.5464 1.25389H31.2003V21.1262H31.5464V1.25389Z" fill="#2D8BB1"/>
<path d="M32.5457 1.2538H31.5449V21.1261H32.5457V1.2538Z" fill="#2D8BB1"/>
</g>
<mask id="mask7_178_4274" style="mask-type:luminance" maskUnits="userSpaceOnUse" x="3" y="11" width="20" height="20">
<path d="M4.43225 11.6798C4.30598 12.1389 4.1645 12.5957 4.05577 13.0606C2.62002 19.1838 5.30445 25.3574 10.7914 28.3913C14.1002 30.2218 17.6089 30.5459 21.2403 29.488C21.3175 29.4657 21.3923 29.4375 21.4742 29.4187C21.5943 29.383 21.7236 29.3961 21.8343 29.4552C21.9449 29.5143 22.028 29.6146 22.0658 29.7346C22.0851 29.7938 22.0922 29.8564 22.0867 29.9185C22.0812 29.9806 22.0632 30.0409 22.0338 30.0958C22.0044 30.1507 21.9642 30.199 21.9156 30.2378C21.8671 30.2767 21.8111 30.3052 21.7513 30.3216C21.2836 30.452 20.8089 30.5776 20.3296 30.6633C14.7175 31.6778 9.21418 29.4223 5.97205 24.7163C3.90027 21.7105 3.14498 18.3607 3.62435 14.7361C3.75794 13.7326 4.00546 12.7478 4.3621 11.8008C4.37847 11.7573 4.40068 11.7139 4.41939 11.6704L4.43225 11.6798Z" fill="white"/>
</mask>
<g mask="url(#mask7_178_4274)">
<path d="M5.76625 11.6719H2.62V31.6804H5.76625V11.6719Z" fill="#0A478E"/>
<path d="M5.88457 11.6717H5.76648V31.6802H5.88457V11.6717Z" fill="#0A478E"/>
<path d="M6.00176 11.6717H5.88367V31.6802H6.00176V11.6717Z" fill="#074790"/>
<path d="M6.12175 11.6719H6.00366V31.6804H6.12175V11.6719Z" fill="#054891"/>
<path d="M6.23979 11.6719H6.1217V31.6804H6.23979V11.6719Z" fill="#004993"/>
<path d="M6.3582 11.6717H6.24011V31.6802H6.3582V11.6717Z" fill="#074A95"/>
<path d="M6.47539 11.6717H6.3573V31.6802H6.47539V11.6717Z" fill="#084B96"/>
<path d="M6.59465 11.6719H6.47656V31.6804H6.59465V11.6719Z" fill="#084C97"/>
<path d="M6.71184 11.6719H6.59375V31.6804H6.71184V11.6719Z" fill="#0A4D98"/>
<path d="M6.83086 11.6717H6.71277V31.6802H6.83086V11.6717Z" fill="#0D4E98"/>
<path d="M6.94902 11.6717H6.83093V31.6802H6.94902V11.6717Z" fill="#0D4F99"/>
<path d="M7.06621 11.6717H6.94812V31.6802H7.06621V11.6717Z" fill="#0D509A"/>
<path d="M7.18462 11.6719H7.06653V31.6804H7.18462V11.6719Z" fill="#0F519B"/>
<path d="M7.30266 11.6719H7.18457V31.6804H7.30266V11.6719Z" fill="#0F529C"/>
<path d="M7.42058 11.6719H7.30249V31.6804H7.42058V11.6719Z" fill="#0F539E"/>
<path d="M7.53984 11.6717H7.42175V31.6802H7.53984V11.6717Z" fill="#0F549E"/>
<path d="M7.65703 11.6717H7.53894V31.6802H7.65703V11.6717Z" fill="#14559F"/>
<path d="M7.77544 11.6719H7.65735V31.6804H7.77544V11.6719Z" fill="#1456A0"/>
<path d="M7.89421 11.6719H7.77612V31.6804H7.89421V11.6719Z" fill="#1357A2"/>
<path d="M8.0125 11.6717H7.89441V31.6802H8.0125V11.6717Z" fill="#1558A2"/>
<path d="M8.13066 11.6717H8.01257V31.6802H8.13066V11.6717Z" fill="#1559A3"/>
<path d="M8.24785 11.6717H8.12976V31.6802H8.24785V11.6717Z" fill="#155BA5"/>
<path d="M8.36699 11.6719H8.2489V31.6804H8.36699V11.6719Z" fill="#165BA6"/>
<path d="M8.48418 11.6719H8.36609V31.6804H8.48418V11.6719Z" fill="#175CA6"/>
<path d="M8.60332 11.6717H8.48523V31.6802H8.60332V11.6717Z" fill="#175DA7"/>
<path d="M8.72148 11.6717H8.60339V31.6802H8.72148V11.6717Z" fill="#195EA8"/>
<path d="M8.83867 11.6717H8.72058V31.6802H8.83867V11.6717Z" fill="#195FA8"/>
<path d="M8.95708 11.6719H8.83899V31.6804H8.95708V11.6719Z" fill="#1960A9"/>
<path d="M9.075 11.6719H8.95691V31.6804H9.075V11.6719Z" fill="#1761AA"/>
<path d="M9.19304 11.6719H9.07495V31.6804H9.19304V11.6719Z" fill="#1862AB"/>
<path d="M9.31133 11.6717H9.19324V31.6802H9.31133V11.6717Z" fill="#1A63AD"/>
<path d="M9.42949 11.6717H9.3114V31.6802H9.42949V11.6717Z" fill="#1C64AD"/>
<path d="M9.54778 11.6719H9.42969V31.6804H9.54778V11.6719Z" fill="#1B66AE"/>
<path d="M9.66667 11.6719H9.54858V31.6804H9.66667V11.6719Z" fill="#1D66AF"/>
<path d="M9.78495 11.6717H9.66687V31.6802H9.78495V11.6717Z" fill="#1D68B0"/>
<path d="M9.90312 11.6717H9.78503V31.6802H9.90312V11.6717Z" fill="#1E68B1"/>
<path d="M10.0214 11.6719H9.90332V31.6804H10.0214V11.6719Z" fill="#1E6AB2"/>
<path d="M10.1386 11.6719H10.0205V31.6804H10.1386V11.6719Z" fill="#1D6AB3"/>
<path d="M10.2575 11.6719H10.1394V31.6804H10.2575V11.6719Z" fill="#1D6CB4"/>
<path d="M10.3758 11.6717H10.2577V31.6802H10.3758V11.6717Z" fill="#1E6DB5"/>
<path d="M10.493 11.6717H10.3749V31.6802H10.493V11.6717Z" fill="#1F6EB6"/>
<path d="M10.6102 11.6717H10.4921V31.6802H10.6102V11.6717Z" fill="#206FB7"/>
<path d="M10.7294 11.6719H10.6113V31.6804H10.7294V11.6719Z" fill="#1F70B7"/>
<path d="M10.8475 11.6719H10.7294V31.6804H10.8475V11.6719Z" fill="#2371B8"/>
<path d="M10.9666 11.6717H10.8485V31.6802H10.9666V11.6717Z" fill="#2372B9"/>
<path d="M11.0838 11.6717H10.9657V31.6802H11.0838V11.6717Z" fill="#2573B9"/>
<path d="M11.201 11.6717H11.0829V31.6802H11.201V11.6717Z" fill="#2473BA"/>
<path d="M11.3202 11.6719H11.2021V31.6804H11.3202V11.6719Z" fill="#2474BB"/>
<path d="M11.4383 11.6719H11.3202V31.6804H11.4383V11.6719Z" fill="#2675BB"/>
<path d="M11.5574 11.6717H11.4393V31.6802H11.5574V11.6717Z" fill="#2677BC"/>
<path d="M11.6746 11.6717H11.5565V31.6802H11.6746V11.6717Z" fill="#2877BD"/>
<path d="M11.7939 11.6719H11.6758V31.6804H11.7939V11.6719Z" fill="#2978BD"/>
<path d="M11.9111 11.6719H11.793V31.6804H11.9111V11.6719Z" fill="#2779BE"/>
<path d="M12.0298 11.6719H11.9117V31.6804H12.0298V11.6719Z" fill="#297ABF"/>
<path d="M12.1482 11.6717H12.0302V31.6802H12.1482V11.6717Z" fill="#297BC0"/>
<path d="M12.2654 11.6717H12.1473V31.6802H12.2654V11.6717Z" fill="#287CC0"/>
<path d="M12.3826 11.6717H12.2645V31.6802H12.3826V11.6717Z" fill="#2C7DC1"/>
<path d="M12.5019 11.6719H12.3838V31.6804H12.5019V11.6719Z" fill="#2D7EC2"/>
<path d="M12.6199 11.6719H12.5018V31.6804H12.6199V11.6719Z" fill="#2B7FC2"/>
<path d="M12.7391 11.6717H12.621V31.6802H12.7391V11.6717Z" fill="#2D80C3"/>
<path d="M12.8562 11.6717H12.7382V31.6802H12.8562V11.6717Z" fill="#2E81C4"/>
<path d="M12.9734 11.6717H12.8553V31.6802H12.9734V11.6717Z" fill="#2F82C4"/>
<path d="M13.0906 11.6717H12.9725V31.6802H13.0906V11.6717Z" fill="#3183C5"/>
<path d="M13.4387 11.6719H13.0927V31.6804H13.4387V11.6719Z" fill="#3183C5"/>
<path d="M13.7846 11.6719H13.4385V31.6804H13.7846V11.6719Z" fill="#3183C5"/>
<path d="M14.1312 11.6719H13.7852V31.6804H14.1312V11.6719Z" fill="#2E84C6"/>
<path d="M14.4758 11.6717H14.1298V31.6802H14.4758V11.6717Z" fill="#2E84C6"/>
<path d="M14.8215 11.6717H14.4755V31.6802H14.8215V11.6717Z" fill="#2D85C7"/>
<path d="M15.1671 11.6719H14.821V31.6804H15.1671V11.6719Z" fill="#2E85C6"/>
<path d="M15.5138 11.6719H15.1677V31.6804H15.5138V11.6719Z" fill="#2E85C5"/>
<path d="M15.8577 11.6717H15.5116V31.6802H15.8577V11.6717Z" fill="#2D86C4"/>
<path d="M16.2044 11.6717H15.8583V31.6802H16.2044V11.6717Z" fill="#2E86C3"/>
<path d="M16.551 11.6717H16.205V31.6802H16.551V11.6717Z" fill="#2D87C3"/>
<path d="M16.8956 11.6719H16.5496V31.6804H16.8956V11.6719Z" fill="#2D86C1"/>
<path d="M17.2423 11.6719H16.8962V31.6804H17.2423V11.6719Z" fill="#2E86C0"/>
<path d="M17.5881 11.6719H17.2421V31.6804H17.5881V11.6719Z" fill="#2D87C0"/>
<path d="M17.9329 11.6717H17.5868V31.6802H17.9329V11.6717Z" fill="#2D87BD"/>
<path d="M18.2795 11.6717H17.9335V31.6802H18.2795V11.6717Z" fill="#3087BC"/>
<path d="M18.6253 11.6717H18.2792V31.6802H18.6253V11.6717Z" fill="#2F88BB"/>
<path d="M18.9708 11.6719H18.6248V31.6804H18.9708V11.6719Z" fill="#3087B9"/>
<path d="M19.3158 11.6719H18.9697V31.6804H19.3158V11.6719Z" fill="#2E88B8"/>
<path d="M19.6625 11.6719H19.3164V31.6804H19.6625V11.6719Z" fill="#2D89B8"/>
<path d="M20.0092 11.6719H19.6631V31.6804H20.0092V11.6719Z" fill="#2E88B7"/>
<path d="M20.3538 11.6717H20.0077V31.6802H20.3538V11.6717Z" fill="#2C89B6"/>
<path d="M20.6992 11.6719H20.3531V31.6804H20.6992V11.6719Z" fill="#2C8AB5"/>
<path d="M21.0452 11.6719H20.6991V31.6804H21.0452V11.6719Z" fill="#2C89B4"/>
<path d="M21.391 11.6719H21.0449V31.6804H21.391V11.6719Z" fill="#2F89B2"/>
<path d="M21.7356 11.6717H21.3895V31.6802H21.7356V11.6717Z" fill="#2C8BB2"/>
<path d="M22.0823 11.6717H21.7362V31.6802H22.0823V11.6717Z" fill="#2D8BB1"/>
<path d="M22.1355 11.6717H22.0829V31.6802H22.1355V11.6717Z" fill="#2D8BB1"/>
</g>
<mask id="mask8_178_4274" style="mask-type:luminance" maskUnits="userSpaceOnUse" x="4" y="16" width="22" height="14">
<path d="M4.96097 16.332C5.01242 17.7046 5.17727 19.0619 5.66248 20.3499C7.50277 25.2731 11.0267 28.1227 16.2307 28.7157C19.3629 29.0679 22.2122 28.1603 24.7364 26.2594C24.9036 26.1337 25.0697 26.0633 25.2673 26.1596C25.3364 26.1931 25.3951 26.2449 25.4371 26.3095C25.4791 26.3741 25.5027 26.4489 25.5055 26.526C25.5083 26.603 25.49 26.6794 25.4528 26.7468C25.4156 26.8143 25.3607 26.8702 25.2941 26.9087C24.7291 27.2997 24.1436 27.6603 23.5404 27.9889C17.9739 30.8279 11.3236 29.3086 7.51212 24.3432C5.80278 22.1217 4.80664 19.0008 4.96097 16.332Z" fill="white"/>
</mask>
<g mask="url(#mask8_178_4274)">
<path d="M7.4731 16.332H4.80737V30.8268H7.4731V16.332Z" fill="#0A478E"/>
<path d="M7.60348 16.332H7.47253V30.8268H7.60348V16.332Z" fill="#0A478E"/>
<path d="M7.73422 16.332H7.60327V30.8267H7.73422V16.332Z" fill="#074790"/>
<path d="M7.86508 16.332H7.73413V30.8267H7.86508V16.332Z" fill="#054891"/>
<path d="M7.99569 16.332H7.86475V30.8268H7.99569V16.332Z" fill="#004993"/>
<path d="M8.12668 16.332H7.99573V30.8268H8.12668V16.332Z" fill="#074A95"/>
<path d="M8.2557 16.332H8.12476V30.8267H8.2557V16.332Z" fill="#084B96"/>
<path d="M8.38754 16.332H8.25659V30.8267H8.38754V16.332Z" fill="#084C97"/>
<path d="M8.51815 16.332H8.38721V30.8268H8.51815V16.332Z" fill="#0A4D98"/>
<path d="M8.6473 16.332H8.51636V30.8267H8.6473V16.332Z" fill="#0D4E98"/>
<path d="M8.77816 16.332H8.64722V30.8267H8.77816V16.332Z" fill="#0D4F99"/>
<path d="M8.91 16.332H8.77905V30.8267H8.91V16.332Z" fill="#0D509A"/>
<path d="M9.04086 16.332H8.90991V30.8267H9.04086V16.332Z" fill="#0F519B"/>
<path d="M9.17086 16.332H9.03992V30.8268H9.17086V16.332Z" fill="#0F529C"/>
<path d="M9.30063 16.332H9.16968V30.8267H9.30063V16.332Z" fill="#0F539E"/>
<path d="M9.43246 16.332H9.30151V30.8267H9.43246V16.332Z" fill="#0F549E"/>
<path d="M9.56222 16.332H9.43127V30.8268H9.56222V16.332Z" fill="#14559F"/>
<path d="M9.69333 16.332H9.56238V30.8268H9.69333V16.332Z" fill="#1456A0"/>
<path d="M9.82309 16.332H9.69214V30.8267H9.82309V16.332Z" fill="#1357A2"/>
<path d="M9.95395 16.332H9.823V30.8267H9.95395V16.332Z" fill="#1558A2"/>
<path d="M10.0847 16.332H9.95374V30.8268H10.0847V16.332Z" fill="#1559A3"/>
<path d="M10.2157 16.332H10.0847V30.8268H10.2157V16.332Z" fill="#155BA5"/>
<path d="M10.3455 16.332H10.2146V30.8267H10.3455V16.332Z" fill="#165BA6"/>
<path d="M10.4764 16.332H10.3455V30.8267H10.4764V16.332Z" fill="#175CA6"/>
<path d="M10.6071 16.332H10.4762V30.8268H10.6071V16.332Z" fill="#175DA7"/>
<path d="M10.7374 16.332H10.6064V30.8268H10.7374V16.332Z" fill="#195EA8"/>
<path d="M10.868 16.332H10.7371V30.8267H10.868V16.332Z" fill="#195FA8"/>
<path d="M10.9998 16.332H10.8689V30.8267H10.9998V16.332Z" fill="#1960A9"/>
<path d="M11.1296 16.332H10.9987V30.8268H11.1296V16.332Z" fill="#1761AA"/>
<path d="M11.2599 16.332H11.1289V30.8268H11.2599V16.332Z" fill="#1862AB"/>
<path d="M11.3905 16.332H11.2595V30.8267H11.3905V16.332Z" fill="#1A63AD"/>
<path d="M11.5213 16.332H11.3904V30.8267H11.5213V16.332Z" fill="#1C64AD"/>
<path d="M11.6512 16.332H11.5203V30.8268H11.6512V16.332Z" fill="#1B66AE"/>
<path d="M11.7822 16.332H11.6512V30.8268H11.7822V16.332Z" fill="#1D66AF"/>
<path d="M11.9129 16.332H11.782V30.8267H11.9129V16.332Z" fill="#1D68B0"/>
<path d="M12.0438 16.332H11.9128V30.8267H12.0438V16.332Z" fill="#1E68B1"/>
<path d="M12.1737 16.332H12.0427V30.8268H12.1737V16.332Z" fill="#1E6AB2"/>
<path d="M12.3047 16.332H12.1737V30.8268H12.3047V16.332Z" fill="#1D6AB3"/>
<path d="M12.4354 16.332H12.3044V30.8267H12.4354V16.332Z" fill="#1D6CB4"/>
<path d="M12.5652 16.332H12.4342V30.8268H12.5652V16.332Z" fill="#1E6DB5"/>
<path d="M12.697 16.332H12.566V30.8268H12.697V16.332Z" fill="#1F6EB6"/>
<path d="M12.8271 16.332H12.6962V30.8268H12.8271V16.332Z" fill="#206FB7"/>
<path d="M12.9569 16.332H12.8259V30.8267H12.9569V16.332Z" fill="#1F70B7"/>
<path d="M13.0887 16.332H12.9578V30.8267H13.0887V16.332Z" fill="#2371B8"/>
<path d="M13.2194 16.332H13.0885V30.8268H13.2194V16.332Z" fill="#2372B9"/>
<path d="M13.3475 16.332H13.2166V30.8267H13.3475V16.332Z" fill="#2573B9"/>
<path d="M13.4793 16.332H13.3484V30.8267H13.4793V16.332Z" fill="#2473BA"/>
<path d="M13.6112 16.332H13.4802V30.8267H13.6112V16.332Z" fill="#2474BB"/>
<path d="M13.7411 16.332H13.6101V30.8268H13.7411V16.332Z" fill="#2675BB"/>
<path d="M13.87 16.332H13.739V30.8267H13.87V16.332Z" fill="#2677BC"/>
<path d="M14.0018 16.332H13.8708V30.8267H14.0018V16.332Z" fill="#2877BD"/>
<path d="M14.1324 16.332H14.0015V30.8268H14.1324V16.332Z" fill="#2978BD"/>
<path d="M14.2635 16.332H14.1326V30.8268H14.2635V16.332Z" fill="#2779BE"/>
<path d="M14.3945 16.332H14.2635V30.8268H14.3945V16.332Z" fill="#297ABF"/>
<path d="M14.5243 16.332H14.3933V30.8267H14.5243V16.332Z" fill="#297BC0"/>
<path d="M14.6549 16.332H14.5239V30.8268H14.6549V16.332Z" fill="#287CC0"/>
<path d="M14.786 16.332H14.655V30.8268H14.786V16.332Z" fill="#2C7DC1"/>
<path d="M14.917 16.332H14.786V30.8268H14.917V16.332Z" fill="#2D7EC2"/>
<path d="M15.0467 16.332H14.9158V30.8267H15.0467V16.332Z" fill="#2B7FC2"/>
<path d="M15.1773 16.332H15.0464V30.8268H15.1773V16.332Z" fill="#2D80C3"/>
<path d="M15.3084 16.332H15.1775V30.8268H15.3084V16.332Z" fill="#2E81C4"/>
<path d="M15.4373 16.332H15.3064V30.8267H15.4373V16.332Z" fill="#2F82C4"/>
<path d="M15.5692 16.332H15.4382V30.8267H15.5692V16.332Z" fill="#3183C5"/>
<path d="M15.9524 16.332H15.5701V30.8267H15.9524V16.332Z" fill="#3183C5"/>
<path d="M16.3332 16.332H15.9509V30.8267H16.3332V16.332Z" fill="#3183C5"/>
<path d="M16.7141 16.332H16.3318V30.8267H16.7141V16.332Z" fill="#2E84C6"/>
<path d="M17.097 16.332H16.7147V30.8268H17.097V16.332Z" fill="#2E84C6"/>
<path d="M17.4797 16.332H17.0974V30.8267H17.4797V16.332Z" fill="#2D85C7"/>
<path d="M17.8616 16.332H17.4792V30.8267H17.8616V16.332Z" fill="#2E85C6"/>
<path d="M18.2424 16.332H17.8601V30.8267H18.2424V16.332Z" fill="#2E85C5"/>
<path d="M18.6252 16.332H18.2429V30.8268H18.6252V16.332Z" fill="#2D86C4"/>
<path d="M19.0081 16.332H18.6257V30.8267H19.0081V16.332Z" fill="#2E86C3"/>
<path d="M19.3899 16.332H19.0076V30.8267H19.3899V16.332Z" fill="#2D87C3"/>
<path d="M19.7727 16.332H19.3904V30.8268H19.7727V16.332Z" fill="#2D86C1"/>
<path d="M20.1536 16.332H19.7712V30.8268H20.1536V16.332Z" fill="#2E86C0"/>
<path d="M20.5364 16.332H20.1541V30.8267H20.5364V16.332Z" fill="#2D87C0"/>
<path d="M20.9182 16.332H20.5359V30.8267H20.9182V16.332Z" fill="#2D87BD"/>
<path d="M21.301 16.332H20.9187V30.8268H21.301V16.332Z" fill="#3087BC"/>
<path d="M21.6819 16.332H21.2996V30.8268H21.6819V16.332Z" fill="#2F88BB"/>
<path d="M22.0647 16.332H21.6824V30.8267H22.0647V16.332Z" fill="#3087B9"/>
<path d="M22.4456 16.332H22.0632V30.8267H22.4456V16.332Z" fill="#2E88B8"/>
<path d="M22.8285 16.332H22.4462V30.8268H22.8285V16.332Z" fill="#2D89B8"/>
<path d="M23.2109 16.332H22.8286V30.8268H23.2109V16.332Z" fill="#2E88B7"/>
<path d="M23.593 16.332H23.2107V30.8267H23.593V16.332Z" fill="#2C89B6"/>
<path d="M23.9739 16.332H23.5916V30.8267H23.9739V16.332Z" fill="#2C8AB5"/>
<path d="M24.3568 16.332H23.9745V30.8268H24.3568V16.332Z" fill="#2C89B4"/>
<path d="M24.7395 16.332H24.3572V30.8267H24.7395V16.332Z" fill="#2F89B2"/>
<path d="M25.1204 16.332H24.738V30.8267H25.1204V16.332Z" fill="#2C8BB2"/>
<path d="M25.5022 16.332H25.1199V30.8267H25.5022V16.332Z" fill="#2D8BB1"/>
<path d="M25.5904 16.332H25.5027V30.8268H25.5904V16.332Z" fill="#2D8BB1"/>
</g>
<mask id="mask9_178_4274" style="mask-type:luminance" maskUnits="userSpaceOnUse" x="7" y="20" width="21" height="9">
<path d="M7.05407 20.7865C7.30895 21.2562 7.53928 21.754 7.82456 22.2119C9.71278 25.2377 12.4136 27.0963 15.9445 27.5026C20.4108 28.0169 23.958 26.3202 26.5443 22.6194C26.5758 22.5724 26.6027 22.5231 26.6355 22.4773C26.7816 22.2671 27.0061 22.2096 27.1932 22.3329C27.3802 22.4561 27.4188 22.6851 27.2762 22.9035C26.6753 23.8168 25.9424 24.6351 25.1015 25.3316C22.6591 27.3453 19.8542 28.3198 16.7068 28.0016C12.1681 27.5425 8.96451 25.1496 7.0985 20.9638C7.07395 20.9075 7.05992 20.8464 7.04004 20.79L7.05407 20.7865Z" fill="white"/>
</mask>
<g mask="url(#mask9_178_4274)">
<path d="M9.5374 20.7865H7.04004V28.3198H9.5374V20.7865Z" fill="#0A478E"/>
<path d="M9.66572 20.7864H9.53711V28.3197H9.66572V20.7864Z" fill="#0A478E"/>
<path d="M9.7956 20.7865H9.66699V28.3198H9.7956V20.7865Z" fill="#074790"/>
<path d="M9.92451 20.7864H9.7959V28.3197H9.92451V20.7864Z" fill="#054891"/>
<path d="M10.0544 20.7865H9.92578V28.3198H10.0544V20.7865Z" fill="#004993"/>
<path d="M10.1833 20.7864H10.0547V28.3197H10.1833V20.7864Z" fill="#074A95"/>
<path d="M10.3123 20.7865H10.1837V28.3198H10.3123V20.7865Z" fill="#084B96"/>
<path d="M10.4409 20.7865H10.3123V28.3198H10.4409V20.7865Z" fill="#084C97"/>
<path d="M10.569 20.7864H10.4404V28.3197H10.569V20.7864Z" fill="#0A4D98"/>
<path d="M10.6997 20.7865H10.571V28.3198H10.6997V20.7865Z" fill="#0D4E98"/>
<path d="M10.8278 20.7864H10.6992V28.3197H10.8278V20.7864Z" fill="#0D4F99"/>
<path d="M10.9584 20.7865H10.8298V28.3198H10.9584V20.7865Z" fill="#0D509A"/>
<path d="M11.0866 20.7864H10.958V28.3197H11.0866V20.7864Z" fill="#0F519B"/>
<path d="M11.2136 20.7864H11.085V28.3197H11.2136V20.7864Z" fill="#0F529C"/>
<path d="M11.3454 20.7864H11.2168V28.3197H11.3454V20.7864Z" fill="#0F539E"/>
<path d="M11.4724 20.7864H11.3438V28.3197H11.4724V20.7864Z" fill="#0F549E"/>
<path d="M11.6042 20.7864H11.4756V28.3197H11.6042V20.7864Z" fill="#14559F"/>
<path d="M11.7311 20.7864H11.6025V28.3197H11.7311V20.7864Z" fill="#1456A0"/>
<path d="M11.863 20.7864H11.7344V28.3197H11.863V20.7864Z" fill="#1357A2"/>
<path d="M11.9899 20.7864H11.8613V28.3197H11.9899V20.7864Z" fill="#1558A2"/>
<path d="M12.119 20.7865H11.9904V28.3198H12.119V20.7865Z" fill="#1559A3"/>
<path d="M12.2487 20.7864H12.1201V28.3197H12.2487V20.7864Z" fill="#155BA5"/>
<path d="M12.3778 20.7865H12.2491V28.3198H12.3778V20.7865Z" fill="#165BA6"/>
<path d="M12.5075 20.7864H12.3789V28.3197H12.5075V20.7864Z" fill="#175CA6"/>
<path d="M12.6345 20.7864H12.5059V28.3197H12.6345V20.7864Z" fill="#175DA7"/>
<path d="M12.7653 20.7864H12.6367V28.3197H12.7653V20.7864Z" fill="#195EA8"/>
<path d="M12.8933 20.7864H12.7646V28.3197H12.8933V20.7864Z" fill="#195FA8"/>
<path d="M13.023 20.7865H12.8944V28.3198H13.023V20.7865Z" fill="#1960A9"/>
<path d="M13.152 20.7864H13.0234V28.3197H13.152V20.7864Z" fill="#1761AA"/>
<path d="M13.281 20.7865H13.1523V28.3198H13.281V20.7865Z" fill="#1862AB"/>
<path d="M13.4108 20.7864H13.2822V28.3197H13.4108V20.7864Z" fill="#1A63AD"/>
<path d="M13.5397 20.7865H13.4111V28.3198H13.5397V20.7865Z" fill="#1C64AD"/>
<path d="M13.6686 20.7864H13.54V28.3197H13.6686V20.7864Z" fill="#1B66AE"/>
<path d="M13.7966 20.7864H13.668V28.3197H13.7966V20.7864Z" fill="#1D66AF"/>
<path d="M13.9263 20.7865H13.7977V28.3198H13.9263V20.7865Z" fill="#1D68B0"/>
<path d="M14.0554 20.7864H13.9268V28.3197H14.0554V20.7864Z" fill="#1E68B1"/>
<path d="M14.1851 20.7865H14.0565V28.3198H14.1851V20.7865Z" fill="#1E6AB2"/>
<path d="M14.3142 20.7864H14.1855V28.3197H14.3142V20.7864Z" fill="#1D6AB3"/>
<path d="M14.4431 20.7865H14.3145V28.3198H14.4431V20.7865Z" fill="#1D6CB4"/>
<path d="M14.5729 20.7864H14.4443V28.3197H14.5729V20.7864Z" fill="#1E6DB5"/>
<path d="M14.7019 20.7865H14.5732V28.3198H14.7019V20.7865Z" fill="#1F6EB6"/>
<path d="M14.8308 20.7864H14.7021V28.3197H14.8308V20.7864Z" fill="#206FB7"/>
<path d="M14.9606 20.7865H14.832V28.3198H14.9606V20.7865Z" fill="#1F70B7"/>
<path d="M15.0895 20.7864H14.9609V28.3197H15.0895V20.7864Z" fill="#2371B8"/>
<path d="M15.2175 20.7864H15.0889V28.3197H15.2175V20.7864Z" fill="#2372B9"/>
<path d="M15.3472 20.7865H15.2186V28.3198H15.3472V20.7865Z" fill="#2573B9"/>
<path d="M15.4753 20.7864H15.3467V28.3197H15.4753V20.7864Z" fill="#2473BA"/>
<path d="M15.606 20.7865H15.4774V28.3198H15.606V20.7865Z" fill="#2474BB"/>
<path d="M15.7341 20.7864H15.6055V28.3197H15.7341V20.7864Z" fill="#2675BB"/>
<path d="M15.862 20.7864H15.7334V28.3197H15.862V20.7864Z" fill="#2677BC"/>
<path d="M15.9929 20.7864H15.8643V28.3197H15.9929V20.7864Z" fill="#2877BD"/>
<path d="M16.1208 20.7864H15.9922V28.3197H16.1208V20.7864Z" fill="#2978BD"/>
<path d="M16.2506 20.7865H16.1219V28.3198H16.2506V20.7865Z" fill="#2779BE"/>
<path d="M16.3796 20.7864H16.251V28.3197H16.3796V20.7864Z" fill="#297ABF"/>
<path d="M16.5092 20.7865H16.3806V28.3198H16.5092V20.7865Z" fill="#297BC0"/>
<path d="M16.6374 20.7864H16.5088V28.3197H16.6374V20.7864Z" fill="#287CC0"/>
<path d="M16.7653 20.7864H16.6367V28.3197H16.7653V20.7864Z" fill="#2C7DC1"/>
<path d="M16.8962 20.7864H16.7676V28.3197H16.8962V20.7864Z" fill="#2D7EC2"/>
<path d="M17.0252 20.7865H16.8966V28.3198H17.0252V20.7865Z" fill="#2B7FC2"/>
<path d="M17.155 20.7864H17.0264V28.3197H17.155V20.7864Z" fill="#2D80C3"/>
<path d="M17.284 20.7865H17.1554V28.3198H17.284V20.7865Z" fill="#2E81C4"/>
<path d="M17.4118 20.7865H17.2832V28.3198H17.4118V20.7865Z" fill="#2F82C4"/>
<path d="M17.5428 20.7865H17.4142V28.3198H17.5428V20.7865Z" fill="#3183C5"/>
<path d="M17.9196 20.7865H17.542V28.3198H17.9196V20.7865Z" fill="#3183C5"/>
<path d="M18.2976 20.7864H17.9199V28.3197H18.2976V20.7864Z" fill="#3183C5"/>
<path d="M18.6756 20.7865H18.298V28.3198H18.6756V20.7865Z" fill="#2E84C6"/>
<path d="M19.0523 20.7865H18.6747V28.3198H19.0523V20.7865Z" fill="#2E84C6"/>
<path d="M19.4325 20.7865H19.0548V28.3198H19.4325V20.7865Z" fill="#2D85C7"/>
<path d="M19.8084 20.7865H19.4308V28.3198H19.8084V20.7865Z" fill="#2E85C6"/>
<path d="M20.1862 20.7864H19.8086V28.3197H20.1862V20.7864Z" fill="#2E85C5"/>
<path d="M20.5651 20.7865H20.1875V28.3198H20.5651V20.7865Z" fill="#2D86C4"/>
<path d="M20.942 20.7865H20.5643V28.3198H20.942V20.7865Z" fill="#2E86C3"/>
<path d="M21.32 20.7864H20.9424V28.3197H21.32V20.7864Z" fill="#2D87C3"/>
<path d="M21.698 20.7865H21.3203V28.3198H21.698V20.7865Z" fill="#2D86C1"/>
<path d="M22.0748 20.7865H21.6971V28.3198H22.0748V20.7865Z" fill="#2E86C0"/>
<path d="M22.4528 20.7864H22.0752V28.3197H22.4528V20.7864Z" fill="#2D87C0"/>
<path d="M22.8308 20.7865H22.4531V28.3198H22.8308V20.7865Z" fill="#2D87BD"/>
<path d="M23.2076 20.7865H22.83V28.3198H23.2076V20.7865Z" fill="#3087BC"/>
<path d="M23.5847 20.7864H23.207V28.3197H23.5847V20.7864Z" fill="#2F88BB"/>
<path d="M23.9636 20.7865H23.5859V28.3198H23.9636V20.7865Z" fill="#3087B9"/>
<path d="M24.3403 20.7865H23.9626V28.3198H24.3403V20.7865Z" fill="#2E88B8"/>
<path d="M24.7175 20.7864H24.3398V28.3197H24.7175V20.7864Z" fill="#2D89B8"/>
<path d="M25.0964 20.7865H24.7188V28.3198H25.0964V20.7865Z" fill="#2E88B7"/>
<path d="M25.4731 20.7865H25.0955V28.3198H25.4731V20.7865Z" fill="#2C89B6"/>
<path d="M25.8532 20.7865H25.4756V28.3198H25.8532V20.7865Z" fill="#2C8AB5"/>
<path d="M26.2299 20.7865H25.8523V28.3198H26.2299V20.7865Z" fill="#2C89B4"/>
<path d="M26.6071 20.7864H26.2295V28.3197H26.6071V20.7864Z" fill="#2F89B2"/>
<path d="M26.9859 20.7865H26.6083V28.3198H26.9859V20.7865Z" fill="#2C8BB2"/>
<path d="M27.363 20.7864H26.9854V28.3197H27.363V20.7864Z" fill="#2D8BB1"/>
<path d="M27.4184 20.7864H27.3623V28.3197H27.4184V20.7864Z" fill="#2D8BB1"/>
</g>
<mask id="mask10_178_4274" style="mask-type:luminance" maskUnits="userSpaceOnUse" x="10" y="18" width="18" height="9">
<path d="M10.1436 23.5633C10.6907 23.9918 11.2344 24.4803 11.8365 24.8795C13.1752 25.7759 14.7104 26.3328 16.3104 26.5025C17.9105 26.6722 19.5277 26.4497 21.0233 25.854C22.5189 25.2583 23.8483 24.3072 24.8976 23.0822C25.9468 21.8573 26.6845 20.3951 27.0475 18.8209C27.0824 18.6798 27.165 18.5553 27.2814 18.4687C27.3381 18.4479 27.3992 18.4421 27.4588 18.452C27.5185 18.4619 27.5745 18.487 27.6216 18.5251C27.6635 18.5795 27.6938 18.6419 27.7107 18.7086C27.7276 18.7752 27.7307 18.8446 27.7198 18.9125C27.5285 19.7261 27.2334 20.5114 26.8417 21.2491C25.8905 23.0874 24.4139 24.5984 22.6015 25.5882C20.7891 26.5779 18.7236 27.0013 16.6699 26.8039C14.1258 26.5597 11.9686 25.4795 10.1938 23.6337C10.1728 23.602 10.1494 23.5703 10.1436 23.5633Z" fill="white"/>
</mask>
<g mask="url(#mask10_178_4274)">
<path d="M12.3054 18.4183H10.1436V28.739H12.3054V18.4183Z" fill="#0A478E"/>
<path d="M12.4169 18.4184H12.3047V28.7391H12.4169V18.4184Z" fill="#0A478E"/>
<path d="M12.5283 18.4184H12.416V28.7391H12.5283V18.4184Z" fill="#074790"/>
<path d="M12.6406 18.4184H12.5283V28.7391H12.6406V18.4184Z" fill="#054891"/>
<path d="M12.7516 18.4183H12.6394V28.739H12.7516V18.4183Z" fill="#004993"/>
<path d="M12.864 18.4183H12.7517V28.739H12.864V18.4183Z" fill="#074A95"/>
<path d="M12.9747 18.4183H12.8624V28.739H12.9747V18.4183Z" fill="#084B96"/>
<path d="M13.087 18.4183H12.9747V28.739H13.087V18.4183Z" fill="#084C97"/>
<path d="M13.1993 18.4183H13.087V28.739H13.1993V18.4183Z" fill="#0A4D98"/>
<path d="M13.3105 18.4184H13.1982V28.7391H13.3105V18.4184Z" fill="#0D4E98"/>
<path d="M13.4228 18.4184H13.3105V28.7391H13.4228V18.4184Z" fill="#0D4F99"/>
<path d="M13.5329 18.4183H13.4207V28.739H13.5329V18.4183Z" fill="#0D509A"/>
<path d="M13.6452 18.4183H13.533V28.739H13.6452V18.4183Z" fill="#0F519B"/>
<path d="M13.7575 18.4183H13.6453V28.739H13.7575V18.4183Z" fill="#0F529C"/>
<path d="M13.8698 18.4183H13.7576V28.739H13.8698V18.4183Z" fill="#0F539E"/>
<path d="M13.9805 18.4183H13.8683V28.739H13.9805V18.4183Z" fill="#0F549E"/>
<path d="M14.0928 18.4183H13.9806V28.739H14.0928V18.4183Z" fill="#14559F"/>
<path d="M14.2043 18.4183H14.092V28.739H14.2043V18.4183Z" fill="#1456A0"/>
<path d="M14.3166 18.4183H14.2043V28.739H14.3166V18.4183Z" fill="#1357A2"/>
<path d="M14.4277 18.4184H14.3154V28.7391H14.4277V18.4184Z" fill="#1558A2"/>
<path d="M14.539 18.4184H14.4268V28.7391H14.539V18.4184Z" fill="#1559A3"/>
<path d="M14.6513 18.4184H14.5391V28.7391H14.6513V18.4184Z" fill="#155BA5"/>
<path d="M14.7625 18.4183H14.6503V28.739H14.7625V18.4183Z" fill="#165BA6"/>
<path d="M14.8748 18.4183H14.7626V28.739H14.8748V18.4183Z" fill="#175CA6"/>
<path d="M14.9864 18.4183H14.8741V28.739H14.9864V18.4183Z" fill="#175DA7"/>
<path d="M15.0978 18.4183H14.9856V28.739H15.0978V18.4183Z" fill="#195EA8"/>
<path d="M15.2089 18.4184H15.0967V28.7391H15.2089V18.4184Z" fill="#195FA8"/>
<path d="M15.3212 18.4184H15.209V28.7391H15.3212V18.4184Z" fill="#1960A9"/>
<path d="M15.4335 18.4184H15.3213V28.7391H15.4335V18.4184Z" fill="#1761AA"/>
<path d="M15.5449 18.4184H15.4326V28.7391H15.5449V18.4184Z" fill="#1862AB"/>
<path d="M15.6572 18.4184H15.5449V28.7391H15.6572V18.4184Z" fill="#1A63AD"/>
<path d="M15.7684 18.4183H15.6561V28.739H15.7684V18.4183Z" fill="#1C64AD"/>
<path d="M15.8807 18.4183H15.7684V28.739H15.8807V18.4183Z" fill="#1B66AE"/>
<path d="M15.9914 18.4183H15.8792V28.739H15.9914V18.4183Z" fill="#1D66AF"/>
<path d="M16.1037 18.4183H15.9915V28.739H16.1037V18.4183Z" fill="#1D68B0"/>
<path d="M16.2148 18.4184H16.1025V28.7391H16.2148V18.4184Z" fill="#1E68B1"/>
<path d="M16.3271 18.4184H16.2148V28.7391H16.3271V18.4184Z" fill="#1E6AB2"/>
<path d="M16.4394 18.4184H16.3271V28.7391H16.4394V18.4184Z" fill="#1D6AB3"/>
<path d="M16.5507 18.4184H16.4385V28.7391H16.5507V18.4184Z" fill="#1D6CB4"/>
<path d="M16.663 18.4184H16.5508V28.7391H16.663V18.4184Z" fill="#1E6DB5"/>
<path d="M16.7734 18.4183H16.6611V28.739H16.7734V18.4183Z" fill="#1F6EB6"/>
<path d="M16.8857 18.4183H16.7734V28.739H16.8857V18.4183Z" fill="#206FB7"/>
<path d="M16.9971 18.4183H16.8849V28.739H16.9971V18.4183Z" fill="#1F70B7"/>
<path d="M17.1094 18.4183H16.9972V28.739H17.1094V18.4183Z" fill="#2371B8"/>
<path d="M17.2197 18.4184H17.1074V28.7391H17.2197V18.4184Z" fill="#2372B9"/>
<path d="M17.332 18.4184H17.2197V28.7391H17.332V18.4184Z" fill="#2573B9"/>
<path d="M17.4443 18.4184H17.332V28.7391H17.4443V18.4184Z" fill="#2473BA"/>
<path d="M17.5566 18.4184H17.4443V28.7391H17.5566V18.4184Z" fill="#2474BB"/>
<path d="M17.6689 18.4184H17.5566V28.7391H17.6689V18.4184Z" fill="#2675BB"/>
<path d="M17.7792 18.4183H17.667V28.739H17.7792V18.4183Z" fill="#2677BC"/>
<path d="M17.8915 18.4183H17.7793V28.739H17.8915V18.4183Z" fill="#2877BD"/>
<path d="M18.0009 18.4184H17.8887V28.7391H18.0009V18.4184Z" fill="#2978BD"/>
<path d="M18.1132 18.4184H18.001V28.7391H18.1132V18.4184Z" fill="#2779BE"/>
<path d="M18.2255 18.4184H18.1133V28.7391H18.2255V18.4184Z" fill="#297ABF"/>
<path d="M18.3378 18.4184H18.2256V28.7391H18.3378V18.4184Z" fill="#297BC0"/>
<path d="M18.4501 18.4184H18.3379V28.7391H18.4501V18.4184Z" fill="#287CC0"/>
<path d="M18.5613 18.4183H18.4491V28.739H18.5613V18.4183Z" fill="#2C7DC1"/>
<path d="M18.6736 18.4183H18.5614V28.739H18.6736V18.4183Z" fill="#2D7EC2"/>
<path d="M18.7851 18.4183H18.6729V28.739H18.7851V18.4183Z" fill="#2B7FC2"/>
<path d="M18.8974 18.4183H18.7852V28.739H18.8974V18.4183Z" fill="#2D80C3"/>
<path d="M19.0068 18.4184H18.8945V28.7391H19.0068V18.4184Z" fill="#2E81C4"/>
<path d="M19.1191 18.4184H19.0068V28.7391H19.1191V18.4184Z" fill="#2F82C4"/>
<path d="M19.2314 18.4184H19.1191V28.7391H19.2314V18.4184Z" fill="#3183C5"/>
<path d="M19.5588 18.4184H19.2314V28.7391H19.5588V18.4184Z" fill="#3183C5"/>
<path d="M19.886 18.4184H19.5586V28.7391H19.886V18.4184Z" fill="#3183C5"/>
<path d="M20.2119 18.4183H19.8845V28.739H20.2119V18.4183Z" fill="#2E84C6"/>
<path d="M20.5403 18.4184H20.2129V28.7391H20.5403V18.4184Z" fill="#2E84C6"/>
<path d="M20.8655 18.4183H20.5381V28.739H20.8655V18.4183Z" fill="#2D85C7"/>
<path d="M21.1933 18.4183H20.866V28.739H21.1933V18.4183Z" fill="#2E85C6"/>
<path d="M21.5196 18.4183H21.1923V28.739H21.5196V18.4183Z" fill="#2E85C5"/>
<path d="M21.8468 18.4183H21.5194V28.739H21.8468V18.4183Z" fill="#2D86C4"/>
<path d="M22.1732 18.4183H21.8458V28.739H22.1732V18.4183Z" fill="#2E86C3"/>
<path d="M22.5003 18.4183H22.173V28.739H22.5003V18.4183Z" fill="#2D87C3"/>
<path d="M22.8275 18.4183H22.5001V28.739H22.8275V18.4183Z" fill="#2D86C1"/>
<path d="M23.1526 18.4184H22.8252V28.7391H23.1526V18.4184Z" fill="#2E86C0"/>
<path d="M23.4797 18.4184H23.1523V28.7391H23.4797V18.4184Z" fill="#2D87C0"/>
<path d="M23.8069 18.4184H23.4795V28.7391H23.8069V18.4184Z" fill="#2D87BD"/>
<path d="M24.134 18.4184H23.8066V28.7391H24.134V18.4184Z" fill="#3087BC"/>
<path d="M24.4612 18.4184H24.1338V28.7391H24.4612V18.4184Z" fill="#2F88BB"/>
<path d="M24.7883 18.4184H24.4609V28.7391H24.7883V18.4184Z" fill="#3087B9"/>
<path d="M25.1155 18.4184H24.7881V28.7391H25.1155V18.4184Z" fill="#2E88B8"/>
<path d="M25.4426 18.4184H25.1152V28.7391H25.4426V18.4184Z" fill="#2D89B8"/>
<path d="M25.7688 18.4184H25.4414V28.7391H25.7688V18.4184Z" fill="#2E88B7"/>
<path d="M26.0959 18.4184H25.7686V28.7391H26.0959V18.4184Z" fill="#2C89B6"/>
<path d="M26.4231 18.4184H26.0957V28.7391H26.4231V18.4184Z" fill="#2C8AB5"/>
<path d="M26.749 18.4183H26.4216V28.739H26.749V18.4183Z" fill="#2C89B4"/>
<path d="M27.0774 18.4184H26.75V28.7391H27.0774V18.4184Z" fill="#2F89B2"/>
<path d="M27.4033 18.4183H27.0759V28.739H27.4033V18.4183Z" fill="#2C8BB2"/>
<path d="M27.7304 18.4183H27.4031V28.739H27.7304V18.4183Z" fill="#2D8BB1"/>
</g>
<mask id="mask11_178_4274" style="mask-type:luminance" maskUnits="userSpaceOnUse" x="7" y="6" width="18" height="9">
<path d="M24.8919 9.48537C24.4091 9.08968 23.9624 8.67756 23.4714 8.32884C17.7026 4.2311 9.70197 7.1547 7.99847 14.0633C7.9786 14.1408 7.96691 14.2207 7.94352 14.2982C7.93407 14.3435 7.91579 14.3866 7.88974 14.4248C7.86369 14.4631 7.83038 14.4958 7.79171 14.5211C7.75304 14.5464 7.70978 14.5638 7.66441 14.5723C7.61904 14.5808 7.57244 14.5802 7.5273 14.5706C7.48169 14.5618 7.43846 14.5434 7.40042 14.5167C7.36237 14.4899 7.33039 14.4554 7.30654 14.4154C7.2827 14.3754 7.26755 14.3308 7.26207 14.2845C7.25659 14.2382 7.26091 14.1912 7.27475 14.1467C7.38441 13.6947 7.52305 13.2504 7.68981 12.8164C9.24833 9.10964 11.9889 6.84355 15.9641 6.26822C19.3933 5.77156 22.349 6.87995 24.7902 9.35269C24.8263 9.39515 24.8603 9.43944 24.8919 9.48537Z" fill="white"/>
</mask>
<g mask="url(#mask11_178_4274)">
<path d="M9.42654 4.23109H7.2168V14.6117H9.42654V4.23109Z" fill="#0A478E"/>
<path d="M9.53802 4.23103H9.42578V14.6116H9.53802V4.23103Z" fill="#0A478E"/>
<path d="M9.65033 4.23103H9.53809V14.6116H9.65033V4.23103Z" fill="#074790"/>
<path d="M9.76263 4.23103H9.65039V14.6116H9.76263V4.23103Z" fill="#054891"/>
<path d="M9.87494 4.23103H9.7627V14.6116H9.87494V4.23103Z" fill="#004993"/>
<path d="M9.98602 4.23109H9.87378V14.6117H9.98602V4.23109Z" fill="#074A95"/>
<path d="M10.0983 4.23109H9.98608V14.6117H10.0983V4.23109Z" fill="#084B96"/>
<path d="M10.2106 4.23109H10.0984V14.6117H10.2106V4.23109Z" fill="#084C97"/>
<path d="M10.3229 4.23109H10.2107V14.6117H10.3229V4.23109Z" fill="#0A4D98"/>
<path d="M10.4352 4.23109H10.323V14.6117H10.4352V4.23109Z" fill="#0D4E98"/>
<path d="M10.5467 4.23109H10.4344V14.6117H10.5467V4.23109Z" fill="#0D4F99"/>
<path d="M10.659 4.23109H10.5468V14.6117H10.659V4.23109Z" fill="#0D509A"/>
<path d="M10.7713 4.23109H10.6591V14.6117H10.7713V4.23109Z" fill="#0F519B"/>
<path d="M10.8829 4.23109H10.7706V14.6117H10.8829V4.23109Z" fill="#0F529C"/>
<path d="M10.9952 4.23109H10.8829V14.6117H10.9952V4.23109Z" fill="#0F539E"/>
<path d="M11.1064 4.23103H10.9941V14.6116H11.1064V4.23103Z" fill="#0F549E"/>
<path d="M11.2189 4.23109H11.1067V14.6117H11.2189V4.23109Z" fill="#14559F"/>
<path d="M11.3312 4.23109H11.219V14.6117H11.3312V4.23109Z" fill="#1456A0"/>
<path d="M11.4435 4.23109H11.3313V14.6117H11.4435V4.23109Z" fill="#1357A2"/>
<path d="M11.5558 4.23109H11.4436V14.6117H11.5558V4.23109Z" fill="#1558A2"/>
<path d="M11.666 4.23103H11.5537V14.6116H11.666V4.23103Z" fill="#1559A3"/>
<path d="M11.7783 4.23103H11.666V14.6116H11.7783V4.23103Z" fill="#155BA5"/>
<path d="M11.8906 4.23103H11.7783V14.6116H11.8906V4.23103Z" fill="#165BA6"/>
<path d="M12.0029 4.23103H11.8906V14.6116H12.0029V4.23103Z" fill="#175CA6"/>
<path d="M12.1152 4.23103H12.0029V14.6116H12.1152V4.23103Z" fill="#175DA7"/>
<path d="M12.2264 4.23109H12.1141V14.6117H12.2264V4.23109Z" fill="#195EA8"/>
<path d="M12.3387 4.23109H12.2264V14.6117H12.3387V4.23109Z" fill="#195FA8"/>
<path d="M12.451 4.23109H12.3387V14.6117H12.451V4.23109Z" fill="#1960A9"/>
<path d="M12.5633 4.23109H12.451V14.6117H12.5633V4.23109Z" fill="#1761AA"/>
<path d="M12.6756 4.23109H12.5634V14.6117H12.6756V4.23109Z" fill="#1862AB"/>
<path d="M12.7863 4.23109H12.6741V14.6117H12.7863V4.23109Z" fill="#1A63AD"/>
<path d="M12.8986 4.23109H12.7864V14.6117H12.8986V4.23109Z" fill="#1C64AD"/>
<path d="M13.0109 4.23109H12.8987V14.6117H13.0109V4.23109Z" fill="#1B66AE"/>
<path d="M13.1232 4.23109H13.011V14.6117H13.1232V4.23109Z" fill="#1D66AF"/>
<path d="M13.2355 4.23109H13.1233V14.6117H13.2355V4.23109Z" fill="#1D68B0"/>
<path d="M13.3466 4.23103H13.2344V14.6116H13.3466V4.23103Z" fill="#1E68B1"/>
<path d="M13.4579 4.23103H13.3457V14.6116H13.4579V4.23103Z" fill="#1E6AB2"/>
<path d="M13.5703 4.23103H13.458V14.6116H13.5703V4.23103Z" fill="#1D6AB3"/>
<path d="M13.6826 4.23103H13.5703V14.6116H13.6826V4.23103Z" fill="#1D6CB4"/>
<path d="M13.7949 4.23103H13.6826V14.6116H13.7949V4.23103Z" fill="#1E6DB5"/>
<path d="M13.9072 4.23103H13.7949V14.6116H13.9072V4.23103Z" fill="#1F6EB6"/>
<path d="M14.0195 4.23103H13.9072V14.6116H14.0195V4.23103Z" fill="#206FB7"/>
<path d="M14.1318 4.23103H14.0195V14.6116H14.1318V4.23103Z" fill="#1F70B7"/>
<path d="M14.2441 4.23103H14.1318V14.6116H14.2441V4.23103Z" fill="#2371B8"/>
<path d="M14.3553 4.23109H14.243V14.6117H14.3553V4.23109Z" fill="#2372B9"/>
<path d="M14.4667 4.23109H14.3545V14.6117H14.4667V4.23109Z" fill="#2573B9"/>
<path d="M14.579 4.23109H14.4668V14.6117H14.579V4.23109Z" fill="#2473BA"/>
<path d="M14.6913 4.23109H14.5791V14.6117H14.6913V4.23109Z" fill="#2474BB"/>
<path d="M14.8036 4.23109H14.6914V14.6117H14.8036V4.23109Z" fill="#2675BB"/>
<path d="M14.916 4.23109H14.8037V14.6117H14.916V4.23109Z" fill="#2677BC"/>
<path d="M15.0263 4.23103H14.9141V14.6116H15.0263V4.23103Z" fill="#2877BD"/>
<path d="M15.1386 4.23103H15.0264V14.6116H15.1386V4.23103Z" fill="#2978BD"/>
<path d="M15.2509 4.23103H15.1387V14.6116H15.2509V4.23103Z" fill="#2779BE"/>
<path d="M15.3632 4.23103H15.251V14.6116H15.3632V4.23103Z" fill="#297ABF"/>
<path d="M15.4755 4.23103H15.3633V14.6116H15.4755V4.23103Z" fill="#297BC0"/>
<path d="M15.5868 4.23103H15.4746V14.6116H15.5868V4.23103Z" fill="#287CC0"/>
<path d="M15.6992 4.23103H15.5869V14.6116H15.6992V4.23103Z" fill="#2C7DC1"/>
<path d="M15.8115 4.23103H15.6992V14.6116H15.8115V4.23103Z" fill="#2D7EC2"/>
<path d="M15.9238 4.23103H15.8115V14.6116H15.9238V4.23103Z" fill="#2B7FC2"/>
<path d="M16.0361 4.23103H15.9238V14.6116H16.0361V4.23103Z" fill="#2D80C3"/>
<path d="M16.1472 4.23109H16.0349V14.6117H16.1472V4.23109Z" fill="#2E81C4"/>
<path d="M16.2595 4.23109H16.1472V14.6117H16.2595V4.23109Z" fill="#2F82C4"/>
<path d="M16.3718 4.23109H16.2595V14.6117H16.3718V4.23109Z" fill="#3183C5"/>
<path d="M16.6985 4.23109H16.3711V14.6117H16.6985V4.23109Z" fill="#3183C5"/>
<path d="M17.0263 4.23109H16.699V14.6117H17.0263V4.23109Z" fill="#3183C5"/>
<path d="M17.3535 4.23109H17.0261V14.6117H17.3535V4.23109Z" fill="#2E84C6"/>
<path d="M17.6819 4.23103H17.3545V14.6116H17.6819V4.23103Z" fill="#2E84C6"/>
<path d="M18.009 4.23103H17.6816V14.6116H18.009V4.23103Z" fill="#2D85C7"/>
<path d="M18.3362 4.23103H18.0088V14.6116H18.3362V4.23103Z" fill="#2E85C6"/>
<path d="M18.6633 4.23103H18.3359V14.6116H18.6633V4.23103Z" fill="#2E85C5"/>
<path d="M18.9925 4.23109H18.6652V14.6117H18.9925V4.23109Z" fill="#2D86C4"/>
<path d="M19.3197 4.23109H18.9923V14.6117H19.3197V4.23109Z" fill="#2E86C3"/>
<path d="M19.6476 4.23109H19.3202V14.6117H19.6476V4.23109Z" fill="#2D87C3"/>
<path d="M19.9768 4.23103H19.6494V14.6116H19.9768V4.23103Z" fill="#2D86C1"/>
<path d="M20.3039 4.23103H19.9766V14.6116H20.3039V4.23103Z" fill="#2E86C0"/>
<path d="M20.6311 4.23103H20.3037V14.6116H20.6311V4.23103Z" fill="#2D87C0"/>
<path d="M20.9582 4.23103H20.6309V14.6116H20.9582V4.23103Z" fill="#2D87BD"/>
<path d="M21.2866 4.23109H20.9592V14.6117H21.2866V4.23109Z" fill="#3087BC"/>
<path d="M21.6137 4.23109H21.2864V14.6117H21.6137V4.23109Z" fill="#2F88BB"/>
<path d="M21.9409 4.23109H21.6135V14.6117H21.9409V4.23109Z" fill="#3087B9"/>
<path d="M22.2696 4.23109H21.9423V14.6117H22.2696V4.23109Z" fill="#2E88B8"/>
<path d="M22.5979 4.23103H22.2705V14.6116H22.5979V4.23103Z" fill="#2D89B8"/>
<path d="M22.925 4.23103H22.5977V14.6116H22.925V4.23103Z" fill="#2E88B7"/>
<path d="M23.2522 4.23103H22.9248V14.6116H23.2522V4.23103Z" fill="#2C89B6"/>
<path d="M23.5803 4.23103H23.2529V14.6116H23.5803V4.23103Z" fill="#2C8AB5"/>
<path d="M23.9075 4.23103H23.5801V14.6116H23.9075V4.23103Z" fill="#2C89B4"/>
<path d="M24.2357 4.23109H23.9083V14.6117H24.2357V4.23109Z" fill="#2F89B2"/>
<path d="M24.5637 4.23109H24.2363V14.6117H24.5637V4.23109Z" fill="#2C8BB2"/>
<path d="M24.8908 4.23109H24.5635V14.6117H24.8908V4.23109Z" fill="#2D8BB1"/>
</g>
<path d="M15.5591 11.1772H17.6075L20.3025 19.1026L24.5957 11.1772H26.6885L25.5591 21.9159H23.4955L24.128 15.7446L20.935 21.9159H19.1578L17.1398 15.7751L16.4921 21.9159H14.4297L15.5591 11.1772Z" fill="#2CABCB"/>
<path d="M16.6272 14.3487C16.6272 16.677 14.8793 18.3255 12.4252 18.3255H10.6925L10.3312 21.7775H8.26758L9.39817 11.0388H13.1781C15.3318 11.0353 16.6412 12.3069 16.6272 14.3487ZM12.8016 12.9397H11.2653L10.9041 16.4175H12.424C13.6131 16.4175 14.5285 15.888 14.5285 14.5577C14.5484 13.3953 13.8574 12.9421 12.8052 12.9421L12.8016 12.9397Z" fill="#074F7F"/>
</svg>
