<svg width="30" height="30" viewBox="0 0 30 30" fill="none" xmlns="http://www.w3.org/2000/svg">
<path d="M8.73272 27.5087C8.48309 28.007 8.68353 28.6166 9.19742 28.8322C12.012 30.013 15.1285 30.31 18.1293 29.67C21.4599 28.9595 24.4496 27.1369 26.6068 24.5017C28.764 21.8666 29.9603 18.5758 29.999 15.1705C30.0377 11.7652 28.9165 8.44807 26.8198 5.76457C24.723 3.08107 21.7755 1.19093 18.4619 0.40496C15.1483 -0.381014 11.6659 -0.0160401 8.58729 1.43987C5.50866 2.89578 3.01709 5.35596 1.52227 8.41587C0.175488 11.1727 -0.289974 14.2686 0.175076 17.2852C0.259985 17.836 0.803096 18.1779 1.34692 18.0562C1.89074 17.9344 2.22878 17.3951 2.14963 16.8434C1.78117 14.2752 2.18995 11.6468 3.33556 9.3017C4.62927 6.65346 6.78563 4.52428 9.45005 3.26425C12.1145 2.00421 15.1284 1.68834 17.9961 2.36857C20.8639 3.0488 23.4149 4.68464 25.2295 7.0071C27.0442 9.32956 28.0146 12.2004 27.9811 15.1476C27.9476 18.0947 26.9122 20.9427 25.0452 23.2234C23.1782 25.504 20.5907 27.0814 17.7083 27.6963C15.1557 28.2407 12.5065 28.0017 10.1036 27.0231C9.58745 26.8129 8.98236 27.0105 8.73272 27.5087Z" fill="#024089"/>
<path d="M2.09241 20.3982C1.57828 20.6132 1.33274 21.2062 1.58183 21.7047C2.1785 22.8988 2.93193 24.008 3.8221 25.0027C4.19373 25.418 4.83541 25.4083 5.22478 25.0096C5.61414 24.6109 5.60324 23.9745 5.23598 23.5553C4.5345 22.7548 3.93413 21.8709 3.44842 20.9238C3.19413 20.4279 2.60654 20.1832 2.09241 20.3982Z" fill="#024089"/>
<path d="M14.816 8C16.7627 8 18.256 8.37333 19.296 9.12C20.3493 9.85333 20.876 10.9533 20.876 12.42C20.876 13.22 20.7293 13.9067 20.436 14.48C20.156 15.04 19.7427 15.5 19.196 15.86C18.6627 16.2067 18.0093 16.46 17.236 16.62C16.4627 16.78 15.5893 16.86 14.616 16.86H13.076V22H11.136V8.34C11.6827 8.20667 12.2893 8.12 12.956 8.08C13.636 8.02667 14.256 8 14.816 8ZM14.976 9.7C14.1493 9.7 13.516 9.72 13.076 9.76V15.2H14.536C15.2027 15.2 15.8027 15.16 16.336 15.08C16.8693 14.9867 17.316 14.84 17.676 14.64C18.0493 14.4267 18.336 14.14 18.536 13.78C18.736 13.42 18.836 12.96 18.836 12.4C18.836 11.8667 18.7293 11.4267 18.516 11.08C18.316 10.7333 18.036 10.46 17.676 10.26C17.3293 10.0467 16.9227 9.9 16.456 9.82C15.9893 9.74 15.496 9.7 14.976 9.7Z" fill="#024089"/>
</svg>
