<svg width="30" height="30" viewBox="0 0 30 30" fill="none" xmlns="http://www.w3.org/2000/svg">
<g id="react-icons/fi/FiPrinter">
<path id="Vector (Stroke)" fill-rule="evenodd" clip-rule="evenodd" d="M6.25 2.5C6.25 1.80964 6.80964 1.25 7.5 1.25H22.5C23.1904 1.25 23.75 1.80964 23.75 2.5V11.25C23.75 11.9404 23.1904 12.5 22.5 12.5C21.8096 12.5 21.25 11.9404 21.25 11.25V3.75H8.75V11.25C8.75 11.9404 8.19036 12.5 7.5 12.5C6.80964 12.5 6.25 11.9404 6.25 11.25V2.5Z" fill="#024089"/>
<path id="Vector (Stroke)_2" fill-rule="evenodd" clip-rule="evenodd" d="M5 12.5C4.66848 12.5 4.35054 12.6317 4.11612 12.8661C3.8817 13.1005 3.75 13.4185 3.75 13.75V20C3.75 20.3315 3.8817 20.6495 4.11612 20.8839C4.35054 21.1183 4.66848 21.25 5 21.25H7.5C8.19036 21.25 8.75 21.8096 8.75 22.5C8.75 23.1904 8.19036 23.75 7.5 23.75H5C4.00544 23.75 3.05161 23.3549 2.34835 22.6516C1.64509 21.9484 1.25 20.9946 1.25 20V13.75C1.25 12.7554 1.64509 11.8016 2.34835 11.0984C3.05161 10.3951 4.00544 10 5 10H25C25.9946 10 26.9484 10.3951 27.6517 11.0984C28.3549 11.8016 28.75 12.7554 28.75 13.75V20C28.75 20.9946 28.3549 21.9484 27.6517 22.6516C26.9484 23.3549 25.9946 23.75 25 23.75H22.5C21.8096 23.75 21.25 23.1904 21.25 22.5C21.25 21.8096 21.8096 21.25 22.5 21.25H25C25.3315 21.25 25.6495 21.1183 25.8839 20.8839C26.1183 20.6495 26.25 20.3315 26.25 20V13.75C26.25 13.4185 26.1183 13.1005 25.8839 12.8661C25.6495 12.6317 25.3315 12.5 25 12.5H5Z" fill="#024089"/>
<path id="Vector (Stroke)_3" fill-rule="evenodd" clip-rule="evenodd" d="M6.25 17.5C6.25 16.8096 6.80964 16.25 7.5 16.25H22.5C23.1904 16.25 23.75 16.8096 23.75 17.5V27.5C23.75 28.1904 23.1904 28.75 22.5 28.75H7.5C6.80964 28.75 6.25 28.1904 6.25 27.5V17.5ZM8.75 18.75V26.25H21.25V18.75H8.75Z" fill="#024089"/>
</g>
</svg>
