<svg width="36" height="36" viewBox="0 0 36 36" fill="none" xmlns="http://www.w3.org/2000/svg">
<path d="M4.35043 11.6396L5.67043 9.35325C6.45043 8.00226 8.19961 7.52259 9.56361 8.31009C11.9149 9.66759 13.8361 8.55981 13.8315 5.83782C13.831 4.27869 15.1113 2.99131 16.6833 2.99832L19.6732 3.00976C21.0519 2.99172 22.167 4.12045 22.185 5.49919L22.1854 5.8285C22.177 8.54299 24.0996 9.65299 26.4592 8.296L26.7445 8.13169C27.9477 7.45795 29.4826 7.85922 30.1564 9.06226L31.6613 11.6458C32.4534 13.0038 31.9786 14.7562 30.628 15.5353C28.2684 16.8924 28.2697 19.1101 30.621 20.4676C31.972 21.2476 32.4518 22.9968 31.6643 24.3607L30.3442 26.647C29.5642 27.9981 27.8149 28.4778 26.451 27.6903C24.0997 26.3328 22.1784 27.4405 22.183 30.1624C22.1761 31.7346 20.9034 33.009 19.3312 33.0021L16.3414 32.9905C14.9627 33.0087 13.8477 31.8799 13.8296 30.5011L13.8292 30.1719C13.8376 27.4573 11.915 26.3473 9.55539 27.7044L9.27 27.8686C8.06695 28.5424 6.53193 28.1412 5.85819 26.938L4.35336 24.3546C3.56122 22.9965 4.03603 21.2442 5.38653 20.4649C7.74615 19.108 7.74486 16.8903 5.39361 15.5328C4.02961 14.7452 3.57043 12.9906 4.35043 11.6396Z" stroke="#024089" stroke-width="1.5" stroke-miterlimit="10" stroke-linecap="round" stroke-linejoin="round"/>
<path d="M22.875 18C22.875 15.3076 20.6924 13.125 18 13.125C15.3076 13.125 13.125 15.3076 13.125 18C13.125 20.6924 15.3076 22.875 18 22.875C20.6924 22.875 22.875 20.6924 22.875 18Z" stroke="#024089" stroke-width="1.5"/>
</svg>
