<svg width="31" height="31" viewBox="0 0 31 31" fill="none" xmlns="http://www.w3.org/2000/svg">
<path fill-rule="evenodd" clip-rule="evenodd" d="M15.5 3.83335C12.4058 3.83335 9.4383 5.06252 7.25038 7.25044C5.06246 9.43836 3.83329 12.4058 3.83329 15.5C3.83329 17.0321 4.13506 18.5492 4.72136 19.9647C5.30767 21.3801 6.16703 22.6662 7.25038 23.7496C8.33373 24.8329 9.61985 25.6923 11.0353 26.2786C12.4508 26.8649 13.9679 27.1667 15.5 27.1667C17.032 27.1667 18.5491 26.8649 19.9646 26.2786C21.3801 25.6923 22.6662 24.8329 23.7495 23.7496C24.8329 22.6662 25.6922 21.3801 26.2786 19.9647C26.8649 18.5492 27.1666 17.0321 27.1666 15.5C27.1666 12.4058 25.9375 9.43836 23.7495 7.25044C21.5616 5.06252 18.5942 3.83335 15.5 3.83335ZM5.18798 5.18805C7.92289 2.45314 11.6322 0.916687 15.5 0.916687C19.3677 0.916687 23.077 2.45314 25.8119 5.18805C28.5468 7.92295 30.0833 11.6323 30.0833 15.5C30.0833 17.4151 29.7061 19.3115 28.9732 21.0808C28.2403 22.8502 27.1661 24.4578 25.8119 25.812C24.4577 27.1662 22.8501 28.2404 21.0808 28.9733C19.3114 29.7061 17.4151 30.0834 15.5 30.0834C13.5848 30.0834 11.6885 29.7061 9.91916 28.9733C8.14983 28.2404 6.54217 27.1662 5.18798 25.812C3.8338 24.4578 2.7596 22.8502 2.02672 21.0808C1.29383 19.3115 0.916626 17.4151 0.916626 15.5C0.916626 11.6323 2.45308 7.92295 5.18798 5.18805ZM8.20829 15.5C8.20829 14.6946 8.86121 14.0417 9.66663 14.0417H9.68121C10.4866 14.0417 11.1395 14.6946 11.1395 15.5C11.1395 16.3054 10.4866 16.9584 9.68121 16.9584H9.66663C8.86121 16.9584 8.20829 16.3054 8.20829 15.5ZM14.0416 15.5C14.0416 14.6946 14.6945 14.0417 15.5 14.0417H15.5145C16.32 14.0417 16.9729 14.6946 16.9729 15.5C16.9729 16.3054 16.32 16.9584 15.5145 16.9584H15.5C14.6945 16.9584 14.0416 16.3054 14.0416 15.5ZM19.875 15.5C19.875 14.6946 20.5279 14.0417 21.3333 14.0417H21.3479C22.1533 14.0417 22.8062 14.6946 22.8062 15.5C22.8062 16.3054 22.1533 16.9584 21.3479 16.9584H21.3333C20.5279 16.9584 19.875 16.3054 19.875 15.5Z" fill="#024089"/>
</svg>
