<svg width="24" height="24" viewBox="0 0 24 24" fill="none" xmlns="http://www.w3.org/2000/svg">
<path d="M17.75 6.75C17.75 9.92428 15.1743 12.5 12 12.5C8.82572 12.5 6.25 9.92428 6.25 6.75C6.25 3.57572 8.82572 1 12 1C15.1743 1 17.75 3.57572 17.75 6.75ZM12 16.75C13.289 16.75 14.5169 16.479 15.6294 16H18C20.7618 16 23 18.2382 23 21V21.75C23 22.4399 22.4399 23 21.75 23H2.25C1.5601 23 1 22.4399 1 21.75V21C1 18.2382 3.23822 16 6 16H8.37129C9.48608 16.4785 10.7097 16.75 12 16.75Z" fill="white" stroke="#024089" stroke-width="2"/>
</svg>
