<svg width="32" height="32" viewBox="0 0 32 32" fill="none" xmlns="http://www.w3.org/2000/svg">
<g clip-path="url(#clip0_1932_3977)">
<path d="M16 17.25C19.1055 17.25 21.625 14.7305 21.625 11.625C21.625 8.51953 19.1055 6 16 6C12.8945 6 10.375 8.51953 10.375 11.625C10.375 14.7305 12.8945 17.25 16 17.25ZM21 18.5H18.8477C17.9805 18.8984 17.0156 19.125 16 19.125C14.9844 19.125 14.0234 18.8984 13.1523 18.5H11C8.23828 18.5 6 20.7383 6 23.5V24.125C6 25.1602 6.83984 26 7.875 26H24.125C25.1602 26 26 25.1602 26 24.125V23.5C26 20.7383 23.7617 18.5 21 18.5Z" fill="#024089"/>
<circle cx="16" cy="16" r="15.5" stroke="#024089"/>
</g>
<defs>
<clipPath id="clip0_1932_3977">
<rect width="32" height="32" fill="white"/>
</clipPath>
</defs>
</svg>
