<svg width="56" height="55" viewBox="0 0 56 55" fill="none" xmlns="http://www.w3.org/2000/svg">
<path d="M23.6896 9.30579C25.6226 6.01761 30.3774 6.0176 32.3104 9.30579L46.0721 32.7161C48.0315 36.0493 45.6282 40.25 41.7617 40.25H14.2383C10.3718 40.25 7.96848 36.0493 9.92788 32.7161L23.6896 9.30579Z" fill="#FBC531" stroke="#353B48" stroke-width="2"/>
<path d="M28.75 18.4545L28.608 28.9091H26.9602L26.8182 18.4545H28.75ZM27.7841 33.1136C27.4337 33.1136 27.133 32.9882 26.8821 32.7372C26.6312 32.4863 26.5057 32.1856 26.5057 31.8352C26.5057 31.4848 26.6312 31.1842 26.8821 30.9332C27.133 30.6823 27.4337 30.5568 27.7841 30.5568C28.1345 30.5568 28.4351 30.6823 28.6861 30.9332C28.937 31.1842 29.0625 31.4848 29.0625 31.8352C29.0625 32.0672 29.0033 32.2803 28.8849 32.4744C28.7713 32.6686 28.6174 32.8248 28.4233 32.9432C28.2339 33.0568 28.0208 33.1136 27.7841 33.1136Z" fill="#353B48"/>
</svg>
